%TF.GenerationSoftware,KiCad,Pcbnew,9.0.4*%
%TF.CreationDate,2026-05-28T23:58:03-05:00*%
%TF.ProjectId,Cascaded_Proj,43617363-6164-4656-945f-50726f6a2e6b,rev?*%
%TF.SameCoordinates,Original*%
%TF.FileFunction,Copper,L1,Top*%
%TF.FilePolarity,Positive*%
%FSLAX46Y46*%
G04 Gerber Fmt 4.6, Leading zero omitted, Abs format (unit mm)*
G04 Created by KiCad (PCBNEW 9.0.4) date 2026-05-28 23:58:03*
%MOMM*%
%LPD*%
G01*
G04 APERTURE LIST*
G04 Aperture macros list*
%AMRoundRect*
0 Rectangle with rounded corners*
0 $1 Rounding radius*
0 $2 $3 $4 $5 $6 $7 $8 $9 X,Y pos of 4 corners*
0 Add a 4 corners polygon primitive as box body*
4,1,4,$2,$3,$4,$5,$6,$7,$8,$9,$2,$3,0*
0 Add four circle primitives for the rounded corners*
1,1,$1+$1,$2,$3*
1,1,$1+$1,$4,$5*
1,1,$1+$1,$6,$7*
1,1,$1+$1,$8,$9*
0 Add four rect primitives between the rounded corners*
20,1,$1+$1,$2,$3,$4,$5,0*
20,1,$1+$1,$4,$5,$6,$7,0*
20,1,$1+$1,$6,$7,$8,$9,0*
20,1,$1+$1,$8,$9,$2,$3,0*%
G04 Aperture macros list end*
%TA.AperFunction,SMDPad,CuDef*%
%ADD10RoundRect,0.225000X0.250000X-0.225000X0.250000X0.225000X-0.250000X0.225000X-0.250000X-0.225000X0*%
%TD*%
%TA.AperFunction,SMDPad,CuDef*%
%ADD11RoundRect,0.150000X0.150000X-0.587500X0.150000X0.587500X-0.150000X0.587500X-0.150000X-0.587500X0*%
%TD*%
%TA.AperFunction,SMDPad,CuDef*%
%ADD12RoundRect,0.225000X-0.250000X0.225000X-0.250000X-0.225000X0.250000X-0.225000X0.250000X0.225000X0*%
%TD*%
%TA.AperFunction,SMDPad,CuDef*%
%ADD13RoundRect,0.200000X-0.275000X0.200000X-0.275000X-0.200000X0.275000X-0.200000X0.275000X0.200000X0*%
%TD*%
%TA.AperFunction,SMDPad,CuDef*%
%ADD14RoundRect,0.225000X0.225000X0.250000X-0.225000X0.250000X-0.225000X-0.250000X0.225000X-0.250000X0*%
%TD*%
%TA.AperFunction,SMDPad,CuDef*%
%ADD15RoundRect,0.200000X0.275000X-0.200000X0.275000X0.200000X-0.275000X0.200000X-0.275000X-0.200000X0*%
%TD*%
%TA.AperFunction,SMDPad,CuDef*%
%ADD16RoundRect,0.243750X0.243750X0.456250X-0.243750X0.456250X-0.243750X-0.456250X0.243750X-0.456250X0*%
%TD*%
%TA.AperFunction,SMDPad,CuDef*%
%ADD17RoundRect,0.250000X0.262500X0.450000X-0.262500X0.450000X-0.262500X-0.450000X0.262500X-0.450000X0*%
%TD*%
%TA.AperFunction,SMDPad,CuDef*%
%ADD18R,0.270000X0.960000*%
%TD*%
%TA.AperFunction,SMDPad,CuDef*%
%ADD19R,0.280000X0.850000*%
%TD*%
%TA.AperFunction,SMDPad,CuDef*%
%ADD20R,0.385000X0.900000*%
%TD*%
%TA.AperFunction,SMDPad,CuDef*%
%ADD21R,0.500000X0.950000*%
%TD*%
%TA.AperFunction,SMDPad,CuDef*%
%ADD22R,0.340000X0.850000*%
%TD*%
%TA.AperFunction,SMDPad,CuDef*%
%ADD23R,0.330000X0.970000*%
%TD*%
%TA.AperFunction,SMDPad,CuDef*%
%ADD24RoundRect,0.087500X-0.725000X-0.087500X0.725000X-0.087500X0.725000X0.087500X-0.725000X0.087500X0*%
%TD*%
%TA.AperFunction,SMDPad,CuDef*%
%ADD25RoundRect,0.200000X0.200000X0.275000X-0.200000X0.275000X-0.200000X-0.275000X0.200000X-0.275000X0*%
%TD*%
%TA.AperFunction,SMDPad,CuDef*%
%ADD26RoundRect,0.200000X-0.200000X-0.275000X0.200000X-0.275000X0.200000X0.275000X-0.200000X0.275000X0*%
%TD*%
%TA.AperFunction,ComponentPad*%
%ADD27C,3.000000*%
%TD*%
%TA.AperFunction,SMDPad,CuDef*%
%ADD28RoundRect,0.150000X-0.587500X-0.150000X0.587500X-0.150000X0.587500X0.150000X-0.587500X0.150000X0*%
%TD*%
%TA.AperFunction,ComponentPad*%
%ADD29RoundRect,0.250001X-0.949999X0.949999X-0.949999X-0.949999X0.949999X-0.949999X0.949999X0.949999X0*%
%TD*%
%TA.AperFunction,ComponentPad*%
%ADD30C,2.400000*%
%TD*%
%TA.AperFunction,SMDPad,CuDef*%
%ADD31RoundRect,0.375000X0.625000X0.375000X-0.625000X0.375000X-0.625000X-0.375000X0.625000X-0.375000X0*%
%TD*%
%TA.AperFunction,SMDPad,CuDef*%
%ADD32RoundRect,0.500000X0.500000X1.400000X-0.500000X1.400000X-0.500000X-1.400000X0.500000X-1.400000X0*%
%TD*%
%TA.AperFunction,ComponentPad*%
%ADD33RoundRect,0.249999X-1.550001X0.790001X-1.550001X-0.790001X1.550001X-0.790001X1.550001X0.790001X0*%
%TD*%
%TA.AperFunction,ComponentPad*%
%ADD34O,3.600000X2.080000*%
%TD*%
%TA.AperFunction,SMDPad,CuDef*%
%ADD35R,2.000000X0.600000*%
%TD*%
%TA.AperFunction,SMDPad,CuDef*%
%ADD36RoundRect,0.225000X-0.225000X-0.250000X0.225000X-0.250000X0.225000X0.250000X-0.225000X0.250000X0*%
%TD*%
%TA.AperFunction,SMDPad,CuDef*%
%ADD37RoundRect,0.150000X0.150000X-0.825000X0.150000X0.825000X-0.150000X0.825000X-0.150000X-0.825000X0*%
%TD*%
%TA.AperFunction,ComponentPad*%
%ADD38RoundRect,0.250000X-0.550000X-0.550000X0.550000X-0.550000X0.550000X0.550000X-0.550000X0.550000X0*%
%TD*%
%TA.AperFunction,ComponentPad*%
%ADD39C,1.600000*%
%TD*%
%TA.AperFunction,SMDPad,CuDef*%
%ADD40RoundRect,0.150000X-0.150000X0.825000X-0.150000X-0.825000X0.150000X-0.825000X0.150000X0.825000X0*%
%TD*%
%TA.AperFunction,SMDPad,CuDef*%
%ADD41R,1.200000X1.400000*%
%TD*%
%TA.AperFunction,SMDPad,CuDef*%
%ADD42RoundRect,0.150000X0.587500X0.150000X-0.587500X0.150000X-0.587500X-0.150000X0.587500X-0.150000X0*%
%TD*%
%TA.AperFunction,SMDPad,CuDef*%
%ADD43RoundRect,0.150000X0.875000X0.150000X-0.875000X0.150000X-0.875000X-0.150000X0.875000X-0.150000X0*%
%TD*%
%TA.AperFunction,ComponentPad*%
%ADD44RoundRect,0.249999X0.790001X1.550001X-0.790001X1.550001X-0.790001X-1.550001X0.790001X-1.550001X0*%
%TD*%
%TA.AperFunction,ComponentPad*%
%ADD45O,2.080000X3.600000*%
%TD*%
%TA.AperFunction,ComponentPad*%
%ADD46R,1.700000X1.700000*%
%TD*%
%TA.AperFunction,ComponentPad*%
%ADD47C,1.700000*%
%TD*%
%TA.AperFunction,SMDPad,CuDef*%
%ADD48R,2.200000X0.600000*%
%TD*%
%TA.AperFunction,SMDPad,CuDef*%
%ADD49RoundRect,0.250000X-0.500000X-1.100000X0.500000X-1.100000X0.500000X1.100000X-0.500000X1.100000X0*%
%TD*%
%TA.AperFunction,SMDPad,CuDef*%
%ADD50RoundRect,0.250000X-0.450000X0.262500X-0.450000X-0.262500X0.450000X-0.262500X0.450000X0.262500X0*%
%TD*%
%TA.AperFunction,SMDPad,CuDef*%
%ADD51RoundRect,0.150000X-0.150000X0.587500X-0.150000X-0.587500X0.150000X-0.587500X0.150000X0.587500X0*%
%TD*%
%TA.AperFunction,SMDPad,CuDef*%
%ADD52RoundRect,0.243750X-0.456250X0.243750X-0.456250X-0.243750X0.456250X-0.243750X0.456250X0.243750X0*%
%TD*%
%TA.AperFunction,SMDPad,CuDef*%
%ADD53RoundRect,0.150000X-0.825000X-0.150000X0.825000X-0.150000X0.825000X0.150000X-0.825000X0.150000X0*%
%TD*%
%TA.AperFunction,ComponentPad*%
%ADD54RoundRect,0.250000X0.550000X0.550000X-0.550000X0.550000X-0.550000X-0.550000X0.550000X-0.550000X0*%
%TD*%
%TA.AperFunction,SMDPad,CuDef*%
%ADD55RoundRect,0.250000X0.450000X-0.262500X0.450000X0.262500X-0.450000X0.262500X-0.450000X-0.262500X0*%
%TD*%
%TA.AperFunction,ComponentPad*%
%ADD56RoundRect,0.250000X-0.550000X0.550000X-0.550000X-0.550000X0.550000X-0.550000X0.550000X0.550000X0*%
%TD*%
%TA.AperFunction,ComponentPad*%
%ADD57RoundRect,0.249999X-0.790001X-1.550001X0.790001X-1.550001X0.790001X1.550001X-0.790001X1.550001X0*%
%TD*%
%TA.AperFunction,SMDPad,CuDef*%
%ADD58RoundRect,0.250000X1.375000X2.500000X-1.375000X2.500000X-1.375000X-2.500000X1.375000X-2.500000X0*%
%TD*%
%TA.AperFunction,SMDPad,CuDef*%
%ADD59R,0.600000X2.200000*%
%TD*%
%TA.AperFunction,ViaPad*%
%ADD60C,0.600000*%
%TD*%
%TA.AperFunction,Conductor*%
%ADD61C,0.500000*%
%TD*%
%TA.AperFunction,Conductor*%
%ADD62C,1.000000*%
%TD*%
%TA.AperFunction,Conductor*%
%ADD63C,0.200000*%
%TD*%
G04 APERTURE END LIST*
D10*
%TO.P,C27,1*%
%TO.N,+12V*%
X50500000Y-4050000D03*
%TO.P,C27,2*%
%TO.N,GND*%
X50500000Y-2500000D03*
%TD*%
D11*
%TO.P,Q5,3,D*%
%TO.N,Net-(Q5-D)*%
X49500000Y-20000000D03*
%TO.P,Q5,2,S*%
%TO.N,GND*%
X50450000Y-21875000D03*
%TO.P,Q5,1,G*%
%TO.N,Net-(Q5-G)*%
X48550000Y-21875000D03*
%TD*%
D12*
%TO.P,C26,1*%
%TO.N,+12V*%
X87000000Y-50225000D03*
%TO.P,C26,2*%
%TO.N,GND*%
X87000000Y-51775000D03*
%TD*%
D13*
%TO.P,R49,1*%
%TO.N,+3.3V*%
X70525000Y-14665000D03*
%TO.P,R49,2*%
%TO.N,3V3_FB*%
X70525000Y-16315000D03*
%TD*%
D14*
%TO.P,C10,1*%
%TO.N,GND*%
X111400000Y-23950000D03*
%TO.P,C10,2*%
%TO.N,Net-(U13A-+)*%
X109850000Y-23950000D03*
%TD*%
D15*
%TO.P,R21,1*%
%TO.N,V_FEEDBACK*%
X44625000Y-32275000D03*
%TO.P,R21,2*%
%TO.N,GND*%
X44625000Y-30625000D03*
%TD*%
D16*
%TO.P,D2,1,K*%
%TO.N,GND*%
X100537500Y-35005000D03*
%TO.P,D2,2,A*%
%TO.N,Net-(D2-A)*%
X98662500Y-35005000D03*
%TD*%
D17*
%TO.P,R7,1*%
%TO.N,Net-(R6-Pad2)*%
X83037500Y-54950000D03*
%TO.P,R7,2*%
%TO.N,Net-(Q1-D)*%
X81212500Y-54950000D03*
%TD*%
D18*
%TO.P,T1,1*%
%TO.N,+3.3V*%
X111645000Y-6430000D03*
D19*
%TO.P,T1,2*%
%TO.N,Net-(C14-Pad2)*%
X112290000Y-6375000D03*
D20*
%TO.P,T1,3*%
%TO.N,Net-(T1-Pad3)*%
X114162500Y-6400000D03*
%TO.P,T1,4*%
X114547500Y-6400000D03*
D21*
%TO.P,T1,5*%
%TO.N,unconnected-(T1-Pad5)*%
X111760000Y-10475000D03*
D22*
%TO.P,T1,6*%
%TO.N,T_OUT-*%
X113790000Y-10525000D03*
D23*
%TO.P,T1,7*%
%TO.N,T_OUT+*%
X114575000Y-10465000D03*
%TD*%
D13*
%TO.P,R12,1*%
%TO.N,Net-(R12-Pad1)*%
X78760000Y-46950000D03*
%TO.P,R12,2*%
%TO.N,Net-(Q2-B)*%
X78760000Y-48600000D03*
%TD*%
D11*
%TO.P,Q6,1,B*%
%TO.N,Net-(Q6-B)*%
X104675000Y-13387500D03*
%TO.P,Q6,2,E*%
%TO.N,GND*%
X106575000Y-13387500D03*
%TO.P,Q6,3,C*%
%TO.N,Net-(Q6-C)*%
X105625000Y-11512500D03*
%TD*%
D24*
%TO.P,U2,1,VDD*%
%TO.N,+3.3V*%
X96925000Y-27005000D03*
%TO.P,U2,2,SCL*%
%TO.N,SCL*%
X96925000Y-27505000D03*
%TO.P,U2,3,SDA*%
%TO.N,SDA*%
X96925000Y-28005000D03*
%TO.P,U2,4,~{LDAC}*%
%TO.N,LDAC*%
X96925000Y-28505000D03*
%TO.P,U2,5,RDY/~{BSY}*%
%TO.N,unconnected-(U2-RDY{slash}~{BSY}-Pad5)*%
X96925000Y-29005000D03*
%TO.P,U2,6,VOUTA*%
%TO.N,CURRENT_OUTPUT*%
X101150000Y-29005000D03*
%TO.P,U2,7,VOUTB*%
%TO.N,unconnected-(U2-VOUTB-Pad7)*%
X101150000Y-28505000D03*
%TO.P,U2,8,VOUTC*%
%TO.N,unconnected-(U2-VOUTC-Pad8)*%
X101150000Y-28005000D03*
%TO.P,U2,9,VOUTD*%
%TO.N,unconnected-(U2-VOUTD-Pad9)*%
X101150000Y-27505000D03*
%TO.P,U2,10,VSS*%
%TO.N,GND*%
X101150000Y-27005000D03*
%TD*%
D25*
%TO.P,R22,1*%
%TO.N,Net-(R22-Pad1)*%
X73045000Y-40425000D03*
%TO.P,R22,2*%
%TO.N,Net-(U7A--)*%
X71395000Y-40425000D03*
%TD*%
D13*
%TO.P,R19,1*%
%TO.N,Net-(Q4-G)*%
X51500000Y-17675000D03*
%TO.P,R19,2*%
%TO.N,Net-(Q5-D)*%
X51500000Y-19325000D03*
%TD*%
D15*
%TO.P,R16,1*%
%TO.N,Net-(U7A-+)*%
X69720000Y-40075000D03*
%TO.P,R16,2*%
%TO.N,BAT+*%
X69720000Y-38425000D03*
%TD*%
D26*
%TO.P,R38,1*%
%TO.N,GND*%
X106475000Y-17950000D03*
%TO.P,R38,2*%
%TO.N,RX*%
X108125000Y-17950000D03*
%TD*%
D27*
%TO.P,TP7,1,1*%
%TO.N,SI*%
X84625000Y-43450000D03*
%TD*%
D10*
%TO.P,C2,1*%
%TO.N,GND*%
X93425000Y-20280000D03*
%TO.P,C2,2*%
%TO.N,+3.3V*%
X93425000Y-18730000D03*
%TD*%
D15*
%TO.P,R26,1*%
%TO.N,Net-(D5-A)*%
X47000000Y-37275000D03*
%TO.P,R26,2*%
%TO.N,Net-(U10-RA2)*%
X47000000Y-35625000D03*
%TD*%
D26*
%TO.P,R42,1*%
%TO.N,Net-(U14A-+)*%
X91475000Y-12950000D03*
%TO.P,R42,2*%
%TO.N,Net-(U14B--)*%
X93125000Y-12950000D03*
%TD*%
D28*
%TO.P,Q1,1,G*%
%TO.N,Net-(Q1-G)*%
X77625000Y-56550000D03*
%TO.P,Q1,2,S*%
%TO.N,GND*%
X77625000Y-58450000D03*
%TO.P,Q1,3,D*%
%TO.N,Net-(Q1-D)*%
X79500000Y-57500000D03*
%TD*%
D25*
%TO.P,R39,1*%
%TO.N,Net-(U14A--)*%
X89775000Y-10450000D03*
%TO.P,R39,2*%
%TO.N,Net-(R39-Pad2)*%
X88125000Y-10450000D03*
%TD*%
D29*
%TO.P,C8,1*%
%TO.N,Vdrive*%
X32125000Y-48972220D03*
D30*
%TO.P,C8,2*%
%TO.N,GND*%
X32125000Y-56472220D03*
%TD*%
D31*
%TO.P,Q3,1,B*%
%TO.N,Net-(Q2-C)*%
X74125000Y-58950000D03*
%TO.P,Q3,2,C*%
%TO.N,BAT+*%
X74125000Y-56650000D03*
D32*
X67825000Y-56650000D03*
D31*
%TO.P,Q3,3,E*%
%TO.N,Vdrive*%
X74125000Y-54350000D03*
%TD*%
D26*
%TO.P,R27,1*%
%TO.N,SCL*%
X98300000Y-24950000D03*
%TO.P,R27,2*%
%TO.N,+3.3V*%
X99950000Y-24950000D03*
%TD*%
D17*
%TO.P,R8,1*%
%TO.N,BAT-*%
X86537500Y-57950000D03*
%TO.P,R8,2*%
%TO.N,Net-(R8-Pad2)*%
X84712500Y-57950000D03*
%TD*%
%TO.P,R11,1*%
%TO.N,Net-(R10-Pad2)*%
X83125000Y-60950000D03*
%TO.P,R11,2*%
%TO.N,Net-(Q1-D)*%
X81300000Y-60950000D03*
%TD*%
D28*
%TO.P,U17,1*%
%TO.N,Net-(U16-SW_E)*%
X58500000Y-19500000D03*
%TO.P,U17,2*%
%TO.N,GND*%
X56625000Y-18550000D03*
%TO.P,U17,3*%
%TO.N,unconnected-(U17-Pad3)*%
X56625000Y-20450000D03*
%TD*%
D26*
%TO.P,R4,1*%
%TO.N,Net-(U1-RB7)*%
X95062500Y-32505000D03*
%TO.P,R4,2*%
%TO.N,Net-(D3-A)*%
X96712500Y-32505000D03*
%TD*%
D14*
%TO.P,C5,1*%
%TO.N,GND*%
X101900000Y-38050000D03*
%TO.P,C5,2*%
%TO.N,Net-(U3-OSC1)*%
X100350000Y-38050000D03*
%TD*%
D33*
%TO.P,J6,1,Pin_1*%
%TO.N,GND*%
X121000000Y-9370000D03*
D34*
%TO.P,J6,2,Pin_2*%
%TO.N,T_OUT-*%
X121000000Y-14450000D03*
%TO.P,J6,3,Pin_3*%
%TO.N,T_IN+*%
X121000000Y-19530000D03*
%TO.P,J6,4,Pin_4*%
%TO.N,T_OUT+*%
X121000000Y-24610000D03*
%TD*%
D35*
%TO.P,U1,1,MCLR*%
%TO.N,MCLR*%
X81225000Y-19250000D03*
%TO.P,U1,2,RA0*%
%TO.N,SI*%
X81225000Y-20520000D03*
%TO.P,U1,3,RA1*%
%TO.N,SO*%
X81225000Y-21790000D03*
%TO.P,U1,4,RB0*%
%TO.N,PGD*%
X81225000Y-23060000D03*
%TO.P,U1,5,RB1*%
%TO.N,PGC*%
X81225000Y-24330000D03*
%TO.P,U1,6,RB2*%
%TO.N,CS*%
X81225000Y-25600000D03*
%TO.P,U1,7,RB3*%
%TO.N,SCK*%
X81225000Y-26870000D03*
%TO.P,U1,8,VSS*%
%TO.N,GND*%
X81225000Y-28140000D03*
%TO.P,U1,9,RA2*%
%TO.N,LDAC*%
X81225000Y-29410000D03*
%TO.P,U1,10,RA3*%
%TO.N,DRAIN*%
X81225000Y-30680000D03*
%TO.P,U1,11,RB4*%
%TO.N,RX*%
X81225000Y-31950000D03*
%TO.P,U1,12,RA4*%
%TO.N,TX_TEST*%
X81225000Y-33220000D03*
%TO.P,U1,13,VDD*%
%TO.N,+3.3V*%
X81225000Y-34490000D03*
%TO.P,U1,14,RB5*%
%TO.N,TX*%
X81225000Y-35760000D03*
%TO.P,U1,15,RB6*%
%TO.N,Net-(U1-RB6)*%
X90625000Y-35760000D03*
%TO.P,U1,16,RB7*%
%TO.N,Net-(U1-RB7)*%
X90625000Y-34490000D03*
%TO.P,U1,17,RB8*%
%TO.N,SCL*%
X90625000Y-33220000D03*
%TO.P,U1,18,RB9*%
%TO.N,SDA*%
X90625000Y-31950000D03*
%TO.P,U1,19,VSS*%
%TO.N,GND*%
X90625000Y-30680000D03*
%TO.P,U1,20,VCAP*%
%TO.N,Net-(U1-VCAP)*%
X90625000Y-29410000D03*
%TO.P,U1,21,RB10*%
%TO.N,C*%
X90625000Y-28140000D03*
%TO.P,U1,22,RB11*%
%TO.N,D*%
X90625000Y-26870000D03*
%TO.P,U1,23,RB12*%
%TO.N,BATT_SENSE*%
X90625000Y-25600000D03*
%TO.P,U1,24,RB13*%
%TO.N,Net-(U1-RB13)*%
X90625000Y-24330000D03*
%TO.P,U1,25,RB14*%
%TO.N,A*%
X90625000Y-23060000D03*
%TO.P,U1,26,RB15*%
%TO.N,B*%
X90625000Y-21790000D03*
%TO.P,U1,27,AVSS*%
%TO.N,GND*%
X90625000Y-20520000D03*
%TO.P,U1,28,AVDD*%
%TO.N,+3.3V*%
X90625000Y-19250000D03*
%TD*%
D26*
%TO.P,R32,1*%
%TO.N,+3.3V*%
X106800000Y-20950000D03*
%TO.P,R32,2*%
%TO.N,Net-(U13A--)*%
X108450000Y-20950000D03*
%TD*%
D15*
%TO.P,R24,1*%
%TO.N,Net-(R22-Pad1)*%
X75220000Y-41400000D03*
%TO.P,R24,2*%
%TO.N,BATT_SENSE*%
X75220000Y-39750000D03*
%TD*%
D36*
%TO.P,C13,1*%
%TO.N,Net-(U14A--)*%
X94725000Y-11950000D03*
%TO.P,C13,2*%
%TO.N,Net-(U14B--)*%
X96275000Y-11950000D03*
%TD*%
D37*
%TO.P,U13,1*%
%TO.N,RX*%
X110260000Y-17950000D03*
%TO.P,U13,2,-*%
%TO.N,Net-(U13A--)*%
X111530000Y-17950000D03*
%TO.P,U13,3,+*%
%TO.N,Net-(U13A-+)*%
X112800000Y-17950000D03*
%TO.P,U13,4,V-*%
%TO.N,GND*%
X114070000Y-17950000D03*
%TO.P,U13,5,+*%
%TO.N,unconnected-(U13B-+-Pad5)*%
X114070000Y-13000000D03*
%TO.P,U13,6,-*%
%TO.N,unconnected-(U13B---Pad6)*%
X112800000Y-13000000D03*
%TO.P,U13,7*%
%TO.N,unconnected-(U13-Pad7)*%
X111530000Y-13000000D03*
%TO.P,U13,8,V+*%
%TO.N,+3.3V*%
X110260000Y-13000000D03*
%TD*%
D15*
%TO.P,R20,1*%
%TO.N,Vdrive*%
X44625000Y-35950000D03*
%TO.P,R20,2*%
%TO.N,V_FEEDBACK*%
X44625000Y-34300000D03*
%TD*%
D26*
%TO.P,R31,1*%
%TO.N,Net-(U13A-+)*%
X109975000Y-26012500D03*
%TO.P,R31,2*%
%TO.N,Net-(R31-Pad2)*%
X111625000Y-26012500D03*
%TD*%
D25*
%TO.P,R37,1*%
%TO.N,Net-(R36-Pad2)*%
X101000000Y-10500000D03*
%TO.P,R37,2*%
%TO.N,GND*%
X99350000Y-10500000D03*
%TD*%
D13*
%TO.P,R35,1*%
%TO.N,+3.3V*%
X99650000Y-7300000D03*
%TO.P,R35,2*%
%TO.N,Net-(U14B-+)*%
X99650000Y-8950000D03*
%TD*%
D38*
%TO.P,C20,1*%
%TO.N,+3.3V*%
X79125000Y-4950000D03*
D39*
%TO.P,C20,2*%
%TO.N,GND*%
X81625000Y-4950000D03*
%TD*%
D28*
%TO.P,Q7,1,G*%
%TO.N,Net-(Q7-G)*%
X104250000Y-7500000D03*
%TO.P,Q7,2,S*%
%TO.N,GND*%
X104250000Y-9400000D03*
%TO.P,Q7,3,D*%
%TO.N,Net-(Q6-C)*%
X106125000Y-8450000D03*
%TD*%
D40*
%TO.P,U5,1*%
%TO.N,Net-(R12-Pad1)*%
X81625000Y-39600000D03*
%TO.P,U5,2,-*%
%TO.N,CURRENT_SENSE*%
X80355000Y-39600000D03*
%TO.P,U5,3,+*%
%TO.N,CURRENT_OUTPUT*%
X79085000Y-39600000D03*
%TO.P,U5,4,V-*%
%TO.N,GND*%
X77815000Y-39600000D03*
%TO.P,U5,5,+*%
%TO.N,unconnected-(U5B-+-Pad5)*%
X77815000Y-44550000D03*
%TO.P,U5,6,-*%
%TO.N,unconnected-(U5B---Pad6)*%
X79085000Y-44550000D03*
%TO.P,U5,7*%
%TO.N,unconnected-(U5-Pad7)*%
X80355000Y-44550000D03*
%TO.P,U5,8,V+*%
%TO.N,+12V*%
X81625000Y-44550000D03*
%TD*%
D12*
%TO.P,C9,1*%
%TO.N,+3.3V*%
X108125000Y-14675000D03*
%TO.P,C9,2*%
%TO.N,GND*%
X108125000Y-16225000D03*
%TD*%
D26*
%TO.P,R45,1*%
%TO.N,TX*%
X88800000Y-17450000D03*
%TO.P,R45,2*%
%TO.N,Net-(Q7-G)*%
X90450000Y-17450000D03*
%TD*%
D11*
%TO.P,U11,1*%
%TO.N,Net-(U13A-+)*%
X108625000Y-27075000D03*
%TO.P,U11,2*%
%TO.N,T_IN+*%
X107675000Y-28950000D03*
%TO.P,U11,3*%
%TO.N,unconnected-(U11-Pad3)*%
X109575000Y-28950000D03*
%TD*%
D41*
%TO.P,Y1,1,1*%
%TO.N,Net-(U3-OSC1)*%
X100325000Y-39850000D03*
%TO.P,Y1,2,2*%
%TO.N,GND*%
X100325000Y-42050000D03*
%TO.P,Y1,3,3*%
%TO.N,Net-(U3-OSC2)*%
X101925000Y-42050000D03*
%TO.P,Y1,4,4*%
%TO.N,GND*%
X101925000Y-39850000D03*
%TD*%
D14*
%TO.P,C4,1*%
%TO.N,GND*%
X102005000Y-43950000D03*
%TO.P,C4,2*%
%TO.N,Net-(U3-OSC2)*%
X100455000Y-43950000D03*
%TD*%
D16*
%TO.P,D8,1,K*%
%TO.N,GND*%
X101037500Y-20505000D03*
%TO.P,D8,2,A*%
%TO.N,Net-(D8-A)*%
X99162500Y-20505000D03*
%TD*%
D42*
%TO.P,U9,1*%
%TO.N,+3.3V*%
X71282500Y-35450000D03*
%TO.P,U9,2*%
%TO.N,BATT_SENSE*%
X73157500Y-36400000D03*
%TO.P,U9,3*%
%TO.N,unconnected-(U9-Pad3)*%
X73157500Y-34500000D03*
%TD*%
D13*
%TO.P,R41,1*%
%TO.N,Net-(R40-Pad2)*%
X88450000Y-13450000D03*
%TO.P,R41,2*%
%TO.N,Net-(U14A-+)*%
X88450000Y-15100000D03*
%TD*%
D43*
%TO.P,U3,1,TXCAN*%
%TO.N,Net-(U3-TXCAN)*%
X97425000Y-48530000D03*
%TO.P,U3,2,RXCAN*%
%TO.N,Net-(U3-RXCAN)*%
X97425000Y-47260000D03*
%TO.P,U3,3,CLKOUT/SOF*%
%TO.N,unconnected-(U3-CLKOUT{slash}SOF-Pad3)*%
X97425000Y-45990000D03*
%TO.P,U3,4,~{TX0RTS}*%
%TO.N,unconnected-(U3-~{TX0RTS}-Pad4)*%
X97425000Y-44720000D03*
%TO.P,U3,5,~{TX1RTS}*%
%TO.N,unconnected-(U3-~{TX1RTS}-Pad5)*%
X97425000Y-43450000D03*
%TO.P,U3,6,~{TX2RTS}*%
%TO.N,unconnected-(U3-~{TX2RTS}-Pad6)*%
X97425000Y-42180000D03*
%TO.P,U3,7,OSC2*%
%TO.N,Net-(U3-OSC2)*%
X97425000Y-40910000D03*
%TO.P,U3,8,OSC1*%
%TO.N,Net-(U3-OSC1)*%
X97425000Y-39640000D03*
%TO.P,U3,9,VSS*%
%TO.N,GND*%
X97425000Y-38370000D03*
%TO.P,U3,10,~{RX1BF}*%
%TO.N,unconnected-(U3-~{RX1BF}-Pad10)*%
X88125000Y-38370000D03*
%TO.P,U3,11,~{RX0BF}*%
%TO.N,unconnected-(U3-~{RX0BF}-Pad11)*%
X88125000Y-39640000D03*
%TO.P,U3,12,~{INT}*%
%TO.N,unconnected-(U3-~{INT}-Pad12)*%
X88125000Y-40910000D03*
%TO.P,U3,13,SCK*%
%TO.N,SCK*%
X88125000Y-42180000D03*
%TO.P,U3,14,SI*%
%TO.N,SI*%
X88125000Y-43450000D03*
%TO.P,U3,15,SO*%
%TO.N,SO*%
X88125000Y-44720000D03*
%TO.P,U3,16,~{CS}*%
%TO.N,CS*%
X88125000Y-45990000D03*
%TO.P,U3,17,~{RESET}*%
%TO.N,unconnected-(U3-~{RESET}-Pad17)*%
X88125000Y-47260000D03*
%TO.P,U3,18,VDD*%
%TO.N,+3.3V*%
X88125000Y-48530000D03*
%TD*%
D44*
%TO.P,J5,1,Pin_1*%
%TO.N,D*%
X107125000Y-57227500D03*
D45*
%TO.P,J5,2,Pin_2*%
%TO.N,C*%
X102045000Y-57227500D03*
%TO.P,J5,3,Pin_3*%
%TO.N,BAT-*%
X96965000Y-57227500D03*
%TO.P,J5,4,Pin_4*%
%TO.N,BAT+*%
X91885000Y-57227500D03*
%TD*%
D38*
%TO.P,C19,1*%
%TO.N,+3.3V*%
X79125000Y-12450000D03*
D39*
%TO.P,C19,2*%
%TO.N,GND*%
X81625000Y-12450000D03*
%TD*%
D14*
%TO.P,C24,1*%
%TO.N,+3.3V*%
X54050000Y-12500000D03*
%TO.P,C24,2*%
%TO.N,GND*%
X52500000Y-12500000D03*
%TD*%
D28*
%TO.P,U15,1*%
%TO.N,Net-(R40-Pad2)*%
X86450000Y-8950000D03*
%TO.P,U15,2*%
%TO.N,Net-(R39-Pad2)*%
X84575000Y-8000000D03*
%TO.P,U15,3*%
%TO.N,unconnected-(U15-Pad3)*%
X84575000Y-9900000D03*
%TD*%
D26*
%TO.P,R44,1*%
%TO.N,Net-(Q6-C)*%
X108800000Y-4950000D03*
%TO.P,R44,2*%
%TO.N,+3.3V*%
X110450000Y-4950000D03*
%TD*%
D27*
%TO.P,L1,1,1*%
%TO.N,Vdrive*%
X22125000Y-37950000D03*
%TO.P,L1,2,2*%
%TO.N,Net-(D4-K)*%
X22125000Y-8250000D03*
%TD*%
D14*
%TO.P,C23,1*%
%TO.N,+3.3V*%
X44400000Y-19450000D03*
%TO.P,C23,2*%
%TO.N,GND*%
X42850000Y-19450000D03*
%TD*%
D16*
%TO.P,D1,1,K*%
%TO.N,GND*%
X101187500Y-17965000D03*
%TO.P,D1,2,A*%
%TO.N,Net-(D1-A)*%
X99312500Y-17965000D03*
%TD*%
D46*
%TO.P,J2,1,Pin_1*%
%TO.N,Net-(J2-Pin_1)*%
X56125000Y-25950000D03*
D47*
%TO.P,J2,2,Pin_2*%
%TO.N,+3.3V*%
X56125000Y-28490000D03*
%TO.P,J2,3,Pin_3*%
%TO.N,GND*%
X56125000Y-31030000D03*
%TO.P,J2,4,Pin_4*%
%TO.N,Net-(J2-Pin_4)*%
X56125000Y-33570000D03*
%TO.P,J2,5,Pin_5*%
%TO.N,Net-(J2-Pin_5)*%
X56125000Y-36110000D03*
%TD*%
D46*
%TO.P,J1,1,Pin_1*%
%TO.N,MCLR*%
X76000000Y-18920000D03*
D47*
%TO.P,J1,2,Pin_2*%
%TO.N,+3.3V*%
X76000000Y-21460000D03*
%TO.P,J1,3,Pin_3*%
%TO.N,GND*%
X76000000Y-24000000D03*
%TO.P,J1,4,Pin_4*%
%TO.N,PGD*%
X76000000Y-26540000D03*
%TO.P,J1,5,Pin_5*%
%TO.N,PGC*%
X76000000Y-29080000D03*
%TD*%
D25*
%TO.P,R13,1*%
%TO.N,Net-(U7B--)*%
X68220000Y-49925000D03*
%TO.P,R13,2*%
%TO.N,GND*%
X66570000Y-49925000D03*
%TD*%
D40*
%TO.P,U7,1*%
%TO.N,Net-(R22-Pad1)*%
X72125000Y-42450000D03*
%TO.P,U7,2,-*%
%TO.N,Net-(U7A--)*%
X70855000Y-42450000D03*
%TO.P,U7,3,+*%
%TO.N,Net-(U7A-+)*%
X69585000Y-42450000D03*
%TO.P,U7,4,V-*%
%TO.N,GND*%
X68315000Y-42450000D03*
%TO.P,U7,5,+*%
%TO.N,BAT-*%
X68315000Y-47400000D03*
%TO.P,U7,6,-*%
%TO.N,Net-(U7B--)*%
X69585000Y-47400000D03*
%TO.P,U7,7*%
%TO.N,CURRENT_SENSE*%
X70855000Y-47400000D03*
%TO.P,U7,8,V+*%
%TO.N,+12V*%
X72125000Y-47400000D03*
%TD*%
D48*
%TO.P,U16,1,SW_C*%
%TO.N,Net-(U16-DRIVER_C)*%
X61425000Y-13910000D03*
%TO.P,U16,2,SW_E*%
%TO.N,Net-(U16-SW_E)*%
X61425000Y-15180000D03*
%TO.P,U16,3,CAP*%
%TO.N,Net-(U16-CAP)*%
X61425000Y-16450000D03*
%TO.P,U16,4,GND*%
%TO.N,GND*%
X61425000Y-17720000D03*
%TO.P,U16,5,COMP_INPUT*%
%TO.N,3V3_FB*%
X67625000Y-17720000D03*
%TO.P,U16,6,VCC*%
%TO.N,+12V*%
X67625000Y-16450000D03*
%TO.P,U16,7,I_SENSE*%
%TO.N,Net-(U16-DRIVER_C)*%
X67625000Y-15180000D03*
%TO.P,U16,8,DRIVER_C*%
X67625000Y-13910000D03*
%TD*%
%TO.P,U4,1,TXD*%
%TO.N,Net-(U3-TXCAN)*%
X108125000Y-43640000D03*
%TO.P,U4,2,VSS*%
%TO.N,GND*%
X108125000Y-44910000D03*
%TO.P,U4,3,VDD*%
%TO.N,+3.3V*%
X108125000Y-46180000D03*
%TO.P,U4,4,RXD*%
%TO.N,Net-(U3-RXCAN)*%
X108125000Y-47450000D03*
%TO.P,U4,5,NC*%
%TO.N,unconnected-(U4-NC-Pad5)*%
X113325000Y-47450000D03*
%TO.P,U4,6,CANL*%
%TO.N,CANL*%
X113325000Y-46180000D03*
%TO.P,U4,7,CANH*%
%TO.N,CANH*%
X113325000Y-44910000D03*
%TO.P,U4,8,NC*%
%TO.N,unconnected-(U4-NC-Pad8)*%
X113325000Y-43640000D03*
%TD*%
D49*
%TO.P,D4,1,K*%
%TO.N,Net-(D4-K)*%
X43225000Y-3450000D03*
%TO.P,D4,2,A*%
%TO.N,GND*%
X48025000Y-3450000D03*
%TD*%
D25*
%TO.P,R1,1*%
%TO.N,+3.3V*%
X81500000Y-17000000D03*
%TO.P,R1,2*%
%TO.N,MCLR*%
X79850000Y-17000000D03*
%TD*%
D15*
%TO.P,R25,1*%
%TO.N,BATT_SENSE*%
X75220000Y-37725000D03*
%TO.P,R25,2*%
%TO.N,GND*%
X75220000Y-36075000D03*
%TD*%
D11*
%TO.P,U6,1*%
%TO.N,+12V*%
X83265000Y-49725000D03*
%TO.P,U6,2*%
%TO.N,BAT+*%
X82315000Y-51600000D03*
%TO.P,U6,3*%
%TO.N,unconnected-(U6-Pad3)*%
X84215000Y-51600000D03*
%TD*%
D36*
%TO.P,C11,1*%
%TO.N,Net-(U14B-+)*%
X100950000Y-5000000D03*
%TO.P,C11,2*%
%TO.N,GND*%
X102500000Y-5000000D03*
%TD*%
D26*
%TO.P,R3,1*%
%TO.N,Net-(U1-RB6)*%
X95212500Y-34505000D03*
%TO.P,R3,2*%
%TO.N,Net-(D2-A)*%
X96862500Y-34505000D03*
%TD*%
D15*
%TO.P,R18,1*%
%TO.N,+12V*%
X53500000Y-19325000D03*
%TO.P,R18,2*%
%TO.N,Net-(Q4-G)*%
X53500000Y-17675000D03*
%TD*%
D26*
%TO.P,R28,1*%
%TO.N,SDA*%
X98300000Y-22950000D03*
%TO.P,R28,2*%
%TO.N,+3.3V*%
X99950000Y-22950000D03*
%TD*%
D29*
%TO.P,C22,1*%
%TO.N,Vdrive*%
X54625000Y-48950000D03*
D30*
%TO.P,C22,2*%
%TO.N,GND*%
X54625000Y-56450000D03*
%TD*%
D16*
%TO.P,D3,1,K*%
%TO.N,GND*%
X100325000Y-32505000D03*
%TO.P,D3,2,A*%
%TO.N,Net-(D3-A)*%
X98450000Y-32505000D03*
%TD*%
D13*
%TO.P,R29,1*%
%TO.N,+3.3V*%
X47000000Y-23175000D03*
%TO.P,R29,2*%
%TO.N,Net-(J2-Pin_1)*%
X47000000Y-24825000D03*
%TD*%
D50*
%TO.P,R48,1*%
%TO.N,+12V*%
X56125000Y-14037500D03*
%TO.P,R48,2*%
%TO.N,Net-(U16-DRIVER_C)*%
X56125000Y-15862500D03*
%TD*%
D14*
%TO.P,C15,1*%
%TO.N,Net-(C14-Pad2)*%
X110125000Y-7950000D03*
%TO.P,C15,2*%
%TO.N,Net-(Q6-C)*%
X108575000Y-7950000D03*
%TD*%
D26*
%TO.P,R51,1*%
%TO.N,+3.3V*%
X95600000Y-20005000D03*
%TO.P,R51,2*%
%TO.N,Net-(D8-A)*%
X97250000Y-20005000D03*
%TD*%
D12*
%TO.P,C21,1*%
%TO.N,+3.3V*%
X72325000Y-14540000D03*
%TO.P,C21,2*%
%TO.N,GND*%
X72325000Y-16090000D03*
%TD*%
D14*
%TO.P,C14,1*%
%TO.N,+3.3V*%
X110125000Y-9950000D03*
%TO.P,C14,2*%
%TO.N,Net-(C14-Pad2)*%
X108575000Y-9950000D03*
%TD*%
D26*
%TO.P,R50,1*%
%TO.N,3V3_FB*%
X70300000Y-17950000D03*
%TO.P,R50,2*%
%TO.N,GND*%
X71950000Y-17950000D03*
%TD*%
D36*
%TO.P,C3,1*%
%TO.N,Net-(U1-VCAP)*%
X92725000Y-27500000D03*
%TO.P,C3,2*%
%TO.N,GND*%
X94275000Y-27500000D03*
%TD*%
D27*
%TO.P,TP5,1,1*%
%TO.N,CURRENT_OUTPUT*%
X104425000Y-28505000D03*
%TD*%
D26*
%TO.P,R2,1*%
%TO.N,Net-(U1-RB13)*%
X95925000Y-17965000D03*
%TO.P,R2,2*%
%TO.N,Net-(D1-A)*%
X97575000Y-17965000D03*
%TD*%
D51*
%TO.P,U12,1*%
%TO.N,+3.3V*%
X113125000Y-29887500D03*
%TO.P,U12,2*%
%TO.N,Net-(R31-Pad2)*%
X114075000Y-28012500D03*
%TO.P,U12,3*%
%TO.N,unconnected-(U12-Pad3)*%
X112175000Y-28012500D03*
%TD*%
D10*
%TO.P,C1,1*%
%TO.N,GND*%
X78125000Y-35950000D03*
%TO.P,C1,2*%
%TO.N,+3.3V*%
X78125000Y-34400000D03*
%TD*%
D17*
%TO.P,R9,1*%
%TO.N,Net-(R8-Pad2)*%
X83125000Y-57950000D03*
%TO.P,R9,2*%
%TO.N,Net-(Q1-D)*%
X81300000Y-57950000D03*
%TD*%
D25*
%TO.P,R30,1*%
%TO.N,Net-(U13A-+)*%
X107450000Y-24450000D03*
%TO.P,R30,2*%
%TO.N,GND*%
X105800000Y-24450000D03*
%TD*%
D26*
%TO.P,R43,1*%
%TO.N,Net-(R40-Pad2)*%
X95800000Y-14950000D03*
%TO.P,R43,2*%
%TO.N,Net-(Q6-B)*%
X97450000Y-14950000D03*
%TD*%
D12*
%TO.P,C6,1*%
%TO.N,+12V*%
X73720000Y-48150000D03*
%TO.P,C6,2*%
%TO.N,GND*%
X73720000Y-49700000D03*
%TD*%
%TO.P,C7,1*%
%TO.N,Vdrive*%
X43625000Y-49950000D03*
%TO.P,C7,2*%
%TO.N,GND*%
X43625000Y-51500000D03*
%TD*%
D33*
%TO.P,J4,1,Pin_1*%
%TO.N,B*%
X121000000Y-33790000D03*
D34*
%TO.P,J4,2,Pin_2*%
%TO.N,GND*%
X121000000Y-38870000D03*
%TO.P,J4,3,Pin_3*%
%TO.N,CANH*%
X121000000Y-43950000D03*
%TO.P,J4,4,Pin_4*%
%TO.N,CANL*%
X121000000Y-49030000D03*
%TD*%
D25*
%TO.P,R40,1*%
%TO.N,Net-(U14A--)*%
X89775000Y-7450000D03*
%TO.P,R40,2*%
%TO.N,Net-(R40-Pad2)*%
X88125000Y-7450000D03*
%TD*%
D13*
%TO.P,R46,1*%
%TO.N,Net-(Q7-G)*%
X102625000Y-10625000D03*
%TO.P,R46,2*%
%TO.N,TX_TEST*%
X102625000Y-12275000D03*
%TD*%
D25*
%TO.P,R14,1*%
%TO.N,CURRENT_SENSE*%
X71720000Y-49925000D03*
%TO.P,R14,2*%
%TO.N,Net-(U7B--)*%
X70070000Y-49925000D03*
%TD*%
D52*
%TO.P,D5,1,K*%
%TO.N,GND*%
X50500000Y-35512500D03*
%TO.P,D5,2,A*%
%TO.N,Net-(D5-A)*%
X50500000Y-37387500D03*
%TD*%
D53*
%TO.P,U14,1*%
%TO.N,Net-(R40-Pad2)*%
X92175000Y-6545000D03*
%TO.P,U14,2,-*%
%TO.N,Net-(U14A--)*%
X92175000Y-7815000D03*
%TO.P,U14,3,+*%
%TO.N,Net-(U14A-+)*%
X92175000Y-9085000D03*
%TO.P,U14,4,V-*%
%TO.N,GND*%
X92175000Y-10355000D03*
%TO.P,U14,5,+*%
%TO.N,Net-(U14B-+)*%
X97125000Y-10355000D03*
%TO.P,U14,6,-*%
%TO.N,Net-(U14B--)*%
X97125000Y-9085000D03*
%TO.P,U14,7*%
X97125000Y-7815000D03*
%TO.P,U14,8,V+*%
%TO.N,+3.3V*%
X97125000Y-6545000D03*
%TD*%
D13*
%TO.P,R15,1*%
%TO.N,Net-(U7A--)*%
X66720000Y-43925000D03*
%TO.P,R15,2*%
%TO.N,BAT-*%
X66720000Y-45575000D03*
%TD*%
D54*
%TO.P,C16,1*%
%TO.N,+12V*%
X49307380Y-8450000D03*
D39*
%TO.P,C16,2*%
%TO.N,GND*%
X46807380Y-8450000D03*
%TD*%
D26*
%TO.P,R36,1*%
%TO.N,Net-(U14B-+)*%
X97850000Y-12500000D03*
%TO.P,R36,2*%
%TO.N,Net-(R36-Pad2)*%
X99500000Y-12500000D03*
%TD*%
D55*
%TO.P,R47,1*%
%TO.N,Net-(U16-DRIVER_C)*%
X58325000Y-15862500D03*
%TO.P,R47,2*%
%TO.N,+12V*%
X58325000Y-14037500D03*
%TD*%
D13*
%TO.P,R5,1*%
%TO.N,DRAIN*%
X64530000Y-48650000D03*
%TO.P,R5,2*%
%TO.N,Net-(Q1-G)*%
X64530000Y-50300000D03*
%TD*%
D26*
%TO.P,R34,1*%
%TO.N,Net-(R33-Pad2)*%
X113800000Y-20950000D03*
%TO.P,R34,2*%
%TO.N,GND*%
X115450000Y-20950000D03*
%TD*%
D28*
%TO.P,U8,1*%
%TO.N,+3.3V*%
X46125000Y-38887500D03*
%TO.P,U8,2*%
%TO.N,V_FEEDBACK*%
X44250000Y-37937500D03*
%TO.P,U8,3*%
%TO.N,unconnected-(U8-Pad3)*%
X44250000Y-39837500D03*
%TD*%
D56*
%TO.P,C17,1*%
%TO.N,+12V*%
X62000000Y-36500000D03*
D39*
%TO.P,C17,2*%
%TO.N,GND*%
X62000000Y-39000000D03*
%TD*%
D10*
%TO.P,C12,1*%
%TO.N,+3.3V*%
X97000000Y-4775000D03*
%TO.P,C12,2*%
%TO.N,GND*%
X97000000Y-3225000D03*
%TD*%
D27*
%TO.P,TP3,1,1*%
%TO.N,Vdrive*%
X43625000Y-44450000D03*
%TD*%
D57*
%TO.P,J3,1,Pin_1*%
%TO.N,+3.3V*%
X55885000Y-6950000D03*
D45*
%TO.P,J3,2,Pin_2*%
%TO.N,GND*%
X60965000Y-6950000D03*
%TO.P,J3,3,Pin_3*%
%TO.N,+12V*%
X66045000Y-6950000D03*
%TO.P,J3,4,Pin_4*%
%TO.N,A*%
X71125000Y-6950000D03*
%TD*%
D51*
%TO.P,Q2,1,B*%
%TO.N,Net-(Q2-B)*%
X80075000Y-50575000D03*
%TO.P,Q2,2,E*%
%TO.N,GND*%
X78175000Y-50575000D03*
%TO.P,Q2,3,C*%
%TO.N,Net-(Q2-C)*%
X79125000Y-52450000D03*
%TD*%
D26*
%TO.P,R33,1*%
%TO.N,Net-(U13A--)*%
X110300000Y-20950000D03*
%TO.P,R33,2*%
%TO.N,Net-(R33-Pad2)*%
X111950000Y-20950000D03*
%TD*%
D36*
%TO.P,C18,1*%
%TO.N,Net-(U16-CAP)*%
X63450000Y-19315000D03*
%TO.P,C18,2*%
%TO.N,GND*%
X65000000Y-19315000D03*
%TD*%
D10*
%TO.P,C25,1*%
%TO.N,+3.3V*%
X105625000Y-46000000D03*
%TO.P,C25,2*%
%TO.N,GND*%
X105625000Y-44450000D03*
%TD*%
D26*
%TO.P,R17,1*%
%TO.N,GND*%
X66395000Y-40425000D03*
%TO.P,R17,2*%
%TO.N,Net-(U7A-+)*%
X68045000Y-40425000D03*
%TD*%
D17*
%TO.P,R10,1*%
%TO.N,BAT-*%
X86537500Y-60950000D03*
%TO.P,R10,2*%
%TO.N,Net-(R10-Pad2)*%
X84712500Y-60950000D03*
%TD*%
D25*
%TO.P,R23,1*%
%TO.N,Net-(Q5-G)*%
X51325000Y-24500000D03*
%TO.P,R23,2*%
%TO.N,Net-(U10-RA5)*%
X49675000Y-24500000D03*
%TD*%
D58*
%TO.P,L2,1,1*%
%TO.N,+3.3V*%
X71250000Y-26950000D03*
%TO.P,L2,2,2*%
%TO.N,Net-(U16-SW_E)*%
X60000000Y-26950000D03*
%TD*%
D27*
%TO.P,TP6,1,1*%
%TO.N,SDA*%
X94425000Y-24000000D03*
%TD*%
D17*
%TO.P,R6,1*%
%TO.N,BAT-*%
X86537500Y-54950000D03*
%TO.P,R6,2*%
%TO.N,Net-(R6-Pad2)*%
X84712500Y-54950000D03*
%TD*%
D48*
%TO.P,Q4,1,D*%
%TO.N,Net-(D4-K)*%
X43900000Y-17405000D03*
X43900000Y-16135000D03*
X43900000Y-14865000D03*
X43900000Y-13595000D03*
%TO.P,Q4,2,G*%
%TO.N,Net-(Q4-G)*%
X49100000Y-13595000D03*
%TO.P,Q4,3,S*%
%TO.N,+12V*%
X49100000Y-17405000D03*
X49100000Y-16135000D03*
X49100000Y-14865000D03*
%TD*%
D59*
%TO.P,U10,8,VSS*%
%TO.N,GND*%
X51500000Y-32600000D03*
%TO.P,U10,7,RA0*%
%TO.N,Net-(J2-Pin_4)*%
X50230000Y-32600000D03*
%TO.P,U10,6,RA1*%
%TO.N,Net-(J2-Pin_5)*%
X48960000Y-32600000D03*
%TO.P,U10,5,RA2*%
%TO.N,Net-(U10-RA2)*%
X47690000Y-32600000D03*
%TO.P,U10,4,~MCLR*%
%TO.N,Net-(J2-Pin_1)*%
X47690000Y-27400000D03*
%TO.P,U10,3,RA4*%
%TO.N,V_FEEDBACK*%
X48960000Y-27400000D03*
%TO.P,U10,2,RA5*%
%TO.N,Net-(U10-RA5)*%
X50230000Y-27400000D03*
%TO.P,U10,1,VDD*%
%TO.N,+3.3V*%
X51500000Y-27400000D03*
%TD*%
D60*
%TO.N,GND*%
X99325735Y-11325735D03*
X52500000Y-33000000D03*
X52000000Y-35500000D03*
%TO.N,Net-(J2-Pin_1)*%
X55500000Y-24500000D03*
X48500000Y-25000000D03*
%TO.N,+3.3V*%
X51117831Y-23382169D03*
X48500000Y-23500000D03*
%TO.N,GND*%
X51500000Y-21500000D03*
X58000000Y-32000000D03*
X97000000Y-2000000D03*
X102500000Y-6000000D03*
X102500000Y-18000000D03*
X49000000Y-3500000D03*
X115000000Y-19000000D03*
X111500000Y-25000000D03*
X42500000Y-51500000D03*
X78000000Y-38325000D03*
%TO.N,Net-(U14A-+)*%
X90000000Y-14500000D03*
X90500000Y-13000000D03*
%TO.N,GND*%
X65000000Y-18500000D03*
X61500000Y-18500000D03*
X57000000Y-17500000D03*
%TO.N,Net-(Q4-G)*%
X51000000Y-13500000D03*
X53500000Y-17000000D03*
%TO.N,GND*%
X106009210Y-43509210D03*
X103000000Y-44000000D03*
X103000000Y-40000000D03*
X42100000Y-20000000D03*
X51500000Y-12500000D03*
%TO.N,Net-(R31-Pad2)*%
X114000000Y-25000000D03*
X112375000Y-25000000D03*
%TO.N,Net-(U1-RB13)*%
X94899000Y-18991000D03*
X95024762Y-20871158D03*
%TO.N,+3.3V*%
X100500000Y-24000000D03*
X97500000Y-26500000D03*
%TO.N,Net-(Q6-B)*%
X98787273Y-14712727D03*
X104026000Y-14409298D03*
%TO.N,Net-(R40-Pad2)*%
X93825735Y-14825735D03*
X95000000Y-15500000D03*
%TO.N,GND*%
X92000000Y-11000000D03*
%TO.N,TX_TEST*%
X102278473Y-13500000D03*
X98000000Y-13500000D03*
X86000000Y-18000000D03*
%TO.N,GND*%
X94279208Y-20581069D03*
X92900000Y-29470151D03*
X94100000Y-29000000D03*
X97000000Y-25500000D03*
X100500000Y-31500000D03*
%TO.N,Net-(R12-Pad1)*%
X80875000Y-47500000D03*
X81500000Y-41000000D03*
%TO.N,BATT_SENSE*%
X76000000Y-40500000D03*
X76500000Y-37725000D03*
%TO.N,GND*%
X44500000Y-30000000D03*
%TO.N,RX*%
X106000000Y-19000000D03*
X104500000Y-20500000D03*
X99500000Y-27000000D03*
X102500000Y-24000000D03*
X97000000Y-31000000D03*
X79500000Y-32000000D03*
%TO.N,TX_TEST*%
X78500000Y-31280000D03*
%TO.N,+3.3V*%
X97500000Y-51500000D03*
X94950935Y-51549065D03*
%TO.N,Net-(U16-DRIVER_C)*%
X66500000Y-12500000D03*
X64000000Y-12500000D03*
%TO.N,GND*%
X72000000Y-17000000D03*
X75000000Y-24500000D03*
X79500000Y-28500000D03*
X105000000Y-24500000D03*
X102500000Y-26500000D03*
%TO.N,B*%
X114500000Y-34000000D03*
X112000000Y-34000000D03*
%TO.N,T_IN+*%
X114500000Y-31500000D03*
X112000000Y-31500000D03*
%TO.N,GND*%
X102000000Y-21500000D03*
X105500000Y-18000000D03*
%TO.N,Net-(U13A-+)*%
X109500000Y-20000000D03*
X108565511Y-23250000D03*
%TO.N,GND*%
X115500000Y-20000000D03*
X86000000Y-52000000D03*
%TO.N,TX*%
X88000000Y-18500000D03*
X82819877Y-31906593D03*
%TO.N,+3.3V*%
X80000000Y-37000000D03*
X82500000Y-45500000D03*
%TO.N,GND*%
X73500000Y-50500000D03*
X77500000Y-49500000D03*
X77500000Y-59000000D03*
%TO.N,BAT-*%
X84000000Y-56500000D03*
X80000000Y-56000000D03*
%TO.N,GND*%
X110000000Y-45000000D03*
X98500000Y-37500000D03*
X101000000Y-36500000D03*
X106000000Y-13500000D03*
X104000000Y-10000000D03*
X66500000Y-41000000D03*
X67500000Y-42500000D03*
X66500000Y-49000000D03*
X77075000Y-36075000D03*
%TO.N,DRAIN*%
X69000000Y-34500000D03*
X72099476Y-33015319D03*
%TO.N,BAT+*%
X79625000Y-53950000D03*
X75625000Y-55950000D03*
%TO.N,Net-(Q2-C)*%
X78625000Y-52450000D03*
X76625000Y-54450000D03*
%TO.N,+12V*%
X76225000Y-47450000D03*
X75025000Y-47450000D03*
%TO.N,SDA*%
X95612500Y-28450905D03*
%TO.N,SO*%
X84705265Y-28500000D03*
X84705265Y-33950000D03*
%TO.N,SI*%
X86625000Y-29950000D03*
X86225000Y-40450000D03*
X87148187Y-32512135D03*
%TO.N,SCK*%
X86205265Y-33530265D03*
X85531000Y-30544000D03*
%TO.N,CS*%
X83705265Y-27530266D03*
X83799265Y-32624265D03*
%TO.N,LDAC*%
X95576000Y-29950000D03*
X87106735Y-30931735D03*
%TO.N,CURRENT_OUTPUT*%
X90125000Y-37450000D03*
X82125000Y-37950000D03*
%TO.N,Net-(R22-Pad1)*%
X73927233Y-41647767D03*
X73078703Y-42496297D03*
%TO.N,CURRENT_SENSE*%
X79037500Y-41537500D03*
X75025000Y-45450000D03*
%TO.N,A*%
X78125000Y-15450000D03*
X76125000Y-13450000D03*
%TO.N,B*%
X96625000Y-23550000D03*
X93460060Y-21230000D03*
%TO.N,Net-(R39-Pad2)*%
X85850000Y-10950000D03*
X87125000Y-10450000D03*
%TO.N,Net-(U3-RXCAN)*%
X100125000Y-47450000D03*
X102125000Y-47450000D03*
%TD*%
D61*
%TO.N,GND*%
X49500000Y-3500000D02*
X50500000Y-2500000D01*
X49000000Y-3500000D02*
X49500000Y-3500000D01*
D62*
%TO.N,+12V*%
X50500000Y-4500000D02*
X50500000Y-4050000D01*
X51878690Y-5878690D02*
X50500000Y-4500000D01*
X51878690Y-5878690D02*
X53807380Y-3950000D01*
D63*
%TO.N,Net-(Q7-G)*%
X96400064Y-17189000D02*
X90711000Y-17189000D01*
X96625064Y-16964000D02*
X96400064Y-17189000D01*
X101964000Y-16964000D02*
X96625064Y-16964000D01*
X90711000Y-17189000D02*
X90450000Y-17450000D01*
X103426000Y-14000000D02*
X103137555Y-14288445D01*
X103137555Y-14288445D02*
X103137555Y-15862445D01*
X103426000Y-11426000D02*
X103426000Y-14000000D01*
X102625000Y-10625000D02*
X103426000Y-11426000D01*
X103137555Y-15862445D02*
X102000000Y-17000000D01*
X102000000Y-17000000D02*
X101964000Y-16964000D01*
D61*
%TO.N,GND*%
X99350000Y-11301470D02*
X99325735Y-11325735D01*
X99350000Y-10500000D02*
X99350000Y-11301470D01*
X52100000Y-32600000D02*
X52500000Y-33000000D01*
X51500000Y-32600000D02*
X52100000Y-32600000D01*
X51987500Y-35512500D02*
X52000000Y-35500000D01*
X50500000Y-35512500D02*
X51987500Y-35512500D01*
%TO.N,Net-(J2-Pin_1)*%
X47175000Y-25000000D02*
X47000000Y-24825000D01*
X48500000Y-25000000D02*
X47175000Y-25000000D01*
X48205000Y-25000000D02*
X47690000Y-25515000D01*
X48500000Y-25000000D02*
X48205000Y-25000000D01*
X56125000Y-25125000D02*
X55500000Y-24500000D01*
X56125000Y-25950000D02*
X56125000Y-25125000D01*
%TO.N,+3.3V*%
X53936500Y-23936500D02*
X53063500Y-23936500D01*
X53063500Y-23936500D02*
X53500000Y-24373000D01*
X53936500Y-23936500D02*
X53500000Y-24373000D01*
X52509169Y-23382169D02*
X53063500Y-23936500D01*
X51117831Y-23382169D02*
X52509169Y-23382169D01*
X48175000Y-23175000D02*
X48500000Y-23500000D01*
X47000000Y-23175000D02*
X48175000Y-23175000D01*
%TO.N,GND*%
X51125000Y-21875000D02*
X51500000Y-21500000D01*
X50450000Y-21875000D02*
X51125000Y-21875000D01*
%TO.N,Net-(Q5-G)*%
X51175000Y-24500000D02*
X48550000Y-21875000D01*
X51325000Y-24500000D02*
X51175000Y-24500000D01*
%TO.N,Net-(Q5-D)*%
X50825000Y-20000000D02*
X51500000Y-19325000D01*
X49500000Y-20000000D02*
X50825000Y-20000000D01*
%TO.N,GND*%
X58000000Y-32000000D02*
X57030000Y-31030000D01*
X57030000Y-31030000D02*
X56125000Y-31030000D01*
%TO.N,+3.3V*%
X56552075Y-28490000D02*
X56125000Y-28490000D01*
X59251000Y-31188925D02*
X56552075Y-28490000D01*
X59251000Y-34823892D02*
X59251000Y-31188925D01*
X55187392Y-38887500D02*
X59251000Y-34823892D01*
X46125000Y-38887500D02*
X55187392Y-38887500D01*
D63*
%TO.N,V_FEEDBACK*%
X43849000Y-35076000D02*
X43849000Y-37536500D01*
X44625000Y-34300000D02*
X43849000Y-35076000D01*
X43849000Y-37536500D02*
X44250000Y-37937500D01*
X44625000Y-32275000D02*
X44625000Y-34300000D01*
D61*
X45225000Y-32275000D02*
X44625000Y-32275000D01*
X48960000Y-28540000D02*
X45225000Y-32275000D01*
X48960000Y-27400000D02*
X48960000Y-28540000D01*
D63*
X44885000Y-32275000D02*
X44625000Y-32275000D01*
D61*
%TO.N,Net-(U10-RA5)*%
X50230000Y-25055000D02*
X49675000Y-24500000D01*
X50230000Y-27400000D02*
X50230000Y-25055000D01*
%TO.N,Net-(J2-Pin_5)*%
X48960000Y-33632000D02*
X49479000Y-34151000D01*
X54166000Y-34151000D02*
X56125000Y-36110000D01*
X48960000Y-32600000D02*
X48960000Y-33632000D01*
X49479000Y-34151000D02*
X54166000Y-34151000D01*
%TO.N,Net-(J2-Pin_4)*%
X53555000Y-31000000D02*
X56125000Y-33570000D01*
X51030000Y-31000000D02*
X53555000Y-31000000D01*
X50230000Y-32600000D02*
X50230000Y-31800000D01*
X50230000Y-31800000D02*
X51030000Y-31000000D01*
%TO.N,+3.3V*%
X47000000Y-22050000D02*
X44400000Y-19450000D01*
X47000000Y-23175000D02*
X47000000Y-22050000D01*
%TO.N,Net-(J2-Pin_1)*%
X47690000Y-25515000D02*
X47000000Y-24825000D01*
X47690000Y-27400000D02*
X47690000Y-25515000D01*
%TO.N,+3.3V*%
X53900000Y-27400000D02*
X54000000Y-27500000D01*
X53100000Y-27400000D02*
X53900000Y-27400000D01*
X54000000Y-27500000D02*
X54990000Y-28490000D01*
X53100000Y-27400000D02*
X53500000Y-27000000D01*
X51500000Y-27400000D02*
X53100000Y-27400000D01*
X53500000Y-24373000D02*
X53500000Y-27000000D01*
X54990000Y-28490000D02*
X56125000Y-28490000D01*
X53500000Y-27000000D02*
X54000000Y-27500000D01*
X55436500Y-22436500D02*
X53936500Y-23936500D01*
X55436500Y-16889500D02*
X55436500Y-22436500D01*
%TO.N,Net-(D5-A)*%
X50387500Y-37275000D02*
X50500000Y-37387500D01*
X47000000Y-37275000D02*
X50387500Y-37275000D01*
%TO.N,Net-(U10-RA2)*%
X47690000Y-34935000D02*
X47000000Y-35625000D01*
X47690000Y-32600000D02*
X47690000Y-34935000D01*
D63*
%TO.N,GND*%
X92529849Y-29470151D02*
X91320000Y-30680000D01*
X91320000Y-30680000D02*
X90625000Y-30680000D01*
X92900000Y-29470151D02*
X92529849Y-29470151D01*
%TO.N,Net-(U14B-+)*%
X97125000Y-10355000D02*
X98245000Y-10355000D01*
X98245000Y-10355000D02*
X99650000Y-8950000D01*
%TO.N,Net-(R36-Pad2)*%
X99500000Y-12000000D02*
X101000000Y-10500000D01*
X99500000Y-12500000D02*
X99500000Y-12000000D01*
%TO.N,T_OUT+*%
X121206460Y-12000000D02*
X116110000Y-12000000D01*
X123101000Y-13894540D02*
X121206460Y-12000000D01*
X123101000Y-22509000D02*
X123101000Y-13894540D01*
X121000000Y-24610000D02*
X123101000Y-22509000D01*
X116110000Y-12000000D02*
X114575000Y-10465000D01*
%TO.N,T_IN+*%
X115000000Y-31500000D02*
X114500000Y-31500000D01*
X116500000Y-30000000D02*
X115000000Y-31500000D01*
X116500000Y-24030000D02*
X116500000Y-30000000D01*
X121000000Y-19530000D02*
X116500000Y-24030000D01*
%TO.N,T_OUT+*%
X114575000Y-10145000D02*
X114575000Y-10465000D01*
%TO.N,Net-(U14B-+)*%
X97850000Y-11080000D02*
X97850000Y-12500000D01*
X97125000Y-10355000D02*
X97850000Y-11080000D01*
%TO.N,TX_TEST*%
X88199000Y-15801000D02*
X86000000Y-18000000D01*
X90224000Y-15801000D02*
X88199000Y-15801000D01*
X90224000Y-16188064D02*
X90224000Y-15801000D01*
X90511936Y-16476000D02*
X90224000Y-16188064D01*
X91488064Y-16476000D02*
X90511936Y-16476000D01*
X91776000Y-16188064D02*
X91488064Y-16476000D01*
X93699000Y-15801000D02*
X91776000Y-15801000D01*
X96000000Y-13500000D02*
X93699000Y-15801000D01*
X98000000Y-13500000D02*
X96000000Y-13500000D01*
X91776000Y-15801000D02*
X91776000Y-16188064D01*
%TO.N,Net-(U14B--)*%
X95275000Y-12950000D02*
X93125000Y-12950000D01*
X96275000Y-11950000D02*
X95275000Y-12950000D01*
X95849000Y-11524000D02*
X96275000Y-11950000D01*
X96778032Y-9085000D02*
X95849000Y-10014032D01*
X97125000Y-9085000D02*
X96778032Y-9085000D01*
X95849000Y-10014032D02*
X95849000Y-11524000D01*
%TO.N,Net-(U14A--)*%
X93149999Y-7815000D02*
X94725000Y-9390001D01*
X94725000Y-9390001D02*
X94725000Y-11950000D01*
X92175000Y-7815000D02*
X93149999Y-7815000D01*
D61*
%TO.N,GND*%
X97000000Y-3225000D02*
X97000000Y-2000000D01*
X102500000Y-5000000D02*
X102500000Y-6000000D01*
%TO.N,Net-(U14B-+)*%
X100950000Y-5000000D02*
X100950000Y-7650000D01*
X100950000Y-7650000D02*
X99650000Y-8950000D01*
D63*
%TO.N,TX_TEST*%
X102625000Y-12751473D02*
X102625000Y-12275000D01*
X102278473Y-13500000D02*
X102278473Y-13098000D01*
X102278473Y-13098000D02*
X102625000Y-12751473D01*
%TO.N,Net-(Q6-B)*%
X98180414Y-14712727D02*
X97943141Y-14950000D01*
X98787273Y-14712727D02*
X98180414Y-14712727D01*
X97943141Y-14950000D02*
X97450000Y-14950000D01*
%TO.N,GND*%
X102465000Y-17965000D02*
X102500000Y-18000000D01*
X101187500Y-17965000D02*
X102465000Y-17965000D01*
D61*
%TO.N,+3.3V*%
X98895000Y-6545000D02*
X99650000Y-7300000D01*
X97125000Y-6545000D02*
X98895000Y-6545000D01*
X97475000Y-5250000D02*
X97000000Y-4775000D01*
X97475000Y-5500000D02*
X97475000Y-5250000D01*
X97475000Y-5500000D02*
X97475000Y-4775000D01*
X97475000Y-6195000D02*
X97475000Y-5500000D01*
X97125000Y-6545000D02*
X97475000Y-6195000D01*
D62*
X85999000Y-6999000D02*
X79626000Y-6999000D01*
X97000000Y-4775000D02*
X88223000Y-4775000D01*
X88223000Y-4775000D02*
X85999000Y-6999000D01*
X97475000Y-4775000D02*
X97000000Y-4775000D01*
X109378748Y-3774000D02*
X98476000Y-3774000D01*
X98476000Y-3774000D02*
X97475000Y-4775000D01*
D61*
%TO.N,TX_TEST*%
X79188925Y-32751000D02*
X79251000Y-32751000D01*
X79720000Y-33220000D02*
X81225000Y-33220000D01*
X78749000Y-32311075D02*
X79188925Y-32751000D01*
X78500000Y-32000000D02*
X78749000Y-32249000D01*
X78749000Y-32249000D02*
X78749000Y-32311075D01*
X79251000Y-32751000D02*
X79720000Y-33220000D01*
X78500000Y-31280000D02*
X78500000Y-32000000D01*
%TO.N,+12V*%
X66281037Y-30718963D02*
X66182037Y-30619963D01*
X65619963Y-30619963D02*
X62000000Y-34239925D01*
X66281037Y-30718963D02*
X69751000Y-34188925D01*
X66182037Y-30619963D02*
X65619963Y-30619963D01*
X62000000Y-34239925D02*
X62000000Y-36500000D01*
X65901000Y-30338925D02*
X65619963Y-30619963D01*
D63*
%TO.N,DRAIN*%
X69000000Y-36000000D02*
X64530000Y-40470000D01*
X64530000Y-40470000D02*
X64530000Y-48650000D01*
X69000000Y-34500000D02*
X69000000Y-36000000D01*
D61*
%TO.N,GND*%
X48950000Y-3450000D02*
X49000000Y-3500000D01*
X48025000Y-3450000D02*
X48950000Y-3450000D01*
D62*
%TO.N,+3.3V*%
X79624000Y-6999000D02*
X79125000Y-6500000D01*
X79626000Y-6999000D02*
X79624000Y-6999000D01*
X79125000Y-6500000D02*
X79125000Y-4950000D01*
D61*
X71250000Y-35417500D02*
X71282500Y-35450000D01*
X71250000Y-26950000D02*
X71250000Y-35417500D01*
D63*
X73586968Y-35450000D02*
X71282500Y-35450000D01*
X73961968Y-35075000D02*
X73586968Y-35450000D01*
X77450000Y-35075000D02*
X73961968Y-35075000D01*
%TO.N,BATT_SENSE*%
X74482500Y-37725000D02*
X73157500Y-36400000D01*
X75220000Y-37725000D02*
X74482500Y-37725000D01*
D61*
%TO.N,+12V*%
X80758100Y-43124000D02*
X81625000Y-43990900D01*
X79509900Y-43124000D02*
X80758100Y-43124000D01*
X77000000Y-40614100D02*
X79509900Y-43124000D01*
X72899000Y-38899000D02*
X75770196Y-38899000D01*
X77000000Y-40128804D02*
X77000000Y-40614100D01*
X69751000Y-35751000D02*
X72899000Y-38899000D01*
X75770196Y-38899000D02*
X77000000Y-40128804D01*
X69751000Y-34188925D02*
X69751000Y-35751000D01*
X65500000Y-15500000D02*
X65901000Y-15901000D01*
X81625000Y-43990900D02*
X81625000Y-44550000D01*
X65901000Y-15901000D02*
X65901000Y-30338925D01*
X65901000Y-30338925D02*
X66281037Y-30718963D01*
D63*
%TO.N,GND*%
X114070000Y-18070000D02*
X115000000Y-19000000D01*
X114070000Y-17950000D02*
X114070000Y-18070000D01*
X111400000Y-24400000D02*
X111400000Y-23950000D01*
X111500000Y-24500000D02*
X111400000Y-24400000D01*
X111500000Y-25000000D02*
X111500000Y-24500000D01*
X43625000Y-51500000D02*
X42500000Y-51500000D01*
X77815000Y-38510000D02*
X78000000Y-38325000D01*
X77815000Y-39600000D02*
X77815000Y-38510000D01*
D61*
%TO.N,+12V*%
X47549000Y-14114000D02*
X47549000Y-10208380D01*
X48300000Y-14865000D02*
X47549000Y-14114000D01*
X49100000Y-14865000D02*
X48300000Y-14865000D01*
X47549000Y-10208380D02*
X49307380Y-8450000D01*
D63*
%TO.N,Net-(Q4-G)*%
X49100000Y-13595000D02*
X48368000Y-13595000D01*
%TO.N,Net-(U14A--)*%
X90950000Y-7450000D02*
X89775000Y-7450000D01*
X91315000Y-7815000D02*
X90950000Y-7450000D01*
X92175000Y-7815000D02*
X91315000Y-7815000D01*
%TO.N,Net-(U14A-+)*%
X91500000Y-11500000D02*
X91500000Y-12925000D01*
X91500000Y-12925000D02*
X91475000Y-12950000D01*
X90899000Y-10899000D02*
X91500000Y-11500000D01*
X91828032Y-9085000D02*
X90899000Y-10014032D01*
X90899000Y-10014032D02*
X90899000Y-10899000D01*
X92175000Y-9085000D02*
X91828032Y-9085000D01*
X91425000Y-13000000D02*
X91475000Y-12950000D01*
X90500000Y-13000000D02*
X91425000Y-13000000D01*
X89400000Y-15100000D02*
X90000000Y-14500000D01*
X88450000Y-15100000D02*
X89400000Y-15100000D01*
%TO.N,GND*%
X65000000Y-19315000D02*
X65000000Y-18500000D01*
X61425000Y-18425000D02*
X61500000Y-18500000D01*
X61425000Y-17720000D02*
X61425000Y-18425000D01*
X56625000Y-17875000D02*
X57000000Y-17500000D01*
X56625000Y-18550000D02*
X56625000Y-17875000D01*
D61*
%TO.N,+12V*%
X54426000Y-18399000D02*
X53500000Y-19325000D01*
X54426000Y-16865656D02*
X54426000Y-18399000D01*
X53695344Y-16135000D02*
X54426000Y-16865656D01*
X49100000Y-16135000D02*
X53695344Y-16135000D01*
D63*
%TO.N,Net-(Q4-G)*%
X49195000Y-13500000D02*
X49100000Y-13595000D01*
X51000000Y-13500000D02*
X49195000Y-13500000D01*
X53500000Y-17675000D02*
X53500000Y-17000000D01*
X53500000Y-17675000D02*
X51500000Y-17675000D01*
D61*
%TO.N,+3.3V*%
X55000854Y-13450854D02*
X54050000Y-12500000D01*
X54974000Y-13477708D02*
X55000854Y-13450854D01*
X54974000Y-16422292D02*
X54974000Y-13477708D01*
X55377708Y-16826000D02*
X54974000Y-16422292D01*
D63*
%TO.N,Net-(Q5-D)*%
X51175000Y-19000000D02*
X51500000Y-19325000D01*
%TO.N,Net-(U3-TXCAN)*%
X106985000Y-42500000D02*
X108125000Y-43640000D01*
X106169890Y-42500000D02*
X106985000Y-42500000D01*
X97425000Y-48530000D02*
X100139890Y-48530000D01*
X100139890Y-48530000D02*
X106169890Y-42500000D01*
%TO.N,GND*%
X105625000Y-43893420D02*
X106009210Y-43509210D01*
X105625000Y-44450000D02*
X105625000Y-43893420D01*
X102950000Y-43950000D02*
X103000000Y-44000000D01*
X102005000Y-43950000D02*
X102950000Y-43950000D01*
X102850000Y-39850000D02*
X103000000Y-40000000D01*
X101925000Y-39850000D02*
X102850000Y-39850000D01*
X101925000Y-38075000D02*
X101900000Y-38050000D01*
X101925000Y-39850000D02*
X101925000Y-38075000D01*
X100325000Y-41675000D02*
X100325000Y-42050000D01*
X101925000Y-40075000D02*
X100325000Y-41675000D01*
X101925000Y-39850000D02*
X101925000Y-40075000D01*
X42650000Y-19450000D02*
X42100000Y-20000000D01*
X42850000Y-19450000D02*
X42650000Y-19450000D01*
D62*
%TO.N,Net-(D4-K)*%
X39087500Y-8782500D02*
X43900000Y-13595000D01*
X39087500Y-7587500D02*
X39087500Y-8782500D01*
X39087500Y-7587500D02*
X38587500Y-8087500D01*
D63*
%TO.N,GND*%
X52500000Y-12500000D02*
X51500000Y-12500000D01*
D61*
%TO.N,+3.3V*%
X55660000Y-10890000D02*
X54050000Y-12500000D01*
X55885000Y-10890000D02*
X55660000Y-10890000D01*
X55885000Y-6950000D02*
X55885000Y-10890000D01*
%TO.N,+12V*%
X49100000Y-17405000D02*
X49100000Y-14865000D01*
D63*
%TO.N,Net-(U1-RB13)*%
X91520000Y-24330000D02*
X90625000Y-24330000D01*
X94978842Y-20871158D02*
X91520000Y-24330000D01*
X95024762Y-20871158D02*
X94978842Y-20871158D01*
%TO.N,B*%
X92900060Y-21790000D02*
X93460060Y-21230000D01*
X90625000Y-21790000D02*
X92900060Y-21790000D01*
D61*
%TO.N,Net-(D4-K)*%
X43900000Y-14865000D02*
X43900000Y-13595000D01*
X43900000Y-16500000D02*
X43900000Y-16135000D01*
X43900000Y-16500000D02*
X43900000Y-14865000D01*
X43900000Y-17405000D02*
X43900000Y-16500000D01*
D62*
X38587500Y-8087500D02*
X38425000Y-8250000D01*
D63*
%TO.N,Net-(R31-Pad2)*%
X114000000Y-25000000D02*
X114075000Y-25075000D01*
X114075000Y-25075000D02*
X114075000Y-28012500D01*
X112375000Y-25262500D02*
X111625000Y-26012500D01*
X112375000Y-25000000D02*
X112375000Y-25262500D01*
D61*
%TO.N,Net-(D2-A)*%
X98162500Y-34505000D02*
X98662500Y-35005000D01*
X96862500Y-34505000D02*
X98162500Y-34505000D01*
%TO.N,Net-(D3-A)*%
X98450000Y-32505000D02*
X96712500Y-32505000D01*
%TO.N,+12V*%
X65412500Y-6950000D02*
X66045000Y-6950000D01*
X58325000Y-14037500D02*
X65412500Y-6950000D01*
D63*
%TO.N,+3.3V*%
X94700000Y-20005000D02*
X93425000Y-18730000D01*
X95600000Y-20005000D02*
X94700000Y-20005000D01*
%TO.N,GND*%
X94019000Y-20280000D02*
X93425000Y-20280000D01*
X94279208Y-20581069D02*
X94279208Y-20540208D01*
X94279208Y-20540208D02*
X94019000Y-20280000D01*
D61*
%TO.N,+3.3V*%
X90625000Y-19250000D02*
X92905000Y-19250000D01*
X92905000Y-19250000D02*
X93425000Y-18730000D01*
D63*
X100500000Y-24400000D02*
X99950000Y-24950000D01*
X100500000Y-24000000D02*
X100500000Y-24400000D01*
X99950000Y-24000000D02*
X99950000Y-24950000D01*
%TO.N,B*%
X97249000Y-24174000D02*
X96625000Y-23550000D01*
X98713064Y-24174000D02*
X97249000Y-24174000D01*
X99001000Y-24461936D02*
X98713064Y-24174000D01*
X99001000Y-25326000D02*
X99001000Y-24461936D01*
X106226000Y-27759001D02*
X104192999Y-25726000D01*
X99401000Y-25726000D02*
X99001000Y-25326000D01*
X110975001Y-34000000D02*
X106226000Y-29250999D01*
X112000000Y-34000000D02*
X110975001Y-34000000D01*
X106226000Y-29250999D02*
X106226000Y-27759001D01*
X104192999Y-25726000D02*
X99401000Y-25726000D01*
%TO.N,+3.3V*%
X96995000Y-27005000D02*
X97500000Y-26500000D01*
X96925000Y-27005000D02*
X96995000Y-27005000D01*
%TO.N,GND*%
X79500000Y-28500000D02*
X79860000Y-28140000D01*
X79860000Y-28140000D02*
X81225000Y-28140000D01*
%TO.N,Net-(Q6-B)*%
X104026000Y-14409298D02*
X104675000Y-13760298D01*
X104675000Y-13760298D02*
X104675000Y-13387500D01*
%TO.N,Net-(R40-Pad2)*%
X89950000Y-13450000D02*
X88450000Y-13450000D01*
X91325735Y-14825735D02*
X89950000Y-13450000D01*
X93825735Y-14825735D02*
X91325735Y-14825735D01*
X95550000Y-14950000D02*
X95000000Y-15500000D01*
X95800000Y-14950000D02*
X95550000Y-14950000D01*
%TO.N,GND*%
X92175000Y-10825000D02*
X92000000Y-11000000D01*
X92175000Y-10355000D02*
X92175000Y-10825000D01*
%TO.N,TX_TEST*%
X102625000Y-12327510D02*
X102625000Y-12275000D01*
X102413020Y-12539490D02*
X102625000Y-12327510D01*
%TO.N,TX*%
X88000000Y-18500000D02*
X88800000Y-17700000D01*
X88800000Y-17700000D02*
X88800000Y-17450000D01*
D61*
%TO.N,+3.3V*%
X89750000Y-19250000D02*
X90625000Y-19250000D01*
X88500000Y-20500000D02*
X89750000Y-19250000D01*
X87000000Y-20500000D02*
X88500000Y-20500000D01*
X81574000Y-15074000D02*
X87000000Y-20500000D01*
X81574000Y-14899000D02*
X81574000Y-15074000D01*
X79125000Y-12450000D02*
X81574000Y-14899000D01*
D63*
%TO.N,A*%
X79950000Y-15450000D02*
X78125000Y-15450000D01*
X80323000Y-15823000D02*
X79950000Y-15450000D01*
X81913064Y-16224000D02*
X81291100Y-16224000D01*
X82201000Y-16511936D02*
X81913064Y-16224000D01*
X82201000Y-17488064D02*
X82201000Y-16511936D01*
X80890100Y-15823000D02*
X80323000Y-15823000D01*
X82094532Y-17594532D02*
X82201000Y-17488064D01*
X87560000Y-23060000D02*
X82094532Y-17594532D01*
X90625000Y-23060000D02*
X87560000Y-23060000D01*
X81291100Y-16224000D02*
X80890100Y-15823000D01*
%TO.N,PGC*%
X76010000Y-29070000D02*
X76000000Y-29080000D01*
X77120000Y-29070000D02*
X76010000Y-29070000D01*
%TO.N,PGD*%
X76010000Y-26530000D02*
X76000000Y-26540000D01*
X77120000Y-26530000D02*
X76010000Y-26530000D01*
D61*
%TO.N,+3.3V*%
X71790000Y-21460000D02*
X71250000Y-22000000D01*
X72000000Y-21460000D02*
X71790000Y-21460000D01*
X71250000Y-22000000D02*
X71250000Y-21500000D01*
X72000000Y-21460000D02*
X71710000Y-21460000D01*
X71710000Y-21460000D02*
X71250000Y-21000000D01*
X71250000Y-21000000D02*
X71250000Y-20325000D01*
X72000000Y-21460000D02*
X71290000Y-21460000D01*
D63*
%TO.N,MCLR*%
X79850000Y-17875000D02*
X81225000Y-19250000D01*
X79850000Y-17000000D02*
X79850000Y-17875000D01*
X77930000Y-18920000D02*
X79850000Y-17000000D01*
X76000000Y-18920000D02*
X77930000Y-18920000D01*
D61*
%TO.N,+3.3V*%
X71290000Y-21460000D02*
X71250000Y-21500000D01*
X76000000Y-21460000D02*
X72000000Y-21460000D01*
X71250000Y-21500000D02*
X71250000Y-21000000D01*
D63*
X77035000Y-15209943D02*
X77035000Y-15075000D01*
D62*
X76500000Y-14540000D02*
X77035000Y-14540000D01*
D63*
X77035000Y-15075000D02*
X76500000Y-14540000D01*
X80724000Y-16224000D02*
X78049057Y-16224000D01*
X78049057Y-16224000D02*
X77035000Y-15209943D01*
X77035000Y-15209943D02*
X77035000Y-14540000D01*
X81500000Y-17000000D02*
X80724000Y-16224000D01*
%TO.N,GND*%
X90865000Y-20280000D02*
X90625000Y-20520000D01*
X93425000Y-20280000D02*
X90865000Y-20280000D01*
D61*
%TO.N,Net-(U1-VCAP)*%
X91557000Y-29410000D02*
X92725000Y-28242000D01*
X92725000Y-28242000D02*
X92725000Y-27500000D01*
X90625000Y-29410000D02*
X91557000Y-29410000D01*
D63*
%TO.N,GND*%
X94275000Y-28825000D02*
X94100000Y-29000000D01*
X94275000Y-27500000D02*
X94275000Y-28825000D01*
X90625000Y-30680000D02*
X91220000Y-30680000D01*
X96500000Y-26000000D02*
X96000000Y-26000000D01*
X97000000Y-25500000D02*
X96500000Y-26000000D01*
X96000000Y-26000000D02*
X94500000Y-27500000D01*
X94500000Y-27500000D02*
X94275000Y-27500000D01*
%TO.N,SDA*%
X93500000Y-25375000D02*
X94425000Y-24450000D01*
X93500000Y-29775000D02*
X93500000Y-25375000D01*
X91325000Y-31950000D02*
X93500000Y-29775000D01*
X90625000Y-31950000D02*
X91325000Y-31950000D01*
%TO.N,SCL*%
X92780000Y-33220000D02*
X90625000Y-33220000D01*
X94976000Y-28099000D02*
X94976000Y-31024000D01*
X95570000Y-27505000D02*
X94976000Y-28099000D01*
X96925000Y-27505000D02*
X95570000Y-27505000D01*
X94976000Y-31024000D02*
X92780000Y-33220000D01*
%TO.N,GND*%
X100325000Y-31675000D02*
X100500000Y-31500000D01*
X100325000Y-32505000D02*
X100325000Y-31675000D01*
%TO.N,Net-(R12-Pad1)*%
X80325000Y-46950000D02*
X80875000Y-47500000D01*
X78760000Y-46950000D02*
X80325000Y-46950000D01*
X81625000Y-40875000D02*
X81500000Y-41000000D01*
X81625000Y-39600000D02*
X81625000Y-40875000D01*
D61*
%TO.N,+12V*%
X81000000Y-46000000D02*
X81125000Y-46000000D01*
X81625000Y-46000000D02*
X81625000Y-46500000D01*
X81125000Y-46000000D02*
X81625000Y-46500000D01*
X81625000Y-44550000D02*
X81625000Y-45375000D01*
X81000000Y-46000000D02*
X77675000Y-46000000D01*
X81625000Y-45375000D02*
X81000000Y-46000000D01*
X81625000Y-46000000D02*
X81000000Y-46000000D01*
X77675000Y-46000000D02*
X76225000Y-47450000D01*
X81625000Y-46500000D02*
X81625000Y-48085000D01*
X86500000Y-49725000D02*
X87000000Y-50225000D01*
X83265000Y-49725000D02*
X86500000Y-49725000D01*
X81625000Y-48085000D02*
X83265000Y-49725000D01*
X81625000Y-44550000D02*
X81625000Y-46000000D01*
D63*
%TO.N,BATT_SENSE*%
X75250000Y-39750000D02*
X76000000Y-40500000D01*
X75220000Y-39750000D02*
X75250000Y-39750000D01*
X75220000Y-37725000D02*
X76500000Y-37725000D01*
D61*
%TO.N,Net-(U16-CAP)*%
X63450000Y-16875000D02*
X63025000Y-16450000D01*
X63450000Y-19315000D02*
X63450000Y-16875000D01*
D63*
%TO.N,CURRENT_SENSE*%
X79037500Y-41537500D02*
X80355000Y-40220000D01*
X80355000Y-40220000D02*
X80355000Y-39600000D01*
D61*
%TO.N,GND*%
X44625000Y-30125000D02*
X44500000Y-30000000D01*
X44625000Y-30625000D02*
X44625000Y-30125000D01*
D63*
%TO.N,Vdrive*%
X45288500Y-42786500D02*
X43625000Y-44450000D01*
X45288500Y-39496532D02*
X45288500Y-42786500D01*
X45053468Y-39261500D02*
X45288500Y-39496532D01*
X45053468Y-38579564D02*
X45053468Y-39261500D01*
X45346532Y-36671532D02*
X45346532Y-38286500D01*
X45346532Y-38286500D02*
X45053468Y-38579564D01*
X44625000Y-35950000D02*
X45346532Y-36671532D01*
%TO.N,RX*%
X104500000Y-22000000D02*
X102500000Y-24000000D01*
X104500000Y-20500000D02*
X104500000Y-22000000D01*
X107075000Y-19000000D02*
X108125000Y-17950000D01*
X106000000Y-19000000D02*
X107075000Y-19000000D01*
X99500000Y-28500000D02*
X99500000Y-27000000D01*
X97000000Y-31000000D02*
X99500000Y-28500000D01*
X79550000Y-31950000D02*
X79500000Y-32000000D01*
X81225000Y-31950000D02*
X79550000Y-31950000D01*
%TO.N,LDAC*%
X86588470Y-31450000D02*
X87106735Y-30931735D01*
X82085000Y-29410000D02*
X84125000Y-31450000D01*
X84125000Y-31450000D02*
X86588470Y-31450000D01*
X81225000Y-29410000D02*
X82085000Y-29410000D01*
%TO.N,SO*%
X84705265Y-24638265D02*
X81857000Y-21790000D01*
X84705265Y-28500000D02*
X84705265Y-24638265D01*
X81857000Y-21790000D02*
X81225000Y-21790000D01*
%TO.N,CS*%
X81775000Y-25600000D02*
X81225000Y-25600000D01*
X83705265Y-27530266D02*
X81775000Y-25600000D01*
D61*
%TO.N,+3.3V*%
X109882075Y-47994925D02*
X109882075Y-46180000D01*
X106377000Y-51500000D02*
X109882075Y-47994925D01*
X97500000Y-51500000D02*
X106377000Y-51500000D01*
X91931870Y-48530000D02*
X94950935Y-51549065D01*
X88125000Y-48530000D02*
X91931870Y-48530000D01*
%TO.N,Net-(U16-DRIVER_C)*%
X67625000Y-13910000D02*
X67625000Y-15180000D01*
X66500000Y-12785000D02*
X67625000Y-13910000D01*
X66500000Y-12500000D02*
X66500000Y-12785000D01*
X62590000Y-13910000D02*
X64000000Y-12500000D01*
X61425000Y-13910000D02*
X62590000Y-13910000D01*
%TO.N,+12V*%
X65500000Y-7495000D02*
X66045000Y-6950000D01*
X66450000Y-16450000D02*
X65500000Y-15500000D01*
X65500000Y-15500000D02*
X65500000Y-7495000D01*
X67625000Y-16450000D02*
X66450000Y-16450000D01*
D63*
%TO.N,GND*%
X72325000Y-16675000D02*
X72000000Y-17000000D01*
X72325000Y-16090000D02*
X72325000Y-16675000D01*
X71950000Y-17050000D02*
X72000000Y-17000000D01*
X71950000Y-17950000D02*
X71950000Y-17050000D01*
D61*
%TO.N,+3.3V*%
X71537500Y-20037500D02*
X72037500Y-19537500D01*
X71825000Y-19750000D02*
X71537500Y-20037500D01*
X72537500Y-19037500D02*
X74625000Y-16950000D01*
X72037500Y-19537500D02*
X72537500Y-19037500D01*
D63*
%TO.N,GND*%
X75510000Y-23990000D02*
X75000000Y-24500000D01*
%TO.N,BATT_SENSE*%
X89975000Y-25600000D02*
X90625000Y-25600000D01*
X86938413Y-31950000D02*
X88125000Y-30763413D01*
X83125000Y-32450000D02*
X83625000Y-31950000D01*
X83125000Y-35725000D02*
X83125000Y-32450000D01*
X83625000Y-31950000D02*
X86938413Y-31950000D01*
X88125000Y-30763413D02*
X88125000Y-27450000D01*
X81125000Y-37725000D02*
X83125000Y-35725000D01*
X88125000Y-27450000D02*
X89975000Y-25600000D01*
%TO.N,TX*%
X81925000Y-35760000D02*
X81225000Y-35760000D01*
X82819877Y-31906593D02*
X82818409Y-31906593D01*
X82818409Y-31906593D02*
X82723684Y-32001318D01*
X82723684Y-32001318D02*
X82723684Y-34961316D01*
X82723684Y-34961316D02*
X81925000Y-35760000D01*
%TO.N,CS*%
X82500000Y-44500000D02*
X83990000Y-45990000D01*
X82500000Y-41500000D02*
X82500000Y-44500000D01*
X83000000Y-41000000D02*
X82500000Y-41500000D01*
X83000000Y-37500000D02*
X83000000Y-41000000D01*
X83799265Y-36700735D02*
X83000000Y-37500000D01*
X83799265Y-32624265D02*
X83799265Y-36700735D01*
X83990000Y-45990000D02*
X88125000Y-45990000D01*
%TO.N,GND*%
X105050000Y-24450000D02*
X105000000Y-24500000D01*
X105800000Y-24450000D02*
X105050000Y-24450000D01*
X101995000Y-27005000D02*
X102500000Y-26500000D01*
X101150000Y-27005000D02*
X101995000Y-27005000D01*
D61*
%TO.N,+3.3V*%
X109882075Y-46180000D02*
X108125000Y-46180000D01*
X111500000Y-44562075D02*
X109882075Y-46180000D01*
X113125000Y-41284364D02*
X111500000Y-42909364D01*
X113125000Y-29887500D02*
X113125000Y-41284364D01*
X111500000Y-42909364D02*
X111500000Y-44562075D01*
D63*
%TO.N,B*%
X117710000Y-33790000D02*
X121000000Y-33790000D01*
X114500000Y-34000000D02*
X117500000Y-34000000D01*
X117500000Y-34000000D02*
X117710000Y-33790000D01*
%TO.N,T_IN+*%
X110225000Y-31500000D02*
X112000000Y-31500000D01*
X110112500Y-31387500D02*
X110225000Y-31500000D01*
%TO.N,Net-(U14A--)*%
X89775000Y-7450000D02*
X89775000Y-10450000D01*
%TO.N,GND*%
X101037500Y-20537500D02*
X102000000Y-21500000D01*
X101037500Y-20505000D02*
X101037500Y-20537500D01*
X101187500Y-20355000D02*
X101037500Y-20505000D01*
X101187500Y-17965000D02*
X101187500Y-20355000D01*
D61*
%TO.N,+3.3V*%
X104749000Y-16751000D02*
X106825000Y-14675000D01*
X106825000Y-14675000D02*
X108125000Y-14675000D01*
X104749000Y-18899000D02*
X104749000Y-16751000D01*
X106800000Y-20950000D02*
X104749000Y-18899000D01*
X109800000Y-13000000D02*
X108125000Y-14675000D01*
X110260000Y-13000000D02*
X109800000Y-13000000D01*
X110125000Y-12865000D02*
X110260000Y-13000000D01*
X110125000Y-9950000D02*
X110125000Y-12865000D01*
X112450000Y-4950000D02*
X110450000Y-4950000D01*
X113000000Y-5500000D02*
X112450000Y-4950000D01*
X113000000Y-7075000D02*
X113000000Y-5500000D01*
X110125000Y-9950000D02*
X113000000Y-7075000D01*
D63*
%TO.N,GND*%
X105550000Y-17950000D02*
X105500000Y-18000000D01*
X106475000Y-17950000D02*
X105550000Y-17950000D01*
X108125000Y-16300000D02*
X106475000Y-17950000D01*
X108125000Y-16225000D02*
X108125000Y-16300000D01*
%TO.N,RX*%
X108125000Y-17950000D02*
X110260000Y-17950000D01*
%TO.N,Net-(U13A--)*%
X108450000Y-20950000D02*
X110300000Y-20950000D01*
%TO.N,Net-(U13A-+)*%
X112800000Y-16975001D02*
X112800000Y-17950000D01*
X111189032Y-16674000D02*
X112498999Y-16674000D01*
X110929000Y-16934032D02*
X111189032Y-16674000D01*
X110929000Y-18897968D02*
X110929000Y-16934032D01*
X109826968Y-20000000D02*
X110929000Y-18897968D01*
X109500000Y-20000000D02*
X109826968Y-20000000D01*
X107450000Y-24365511D02*
X108565511Y-23250000D01*
X107450000Y-24450000D02*
X107450000Y-24365511D01*
X112498999Y-16674000D02*
X112800000Y-16975001D01*
%TO.N,Net-(U13A--)*%
X111530000Y-19720000D02*
X111530000Y-17950000D01*
X110300000Y-20950000D02*
X111530000Y-19720000D01*
%TO.N,Net-(R33-Pad2)*%
X113800000Y-20950000D02*
X111950000Y-20950000D01*
%TO.N,GND*%
X115450000Y-20050000D02*
X115500000Y-20000000D01*
X115450000Y-20950000D02*
X115450000Y-20050000D01*
D61*
%TO.N,+3.3V*%
X111387242Y-22500000D02*
X108350000Y-22500000D01*
X113125000Y-24237758D02*
X111387242Y-22500000D01*
X108350000Y-22500000D02*
X106800000Y-20950000D01*
X113125000Y-29887500D02*
X113125000Y-24237758D01*
D63*
%TO.N,GND*%
X86225000Y-51775000D02*
X86000000Y-52000000D01*
X87000000Y-51775000D02*
X86225000Y-51775000D01*
D61*
%TO.N,+3.3V*%
X79774000Y-34490000D02*
X81225000Y-34490000D01*
X79774000Y-36774000D02*
X79774000Y-34490000D01*
X80000000Y-37000000D02*
X79774000Y-36774000D01*
D63*
X78125000Y-34400000D02*
X81135000Y-34400000D01*
D61*
X85530000Y-48530000D02*
X82500000Y-45500000D01*
X88125000Y-48530000D02*
X85530000Y-48530000D01*
D63*
%TO.N,GND*%
X73720000Y-50280000D02*
X73720000Y-49700000D01*
X73500000Y-50500000D02*
X73720000Y-50280000D01*
X78175000Y-50175000D02*
X77500000Y-49500000D01*
X78175000Y-50575000D02*
X78175000Y-50175000D01*
X77625000Y-58875000D02*
X77500000Y-59000000D01*
X77625000Y-58450000D02*
X77625000Y-58875000D01*
%TO.N,BAT-*%
X84000000Y-56500000D02*
X86537500Y-56500000D01*
D62*
X86537500Y-56500000D02*
X86537500Y-54950000D01*
D63*
X75549000Y-51549000D02*
X80000000Y-56000000D01*
X66968064Y-51549000D02*
X75549000Y-51549000D01*
X65018064Y-49599000D02*
X66968064Y-51549000D01*
X67217064Y-47400000D02*
X65018064Y-49599000D01*
X68315000Y-47400000D02*
X67217064Y-47400000D01*
X66720000Y-45575000D02*
X66720000Y-45805000D01*
X66720000Y-45805000D02*
X68315000Y-47400000D01*
X66957500Y-45812500D02*
X66720000Y-45575000D01*
D61*
%TO.N,GND*%
X109910000Y-44910000D02*
X110000000Y-45000000D01*
X108125000Y-44910000D02*
X109910000Y-44910000D01*
X97630000Y-38370000D02*
X98500000Y-37500000D01*
X97425000Y-38370000D02*
X97630000Y-38370000D01*
X100537500Y-36037500D02*
X101000000Y-36500000D01*
X100537500Y-35005000D02*
X100537500Y-36037500D01*
D62*
%TO.N,+3.3V*%
X110450000Y-4845252D02*
X110450000Y-4950000D01*
X109378748Y-3774000D02*
X110450000Y-4845252D01*
D63*
%TO.N,GND*%
X106112500Y-13387500D02*
X106000000Y-13500000D01*
X106575000Y-13387500D02*
X106112500Y-13387500D01*
X104250000Y-9750000D02*
X104000000Y-10000000D01*
X104250000Y-9400000D02*
X104250000Y-9750000D01*
D62*
%TO.N,+3.3V*%
X79125000Y-7500000D02*
X79626000Y-6999000D01*
X79125000Y-7500000D02*
X79125000Y-6500000D01*
D63*
%TO.N,GND*%
X66395000Y-40895000D02*
X66500000Y-41000000D01*
X66395000Y-40425000D02*
X66395000Y-40895000D01*
X67550000Y-42450000D02*
X67500000Y-42500000D01*
X68315000Y-42450000D02*
X67550000Y-42450000D01*
X66395000Y-40530000D02*
X66395000Y-40425000D01*
X66570000Y-49070000D02*
X66500000Y-49000000D01*
X66570000Y-49925000D02*
X66570000Y-49070000D01*
X78050000Y-35950000D02*
X78125000Y-35950000D01*
X77075000Y-36075000D02*
X77925000Y-36075000D01*
X77075000Y-36075000D02*
X75220000Y-36075000D01*
X77925000Y-36075000D02*
X78050000Y-35950000D01*
%TO.N,+3.3V*%
X77450000Y-35075000D02*
X78125000Y-34400000D01*
%TO.N,DRAIN*%
X81225000Y-30680000D02*
X74434795Y-30680000D01*
X74434795Y-30680000D02*
X72099476Y-33015319D01*
D62*
%TO.N,+3.3V*%
X73625000Y-14540000D02*
X74625000Y-14540000D01*
D63*
X111645000Y-6145000D02*
X110450000Y-4950000D01*
D61*
X108125000Y-46180000D02*
X105985000Y-46180000D01*
X74625000Y-15450000D02*
X74625000Y-14540000D01*
D63*
X99950000Y-22950000D02*
X99950000Y-24000000D01*
X99174000Y-22174000D02*
X97769000Y-22174000D01*
D61*
X74625000Y-16950000D02*
X74625000Y-15450000D01*
D63*
X97769000Y-22174000D02*
X95600000Y-20005000D01*
D62*
X72325000Y-14540000D02*
X73625000Y-14540000D01*
D61*
X74715000Y-15450000D02*
X75625000Y-14540000D01*
X74535000Y-15450000D02*
X73625000Y-14540000D01*
D62*
X70650000Y-14540000D02*
X70525000Y-14665000D01*
X77035000Y-14540000D02*
X79125000Y-12450000D01*
D63*
X81135000Y-34400000D02*
X81225000Y-34490000D01*
D62*
X75625000Y-14540000D02*
X76500000Y-14540000D01*
D63*
X99950000Y-22950000D02*
X99174000Y-22174000D01*
D61*
X74625000Y-15450000D02*
X74715000Y-15450000D01*
D62*
X79125000Y-12450000D02*
X79125000Y-7500000D01*
D61*
X74715000Y-15450000D02*
X74535000Y-15450000D01*
X71250000Y-20325000D02*
X71537500Y-20037500D01*
D62*
X74625000Y-14540000D02*
X75625000Y-14540000D01*
D61*
X105985000Y-46180000D02*
X105625000Y-45820000D01*
X71250000Y-26950000D02*
X71250000Y-22000000D01*
D62*
X72325000Y-14540000D02*
X70650000Y-14540000D01*
D63*
X111645000Y-6430000D02*
X111645000Y-6145000D01*
D61*
%TO.N,BAT+*%
X74825000Y-55950000D02*
X74125000Y-56650000D01*
D62*
X74125000Y-56650000D02*
X67825000Y-56650000D01*
D63*
X79245532Y-53950000D02*
X79625000Y-53950000D01*
X75625000Y-44194064D02*
X75625000Y-50329468D01*
X72344000Y-40169000D02*
X72344000Y-40913064D01*
X75625000Y-50329468D02*
X79245532Y-53950000D01*
D61*
X87446000Y-52788500D02*
X83503500Y-52788500D01*
X81975000Y-51600000D02*
X79625000Y-53950000D01*
X83503500Y-52788500D02*
X82315000Y-51600000D01*
D63*
X72344000Y-40913064D02*
X75625000Y-44194064D01*
D61*
X75625000Y-55950000D02*
X74825000Y-55950000D01*
X91885000Y-57227500D02*
X87446000Y-52788500D01*
D63*
X69720000Y-38425000D02*
X70600000Y-38425000D01*
D61*
X82315000Y-51600000D02*
X81975000Y-51600000D01*
D63*
X70600000Y-38425000D02*
X72344000Y-40169000D01*
D62*
%TO.N,Vdrive*%
X43625000Y-44450000D02*
X42125000Y-45950000D01*
X43625000Y-46450000D02*
X43625000Y-44450000D01*
X43125000Y-45950000D02*
X43625000Y-46450000D01*
X73824000Y-54049000D02*
X74125000Y-54350000D01*
X43625000Y-44450000D02*
X50125000Y-44450000D01*
X50125000Y-44450000D02*
X54625000Y-48950000D01*
X32125000Y-47950000D02*
X32125000Y-48972220D01*
X39102780Y-48972220D02*
X32125000Y-48972220D01*
X59724000Y-54049000D02*
X73824000Y-54049000D01*
X42125000Y-45950000D02*
X43125000Y-45950000D01*
X42125000Y-45950000D02*
X39102780Y-48972220D01*
X54625000Y-48950000D02*
X59724000Y-54049000D01*
X22125000Y-37950000D02*
X32125000Y-47950000D01*
X43625000Y-49950000D02*
X43625000Y-46450000D01*
D63*
%TO.N,Net-(Q2-C)*%
X76426000Y-56649000D02*
X74125000Y-58950000D01*
X76625000Y-55419214D02*
X76426000Y-55618214D01*
X76426000Y-55618214D02*
X76426000Y-56649000D01*
X76625000Y-54450000D02*
X76625000Y-55419214D01*
X79125000Y-52450000D02*
X78625000Y-52450000D01*
%TO.N,+12V*%
X72125000Y-47400000D02*
X72970000Y-47400000D01*
X74325000Y-48150000D02*
X75025000Y-47450000D01*
X72970000Y-47400000D02*
X73720000Y-48150000D01*
D62*
X63045000Y-3950000D02*
X53807380Y-3950000D01*
D63*
X73720000Y-48150000D02*
X74325000Y-48150000D01*
D61*
X57912500Y-14037500D02*
X56537500Y-14037500D01*
D62*
X66045000Y-6950000D02*
X63045000Y-3950000D01*
X49307380Y-8450000D02*
X51878690Y-5878690D01*
D63*
%TO.N,Net-(Q7-G)*%
X102625000Y-9125000D02*
X102625000Y-10625000D01*
X104250000Y-7500000D02*
X102625000Y-9125000D01*
%TO.N,3V3_FB*%
X70300000Y-17950000D02*
X70300000Y-16540000D01*
X70300000Y-16540000D02*
X70525000Y-16315000D01*
X67855000Y-17950000D02*
X67625000Y-17720000D01*
X70300000Y-17950000D02*
X67855000Y-17950000D01*
%TO.N,T_OUT-*%
X117308000Y-14450000D02*
X120625000Y-14450000D01*
X113790000Y-10932000D02*
X117308000Y-14450000D01*
X113790000Y-10525000D02*
X113790000Y-10932000D01*
%TO.N,PGD*%
X77120000Y-26530000D02*
X80590000Y-23060000D01*
X80590000Y-23060000D02*
X81225000Y-23060000D01*
%TO.N,SDA*%
X96925000Y-28005000D02*
X96058405Y-28005000D01*
X96058405Y-28005000D02*
X95612500Y-28450905D01*
X96075000Y-22950000D02*
X94425000Y-24600000D01*
X98300000Y-22950000D02*
X96075000Y-22950000D01*
%TO.N,SO*%
X88521968Y-44720000D02*
X88125000Y-44720000D01*
X84705265Y-33950000D02*
X84705265Y-40495233D01*
X84705265Y-40495233D02*
X87059032Y-42849000D01*
X87059032Y-42849000D02*
X89190968Y-42849000D01*
X89190968Y-42849000D02*
X89451000Y-43109032D01*
X89451000Y-43790968D02*
X88521968Y-44720000D01*
X89451000Y-43109032D02*
X89451000Y-43790968D01*
%TO.N,SI*%
X86625000Y-25220000D02*
X86625000Y-29950000D01*
X87148187Y-32512135D02*
X87148187Y-35473187D01*
X86225000Y-36396374D02*
X86225000Y-40450000D01*
X81225000Y-20520000D02*
X81925000Y-20520000D01*
X81925000Y-20520000D02*
X86625000Y-25220000D01*
X87148187Y-35473187D02*
X86225000Y-36396374D01*
D61*
X88125000Y-43450000D02*
X84625000Y-43450000D01*
D63*
%TO.N,SCL*%
X97789348Y-27505000D02*
X98300000Y-26994348D01*
X96925000Y-27529000D02*
X97037500Y-27529000D01*
X96925000Y-27505000D02*
X96925000Y-27529000D01*
X96925000Y-27505000D02*
X97789348Y-27505000D01*
X98300000Y-26994348D02*
X98300000Y-24950000D01*
%TO.N,SCK*%
X85625000Y-34110530D02*
X86205265Y-33530265D01*
X87100001Y-42180000D02*
X85625000Y-40704999D01*
X88125000Y-42180000D02*
X87100001Y-42180000D01*
X85625000Y-40704999D02*
X85625000Y-34110530D01*
%TO.N,PGC*%
X77120000Y-29070000D02*
X79924000Y-26266000D01*
X79924000Y-26266000D02*
X79924000Y-24931000D01*
X79924000Y-24931000D02*
X80525000Y-24330000D01*
X80525000Y-24330000D02*
X81225000Y-24330000D01*
%TO.N,LDAC*%
X97344348Y-29950000D02*
X95576000Y-29950000D01*
X96925000Y-28505000D02*
X97789348Y-28505000D01*
X98038500Y-29255848D02*
X97344348Y-29950000D01*
%TO.N,CURRENT_OUTPUT*%
X82125000Y-37950000D02*
X81751000Y-38324000D01*
X79386001Y-38324000D02*
X79085000Y-38625001D01*
X101150000Y-29005000D02*
X103925000Y-29005000D01*
X104425000Y-30626320D02*
X101545320Y-33506000D01*
X99848854Y-33506000D02*
X99625000Y-33729854D01*
X79085000Y-38625001D02*
X79085000Y-39600000D01*
X104425000Y-28505000D02*
X104425000Y-30626320D01*
X97694646Y-37450000D02*
X90125000Y-37450000D01*
X81751000Y-38324000D02*
X79386001Y-38324000D01*
X103925000Y-29005000D02*
X104425000Y-28505000D01*
X101545320Y-33506000D02*
X99848854Y-33506000D01*
X99625000Y-35519646D02*
X97694646Y-37450000D01*
X99625000Y-33729854D02*
X99625000Y-35519646D01*
%TO.N,Net-(R22-Pad1)*%
X75220000Y-41400000D02*
X74175000Y-41400000D01*
X72171297Y-42496297D02*
X72125000Y-42450000D01*
X74175000Y-41400000D02*
X73927233Y-41647767D01*
X73078703Y-42496297D02*
X72171297Y-42496297D01*
X73045000Y-40425000D02*
X74245000Y-40425000D01*
X74245000Y-40425000D02*
X75220000Y-41400000D01*
%TO.N,BATT_SENSE*%
X81125000Y-37725000D02*
X76500000Y-37725000D01*
%TO.N,CURRENT_SENSE*%
X71830001Y-45450000D02*
X70855000Y-46425001D01*
X75025000Y-45450000D02*
X71830001Y-45450000D01*
X70855000Y-46425001D02*
X70855000Y-47400000D01*
X71720000Y-49925000D02*
X70855000Y-49060000D01*
X70855000Y-49060000D02*
X70855000Y-47400000D01*
D62*
%TO.N,BAT-*%
X87625000Y-60950000D02*
X93242500Y-60950000D01*
X86537500Y-60950000D02*
X87625000Y-60950000D01*
X86537500Y-59862500D02*
X87625000Y-60950000D01*
X86537500Y-59450000D02*
X86537500Y-59862500D01*
X86537500Y-59450000D02*
X86537500Y-57950000D01*
X86537500Y-57950000D02*
X86537500Y-56500000D01*
X86537500Y-60950000D02*
X86537500Y-59450000D01*
X93242500Y-60950000D02*
X96965000Y-57227500D01*
D63*
%TO.N,Net-(U7A--)*%
X70354999Y-43925000D02*
X70855000Y-43424999D01*
X70855000Y-40965000D02*
X71395000Y-40425000D01*
X70855000Y-43424999D02*
X70855000Y-42450000D01*
X66720000Y-43925000D02*
X70354999Y-43925000D01*
X70855000Y-42450000D02*
X70855000Y-40965000D01*
%TO.N,Net-(U7A-+)*%
X69585000Y-42450000D02*
X69585000Y-40210000D01*
X68395000Y-40075000D02*
X68045000Y-40425000D01*
X69720000Y-40075000D02*
X68395000Y-40075000D01*
X69585000Y-40210000D02*
X69720000Y-40075000D01*
%TO.N,T_IN+*%
X110112500Y-31387500D02*
X107675000Y-28950000D01*
%TO.N,Net-(U3-OSC2)*%
X101925000Y-42480000D02*
X101925000Y-42050000D01*
X100455000Y-43950000D02*
X99125000Y-42620000D01*
X99125000Y-42620000D02*
X99125000Y-41450000D01*
X98585000Y-40910000D02*
X97425000Y-40910000D01*
X100455000Y-43950000D02*
X101925000Y-42480000D01*
X99125000Y-41450000D02*
X98585000Y-40910000D01*
%TO.N,Net-(U3-OSC1)*%
X100350000Y-38050000D02*
X100350000Y-39825000D01*
X100325000Y-39850000D02*
X100025000Y-39850000D01*
X100350000Y-39825000D02*
X100325000Y-39850000D01*
X99815000Y-39640000D02*
X97425000Y-39640000D01*
X100025000Y-39850000D02*
X99815000Y-39640000D01*
%TO.N,Net-(U13A-+)*%
X108625000Y-27075000D02*
X108625000Y-25625000D01*
X108625000Y-25625000D02*
X107450000Y-24450000D01*
X109975000Y-26012500D02*
X108912500Y-27075000D01*
X109975000Y-26012500D02*
X109975000Y-24075000D01*
X108912500Y-27075000D02*
X108625000Y-27075000D01*
X109975000Y-24075000D02*
X109850000Y-23950000D01*
%TO.N,Net-(U14B--)*%
X97125000Y-9085000D02*
X97125000Y-7815000D01*
%TO.N,Net-(C14-Pad2)*%
X111342000Y-7950000D02*
X110125000Y-7950000D01*
X112290000Y-6375000D02*
X112290000Y-7002000D01*
X108575000Y-9500000D02*
X108575000Y-9950000D01*
X112290000Y-7002000D02*
X111342000Y-7950000D01*
X110125000Y-7950000D02*
X108575000Y-9500000D01*
%TO.N,Net-(Q6-C)*%
X105625000Y-11512500D02*
X105625000Y-8950000D01*
X106125000Y-8450000D02*
X108075000Y-8450000D01*
X105625000Y-8950000D02*
X106125000Y-8450000D01*
X108800000Y-7725000D02*
X108575000Y-7950000D01*
X108800000Y-4950000D02*
X108800000Y-7725000D01*
X108075000Y-8450000D02*
X108575000Y-7950000D01*
D61*
%TO.N,Net-(U16-CAP)*%
X63025000Y-16450000D02*
X61425000Y-16450000D01*
D63*
%TO.N,Net-(D1-A)*%
X97575000Y-17965000D02*
X99312500Y-17965000D01*
D62*
%TO.N,Net-(D4-K)*%
X43225000Y-3450000D02*
X39087500Y-7587500D01*
X38425000Y-8250000D02*
X22125000Y-8250000D01*
D63*
%TO.N,Net-(D8-A)*%
X98662500Y-20005000D02*
X97250000Y-20005000D01*
X99162500Y-20505000D02*
X98662500Y-20005000D01*
%TO.N,A*%
X76125000Y-13450000D02*
X71125000Y-8450000D01*
X71125000Y-8450000D02*
X71125000Y-7751000D01*
D61*
%TO.N,CANL*%
X117775000Y-46180000D02*
X120625000Y-49030000D01*
X113325000Y-46180000D02*
X117775000Y-46180000D01*
%TO.N,CANH*%
X113325000Y-44910000D02*
X119665000Y-44910000D01*
X119665000Y-44910000D02*
X120625000Y-43950000D01*
D63*
%TO.N,D*%
X104402500Y-59950000D02*
X107125000Y-57227500D01*
X89925000Y-26870000D02*
X88789968Y-28005032D01*
X90625000Y-26870000D02*
X89925000Y-26870000D01*
X99625000Y-55374600D02*
X99625000Y-57956980D01*
X89190968Y-39039000D02*
X94224000Y-44072032D01*
X86799000Y-38029032D02*
X86799000Y-38778968D01*
X94224000Y-49973600D02*
X99625000Y-55374600D01*
X88789968Y-36038064D02*
X86799000Y-38029032D01*
X87059032Y-39039000D02*
X89190968Y-39039000D01*
X99625000Y-57956980D02*
X101618020Y-59950000D01*
X88789968Y-28005032D02*
X88789968Y-36038064D01*
X101618020Y-59950000D02*
X104402500Y-59950000D01*
X94224000Y-44072032D02*
X94224000Y-49973600D01*
X86799000Y-38778968D02*
X87059032Y-39039000D01*
%TO.N,C*%
X94625000Y-49807500D02*
X102045000Y-57227500D01*
X89190968Y-28874032D02*
X89190968Y-37769000D01*
X90625000Y-28140000D02*
X89925000Y-28140000D01*
X89925000Y-28140000D02*
X89190968Y-28874032D01*
X94625000Y-43203032D02*
X94625000Y-49807500D01*
X89190968Y-37769000D02*
X94625000Y-43203032D01*
D61*
%TO.N,Net-(U16-SW_E)*%
X60000000Y-26950000D02*
X60000000Y-21825000D01*
X58625000Y-20450000D02*
X58625000Y-19450000D01*
X60551208Y-15180000D02*
X59476000Y-16255208D01*
X60000000Y-21825000D02*
X58625000Y-20450000D01*
X59476000Y-16255208D02*
X59476000Y-18599000D01*
X58625000Y-19450000D02*
X59125000Y-18950000D01*
X58625000Y-20450000D02*
X58125000Y-19950000D01*
X61425000Y-15180000D02*
X60551208Y-15180000D01*
X59476000Y-18599000D02*
X59125000Y-18950000D01*
X59125000Y-18950000D02*
X58125000Y-19950000D01*
D63*
%TO.N,Net-(Q1-G)*%
X77625000Y-54450000D02*
X75125000Y-51950000D01*
X65125000Y-51950000D02*
X64530000Y-51355000D01*
X64530000Y-51355000D02*
X64530000Y-50300000D01*
X77625000Y-56550000D02*
X77625000Y-54450000D01*
X75125000Y-51950000D02*
X65125000Y-51950000D01*
D62*
%TO.N,Net-(Q1-D)*%
X81300000Y-55037500D02*
X81212500Y-54950000D01*
X81300000Y-57950000D02*
X81300000Y-60950000D01*
X80850000Y-57500000D02*
X81300000Y-57950000D01*
X79500000Y-57500000D02*
X80850000Y-57500000D01*
X81300000Y-57950000D02*
X81300000Y-55037500D01*
D63*
%TO.N,Net-(Q2-B)*%
X78760000Y-48600000D02*
X78760000Y-49260000D01*
X78760000Y-49260000D02*
X80075000Y-50575000D01*
%TO.N,Net-(U1-RB13)*%
X95925000Y-17965000D02*
X94899000Y-18991000D01*
%TO.N,Net-(U1-RB6)*%
X93957500Y-35760000D02*
X95212500Y-34505000D01*
X90625000Y-35760000D02*
X93957500Y-35760000D01*
%TO.N,Net-(U1-RB7)*%
X90625000Y-34490000D02*
X93077500Y-34490000D01*
X93077500Y-34490000D02*
X95062500Y-32505000D01*
D62*
%TO.N,Net-(R6-Pad2)*%
X83037500Y-54950000D02*
X84712500Y-54950000D01*
%TO.N,Net-(R8-Pad2)*%
X84712500Y-57950000D02*
X83125000Y-57950000D01*
%TO.N,Net-(R10-Pad2)*%
X84712500Y-60950000D02*
X83125000Y-60950000D01*
D63*
%TO.N,Net-(U7B--)*%
X68220000Y-49925000D02*
X70070000Y-49925000D01*
X69585000Y-49020000D02*
X69585000Y-47400000D01*
X70070000Y-49925000D02*
X70070000Y-49505000D01*
X70070000Y-49505000D02*
X69585000Y-49020000D01*
%TO.N,Net-(R39-Pad2)*%
X85850000Y-10950000D02*
X85653816Y-10753816D01*
X84575000Y-8520532D02*
X84575000Y-8000000D01*
X85653816Y-10753816D02*
X85653816Y-9599348D01*
X85653816Y-9599348D02*
X84575000Y-8520532D01*
X87125000Y-10450000D02*
X88125000Y-10450000D01*
%TO.N,Net-(R40-Pad2)*%
X88125000Y-7450000D02*
X89030000Y-6545000D01*
X87950000Y-7450000D02*
X88125000Y-7450000D01*
X88450000Y-13450000D02*
X86450000Y-11450000D01*
X86450000Y-11450000D02*
X86450000Y-8950000D01*
X89030000Y-6545000D02*
X92175000Y-6545000D01*
X86450000Y-8950000D02*
X87950000Y-7450000D01*
D61*
%TO.N,Net-(U16-DRIVER_C)*%
X58325000Y-15862500D02*
X60277500Y-13910000D01*
X56125000Y-15950000D02*
X58325000Y-15950000D01*
D63*
%TO.N,Net-(U3-RXCAN)*%
X99125000Y-47450000D02*
X98935000Y-47260000D01*
X100125000Y-47450000D02*
X99125000Y-47450000D01*
X108125000Y-47450000D02*
X102125000Y-47450000D01*
X98935000Y-47260000D02*
X97425000Y-47260000D01*
D61*
%TO.N,GND*%
X101000000Y-37150000D02*
X101900000Y-38050000D01*
X101000000Y-36500000D02*
X101000000Y-37150000D01*
D63*
%TO.N,LDAC*%
X97789348Y-28505000D02*
X98038500Y-28754152D01*
X98038500Y-28754152D02*
X98038500Y-29255848D01*
%TO.N,SCK*%
X81857000Y-26870000D02*
X81225000Y-26870000D01*
X85531000Y-30544000D02*
X81857000Y-26870000D01*
%TD*%
M02*
