M48
; DRILL file {KiCad 9.0.4} date 2026-05-28T23:48:42-0500
; FORMAT={-:-/ absolute / metric / decimal}
; #@! TF.CreationDate,2026-05-28T23:48:42-05:00
; #@! TF.GenerationSoftware,Kicad,Pcbnew,9.0.4
; #@! TF.FileFunction,Plated,1,2,PTH
FMAT,2
METRIC
; #@! TA.AperFunction,Plated,PTH,ViaDrill
T1C0.300
; #@! TA.AperFunction,Plated,PTH,ComponentDrill
T2C0.800
; #@! TA.AperFunction,Plated,PTH,ComponentDrill
T3C1.000
; #@! TA.AperFunction,Plated,PTH,ComponentDrill
T4C1.200
; #@! TA.AperFunction,Plated,PTH,ComponentDrill
T5C1.400
; #@! TA.AperFunction,Plated,PTH,ComponentDrill
T6C1.900
; #@! TA.AperFunction,Plated,PTH,ComponentDrill
T7C2.000
%
G90
G05
T1
X42.1Y-20.0
X42.5Y-51.5
X44.5Y-30.0
X48.5Y-23.5
X48.5Y-25.0
X49.0Y-3.5
X51.0Y-13.5
X51.118Y-23.382
X51.5Y-12.5
X51.5Y-21.5
X52.0Y-35.5
X52.5Y-33.0
X53.5Y-17.0
X55.5Y-24.5
X57.0Y-17.5
X58.0Y-32.0
X61.5Y-18.5
X64.0Y-12.5
X65.0Y-18.5
X66.5Y-12.5
X66.5Y-41.0
X66.5Y-49.0
X67.5Y-42.5
X69.0Y-34.5
X72.0Y-17.0
X72.099Y-33.015
X73.079Y-42.496
X73.5Y-50.5
X73.927Y-41.648
X75.0Y-24.5
X75.025Y-45.45
X75.025Y-47.45
X75.625Y-55.95
X76.0Y-40.5
X76.125Y-13.45
X76.225Y-47.45
X76.5Y-37.725
X76.625Y-54.45
X77.075Y-36.075
X77.5Y-49.5
X77.5Y-59.0
X78.0Y-38.325
X78.125Y-15.45
X78.5Y-31.28
X78.625Y-52.45
X79.037Y-41.538
X79.5Y-28.5
X79.5Y-32.0
X79.625Y-53.95
X80.0Y-37.0
X80.0Y-56.0
X80.875Y-47.5
X81.5Y-41.0
X82.125Y-37.95
X82.5Y-45.5
X82.82Y-31.907
X83.705Y-27.53
X83.799Y-32.624
X84.0Y-56.5
X84.705Y-28.5
X84.705Y-33.95
X85.531Y-30.544
X85.85Y-10.95
X86.0Y-18.0
X86.0Y-52.0
X86.205Y-33.53
X86.225Y-40.45
X86.625Y-29.95
X87.107Y-30.932
X87.125Y-10.45
X87.148Y-32.512
X88.0Y-18.5
X90.0Y-14.5
X90.125Y-37.45
X90.5Y-13.0
X92.0Y-11.0
X92.9Y-29.47
X93.46Y-21.23
X93.826Y-14.826
X94.1Y-29.0
X94.279Y-20.581
X94.899Y-18.991
X94.951Y-51.549
X95.0Y-15.5
X95.025Y-20.871
X95.576Y-29.95
X95.612Y-28.451
X96.625Y-23.55
X97.0Y-2.0
X97.0Y-25.5
X97.0Y-31.0
X97.5Y-26.5
X97.5Y-51.5
X98.0Y-13.5
X98.5Y-37.5
X98.787Y-14.713
X99.326Y-11.326
X99.5Y-27.0
X100.125Y-47.45
X100.5Y-24.0
X100.5Y-31.5
X101.0Y-36.5
X102.0Y-21.5
X102.125Y-47.45
X102.278Y-13.5
X102.5Y-6.0
X102.5Y-18.0
X102.5Y-24.0
X102.5Y-26.5
X103.0Y-40.0
X103.0Y-44.0
X104.0Y-10.0
X104.026Y-14.409
X104.5Y-20.5
X105.0Y-24.5
X105.5Y-18.0
X106.0Y-13.5
X106.0Y-19.0
X106.009Y-43.509
X108.566Y-23.25
X109.5Y-20.0
X110.0Y-45.0
X111.5Y-25.0
X112.0Y-31.5
X112.0Y-34.0
X112.375Y-25.0
X114.0Y-25.0
X114.5Y-31.5
X114.5Y-34.0
X115.0Y-19.0
X115.5Y-20.0
T2
X46.807Y-8.45
X49.307Y-8.45
X62.0Y-36.5
X62.0Y-39.0
X79.125Y-4.95
X79.125Y-12.45
X81.625Y-4.95
X81.625Y-12.45
T3
X56.125Y-25.95
X56.125Y-28.49
X56.125Y-31.03
X56.125Y-33.57
X56.125Y-36.11
X76.0Y-18.92
X76.0Y-21.46
X76.0Y-24.0
X76.0Y-26.54
X76.0Y-29.08
T4
X32.125Y-48.972
X32.125Y-56.472
X54.625Y-48.95
X54.625Y-56.45
T5
X55.885Y-6.95
X60.965Y-6.95
X66.045Y-6.95
X71.125Y-6.95
X91.885Y-57.227
X96.965Y-57.227
X102.045Y-57.227
X107.125Y-57.227
X121.0Y-9.37
X121.0Y-14.45
X121.0Y-19.53
X121.0Y-24.61
X121.0Y-33.79
X121.0Y-38.87
X121.0Y-43.95
X121.0Y-49.03
T6
X22.125Y-8.25
X22.125Y-37.95
T7
X43.625Y-44.45
X84.625Y-43.45
X94.425Y-24.0
X104.425Y-28.505
M30
