%TF.GenerationSoftware,KiCad,Pcbnew,9.0.4*%
%TF.CreationDate,2026-05-28T23:58:03-05:00*%
%TF.ProjectId,Cascaded_Proj,43617363-6164-4656-945f-50726f6a2e6b,rev?*%
%TF.SameCoordinates,Original*%
%TF.FileFunction,Copper,L2,Bot*%
%TF.FilePolarity,Positive*%
%FSLAX46Y46*%
G04 Gerber Fmt 4.6, Leading zero omitted, Abs format (unit mm)*
G04 Created by KiCad (PCBNEW 9.0.4) date 2026-05-28 23:58:03*
%MOMM*%
%LPD*%
G01*
G04 APERTURE LIST*
G04 Aperture macros list*
%AMRoundRect*
0 Rectangle with rounded corners*
0 $1 Rounding radius*
0 $2 $3 $4 $5 $6 $7 $8 $9 X,Y pos of 4 corners*
0 Add a 4 corners polygon primitive as box body*
4,1,4,$2,$3,$4,$5,$6,$7,$8,$9,$2,$3,0*
0 Add four circle primitives for the rounded corners*
1,1,$1+$1,$2,$3*
1,1,$1+$1,$4,$5*
1,1,$1+$1,$6,$7*
1,1,$1+$1,$8,$9*
0 Add four rect primitives between the rounded corners*
20,1,$1+$1,$2,$3,$4,$5,0*
20,1,$1+$1,$4,$5,$6,$7,0*
20,1,$1+$1,$6,$7,$8,$9,0*
20,1,$1+$1,$8,$9,$2,$3,0*%
G04 Aperture macros list end*
%TA.AperFunction,ComponentPad*%
%ADD10C,3.000000*%
%TD*%
%TA.AperFunction,ComponentPad*%
%ADD11RoundRect,0.250001X-0.949999X0.949999X-0.949999X-0.949999X0.949999X-0.949999X0.949999X0.949999X0*%
%TD*%
%TA.AperFunction,ComponentPad*%
%ADD12C,2.400000*%
%TD*%
%TA.AperFunction,ComponentPad*%
%ADD13RoundRect,0.249999X-1.550001X0.790001X-1.550001X-0.790001X1.550001X-0.790001X1.550001X0.790001X0*%
%TD*%
%TA.AperFunction,ComponentPad*%
%ADD14O,3.600000X2.080000*%
%TD*%
%TA.AperFunction,ComponentPad*%
%ADD15RoundRect,0.250000X-0.550000X-0.550000X0.550000X-0.550000X0.550000X0.550000X-0.550000X0.550000X0*%
%TD*%
%TA.AperFunction,ComponentPad*%
%ADD16C,1.600000*%
%TD*%
%TA.AperFunction,ComponentPad*%
%ADD17RoundRect,0.249999X0.790001X1.550001X-0.790001X1.550001X-0.790001X-1.550001X0.790001X-1.550001X0*%
%TD*%
%TA.AperFunction,ComponentPad*%
%ADD18O,2.080000X3.600000*%
%TD*%
%TA.AperFunction,ComponentPad*%
%ADD19R,1.700000X1.700000*%
%TD*%
%TA.AperFunction,ComponentPad*%
%ADD20C,1.700000*%
%TD*%
%TA.AperFunction,ComponentPad*%
%ADD21RoundRect,0.250000X0.550000X0.550000X-0.550000X0.550000X-0.550000X-0.550000X0.550000X-0.550000X0*%
%TD*%
%TA.AperFunction,ComponentPad*%
%ADD22RoundRect,0.250000X-0.550000X0.550000X-0.550000X-0.550000X0.550000X-0.550000X0.550000X0.550000X0*%
%TD*%
%TA.AperFunction,ComponentPad*%
%ADD23RoundRect,0.249999X-0.790001X-1.550001X0.790001X-1.550001X0.790001X1.550001X-0.790001X1.550001X0*%
%TD*%
%TA.AperFunction,ViaPad*%
%ADD24C,0.600000*%
%TD*%
%TA.AperFunction,Conductor*%
%ADD25C,0.500000*%
%TD*%
%TA.AperFunction,Conductor*%
%ADD26C,0.200000*%
%TD*%
G04 APERTURE END LIST*
D10*
%TO.P,TP7,1,1*%
%TO.N,SI*%
X84625000Y-43450000D03*
%TD*%
D11*
%TO.P,C8,1*%
%TO.N,Vdrive*%
X32125000Y-48972220D03*
D12*
%TO.P,C8,2*%
%TO.N,GND*%
X32125000Y-56472220D03*
%TD*%
D13*
%TO.P,J6,1,Pin_1*%
%TO.N,GND*%
X121000000Y-9370000D03*
D14*
%TO.P,J6,2,Pin_2*%
%TO.N,T_OUT-*%
X121000000Y-14450000D03*
%TO.P,J6,3,Pin_3*%
%TO.N,T_IN+*%
X121000000Y-19530000D03*
%TO.P,J6,4,Pin_4*%
%TO.N,T_OUT+*%
X121000000Y-24610000D03*
%TD*%
D15*
%TO.P,C20,1*%
%TO.N,+3.3V*%
X79125000Y-4950000D03*
D16*
%TO.P,C20,2*%
%TO.N,GND*%
X81625000Y-4950000D03*
%TD*%
D17*
%TO.P,J5,1,Pin_1*%
%TO.N,D*%
X107125000Y-57227500D03*
D18*
%TO.P,J5,2,Pin_2*%
%TO.N,C*%
X102045000Y-57227500D03*
%TO.P,J5,3,Pin_3*%
%TO.N,BAT-*%
X96965000Y-57227500D03*
%TO.P,J5,4,Pin_4*%
%TO.N,BAT+*%
X91885000Y-57227500D03*
%TD*%
D15*
%TO.P,C19,1*%
%TO.N,+3.3V*%
X79125000Y-12450000D03*
D16*
%TO.P,C19,2*%
%TO.N,GND*%
X81625000Y-12450000D03*
%TD*%
D10*
%TO.P,L1,1,1*%
%TO.N,Vdrive*%
X22125000Y-37950000D03*
%TO.P,L1,2,2*%
%TO.N,Net-(D4-K)*%
X22125000Y-8250000D03*
%TD*%
D19*
%TO.P,J2,1,Pin_1*%
%TO.N,Net-(J2-Pin_1)*%
X56125000Y-25950000D03*
D20*
%TO.P,J2,2,Pin_2*%
%TO.N,+3.3V*%
X56125000Y-28490000D03*
%TO.P,J2,3,Pin_3*%
%TO.N,GND*%
X56125000Y-31030000D03*
%TO.P,J2,4,Pin_4*%
%TO.N,Net-(J2-Pin_4)*%
X56125000Y-33570000D03*
%TO.P,J2,5,Pin_5*%
%TO.N,Net-(J2-Pin_5)*%
X56125000Y-36110000D03*
%TD*%
D19*
%TO.P,J1,1,Pin_1*%
%TO.N,MCLR*%
X76000000Y-18920000D03*
D20*
%TO.P,J1,2,Pin_2*%
%TO.N,+3.3V*%
X76000000Y-21460000D03*
%TO.P,J1,3,Pin_3*%
%TO.N,GND*%
X76000000Y-24000000D03*
%TO.P,J1,4,Pin_4*%
%TO.N,PGD*%
X76000000Y-26540000D03*
%TO.P,J1,5,Pin_5*%
%TO.N,PGC*%
X76000000Y-29080000D03*
%TD*%
D11*
%TO.P,C22,1*%
%TO.N,Vdrive*%
X54625000Y-48950000D03*
D12*
%TO.P,C22,2*%
%TO.N,GND*%
X54625000Y-56450000D03*
%TD*%
D10*
%TO.P,TP5,1,1*%
%TO.N,CURRENT_OUTPUT*%
X104425000Y-28505000D03*
%TD*%
D13*
%TO.P,J4,1,Pin_1*%
%TO.N,B*%
X121000000Y-33790000D03*
D14*
%TO.P,J4,2,Pin_2*%
%TO.N,GND*%
X121000000Y-38870000D03*
%TO.P,J4,3,Pin_3*%
%TO.N,CANH*%
X121000000Y-43950000D03*
%TO.P,J4,4,Pin_4*%
%TO.N,CANL*%
X121000000Y-49030000D03*
%TD*%
D21*
%TO.P,C16,1*%
%TO.N,+12V*%
X49307380Y-8450000D03*
D16*
%TO.P,C16,2*%
%TO.N,GND*%
X46807380Y-8450000D03*
%TD*%
D22*
%TO.P,C17,1*%
%TO.N,+12V*%
X62000000Y-36500000D03*
D16*
%TO.P,C17,2*%
%TO.N,GND*%
X62000000Y-39000000D03*
%TD*%
D10*
%TO.P,TP3,1,1*%
%TO.N,Vdrive*%
X43625000Y-44450000D03*
%TD*%
D23*
%TO.P,J3,1,Pin_1*%
%TO.N,+3.3V*%
X55885000Y-6950000D03*
D18*
%TO.P,J3,2,Pin_2*%
%TO.N,GND*%
X60965000Y-6950000D03*
%TO.P,J3,3,Pin_3*%
%TO.N,+12V*%
X66045000Y-6950000D03*
%TO.P,J3,4,Pin_4*%
%TO.N,A*%
X71125000Y-6950000D03*
%TD*%
D10*
%TO.P,TP6,1,1*%
%TO.N,SDA*%
X94425000Y-24000000D03*
%TD*%
D24*
%TO.N,GND*%
X99325735Y-11325735D03*
X52500000Y-33000000D03*
X52000000Y-35500000D03*
%TO.N,Net-(J2-Pin_1)*%
X55500000Y-24500000D03*
X48500000Y-25000000D03*
%TO.N,+3.3V*%
X51117831Y-23382169D03*
X48500000Y-23500000D03*
%TO.N,GND*%
X51500000Y-21500000D03*
X58000000Y-32000000D03*
X97000000Y-2000000D03*
X102500000Y-6000000D03*
X102500000Y-18000000D03*
X49000000Y-3500000D03*
X115000000Y-19000000D03*
X111500000Y-25000000D03*
X42500000Y-51500000D03*
X78000000Y-38325000D03*
%TO.N,Net-(U14A-+)*%
X90000000Y-14500000D03*
X90500000Y-13000000D03*
%TO.N,GND*%
X65000000Y-18500000D03*
X61500000Y-18500000D03*
X57000000Y-17500000D03*
%TO.N,Net-(Q4-G)*%
X51000000Y-13500000D03*
X53500000Y-17000000D03*
%TO.N,GND*%
X106009210Y-43509210D03*
X103000000Y-44000000D03*
X103000000Y-40000000D03*
X42100000Y-20000000D03*
X51500000Y-12500000D03*
%TO.N,Net-(R31-Pad2)*%
X114000000Y-25000000D03*
X112375000Y-25000000D03*
%TO.N,Net-(U1-RB13)*%
X94899000Y-18991000D03*
X95024762Y-20871158D03*
%TO.N,+3.3V*%
X100500000Y-24000000D03*
X97500000Y-26500000D03*
%TO.N,Net-(Q6-B)*%
X98787273Y-14712727D03*
X104026000Y-14409298D03*
%TO.N,Net-(R40-Pad2)*%
X93825735Y-14825735D03*
X95000000Y-15500000D03*
%TO.N,GND*%
X92000000Y-11000000D03*
%TO.N,TX_TEST*%
X102278473Y-13500000D03*
X98000000Y-13500000D03*
X86000000Y-18000000D03*
%TO.N,GND*%
X94279208Y-20581069D03*
X92900000Y-29470151D03*
X94100000Y-29000000D03*
X97000000Y-25500000D03*
X100500000Y-31500000D03*
%TO.N,Net-(R12-Pad1)*%
X80875000Y-47500000D03*
X81500000Y-41000000D03*
%TO.N,BATT_SENSE*%
X76000000Y-40500000D03*
X76500000Y-37725000D03*
%TO.N,GND*%
X44500000Y-30000000D03*
%TO.N,RX*%
X106000000Y-19000000D03*
X104500000Y-20500000D03*
X99500000Y-27000000D03*
X102500000Y-24000000D03*
X97000000Y-31000000D03*
X79500000Y-32000000D03*
%TO.N,TX_TEST*%
X78500000Y-31280000D03*
%TO.N,+3.3V*%
X97500000Y-51500000D03*
X94950935Y-51549065D03*
%TO.N,Net-(U16-DRIVER_C)*%
X66500000Y-12500000D03*
X64000000Y-12500000D03*
%TO.N,GND*%
X72000000Y-17000000D03*
X75000000Y-24500000D03*
X79500000Y-28500000D03*
X105000000Y-24500000D03*
X102500000Y-26500000D03*
%TO.N,B*%
X114500000Y-34000000D03*
X112000000Y-34000000D03*
%TO.N,T_IN+*%
X114500000Y-31500000D03*
X112000000Y-31500000D03*
%TO.N,GND*%
X102000000Y-21500000D03*
X105500000Y-18000000D03*
%TO.N,Net-(U13A-+)*%
X109500000Y-20000000D03*
X108565511Y-23250000D03*
%TO.N,GND*%
X115500000Y-20000000D03*
X86000000Y-52000000D03*
%TO.N,TX*%
X88000000Y-18500000D03*
X82819877Y-31906593D03*
%TO.N,+3.3V*%
X80000000Y-37000000D03*
X82500000Y-45500000D03*
%TO.N,GND*%
X73500000Y-50500000D03*
X77500000Y-49500000D03*
X77500000Y-59000000D03*
%TO.N,BAT-*%
X84000000Y-56500000D03*
X80000000Y-56000000D03*
%TO.N,GND*%
X110000000Y-45000000D03*
X98500000Y-37500000D03*
X101000000Y-36500000D03*
X106000000Y-13500000D03*
X104000000Y-10000000D03*
X66500000Y-41000000D03*
X67500000Y-42500000D03*
X66500000Y-49000000D03*
X77075000Y-36075000D03*
%TO.N,DRAIN*%
X69000000Y-34500000D03*
X72099476Y-33015319D03*
%TO.N,BAT+*%
X79625000Y-53950000D03*
X75625000Y-55950000D03*
%TO.N,Net-(Q2-C)*%
X78625000Y-52450000D03*
X76625000Y-54450000D03*
%TO.N,+12V*%
X76225000Y-47450000D03*
X75025000Y-47450000D03*
%TO.N,SDA*%
X95612500Y-28450905D03*
%TO.N,SO*%
X84705265Y-28500000D03*
X84705265Y-33950000D03*
%TO.N,SI*%
X86625000Y-29950000D03*
X86225000Y-40450000D03*
X87148187Y-32512135D03*
%TO.N,SCK*%
X86205265Y-33530265D03*
X85531000Y-30544000D03*
%TO.N,CS*%
X83705265Y-27530266D03*
X83799265Y-32624265D03*
%TO.N,LDAC*%
X95576000Y-29950000D03*
X87106735Y-30931735D03*
%TO.N,CURRENT_OUTPUT*%
X90125000Y-37450000D03*
X82125000Y-37950000D03*
%TO.N,Net-(R22-Pad1)*%
X73927233Y-41647767D03*
X73078703Y-42496297D03*
%TO.N,CURRENT_SENSE*%
X79037500Y-41537500D03*
X75025000Y-45450000D03*
%TO.N,A*%
X78125000Y-15450000D03*
X76125000Y-13450000D03*
%TO.N,B*%
X96625000Y-23550000D03*
X93460060Y-21230000D03*
%TO.N,Net-(R39-Pad2)*%
X85850000Y-10950000D03*
X87125000Y-10450000D03*
%TO.N,Net-(U3-RXCAN)*%
X100125000Y-47450000D03*
X102125000Y-47450000D03*
%TD*%
D25*
%TO.N,Net-(J2-Pin_1)*%
X55500000Y-24500000D02*
X55000000Y-25000000D01*
X55000000Y-25000000D02*
X48500000Y-25000000D01*
%TO.N,+3.3V*%
X51000000Y-23500000D02*
X51117831Y-23382169D01*
X48500000Y-23500000D02*
X51000000Y-23500000D01*
D26*
%TO.N,GND*%
X93586169Y-29513831D02*
X94100000Y-29000000D01*
X92900000Y-29470151D02*
X92943680Y-29513831D01*
X92943680Y-29513831D02*
X93586169Y-29513831D01*
%TO.N,TX_TEST*%
X102278473Y-13500000D02*
X98000000Y-13500000D01*
%TO.N,Net-(Q6-B)*%
X103435298Y-15000000D02*
X104026000Y-14409298D01*
X99074545Y-15000000D02*
X103435298Y-15000000D01*
X98787273Y-14712727D02*
X99074545Y-15000000D01*
%TO.N,Net-(U14A-+)*%
X90000000Y-14500000D02*
X90000000Y-13500000D01*
X90000000Y-13500000D02*
X90500000Y-13000000D01*
%TO.N,Net-(Q4-G)*%
X53500000Y-16000000D02*
X51000000Y-13500000D01*
X53500000Y-17000000D02*
X53500000Y-16000000D01*
%TO.N,B*%
X94180060Y-21950000D02*
X95025000Y-21950000D01*
X93460060Y-21230000D02*
X94180060Y-21950000D01*
X95025000Y-21950000D02*
X96625000Y-23550000D01*
%TO.N,Net-(U1-RB13)*%
X94899000Y-20745396D02*
X94899000Y-18991000D01*
X95024762Y-20871158D02*
X94899000Y-20745396D01*
%TO.N,Net-(R31-Pad2)*%
X112375000Y-25000000D02*
X114000000Y-25000000D01*
%TO.N,+3.3V*%
X98913235Y-25586765D02*
X100500000Y-24000000D01*
X98913235Y-26086765D02*
X98913235Y-25586765D01*
X98500000Y-26500000D02*
X98913235Y-26086765D01*
X97500000Y-26500000D02*
X98500000Y-26500000D01*
%TO.N,Net-(R40-Pad2)*%
X95000000Y-15500000D02*
X94500000Y-15500000D01*
X94500000Y-15500000D02*
X93825735Y-14825735D01*
%TO.N,TX_TEST*%
X81349943Y-22650057D02*
X86000000Y-18000000D01*
X81000000Y-22650057D02*
X81349943Y-22650057D01*
X81000000Y-29500000D02*
X79220000Y-31280000D01*
X81000000Y-22650057D02*
X81000000Y-29500000D01*
X79220000Y-31280000D02*
X78500000Y-31280000D01*
%TO.N,TX*%
X82723684Y-31810400D02*
X82819877Y-31906593D01*
X88000000Y-18500000D02*
X88000000Y-20000000D01*
X88000000Y-20000000D02*
X82723684Y-25276316D01*
X82723684Y-25276316D02*
X82723684Y-31810400D01*
%TO.N,PGD*%
X76000000Y-26540000D02*
X76000000Y-27000000D01*
%TO.N,Net-(R12-Pad1)*%
X80875000Y-41625000D02*
X81500000Y-41000000D01*
X80875000Y-47500000D02*
X80875000Y-41625000D01*
%TO.N,BATT_SENSE*%
X76500000Y-40000000D02*
X76000000Y-40500000D01*
X76500000Y-37725000D02*
X76500000Y-40000000D01*
%TO.N,DRAIN*%
X71614795Y-33500000D02*
X72099476Y-33015319D01*
X69000000Y-34500000D02*
X70000000Y-33500000D01*
X70000000Y-33500000D02*
X71614795Y-33500000D01*
%TO.N,CURRENT_SENSE*%
X76544131Y-43930869D02*
X75025000Y-45450000D01*
X76644131Y-43930869D02*
X76544131Y-43930869D01*
X79037500Y-41537500D02*
X76644131Y-43930869D01*
%TO.N,RX*%
X104500000Y-20500000D02*
X106000000Y-19000000D01*
X99500000Y-27000000D02*
X102500000Y-24000000D01*
X93449000Y-34551000D02*
X97000000Y-31000000D01*
X79500000Y-32000000D02*
X82051000Y-34551000D01*
X82051000Y-34551000D02*
X93449000Y-34551000D01*
%TO.N,SO*%
X84705265Y-33950000D02*
X84705265Y-28500000D01*
%TO.N,CS*%
X83705265Y-32530265D02*
X83799265Y-32624265D01*
X83705265Y-27530266D02*
X83705265Y-32530265D01*
D25*
%TO.N,+3.3V*%
X97450935Y-51549065D02*
X97500000Y-51500000D01*
X94950935Y-51549065D02*
X97450935Y-51549065D01*
%TO.N,Net-(U16-DRIVER_C)*%
X64000000Y-12500000D02*
X66500000Y-12500000D01*
D26*
%TO.N,B*%
X112000000Y-34000000D02*
X114500000Y-34000000D01*
%TO.N,T_IN+*%
X112000000Y-31500000D02*
X114500000Y-31500000D01*
%TO.N,Net-(U13A-+)*%
X109500000Y-22315511D02*
X109500000Y-20000000D01*
X108565511Y-23250000D02*
X109500000Y-22315511D01*
D25*
%TO.N,+3.3V*%
X82500000Y-39500000D02*
X80000000Y-37000000D01*
X82500000Y-45500000D02*
X82500000Y-39500000D01*
D26*
%TO.N,BAT-*%
X80500000Y-56500000D02*
X84000000Y-56500000D01*
X80000000Y-56000000D02*
X80500000Y-56500000D01*
D25*
%TO.N,+3.3V*%
X55885000Y-6950000D02*
X59385000Y-3450000D01*
X77625000Y-3450000D02*
X79125000Y-4950000D01*
X59385000Y-3450000D02*
X77625000Y-3450000D01*
%TO.N,BAT+*%
X75625000Y-55950000D02*
X77625000Y-55950000D01*
X77625000Y-55950000D02*
X79625000Y-53950000D01*
D26*
%TO.N,Net-(Q2-C)*%
X76625000Y-54450000D02*
X78625000Y-52450000D01*
%TO.N,+12V*%
X75025000Y-47450000D02*
X76225000Y-47450000D01*
%TO.N,SDA*%
X94425000Y-27263405D02*
X94425000Y-24600000D01*
X95612500Y-28450905D02*
X94425000Y-27263405D01*
%TO.N,SI*%
X87148187Y-32406087D02*
X87148187Y-32512135D01*
X86625000Y-29950000D02*
X86505735Y-30069265D01*
X86225000Y-41850000D02*
X84625000Y-43450000D01*
X86505735Y-31763635D02*
X87148187Y-32406087D01*
X86505735Y-30069265D02*
X86505735Y-31763635D01*
X86225000Y-40450000D02*
X86225000Y-41850000D01*
%TO.N,SCK*%
X85531000Y-30544000D02*
X85531000Y-31356000D01*
X86205265Y-32030265D02*
X86205265Y-33530265D01*
X85531000Y-31356000D02*
X86205265Y-32030265D01*
%TO.N,LDAC*%
X94594265Y-30931735D02*
X95576000Y-29950000D01*
%TO.N,CURRENT_OUTPUT*%
X82125000Y-37950000D02*
X84605265Y-37950000D01*
X84605265Y-37950000D02*
X85105265Y-37450000D01*
X85105265Y-37450000D02*
X90125000Y-37450000D01*
%TO.N,Net-(R22-Pad1)*%
X73927233Y-41647767D02*
X73078703Y-42496297D01*
%TO.N,A*%
X78125000Y-15450000D02*
X76125000Y-13450000D01*
%TO.N,Net-(R39-Pad2)*%
X85850000Y-10950000D02*
X86625000Y-10950000D01*
X86625000Y-10950000D02*
X87125000Y-10450000D01*
%TO.N,Net-(U3-RXCAN)*%
X100125000Y-47450000D02*
X102125000Y-47450000D01*
%TO.N,LDAC*%
X87106735Y-30931735D02*
X94594265Y-30931735D01*
%TD*%
%TA.AperFunction,Conductor*%
%TO.N,GND*%
G36*
X125003736Y-500726D02*
G01*
X125293796Y-518271D01*
X125308659Y-520076D01*
X125590798Y-571780D01*
X125605335Y-575363D01*
X125879172Y-660695D01*
X125893163Y-666000D01*
X126154743Y-783727D01*
X126167989Y-790680D01*
X126413465Y-939075D01*
X126425776Y-947573D01*
X126651573Y-1124473D01*
X126662781Y-1134403D01*
X126865596Y-1337218D01*
X126875526Y-1348426D01*
X126995481Y-1501538D01*
X127052422Y-1574217D01*
X127060928Y-1586540D01*
X127209316Y-1832004D01*
X127216275Y-1845263D01*
X127333997Y-2106831D01*
X127339306Y-2120832D01*
X127424635Y-2394663D01*
X127428219Y-2409201D01*
X127479923Y-2691340D01*
X127481728Y-2706205D01*
X127499274Y-2996263D01*
X127499500Y-3003750D01*
X127499500Y-51996249D01*
X127499274Y-52003736D01*
X127481728Y-52293794D01*
X127479923Y-52308659D01*
X127428219Y-52590798D01*
X127424635Y-52605336D01*
X127339306Y-52879167D01*
X127333997Y-52893168D01*
X127216275Y-53154736D01*
X127209316Y-53167995D01*
X127060928Y-53413459D01*
X127052422Y-53425782D01*
X126875526Y-53651573D01*
X126865596Y-53662781D01*
X126662781Y-53865596D01*
X126651573Y-53875526D01*
X126425782Y-54052422D01*
X126413459Y-54060928D01*
X126167995Y-54209316D01*
X126154736Y-54216275D01*
X125893168Y-54333997D01*
X125879167Y-54339306D01*
X125605336Y-54424635D01*
X125590798Y-54428219D01*
X125308659Y-54479923D01*
X125293794Y-54481728D01*
X125003811Y-54499269D01*
X124997991Y-54499484D01*
X124997619Y-54499489D01*
X124995952Y-54499500D01*
X124933755Y-54499500D01*
X124919957Y-54500493D01*
X115618847Y-54620808D01*
X115617243Y-54620818D01*
X115449357Y-54620818D01*
X115449356Y-54620818D01*
X115449354Y-54620818D01*
X115358547Y-54629761D01*
X115107084Y-54654526D01*
X115107066Y-54654529D01*
X114769761Y-54721621D01*
X114769749Y-54721624D01*
X114440612Y-54821464D01*
X114144123Y-54944274D01*
X114122856Y-54953083D01*
X113993174Y-55022399D01*
X113819526Y-55115214D01*
X113819523Y-55115216D01*
X113533563Y-55306288D01*
X113533549Y-55306298D01*
X113267681Y-55524490D01*
X113024490Y-55767681D01*
X112806298Y-56033549D01*
X112806288Y-56033563D01*
X112615216Y-56319523D01*
X112615214Y-56319526D01*
X112542465Y-56455631D01*
X112453083Y-56622856D01*
X112453080Y-56622862D01*
X112453080Y-56622863D01*
X112321464Y-56940612D01*
X112221624Y-57269749D01*
X112221621Y-57269761D01*
X112154529Y-57607066D01*
X112154526Y-57607084D01*
X112120818Y-57949357D01*
X112120818Y-58051154D01*
X112120818Y-58065081D01*
X112118675Y-58074504D01*
X112120819Y-58130822D01*
X112120820Y-58133176D01*
X112120820Y-58187213D01*
X112121881Y-58195274D01*
X112121562Y-58195315D01*
X112123853Y-58210476D01*
X112249044Y-61497573D01*
X112248908Y-61509779D01*
X112231728Y-61793794D01*
X112229923Y-61808659D01*
X112178219Y-62090798D01*
X112174635Y-62105336D01*
X112089306Y-62379167D01*
X112083997Y-62393168D01*
X111966275Y-62654736D01*
X111959316Y-62667995D01*
X111810928Y-62913459D01*
X111802422Y-62925782D01*
X111625526Y-63151573D01*
X111615596Y-63162781D01*
X111412781Y-63365596D01*
X111401573Y-63375526D01*
X111175782Y-63552422D01*
X111163459Y-63560928D01*
X110917995Y-63709316D01*
X110904736Y-63716275D01*
X110643168Y-63833997D01*
X110629167Y-63839306D01*
X110355336Y-63924635D01*
X110340798Y-63928219D01*
X110058659Y-63979923D01*
X110043794Y-63981728D01*
X109753736Y-63999274D01*
X109746443Y-63999500D01*
X109684108Y-63999500D01*
X109683738Y-63999597D01*
X109675391Y-63999611D01*
X109675390Y-63999610D01*
X109675386Y-63999611D01*
X25132248Y-64128169D01*
X25125106Y-64127974D01*
X24841375Y-64112039D01*
X24827556Y-64110482D01*
X24550727Y-64063445D01*
X24537171Y-64060351D01*
X24267347Y-63982615D01*
X24254221Y-63978022D01*
X23994797Y-63870562D01*
X23982270Y-63864529D01*
X23827726Y-63779116D01*
X23736502Y-63728697D01*
X23724741Y-63721307D01*
X23495722Y-63558808D01*
X23484859Y-63550144D01*
X23366454Y-63444330D01*
X23275490Y-63363039D01*
X23265657Y-63353207D01*
X23219705Y-63301787D01*
X23078537Y-63143818D01*
X23069881Y-63132964D01*
X22922878Y-62925782D01*
X22907385Y-62903947D01*
X22899987Y-62892173D01*
X22776089Y-62667995D01*
X22764156Y-62646404D01*
X22758127Y-62633882D01*
X22650673Y-62374463D01*
X22646080Y-62361339D01*
X22568344Y-62091511D01*
X22565250Y-62077954D01*
X22519495Y-61808659D01*
X22518213Y-61801116D01*
X22516659Y-61787319D01*
X22500717Y-61503437D01*
X22500523Y-61496554D01*
X22500514Y-56360795D01*
X30425000Y-56360795D01*
X30425000Y-56583644D01*
X30454085Y-56804574D01*
X30454088Y-56804587D01*
X30511763Y-57019838D01*
X30597045Y-57225722D01*
X30597054Y-57225740D01*
X30708464Y-57418711D01*
X30708473Y-57418724D01*
X30759040Y-57484623D01*
X30759043Y-57484623D01*
X31560387Y-56683279D01*
X31565889Y-56703811D01*
X31644881Y-56840628D01*
X31756592Y-56952339D01*
X31893409Y-57031331D01*
X31913940Y-57036832D01*
X31112595Y-57838175D01*
X31112595Y-57838176D01*
X31178507Y-57888753D01*
X31371485Y-58000169D01*
X31371497Y-58000174D01*
X31577381Y-58085456D01*
X31792632Y-58143131D01*
X31792645Y-58143134D01*
X32013575Y-58172220D01*
X32236425Y-58172220D01*
X32457354Y-58143134D01*
X32457367Y-58143131D01*
X32672618Y-58085456D01*
X32878502Y-58000174D01*
X32878514Y-58000169D01*
X33071498Y-57888750D01*
X33137403Y-57838177D01*
X33137404Y-57838176D01*
X32336059Y-57036832D01*
X32356591Y-57031331D01*
X32493408Y-56952339D01*
X32605119Y-56840628D01*
X32684111Y-56703811D01*
X32689612Y-56683279D01*
X33490956Y-57484624D01*
X33490957Y-57484623D01*
X33541530Y-57418718D01*
X33652949Y-57225734D01*
X33652954Y-57225722D01*
X33738236Y-57019838D01*
X33795911Y-56804587D01*
X33795914Y-56804574D01*
X33825000Y-56583644D01*
X33825000Y-56360797D01*
X33823671Y-56350704D01*
X33823671Y-56350702D01*
X33822074Y-56338575D01*
X52925000Y-56338575D01*
X52925000Y-56561424D01*
X52954085Y-56782354D01*
X52954088Y-56782367D01*
X53011763Y-56997618D01*
X53097045Y-57203502D01*
X53097054Y-57203520D01*
X53208464Y-57396491D01*
X53208473Y-57396504D01*
X53259040Y-57462403D01*
X53259043Y-57462403D01*
X54060387Y-56661058D01*
X54065889Y-56681591D01*
X54144881Y-56818408D01*
X54256592Y-56930119D01*
X54393409Y-57009111D01*
X54413940Y-57014612D01*
X53612595Y-57815955D01*
X53612595Y-57815956D01*
X53678507Y-57866533D01*
X53871485Y-57977949D01*
X53871497Y-57977954D01*
X54077381Y-58063236D01*
X54292632Y-58120911D01*
X54292645Y-58120914D01*
X54513575Y-58150000D01*
X54736425Y-58150000D01*
X54957354Y-58120914D01*
X54957367Y-58120911D01*
X55172618Y-58063236D01*
X55378502Y-57977954D01*
X55378514Y-57977949D01*
X55571498Y-57866530D01*
X55637403Y-57815957D01*
X55637404Y-57815956D01*
X54836059Y-57014612D01*
X54856591Y-57009111D01*
X54993408Y-56930119D01*
X55105119Y-56818408D01*
X55184111Y-56681591D01*
X55189612Y-56661059D01*
X55990956Y-57462404D01*
X55990957Y-57462403D01*
X56041530Y-57396498D01*
X56152949Y-57203514D01*
X56152954Y-57203502D01*
X56238236Y-56997618D01*
X56295911Y-56782367D01*
X56295914Y-56782354D01*
X56325000Y-56561424D01*
X56325000Y-56338575D01*
X56295914Y-56117645D01*
X56295911Y-56117632D01*
X56238236Y-55902381D01*
X56225301Y-55871153D01*
X74824500Y-55871153D01*
X74824500Y-56028846D01*
X74855261Y-56183489D01*
X74855264Y-56183501D01*
X74915602Y-56329172D01*
X74915609Y-56329185D01*
X75003210Y-56460288D01*
X75003213Y-56460292D01*
X75114707Y-56571786D01*
X75114711Y-56571789D01*
X75245814Y-56659390D01*
X75245827Y-56659397D01*
X75367846Y-56709938D01*
X75391503Y-56719737D01*
X75546153Y-56750499D01*
X75546156Y-56750500D01*
X75546158Y-56750500D01*
X75703844Y-56750500D01*
X75703845Y-56750499D01*
X75789321Y-56733497D01*
X75858488Y-56719739D01*
X75858489Y-56719738D01*
X75858497Y-56719737D01*
X75882155Y-56709937D01*
X75929604Y-56700500D01*
X77698920Y-56700500D01*
X77796462Y-56681096D01*
X77843913Y-56671658D01*
X77964308Y-56621789D01*
X77980491Y-56615086D01*
X77980492Y-56615085D01*
X77980495Y-56615084D01*
X78056845Y-56564069D01*
X78103416Y-56532952D01*
X78557526Y-56078842D01*
X79044300Y-55592067D01*
X79105623Y-55558582D01*
X79175314Y-55563566D01*
X79231248Y-55605437D01*
X79255665Y-55670902D01*
X79246543Y-55727199D01*
X79230263Y-55766503D01*
X79230261Y-55766510D01*
X79199500Y-55921153D01*
X79199500Y-56078846D01*
X79230261Y-56233489D01*
X79230264Y-56233501D01*
X79290602Y-56379172D01*
X79290609Y-56379185D01*
X79378210Y-56510288D01*
X79378213Y-56510292D01*
X79489707Y-56621786D01*
X79489711Y-56621789D01*
X79620814Y-56709390D01*
X79620827Y-56709397D01*
X79720060Y-56750500D01*
X79766503Y-56769737D01*
X79921158Y-56800500D01*
X79921847Y-56800637D01*
X79983758Y-56833022D01*
X79985337Y-56834573D01*
X80131284Y-56980520D01*
X80131286Y-56980521D01*
X80131290Y-56980524D01*
X80199385Y-57019838D01*
X80268216Y-57059577D01*
X80420943Y-57100501D01*
X80420945Y-57100501D01*
X80586654Y-57100501D01*
X80586670Y-57100500D01*
X83420234Y-57100500D01*
X83487273Y-57120185D01*
X83489125Y-57121398D01*
X83620814Y-57209390D01*
X83620827Y-57209397D01*
X83766498Y-57269735D01*
X83766503Y-57269737D01*
X83921153Y-57300499D01*
X83921156Y-57300500D01*
X83921158Y-57300500D01*
X84078844Y-57300500D01*
X84078845Y-57300499D01*
X84233497Y-57269737D01*
X84379179Y-57209394D01*
X84510289Y-57121789D01*
X84621789Y-57010289D01*
X84709394Y-56879179D01*
X84769737Y-56733497D01*
X84800500Y-56578842D01*
X84800500Y-56421158D01*
X84800500Y-56421155D01*
X84789445Y-56365580D01*
X84789445Y-56365579D01*
X84785601Y-56346254D01*
X90344500Y-56346254D01*
X90344500Y-58108745D01*
X90382432Y-58348236D01*
X90457360Y-58578844D01*
X90567448Y-58794901D01*
X90709966Y-58991062D01*
X90709970Y-58991067D01*
X90881432Y-59162529D01*
X90881437Y-59162533D01*
X90996537Y-59246157D01*
X91077602Y-59305054D01*
X91293653Y-59415138D01*
X91293655Y-59415139D01*
X91408959Y-59452603D01*
X91524265Y-59490068D01*
X91635186Y-59507636D01*
X91763755Y-59528000D01*
X91763760Y-59528000D01*
X92006245Y-59528000D01*
X92122347Y-59509610D01*
X92245735Y-59490068D01*
X92476347Y-59415138D01*
X92692398Y-59305054D01*
X92888569Y-59162528D01*
X93060028Y-58991069D01*
X93202554Y-58794898D01*
X93312638Y-58578847D01*
X93387568Y-58348235D01*
X93411788Y-58195315D01*
X93425500Y-58108745D01*
X93425500Y-56346254D01*
X95424500Y-56346254D01*
X95424500Y-58108745D01*
X95462432Y-58348236D01*
X95537360Y-58578844D01*
X95647448Y-58794901D01*
X95789966Y-58991062D01*
X95789970Y-58991067D01*
X95961432Y-59162529D01*
X95961437Y-59162533D01*
X96076537Y-59246157D01*
X96157602Y-59305054D01*
X96373653Y-59415138D01*
X96373655Y-59415139D01*
X96488959Y-59452603D01*
X96604265Y-59490068D01*
X96715186Y-59507636D01*
X96843755Y-59528000D01*
X96843760Y-59528000D01*
X97086245Y-59528000D01*
X97202347Y-59509610D01*
X97325735Y-59490068D01*
X97556347Y-59415138D01*
X97772398Y-59305054D01*
X97968569Y-59162528D01*
X98140028Y-58991069D01*
X98282554Y-58794898D01*
X98392638Y-58578847D01*
X98467568Y-58348235D01*
X98491788Y-58195315D01*
X98505500Y-58108745D01*
X98505500Y-56346254D01*
X100504500Y-56346254D01*
X100504500Y-58108745D01*
X100542432Y-58348236D01*
X100617360Y-58578844D01*
X100727448Y-58794901D01*
X100869966Y-58991062D01*
X100869970Y-58991067D01*
X101041432Y-59162529D01*
X101041437Y-59162533D01*
X101156537Y-59246157D01*
X101237602Y-59305054D01*
X101453653Y-59415138D01*
X101453655Y-59415139D01*
X101568959Y-59452603D01*
X101684265Y-59490068D01*
X101795186Y-59507636D01*
X101923755Y-59528000D01*
X101923760Y-59528000D01*
X102166245Y-59528000D01*
X102282347Y-59509610D01*
X102405735Y-59490068D01*
X102636347Y-59415138D01*
X102852398Y-59305054D01*
X103048569Y-59162528D01*
X103220028Y-58991069D01*
X103362554Y-58794898D01*
X103472638Y-58578847D01*
X103547568Y-58348235D01*
X103571788Y-58195315D01*
X103585500Y-58108745D01*
X103585500Y-56346254D01*
X103549793Y-56120814D01*
X103547568Y-56106765D01*
X103487261Y-55921158D01*
X103472639Y-55876155D01*
X103425807Y-55784242D01*
X103362554Y-55660102D01*
X103362553Y-55660100D01*
X103338855Y-55627482D01*
X105584500Y-55627482D01*
X105584500Y-58827517D01*
X105595000Y-58930296D01*
X105650185Y-59096832D01*
X105650186Y-59096835D01*
X105742288Y-59246156D01*
X105866344Y-59370212D01*
X106015665Y-59462314D01*
X106182202Y-59517499D01*
X106284990Y-59528000D01*
X106284995Y-59528000D01*
X107965005Y-59528000D01*
X107965010Y-59528000D01*
X108067798Y-59517499D01*
X108234335Y-59462314D01*
X108383656Y-59370212D01*
X108507712Y-59246156D01*
X108599814Y-59096835D01*
X108654999Y-58930298D01*
X108665500Y-58827510D01*
X108665500Y-55627490D01*
X108654999Y-55524702D01*
X108599814Y-55358165D01*
X108507712Y-55208844D01*
X108383656Y-55084788D01*
X108234335Y-54992686D01*
X108067798Y-54937501D01*
X108067796Y-54937500D01*
X107965017Y-54927000D01*
X107965010Y-54927000D01*
X106284990Y-54927000D01*
X106284982Y-54927000D01*
X106182203Y-54937500D01*
X106182202Y-54937501D01*
X106099669Y-54964849D01*
X106015667Y-54992685D01*
X106015662Y-54992687D01*
X105866342Y-55084789D01*
X105742289Y-55208842D01*
X105650187Y-55358162D01*
X105650185Y-55358167D01*
X105636426Y-55399690D01*
X105595001Y-55524702D01*
X105595001Y-55524703D01*
X105595000Y-55524703D01*
X105584500Y-55627482D01*
X103338855Y-55627482D01*
X103220033Y-55463937D01*
X103220029Y-55463932D01*
X103048567Y-55292470D01*
X103048562Y-55292466D01*
X102852401Y-55149948D01*
X102852400Y-55149947D01*
X102852398Y-55149946D01*
X102740924Y-55093147D01*
X102636344Y-55039860D01*
X102405736Y-54964932D01*
X102166245Y-54927000D01*
X102166240Y-54927000D01*
X101923760Y-54927000D01*
X101923755Y-54927000D01*
X101684263Y-54964932D01*
X101453655Y-55039860D01*
X101237598Y-55149948D01*
X101041437Y-55292466D01*
X101041432Y-55292470D01*
X100869970Y-55463932D01*
X100869966Y-55463937D01*
X100727448Y-55660098D01*
X100617360Y-55876155D01*
X100542432Y-56106763D01*
X100504500Y-56346254D01*
X98505500Y-56346254D01*
X98469793Y-56120814D01*
X98467568Y-56106765D01*
X98407261Y-55921158D01*
X98392639Y-55876155D01*
X98349047Y-55790602D01*
X98282554Y-55660102D01*
X98208796Y-55558582D01*
X98140033Y-55463937D01*
X98140029Y-55463932D01*
X97968567Y-55292470D01*
X97968562Y-55292466D01*
X97772401Y-55149948D01*
X97772400Y-55149947D01*
X97772398Y-55149946D01*
X97660924Y-55093147D01*
X97556344Y-55039860D01*
X97325736Y-54964932D01*
X97086245Y-54927000D01*
X97086240Y-54927000D01*
X96843760Y-54927000D01*
X96843755Y-54927000D01*
X96604263Y-54964932D01*
X96373655Y-55039860D01*
X96157598Y-55149948D01*
X95961437Y-55292466D01*
X95961432Y-55292470D01*
X95789970Y-55463932D01*
X95789966Y-55463937D01*
X95647448Y-55660098D01*
X95537360Y-55876155D01*
X95462432Y-56106763D01*
X95424500Y-56346254D01*
X93425500Y-56346254D01*
X93389793Y-56120814D01*
X93387568Y-56106765D01*
X93327261Y-55921158D01*
X93312639Y-55876155D01*
X93269047Y-55790602D01*
X93202554Y-55660102D01*
X93128796Y-55558582D01*
X93060033Y-55463937D01*
X93060029Y-55463932D01*
X92888567Y-55292470D01*
X92888562Y-55292466D01*
X92692401Y-55149948D01*
X92692400Y-55149947D01*
X92692398Y-55149946D01*
X92580924Y-55093147D01*
X92476344Y-55039860D01*
X92245736Y-54964932D01*
X92006245Y-54927000D01*
X92006240Y-54927000D01*
X91763760Y-54927000D01*
X91763755Y-54927000D01*
X91524263Y-54964932D01*
X91293655Y-55039860D01*
X91077598Y-55149948D01*
X90881437Y-55292466D01*
X90881432Y-55292470D01*
X90709970Y-55463932D01*
X90709966Y-55463937D01*
X90567448Y-55660098D01*
X90457360Y-55876155D01*
X90382432Y-56106763D01*
X90344500Y-56346254D01*
X84785601Y-56346254D01*
X84769738Y-56266510D01*
X84769737Y-56266503D01*
X84735352Y-56183489D01*
X84709397Y-56120827D01*
X84709390Y-56120814D01*
X84621789Y-55989711D01*
X84621786Y-55989707D01*
X84510292Y-55878213D01*
X84510288Y-55878210D01*
X84379185Y-55790609D01*
X84379172Y-55790602D01*
X84233501Y-55730264D01*
X84233489Y-55730261D01*
X84078845Y-55699500D01*
X84078842Y-55699500D01*
X83921158Y-55699500D01*
X83921155Y-55699500D01*
X83766510Y-55730261D01*
X83766498Y-55730264D01*
X83620827Y-55790602D01*
X83620814Y-55790609D01*
X83489125Y-55878602D01*
X83422447Y-55899480D01*
X83420234Y-55899500D01*
X80897956Y-55899500D01*
X80830917Y-55879815D01*
X80785162Y-55827011D01*
X80776339Y-55799691D01*
X80772874Y-55782274D01*
X80769737Y-55766503D01*
X80769735Y-55766498D01*
X80709397Y-55620827D01*
X80709390Y-55620814D01*
X80621789Y-55489711D01*
X80621786Y-55489707D01*
X80510292Y-55378213D01*
X80510288Y-55378210D01*
X80379185Y-55290609D01*
X80379172Y-55290602D01*
X80233501Y-55230264D01*
X80233489Y-55230261D01*
X80078845Y-55199500D01*
X80078842Y-55199500D01*
X79921158Y-55199500D01*
X79921155Y-55199500D01*
X79766510Y-55230261D01*
X79766498Y-55230264D01*
X79727196Y-55246543D01*
X79657726Y-55254010D01*
X79595248Y-55222734D01*
X79559597Y-55162644D01*
X79562093Y-55092819D01*
X79592062Y-55044303D01*
X79940295Y-54696070D01*
X79980519Y-54669193D01*
X80004179Y-54659394D01*
X80135289Y-54571789D01*
X80246789Y-54460289D01*
X80334394Y-54329179D01*
X80394737Y-54183497D01*
X80425500Y-54028842D01*
X80425500Y-53871158D01*
X80425500Y-53871155D01*
X80425499Y-53871153D01*
X80399531Y-53740606D01*
X80394737Y-53716503D01*
X80394735Y-53716498D01*
X80334397Y-53570827D01*
X80334390Y-53570814D01*
X80246789Y-53439711D01*
X80246786Y-53439707D01*
X80135292Y-53328213D01*
X80135288Y-53328210D01*
X80004185Y-53240609D01*
X80004172Y-53240602D01*
X79858501Y-53180264D01*
X79858489Y-53180261D01*
X79703845Y-53149500D01*
X79703842Y-53149500D01*
X79546158Y-53149500D01*
X79546155Y-53149500D01*
X79391510Y-53180261D01*
X79391502Y-53180263D01*
X79344878Y-53199575D01*
X79275408Y-53207042D01*
X79212930Y-53175766D01*
X79177278Y-53115677D01*
X79179773Y-53045852D01*
X79209747Y-52997331D01*
X79246786Y-52960292D01*
X79246789Y-52960289D01*
X79334394Y-52829179D01*
X79394737Y-52683497D01*
X79425500Y-52528842D01*
X79425500Y-52371158D01*
X79425500Y-52371155D01*
X79425499Y-52371153D01*
X79415085Y-52318800D01*
X79394737Y-52216503D01*
X79375829Y-52170854D01*
X79334397Y-52070827D01*
X79334390Y-52070814D01*
X79246789Y-51939711D01*
X79246786Y-51939707D01*
X79135292Y-51828213D01*
X79135288Y-51828210D01*
X79004185Y-51740609D01*
X79004172Y-51740602D01*
X78858501Y-51680264D01*
X78858489Y-51680261D01*
X78703845Y-51649500D01*
X78703842Y-51649500D01*
X78546158Y-51649500D01*
X78546155Y-51649500D01*
X78391510Y-51680261D01*
X78391498Y-51680264D01*
X78245827Y-51740602D01*
X78245814Y-51740609D01*
X78114711Y-51828210D01*
X78114707Y-51828213D01*
X78003213Y-51939707D01*
X78003210Y-51939711D01*
X77915609Y-52070814D01*
X77915602Y-52070827D01*
X77855264Y-52216498D01*
X77855261Y-52216508D01*
X77824361Y-52371850D01*
X77791976Y-52433761D01*
X77790425Y-52435339D01*
X76610339Y-53615425D01*
X76549016Y-53648910D01*
X76546850Y-53649361D01*
X76391508Y-53680261D01*
X76391498Y-53680264D01*
X76245827Y-53740602D01*
X76245814Y-53740609D01*
X76114711Y-53828210D01*
X76114707Y-53828213D01*
X76003213Y-53939707D01*
X76003210Y-53939711D01*
X75915609Y-54070814D01*
X75915602Y-54070827D01*
X75855264Y-54216498D01*
X75855261Y-54216510D01*
X75824500Y-54371153D01*
X75824500Y-54528846D01*
X75855261Y-54683489D01*
X75855264Y-54683501D01*
X75915602Y-54829172D01*
X75915609Y-54829185D01*
X76003210Y-54960288D01*
X76003213Y-54960292D01*
X76030740Y-54987819D01*
X76041352Y-55007255D01*
X76055853Y-55023989D01*
X76057769Y-55037320D01*
X76064225Y-55049142D01*
X76062645Y-55071228D01*
X76065797Y-55093147D01*
X76060201Y-55105398D01*
X76059241Y-55118834D01*
X76045970Y-55136560D01*
X76036772Y-55156703D01*
X76025440Y-55163985D01*
X76017369Y-55174767D01*
X75996623Y-55182504D01*
X75977994Y-55194477D01*
X75956075Y-55197628D01*
X75951905Y-55199184D01*
X75943059Y-55199500D01*
X75929604Y-55199500D01*
X75882155Y-55190062D01*
X75858497Y-55180263D01*
X75858493Y-55180262D01*
X75858488Y-55180260D01*
X75703845Y-55149500D01*
X75703842Y-55149500D01*
X75546158Y-55149500D01*
X75546155Y-55149500D01*
X75391510Y-55180261D01*
X75391498Y-55180264D01*
X75245827Y-55240602D01*
X75245814Y-55240609D01*
X75114711Y-55328210D01*
X75114707Y-55328213D01*
X75003213Y-55439707D01*
X75003210Y-55439711D01*
X74915609Y-55570814D01*
X74915602Y-55570827D01*
X74855264Y-55716498D01*
X74855261Y-55716510D01*
X74824500Y-55871153D01*
X56225301Y-55871153D01*
X56152954Y-55696497D01*
X56152949Y-55696485D01*
X56041533Y-55503507D01*
X55990956Y-55437595D01*
X55990955Y-55437595D01*
X55189612Y-56238939D01*
X55184111Y-56218409D01*
X55105119Y-56081592D01*
X54993408Y-55969881D01*
X54856591Y-55890889D01*
X54836058Y-55885387D01*
X55637403Y-55084043D01*
X55637403Y-55084040D01*
X55571504Y-55033473D01*
X55571491Y-55033464D01*
X55378520Y-54922054D01*
X55378502Y-54922045D01*
X55172618Y-54836763D01*
X54957367Y-54779088D01*
X54957354Y-54779085D01*
X54736425Y-54750000D01*
X54513575Y-54750000D01*
X54292645Y-54779085D01*
X54292632Y-54779088D01*
X54077381Y-54836763D01*
X53871497Y-54922045D01*
X53871479Y-54922054D01*
X53678511Y-55033462D01*
X53612595Y-55084042D01*
X54413941Y-55885387D01*
X54393409Y-55890889D01*
X54256592Y-55969881D01*
X54144881Y-56081592D01*
X54065889Y-56218409D01*
X54060387Y-56238940D01*
X53259042Y-55437595D01*
X53208462Y-55503511D01*
X53097054Y-55696479D01*
X53097045Y-55696497D01*
X53011763Y-55902381D01*
X52954088Y-56117632D01*
X52954085Y-56117645D01*
X52925000Y-56338575D01*
X33822074Y-56338575D01*
X33795914Y-56139865D01*
X33795911Y-56139852D01*
X33738236Y-55924601D01*
X33652954Y-55718717D01*
X33652949Y-55718705D01*
X33541533Y-55525727D01*
X33490956Y-55459815D01*
X33490955Y-55459815D01*
X32689612Y-56261159D01*
X32684111Y-56240629D01*
X32605119Y-56103812D01*
X32493408Y-55992101D01*
X32356591Y-55913109D01*
X32336058Y-55907607D01*
X33137404Y-55106262D01*
X33137404Y-55106261D01*
X33071504Y-55055693D01*
X33071491Y-55055684D01*
X32878520Y-54944274D01*
X32878502Y-54944265D01*
X32672618Y-54858983D01*
X32457367Y-54801308D01*
X32457354Y-54801305D01*
X32236425Y-54772220D01*
X32013575Y-54772220D01*
X31792645Y-54801305D01*
X31792632Y-54801308D01*
X31577381Y-54858983D01*
X31371497Y-54944265D01*
X31371479Y-54944274D01*
X31178511Y-55055682D01*
X31112595Y-55106262D01*
X31913941Y-55907607D01*
X31893409Y-55913109D01*
X31756592Y-55992101D01*
X31644881Y-56103812D01*
X31565889Y-56240629D01*
X31560387Y-56261160D01*
X30759042Y-55459815D01*
X30708462Y-55525731D01*
X30597054Y-55718699D01*
X30597045Y-55718717D01*
X30511763Y-55924601D01*
X30454088Y-56139852D01*
X30454085Y-56139865D01*
X30425000Y-56360795D01*
X22500514Y-56360795D01*
X22500506Y-51470218D01*
X94150435Y-51470218D01*
X94150435Y-51627911D01*
X94181196Y-51782554D01*
X94181199Y-51782566D01*
X94241537Y-51928237D01*
X94241544Y-51928250D01*
X94329145Y-52059353D01*
X94329148Y-52059357D01*
X94440642Y-52170851D01*
X94440646Y-52170854D01*
X94571749Y-52258455D01*
X94571762Y-52258462D01*
X94675138Y-52301281D01*
X94717438Y-52318802D01*
X94872088Y-52349564D01*
X94872091Y-52349565D01*
X94872093Y-52349565D01*
X95029779Y-52349565D01*
X95029780Y-52349564D01*
X95106087Y-52334385D01*
X95184423Y-52318804D01*
X95184424Y-52318803D01*
X95184432Y-52318802D01*
X95208090Y-52309002D01*
X95255539Y-52299565D01*
X97377018Y-52299565D01*
X97405573Y-52299565D01*
X97417726Y-52300162D01*
X97421158Y-52300500D01*
X97578844Y-52300500D01*
X97578845Y-52300499D01*
X97733497Y-52269737D01*
X97879179Y-52209394D01*
X98010289Y-52121789D01*
X98121789Y-52010289D01*
X98209394Y-51879179D01*
X98269737Y-51733497D01*
X98300500Y-51578842D01*
X98300500Y-51421158D01*
X98300500Y-51421155D01*
X98300499Y-51421153D01*
X98279498Y-51315575D01*
X98269737Y-51266503D01*
X98229720Y-51169892D01*
X98209397Y-51120827D01*
X98209390Y-51120814D01*
X98121789Y-50989711D01*
X98121786Y-50989707D01*
X98010292Y-50878213D01*
X98010288Y-50878210D01*
X97879185Y-50790609D01*
X97879172Y-50790602D01*
X97733501Y-50730264D01*
X97733489Y-50730261D01*
X97578845Y-50699500D01*
X97578842Y-50699500D01*
X97421158Y-50699500D01*
X97421155Y-50699500D01*
X97266510Y-50730261D01*
X97266498Y-50730264D01*
X97124393Y-50789126D01*
X97076941Y-50798565D01*
X95255539Y-50798565D01*
X95208090Y-50789127D01*
X95184432Y-50779328D01*
X95184428Y-50779327D01*
X95184423Y-50779325D01*
X95029780Y-50748565D01*
X95029777Y-50748565D01*
X94872093Y-50748565D01*
X94872090Y-50748565D01*
X94717445Y-50779326D01*
X94717433Y-50779329D01*
X94571762Y-50839667D01*
X94571749Y-50839674D01*
X94440646Y-50927275D01*
X94440642Y-50927278D01*
X94329148Y-51038772D01*
X94329145Y-51038776D01*
X94241544Y-51169879D01*
X94241537Y-51169892D01*
X94181199Y-51315563D01*
X94181196Y-51315575D01*
X94150435Y-51470218D01*
X22500506Y-51470218D01*
X22500500Y-47972204D01*
X30424500Y-47972204D01*
X30424500Y-49972235D01*
X30435000Y-50075015D01*
X30435001Y-50075016D01*
X30490186Y-50241555D01*
X30490187Y-50241557D01*
X30582286Y-50390871D01*
X30582289Y-50390875D01*
X30706344Y-50514930D01*
X30706348Y-50514933D01*
X30855662Y-50607032D01*
X30855664Y-50607033D01*
X30855666Y-50607034D01*
X31022203Y-50662219D01*
X31124992Y-50672720D01*
X31124997Y-50672720D01*
X33125003Y-50672720D01*
X33125008Y-50672720D01*
X33227797Y-50662219D01*
X33394334Y-50607034D01*
X33543655Y-50514931D01*
X33667711Y-50390875D01*
X33759814Y-50241554D01*
X33814999Y-50075017D01*
X33825500Y-49972228D01*
X33825500Y-47972212D01*
X33823230Y-47949997D01*
X33823229Y-47949984D01*
X52924500Y-47949984D01*
X52924500Y-49950015D01*
X52935000Y-50052795D01*
X52935001Y-50052797D01*
X52942364Y-50075016D01*
X52990186Y-50219335D01*
X52990187Y-50219337D01*
X53082286Y-50368651D01*
X53082289Y-50368655D01*
X53206344Y-50492710D01*
X53206348Y-50492713D01*
X53355662Y-50584812D01*
X53355664Y-50584813D01*
X53355666Y-50584814D01*
X53522203Y-50639999D01*
X53624992Y-50650500D01*
X53624997Y-50650500D01*
X55625003Y-50650500D01*
X55625008Y-50650500D01*
X55727797Y-50639999D01*
X55894334Y-50584814D01*
X56043655Y-50492711D01*
X56167711Y-50368655D01*
X56259814Y-50219334D01*
X56314999Y-50052797D01*
X56325500Y-49950008D01*
X56325500Y-48908754D01*
X118699500Y-48908754D01*
X118699500Y-49151245D01*
X118737432Y-49390736D01*
X118812360Y-49621344D01*
X118922448Y-49837401D01*
X119064966Y-50033562D01*
X119064970Y-50033567D01*
X119236432Y-50205029D01*
X119236437Y-50205033D01*
X119407539Y-50329345D01*
X119432602Y-50347554D01*
X119648653Y-50457638D01*
X119648655Y-50457639D01*
X119756594Y-50492710D01*
X119879265Y-50532568D01*
X119990186Y-50550136D01*
X120118755Y-50570500D01*
X120118760Y-50570500D01*
X121881245Y-50570500D01*
X121997347Y-50552110D01*
X122120735Y-50532568D01*
X122351347Y-50457638D01*
X122567398Y-50347554D01*
X122763569Y-50205028D01*
X122935028Y-50033569D01*
X123077554Y-49837398D01*
X123187638Y-49621347D01*
X123262568Y-49390735D01*
X123282110Y-49267347D01*
X123300500Y-49151245D01*
X123300500Y-48908754D01*
X123278432Y-48769431D01*
X123262568Y-48669265D01*
X123187638Y-48438653D01*
X123077554Y-48222602D01*
X123031628Y-48159390D01*
X122935033Y-48026437D01*
X122935029Y-48026432D01*
X122763567Y-47854970D01*
X122763562Y-47854966D01*
X122567401Y-47712448D01*
X122567400Y-47712447D01*
X122567398Y-47712446D01*
X122459372Y-47657404D01*
X122351344Y-47602360D01*
X122120736Y-47527432D01*
X121881245Y-47489500D01*
X121881240Y-47489500D01*
X120118760Y-47489500D01*
X120118755Y-47489500D01*
X119879263Y-47527432D01*
X119648655Y-47602360D01*
X119432598Y-47712448D01*
X119236437Y-47854966D01*
X119236432Y-47854970D01*
X119064970Y-48026432D01*
X119064966Y-48026437D01*
X118922448Y-48222598D01*
X118812360Y-48438655D01*
X118737432Y-48669263D01*
X118699500Y-48908754D01*
X56325500Y-48908754D01*
X56325500Y-47949992D01*
X56314999Y-47847203D01*
X56259814Y-47680666D01*
X56256927Y-47675986D01*
X56167713Y-47531348D01*
X56167710Y-47531344D01*
X56043655Y-47407289D01*
X56043651Y-47407286D01*
X55985071Y-47371153D01*
X74224500Y-47371153D01*
X74224500Y-47528846D01*
X74255261Y-47683489D01*
X74255264Y-47683501D01*
X74315602Y-47829172D01*
X74315609Y-47829185D01*
X74403210Y-47960288D01*
X74403213Y-47960292D01*
X74514707Y-48071786D01*
X74514711Y-48071789D01*
X74645814Y-48159390D01*
X74645827Y-48159397D01*
X74791498Y-48219735D01*
X74791503Y-48219737D01*
X74946153Y-48250499D01*
X74946156Y-48250500D01*
X74946158Y-48250500D01*
X75103844Y-48250500D01*
X75103845Y-48250499D01*
X75258497Y-48219737D01*
X75404179Y-48159394D01*
X75460459Y-48121789D01*
X75535875Y-48071398D01*
X75553921Y-48065747D01*
X75569831Y-48055523D01*
X75600792Y-48051071D01*
X75602553Y-48050520D01*
X75604766Y-48050500D01*
X75645234Y-48050500D01*
X75712273Y-48070185D01*
X75714125Y-48071398D01*
X75845814Y-48159390D01*
X75845827Y-48159397D01*
X75991498Y-48219735D01*
X75991503Y-48219737D01*
X76146153Y-48250499D01*
X76146156Y-48250500D01*
X76146158Y-48250500D01*
X76303844Y-48250500D01*
X76303845Y-48250499D01*
X76458497Y-48219737D01*
X76604179Y-48159394D01*
X76735289Y-48071789D01*
X76846789Y-47960289D01*
X76934394Y-47829179D01*
X76994737Y-47683497D01*
X77025500Y-47528842D01*
X77025500Y-47371158D01*
X77025500Y-47371155D01*
X77025499Y-47371153D01*
X77018786Y-47337406D01*
X76994737Y-47216503D01*
X76955102Y-47120814D01*
X76934397Y-47070827D01*
X76934390Y-47070814D01*
X76846789Y-46939711D01*
X76846786Y-46939707D01*
X76735292Y-46828213D01*
X76735288Y-46828210D01*
X76604185Y-46740609D01*
X76604172Y-46740602D01*
X76458501Y-46680264D01*
X76458489Y-46680261D01*
X76303845Y-46649500D01*
X76303842Y-46649500D01*
X76146158Y-46649500D01*
X76146155Y-46649500D01*
X75991510Y-46680261D01*
X75991498Y-46680264D01*
X75845827Y-46740602D01*
X75845814Y-46740609D01*
X75714125Y-46828602D01*
X75696078Y-46834252D01*
X75680169Y-46844477D01*
X75649207Y-46848928D01*
X75647447Y-46849480D01*
X75645234Y-46849500D01*
X75604766Y-46849500D01*
X75537727Y-46829815D01*
X75535875Y-46828602D01*
X75404185Y-46740609D01*
X75404172Y-46740602D01*
X75258501Y-46680264D01*
X75258489Y-46680261D01*
X75103845Y-46649500D01*
X75103842Y-46649500D01*
X74946158Y-46649500D01*
X74946155Y-46649500D01*
X74791510Y-46680261D01*
X74791498Y-46680264D01*
X74645827Y-46740602D01*
X74645814Y-46740609D01*
X74514711Y-46828210D01*
X74514707Y-46828213D01*
X74403213Y-46939707D01*
X74403210Y-46939711D01*
X74315609Y-47070814D01*
X74315602Y-47070827D01*
X74255264Y-47216498D01*
X74255261Y-47216510D01*
X74224500Y-47371153D01*
X55985071Y-47371153D01*
X55894337Y-47315187D01*
X55894335Y-47315186D01*
X55794849Y-47282220D01*
X55727797Y-47260001D01*
X55727795Y-47260000D01*
X55625015Y-47249500D01*
X55625008Y-47249500D01*
X53624992Y-47249500D01*
X53624984Y-47249500D01*
X53522204Y-47260000D01*
X53522203Y-47260001D01*
X53355664Y-47315186D01*
X53355662Y-47315187D01*
X53206348Y-47407286D01*
X53206344Y-47407289D01*
X53082289Y-47531344D01*
X53082286Y-47531348D01*
X52990187Y-47680662D01*
X52990186Y-47680664D01*
X52935001Y-47847203D01*
X52935000Y-47847204D01*
X52924500Y-47949984D01*
X33823229Y-47949984D01*
X33814999Y-47869425D01*
X33814999Y-47869424D01*
X33814999Y-47869423D01*
X33759814Y-47702886D01*
X33747857Y-47683501D01*
X33667713Y-47553568D01*
X33667710Y-47553564D01*
X33543655Y-47429509D01*
X33543651Y-47429506D01*
X33394337Y-47337407D01*
X33394335Y-47337406D01*
X33311065Y-47309813D01*
X33227797Y-47282221D01*
X33227795Y-47282220D01*
X33125015Y-47271720D01*
X33125008Y-47271720D01*
X31124992Y-47271720D01*
X31124984Y-47271720D01*
X31022204Y-47282220D01*
X31022203Y-47282221D01*
X30855664Y-47337406D01*
X30855662Y-47337407D01*
X30706348Y-47429506D01*
X30706344Y-47429509D01*
X30582289Y-47553564D01*
X30582286Y-47553568D01*
X30490187Y-47702882D01*
X30490186Y-47702884D01*
X30435001Y-47869423D01*
X30435000Y-47869424D01*
X30424500Y-47972204D01*
X22500500Y-47972204D01*
X22500500Y-47684107D01*
X22500500Y-47676048D01*
X22500496Y-47675986D01*
X22500496Y-47571713D01*
X22498708Y-47553564D01*
X22465545Y-47216847D01*
X22455267Y-47165176D01*
X22395985Y-46867139D01*
X22395982Y-46867128D01*
X22395981Y-46867125D01*
X22395980Y-46867119D01*
X22292470Y-46525893D01*
X22156013Y-46196456D01*
X22113502Y-46116924D01*
X21987929Y-45881992D01*
X21987928Y-45881990D01*
X21987923Y-45881981D01*
X21789817Y-45585495D01*
X21789813Y-45585489D01*
X21563601Y-45309849D01*
X21311471Y-45057719D01*
X21035831Y-44831507D01*
X21035808Y-44831490D01*
X20739356Y-44633408D01*
X20739328Y-44633391D01*
X20424872Y-44465310D01*
X20424867Y-44465308D01*
X20338134Y-44429382D01*
X20095429Y-44328850D01*
X20062536Y-44318872D01*
X41624500Y-44318872D01*
X41624500Y-44581127D01*
X41647708Y-44757398D01*
X41658730Y-44841116D01*
X41720047Y-45069955D01*
X41726602Y-45094418D01*
X41726605Y-45094428D01*
X41826953Y-45336690D01*
X41826958Y-45336700D01*
X41958075Y-45563803D01*
X42117718Y-45771851D01*
X42117726Y-45771860D01*
X42303140Y-45957274D01*
X42303148Y-45957281D01*
X42303149Y-45957282D01*
X42307068Y-45960289D01*
X42511196Y-46116924D01*
X42738299Y-46248041D01*
X42738309Y-46248046D01*
X42980571Y-46348394D01*
X42980581Y-46348398D01*
X43233884Y-46416270D01*
X43493880Y-46450500D01*
X43493887Y-46450500D01*
X43756113Y-46450500D01*
X43756120Y-46450500D01*
X44016116Y-46416270D01*
X44269419Y-46348398D01*
X44459328Y-46269735D01*
X44511690Y-46248046D01*
X44511691Y-46248045D01*
X44511697Y-46248043D01*
X44738803Y-46116924D01*
X44946851Y-45957282D01*
X44946855Y-45957277D01*
X44946860Y-45957274D01*
X45132274Y-45771860D01*
X45132277Y-45771855D01*
X45132282Y-45771851D01*
X45291924Y-45563803D01*
X45403150Y-45371153D01*
X74224500Y-45371153D01*
X74224500Y-45528846D01*
X74255261Y-45683489D01*
X74255264Y-45683501D01*
X74315602Y-45829172D01*
X74315609Y-45829185D01*
X74403210Y-45960288D01*
X74403213Y-45960292D01*
X74514707Y-46071786D01*
X74514711Y-46071789D01*
X74645814Y-46159390D01*
X74645827Y-46159397D01*
X74791498Y-46219735D01*
X74791503Y-46219737D01*
X74933796Y-46248041D01*
X74946153Y-46250499D01*
X74946156Y-46250500D01*
X74946158Y-46250500D01*
X75103844Y-46250500D01*
X75103845Y-46250499D01*
X75258497Y-46219737D01*
X75404179Y-46159394D01*
X75535289Y-46071789D01*
X75646789Y-45960289D01*
X75734394Y-45829179D01*
X75794737Y-45683497D01*
X75818546Y-45563803D01*
X75825638Y-45528150D01*
X75858023Y-45466239D01*
X75859518Y-45464716D01*
X76794878Y-44529356D01*
X76831067Y-44504235D01*
X76840467Y-44499944D01*
X76875916Y-44490446D01*
X76926035Y-44461508D01*
X77012847Y-44411389D01*
X77124651Y-44299585D01*
X77124651Y-44299583D01*
X77134859Y-44289376D01*
X77134860Y-44289373D01*
X79052162Y-42372072D01*
X79113483Y-42338589D01*
X79115650Y-42338138D01*
X79173585Y-42326613D01*
X79270997Y-42307237D01*
X79416679Y-42246894D01*
X79547789Y-42159289D01*
X79659289Y-42047789D01*
X79746894Y-41916679D01*
X79807237Y-41770997D01*
X79838000Y-41616342D01*
X79838000Y-41458658D01*
X79838000Y-41458655D01*
X79837999Y-41458653D01*
X79829172Y-41414277D01*
X79807237Y-41304003D01*
X79792565Y-41268581D01*
X79746897Y-41158327D01*
X79746890Y-41158314D01*
X79659289Y-41027211D01*
X79659286Y-41027207D01*
X79547792Y-40915713D01*
X79547788Y-40915710D01*
X79416685Y-40828109D01*
X79416672Y-40828102D01*
X79271001Y-40767764D01*
X79270989Y-40767761D01*
X79116345Y-40737000D01*
X79116342Y-40737000D01*
X78958658Y-40737000D01*
X78958655Y-40737000D01*
X78804010Y-40767761D01*
X78803998Y-40767764D01*
X78658327Y-40828102D01*
X78658314Y-40828109D01*
X78527211Y-40915710D01*
X78527207Y-40915713D01*
X78415713Y-41027207D01*
X78415710Y-41027211D01*
X78328109Y-41158314D01*
X78328102Y-41158327D01*
X78267764Y-41303998D01*
X78267761Y-41304008D01*
X78236861Y-41459350D01*
X78204476Y-41521261D01*
X78202925Y-41522839D01*
X76393385Y-43332378D01*
X76337800Y-43364471D01*
X76312348Y-43371291D01*
X76312343Y-43371293D01*
X76175418Y-43450346D01*
X76175413Y-43450350D01*
X75010339Y-44615425D01*
X74949016Y-44648910D01*
X74946850Y-44649361D01*
X74791508Y-44680261D01*
X74791498Y-44680264D01*
X74645827Y-44740602D01*
X74645814Y-44740609D01*
X74514711Y-44828210D01*
X74514707Y-44828213D01*
X74403213Y-44939707D01*
X74403210Y-44939711D01*
X74315609Y-45070814D01*
X74315602Y-45070827D01*
X74255264Y-45216498D01*
X74255261Y-45216510D01*
X74224500Y-45371153D01*
X45403150Y-45371153D01*
X45423043Y-45336697D01*
X45423048Y-45336685D01*
X45430948Y-45317614D01*
X45430948Y-45317613D01*
X45514076Y-45116924D01*
X45523398Y-45094419D01*
X45591270Y-44841116D01*
X45625500Y-44581120D01*
X45625500Y-44318880D01*
X45591270Y-44058884D01*
X45523398Y-43805581D01*
X45494519Y-43735861D01*
X45423046Y-43563309D01*
X45423041Y-43563299D01*
X45291924Y-43336196D01*
X45132281Y-43128148D01*
X45132274Y-43128140D01*
X44946860Y-42942726D01*
X44946851Y-42942718D01*
X44738803Y-42783075D01*
X44511700Y-42651958D01*
X44511690Y-42651953D01*
X44269428Y-42551605D01*
X44269421Y-42551603D01*
X44269422Y-42551603D01*
X44269419Y-42551602D01*
X44193043Y-42531137D01*
X44120304Y-42511647D01*
X44016116Y-42483730D01*
X43958339Y-42476123D01*
X43756127Y-42449500D01*
X43756120Y-42449500D01*
X43493880Y-42449500D01*
X43493872Y-42449500D01*
X43262772Y-42479926D01*
X43233884Y-42483730D01*
X43089707Y-42522362D01*
X42980581Y-42551602D01*
X42980571Y-42551605D01*
X42738309Y-42651953D01*
X42738299Y-42651958D01*
X42511196Y-42783075D01*
X42303148Y-42942718D01*
X42117718Y-43128148D01*
X41958075Y-43336196D01*
X41826958Y-43563299D01*
X41826953Y-43563309D01*
X41726605Y-43805571D01*
X41726602Y-43805581D01*
X41678966Y-43983364D01*
X41658730Y-44058885D01*
X41624500Y-44318872D01*
X20062536Y-44318872D01*
X19754192Y-44225337D01*
X19754181Y-44225334D01*
X19404473Y-44155774D01*
X19137206Y-44129451D01*
X19049611Y-44120824D01*
X19049608Y-44120824D01*
X18873641Y-44120824D01*
X18872685Y-44120820D01*
X3206191Y-44000081D01*
X3206180Y-44000081D01*
X3196457Y-44000005D01*
X3194571Y-43999500D01*
X3131717Y-43999500D01*
X3131204Y-43999496D01*
X3131119Y-43999470D01*
X3125218Y-43999305D01*
X2841368Y-43983364D01*
X2827550Y-43981807D01*
X2550722Y-43934772D01*
X2537165Y-43931678D01*
X2267335Y-43853941D01*
X2254211Y-43849348D01*
X1994791Y-43741894D01*
X1982262Y-43735861D01*
X1736493Y-43600029D01*
X1724728Y-43592636D01*
X1495707Y-43430137D01*
X1484850Y-43421479D01*
X1389419Y-43336197D01*
X1275467Y-43234363D01*
X1265637Y-43224532D01*
X1078522Y-43015151D01*
X1069857Y-43004285D01*
X907364Y-42775273D01*
X899977Y-42763518D01*
X764136Y-42517733D01*
X758107Y-42505211D01*
X721755Y-42417450D01*
X72278203Y-42417450D01*
X72278203Y-42575143D01*
X72308964Y-42729786D01*
X72308967Y-42729798D01*
X72369305Y-42875469D01*
X72369312Y-42875482D01*
X72456913Y-43006585D01*
X72456916Y-43006589D01*
X72568410Y-43118083D01*
X72568414Y-43118086D01*
X72699517Y-43205687D01*
X72699530Y-43205694D01*
X72780770Y-43239344D01*
X72845206Y-43266034D01*
X72999856Y-43296796D01*
X72999859Y-43296797D01*
X72999861Y-43296797D01*
X73157547Y-43296797D01*
X73157548Y-43296796D01*
X73312200Y-43266034D01*
X73457882Y-43205691D01*
X73588992Y-43118086D01*
X73700492Y-43006586D01*
X73788097Y-42875476D01*
X73848440Y-42729794D01*
X73879203Y-42575139D01*
X73879203Y-42575137D01*
X73879340Y-42574449D01*
X73888105Y-42557692D01*
X73892125Y-42539213D01*
X73910865Y-42514178D01*
X73911724Y-42512538D01*
X73913276Y-42510959D01*
X73919024Y-42505211D01*
X73941896Y-42482339D01*
X74003218Y-42448855D01*
X74005385Y-42448404D01*
X74006074Y-42448267D01*
X74006075Y-42448267D01*
X74160730Y-42417504D01*
X74306412Y-42357161D01*
X74437522Y-42269556D01*
X74549022Y-42158056D01*
X74636627Y-42026946D01*
X74696970Y-41881264D01*
X74727733Y-41726609D01*
X74727733Y-41568925D01*
X74727733Y-41568922D01*
X74727732Y-41568920D01*
X74711788Y-41488765D01*
X74696970Y-41414270D01*
X74653005Y-41308128D01*
X74636630Y-41268594D01*
X74636623Y-41268581D01*
X74549022Y-41137478D01*
X74549019Y-41137474D01*
X74437525Y-41025980D01*
X74437521Y-41025977D01*
X74306418Y-40938376D01*
X74306405Y-40938369D01*
X74160734Y-40878031D01*
X74160722Y-40878028D01*
X74006078Y-40847267D01*
X74006075Y-40847267D01*
X73848391Y-40847267D01*
X73848388Y-40847267D01*
X73693743Y-40878028D01*
X73693731Y-40878031D01*
X73548060Y-40938369D01*
X73548047Y-40938376D01*
X73416944Y-41025977D01*
X73416940Y-41025980D01*
X73305446Y-41137474D01*
X73305443Y-41137478D01*
X73217842Y-41268581D01*
X73217835Y-41268594D01*
X73157497Y-41414265D01*
X73157494Y-41414275D01*
X73126595Y-41569615D01*
X73117829Y-41586371D01*
X73113810Y-41604850D01*
X73095067Y-41629886D01*
X73094210Y-41631526D01*
X73092659Y-41633104D01*
X73064040Y-41661723D01*
X73002717Y-41695208D01*
X73000551Y-41695659D01*
X72845211Y-41726558D01*
X72845201Y-41726561D01*
X72699530Y-41786899D01*
X72699517Y-41786906D01*
X72568414Y-41874507D01*
X72568410Y-41874510D01*
X72456916Y-41986004D01*
X72456913Y-41986008D01*
X72369312Y-42117111D01*
X72369305Y-42117124D01*
X72308967Y-42262795D01*
X72308964Y-42262807D01*
X72278203Y-42417450D01*
X721755Y-42417450D01*
X650652Y-42245790D01*
X646059Y-42232666D01*
X568322Y-41962836D01*
X565228Y-41949279D01*
X547530Y-41845120D01*
X518191Y-41672443D01*
X516636Y-41658642D01*
X500695Y-41374795D01*
X500500Y-41367842D01*
X500500Y-40421153D01*
X75199500Y-40421153D01*
X75199500Y-40578846D01*
X75230261Y-40733489D01*
X75230264Y-40733501D01*
X75290602Y-40879172D01*
X75290609Y-40879185D01*
X75378210Y-41010288D01*
X75378213Y-41010292D01*
X75489707Y-41121786D01*
X75489711Y-41121789D01*
X75620814Y-41209390D01*
X75620827Y-41209397D01*
X75766498Y-41269735D01*
X75766503Y-41269737D01*
X75921153Y-41300499D01*
X75921156Y-41300500D01*
X75921158Y-41300500D01*
X76078844Y-41300500D01*
X76078845Y-41300499D01*
X76233497Y-41269737D01*
X76379179Y-41209394D01*
X76510289Y-41121789D01*
X76621789Y-41010289D01*
X76709394Y-40879179D01*
X76769737Y-40733497D01*
X76792151Y-40620814D01*
X76800638Y-40578151D01*
X76833023Y-40516240D01*
X76834510Y-40514724D01*
X76980520Y-40368716D01*
X77059577Y-40231784D01*
X77100501Y-40079057D01*
X77100501Y-39920942D01*
X77100501Y-39913347D01*
X77100500Y-39913329D01*
X77100500Y-38304765D01*
X77120185Y-38237726D01*
X77121398Y-38235874D01*
X77132181Y-38219737D01*
X77209394Y-38104179D01*
X77269737Y-37958497D01*
X77300500Y-37803842D01*
X77300500Y-37646158D01*
X77300500Y-37646155D01*
X77300499Y-37646153D01*
X77283140Y-37558884D01*
X77269737Y-37491503D01*
X77243121Y-37427246D01*
X77209397Y-37345827D01*
X77209390Y-37345814D01*
X77121789Y-37214711D01*
X77121786Y-37214707D01*
X77010292Y-37103213D01*
X77010288Y-37103210D01*
X76883014Y-37018168D01*
X76883013Y-37018167D01*
X76879186Y-37015610D01*
X76879172Y-37015602D01*
X76733501Y-36955264D01*
X76733489Y-36955261D01*
X76578845Y-36924500D01*
X76578842Y-36924500D01*
X76421158Y-36924500D01*
X76421155Y-36924500D01*
X76266510Y-36955261D01*
X76266498Y-36955264D01*
X76120827Y-37015602D01*
X76120814Y-37015609D01*
X75989711Y-37103210D01*
X75989707Y-37103213D01*
X75878213Y-37214707D01*
X75878210Y-37214711D01*
X75790609Y-37345814D01*
X75790602Y-37345827D01*
X75730264Y-37491498D01*
X75730261Y-37491510D01*
X75699500Y-37646153D01*
X75699500Y-37803846D01*
X75730261Y-37958489D01*
X75730264Y-37958501D01*
X75790602Y-38104172D01*
X75790609Y-38104185D01*
X75878602Y-38235874D01*
X75899480Y-38302551D01*
X75899500Y-38304765D01*
X75899500Y-39602044D01*
X75879815Y-39669083D01*
X75827011Y-39714838D01*
X75799691Y-39723661D01*
X75766510Y-39730261D01*
X75766498Y-39730264D01*
X75620827Y-39790602D01*
X75620814Y-39790609D01*
X75489711Y-39878210D01*
X75489707Y-39878213D01*
X75378213Y-39989707D01*
X75378210Y-39989711D01*
X75290609Y-40120814D01*
X75290602Y-40120827D01*
X75230264Y-40266498D01*
X75230261Y-40266510D01*
X75199500Y-40421153D01*
X500500Y-40421153D01*
X500500Y-37818872D01*
X20124500Y-37818872D01*
X20124500Y-38081127D01*
X20142750Y-38219738D01*
X20158730Y-38341116D01*
X20220767Y-38572642D01*
X20226602Y-38594418D01*
X20226605Y-38594428D01*
X20326953Y-38836690D01*
X20326958Y-38836700D01*
X20458075Y-39063803D01*
X20617718Y-39271851D01*
X20617726Y-39271860D01*
X20803140Y-39457274D01*
X20803148Y-39457281D01*
X21011196Y-39616924D01*
X21238299Y-39748041D01*
X21238309Y-39748046D01*
X21480571Y-39848394D01*
X21480581Y-39848398D01*
X21733884Y-39916270D01*
X21993880Y-39950500D01*
X21993887Y-39950500D01*
X22256113Y-39950500D01*
X22256120Y-39950500D01*
X22516116Y-39916270D01*
X22769419Y-39848398D01*
X23011697Y-39748043D01*
X23238803Y-39616924D01*
X23446851Y-39457282D01*
X23446855Y-39457277D01*
X23446860Y-39457274D01*
X23632274Y-39271860D01*
X23632277Y-39271855D01*
X23632282Y-39271851D01*
X23791924Y-39063803D01*
X23923043Y-38836697D01*
X24023398Y-38594419D01*
X24091270Y-38341116D01*
X24125500Y-38081120D01*
X24125500Y-37818880D01*
X24091270Y-37558884D01*
X24023398Y-37305581D01*
X23996486Y-37240609D01*
X23923046Y-37063309D01*
X23923041Y-37063299D01*
X23791924Y-36836196D01*
X23632281Y-36628148D01*
X23632274Y-36628140D01*
X23446860Y-36442726D01*
X23446851Y-36442718D01*
X23238803Y-36283075D01*
X23011700Y-36151958D01*
X23011690Y-36151953D01*
X22769428Y-36051605D01*
X22769421Y-36051603D01*
X22769419Y-36051602D01*
X22516116Y-35983730D01*
X22458339Y-35976123D01*
X22256127Y-35949500D01*
X22256120Y-35949500D01*
X21993880Y-35949500D01*
X21993872Y-35949500D01*
X21762772Y-35979926D01*
X21733884Y-35983730D01*
X21480581Y-36051602D01*
X21480571Y-36051605D01*
X21238309Y-36151953D01*
X21238299Y-36151958D01*
X21011196Y-36283075D01*
X20803148Y-36442718D01*
X20617718Y-36628148D01*
X20458075Y-36836196D01*
X20326958Y-37063299D01*
X20326953Y-37063309D01*
X20226605Y-37305571D01*
X20226602Y-37305581D01*
X20160341Y-37552874D01*
X20158730Y-37558885D01*
X20124500Y-37818872D01*
X500500Y-37818872D01*
X500500Y-23421153D01*
X47699500Y-23421153D01*
X47699500Y-23578846D01*
X47730261Y-23733489D01*
X47730264Y-23733501D01*
X47790600Y-23879167D01*
X47790609Y-23879185D01*
X47878210Y-24010288D01*
X47878213Y-24010292D01*
X47989707Y-24121786D01*
X47989710Y-24121788D01*
X47989711Y-24121789D01*
X48014845Y-24138583D01*
X48027289Y-24146898D01*
X48072093Y-24200511D01*
X48080800Y-24269836D01*
X48050645Y-24332863D01*
X48027289Y-24353102D01*
X47989707Y-24378213D01*
X47878213Y-24489707D01*
X47878210Y-24489711D01*
X47790609Y-24620814D01*
X47790602Y-24620827D01*
X47730264Y-24766498D01*
X47730261Y-24766510D01*
X47699500Y-24921153D01*
X47699500Y-25078846D01*
X47730261Y-25233489D01*
X47730264Y-25233501D01*
X47790602Y-25379172D01*
X47790609Y-25379185D01*
X47878210Y-25510288D01*
X47878213Y-25510292D01*
X47989707Y-25621786D01*
X47989711Y-25621789D01*
X48120814Y-25709390D01*
X48120827Y-25709397D01*
X48220060Y-25750500D01*
X48266503Y-25769737D01*
X48408796Y-25798041D01*
X48421153Y-25800499D01*
X48421156Y-25800500D01*
X48421158Y-25800500D01*
X48578844Y-25800500D01*
X48578845Y-25800499D01*
X48704525Y-25775500D01*
X48733488Y-25769739D01*
X48733489Y-25769738D01*
X48733497Y-25769737D01*
X48757155Y-25759937D01*
X48804604Y-25750500D01*
X54650500Y-25750500D01*
X54717539Y-25770185D01*
X54763294Y-25822989D01*
X54774500Y-25874500D01*
X54774500Y-26847870D01*
X54774501Y-26847876D01*
X54780908Y-26907483D01*
X54831202Y-27042328D01*
X54831206Y-27042335D01*
X54917452Y-27157544D01*
X54917455Y-27157547D01*
X55032664Y-27243793D01*
X55032671Y-27243797D01*
X55164082Y-27292810D01*
X55220016Y-27334681D01*
X55244433Y-27400145D01*
X55229582Y-27468418D01*
X55208431Y-27496673D01*
X55094889Y-27610215D01*
X54969951Y-27782179D01*
X54873444Y-27971585D01*
X54807753Y-28173760D01*
X54800841Y-28217403D01*
X54774500Y-28383713D01*
X54774500Y-28596287D01*
X54807754Y-28806243D01*
X54831454Y-28879185D01*
X54873444Y-29008414D01*
X54969951Y-29197820D01*
X55094890Y-29369786D01*
X55245213Y-29520109D01*
X55417179Y-29645048D01*
X55417181Y-29645049D01*
X55417184Y-29645051D01*
X55426493Y-29649794D01*
X55477290Y-29697766D01*
X55494087Y-29765587D01*
X55471552Y-29831722D01*
X55426505Y-29870760D01*
X55417446Y-29875376D01*
X55417440Y-29875380D01*
X55363282Y-29914727D01*
X55363282Y-29914728D01*
X55995591Y-30547037D01*
X55932007Y-30564075D01*
X55817993Y-30629901D01*
X55724901Y-30722993D01*
X55659075Y-30837007D01*
X55642037Y-30900591D01*
X55009728Y-30268282D01*
X55009727Y-30268282D01*
X54970380Y-30322439D01*
X54873904Y-30511782D01*
X54808242Y-30713869D01*
X54808242Y-30713872D01*
X54775000Y-30923753D01*
X54775000Y-31136246D01*
X54808242Y-31346127D01*
X54808242Y-31346130D01*
X54873904Y-31548217D01*
X54970375Y-31737550D01*
X55009728Y-31791716D01*
X55642037Y-31159408D01*
X55659075Y-31222993D01*
X55724901Y-31337007D01*
X55817993Y-31430099D01*
X55932007Y-31495925D01*
X55995590Y-31512962D01*
X55363282Y-32145269D01*
X55363282Y-32145270D01*
X55417452Y-32184626D01*
X55417451Y-32184626D01*
X55426495Y-32189234D01*
X55477292Y-32237208D01*
X55494087Y-32305029D01*
X55471550Y-32371164D01*
X55426499Y-32410202D01*
X55417182Y-32414949D01*
X55245213Y-32539890D01*
X55094890Y-32690213D01*
X54969951Y-32862179D01*
X54873444Y-33051585D01*
X54807753Y-33253760D01*
X54774500Y-33463713D01*
X54774500Y-33676286D01*
X54806481Y-33878210D01*
X54807754Y-33886243D01*
X54870334Y-34078844D01*
X54873444Y-34088414D01*
X54969951Y-34277820D01*
X55094890Y-34449786D01*
X55245213Y-34600109D01*
X55417182Y-34725050D01*
X55425946Y-34729516D01*
X55476742Y-34777491D01*
X55493536Y-34845312D01*
X55470998Y-34911447D01*
X55425946Y-34950484D01*
X55417182Y-34954949D01*
X55245213Y-35079890D01*
X55094890Y-35230213D01*
X54969951Y-35402179D01*
X54873444Y-35591585D01*
X54807753Y-35793760D01*
X54774500Y-36003713D01*
X54774500Y-36216286D01*
X54800146Y-36378213D01*
X54807754Y-36426243D01*
X54873357Y-36628148D01*
X54873444Y-36628414D01*
X54969951Y-36817820D01*
X55094890Y-36989786D01*
X55245213Y-37140109D01*
X55417179Y-37265048D01*
X55417181Y-37265049D01*
X55417184Y-37265051D01*
X55606588Y-37361557D01*
X55808757Y-37427246D01*
X56018713Y-37460500D01*
X56018714Y-37460500D01*
X56231286Y-37460500D01*
X56231287Y-37460500D01*
X56441243Y-37427246D01*
X56643412Y-37361557D01*
X56832816Y-37265051D01*
X56876258Y-37233489D01*
X57004786Y-37140109D01*
X57004788Y-37140106D01*
X57004792Y-37140104D01*
X57155104Y-36989792D01*
X57155106Y-36989788D01*
X57155109Y-36989786D01*
X57280048Y-36817820D01*
X57280047Y-36817820D01*
X57280051Y-36817816D01*
X57376557Y-36628412D01*
X57442246Y-36426243D01*
X57475500Y-36216287D01*
X57475500Y-36003713D01*
X57459071Y-35899983D01*
X60699500Y-35899983D01*
X60699500Y-37100001D01*
X60699501Y-37100018D01*
X60710000Y-37202796D01*
X60710001Y-37202799D01*
X60765185Y-37369331D01*
X60765187Y-37369336D01*
X60775824Y-37386581D01*
X60857288Y-37518656D01*
X60981344Y-37642712D01*
X61130666Y-37734814D01*
X61192440Y-37755284D01*
X61249884Y-37795055D01*
X61276707Y-37859571D01*
X61277053Y-37882719D01*
X61274077Y-37920524D01*
X61953554Y-38600000D01*
X61947339Y-38600000D01*
X61845606Y-38627259D01*
X61754394Y-38679920D01*
X61679920Y-38754394D01*
X61627259Y-38845606D01*
X61600000Y-38947339D01*
X61600000Y-38953553D01*
X60920524Y-38274077D01*
X60920523Y-38274077D01*
X60888143Y-38318644D01*
X60795244Y-38500968D01*
X60732009Y-38695582D01*
X60700000Y-38897682D01*
X60700000Y-39102317D01*
X60732009Y-39304417D01*
X60795244Y-39499031D01*
X60888141Y-39681350D01*
X60888147Y-39681359D01*
X60920523Y-39725921D01*
X60920524Y-39725922D01*
X61600000Y-39046446D01*
X61600000Y-39052661D01*
X61627259Y-39154394D01*
X61679920Y-39245606D01*
X61754394Y-39320080D01*
X61845606Y-39372741D01*
X61947339Y-39400000D01*
X61953553Y-39400000D01*
X61274076Y-40079474D01*
X61318650Y-40111859D01*
X61500968Y-40204755D01*
X61695582Y-40267990D01*
X61897683Y-40300000D01*
X62102317Y-40300000D01*
X62149083Y-40292593D01*
X62304417Y-40267990D01*
X62499031Y-40204755D01*
X62681349Y-40111859D01*
X62725921Y-40079474D01*
X62046447Y-39400000D01*
X62052661Y-39400000D01*
X62154394Y-39372741D01*
X62245606Y-39320080D01*
X62320080Y-39245606D01*
X62372741Y-39154394D01*
X62400000Y-39052661D01*
X62400000Y-39046447D01*
X63079474Y-39725921D01*
X63111859Y-39681349D01*
X63204755Y-39499031D01*
X63267990Y-39304417D01*
X63300000Y-39102317D01*
X63300000Y-38897682D01*
X63267990Y-38695582D01*
X63204755Y-38500968D01*
X63111859Y-38318650D01*
X63079474Y-38274077D01*
X63079474Y-38274076D01*
X62400000Y-38953551D01*
X62400000Y-38947339D01*
X62372741Y-38845606D01*
X62320080Y-38754394D01*
X62245606Y-38679920D01*
X62154394Y-38627259D01*
X62052661Y-38600000D01*
X62046446Y-38600000D01*
X62725921Y-37920525D01*
X62722946Y-37882719D01*
X62737310Y-37814341D01*
X62786361Y-37764584D01*
X62807555Y-37755285D01*
X62869334Y-37734814D01*
X63018656Y-37642712D01*
X63142712Y-37518656D01*
X63234814Y-37369334D01*
X63289999Y-37202797D01*
X63300500Y-37100009D01*
X63300500Y-36921153D01*
X79199500Y-36921153D01*
X79199500Y-37078846D01*
X79230261Y-37233489D01*
X79230264Y-37233501D01*
X79290602Y-37379172D01*
X79290609Y-37379185D01*
X79378210Y-37510288D01*
X79378213Y-37510292D01*
X79489710Y-37621789D01*
X79582051Y-37683489D01*
X79620821Y-37709394D01*
X79644475Y-37719191D01*
X79684703Y-37746071D01*
X81713181Y-39774549D01*
X81727884Y-39801476D01*
X81744477Y-39827295D01*
X81745368Y-39833495D01*
X81746666Y-39835872D01*
X81749500Y-39862230D01*
X81749500Y-40082351D01*
X81729815Y-40149390D01*
X81677011Y-40195145D01*
X81607853Y-40205089D01*
X81601310Y-40203969D01*
X81578842Y-40199500D01*
X81421158Y-40199500D01*
X81421155Y-40199500D01*
X81266510Y-40230261D01*
X81266498Y-40230264D01*
X81120827Y-40290602D01*
X81120814Y-40290609D01*
X80989711Y-40378210D01*
X80989707Y-40378213D01*
X80878213Y-40489707D01*
X80878210Y-40489711D01*
X80790609Y-40620814D01*
X80790602Y-40620827D01*
X80730264Y-40766498D01*
X80730261Y-40766508D01*
X80699361Y-40921849D01*
X80690595Y-40938605D01*
X80686576Y-40957084D01*
X80667831Y-40982124D01*
X80666976Y-40983760D01*
X80665426Y-40985338D01*
X80593550Y-41057213D01*
X80506286Y-41144478D01*
X80506285Y-41144478D01*
X80506284Y-41144479D01*
X80394479Y-41256284D01*
X80386712Y-41269738D01*
X80364549Y-41308127D01*
X80315423Y-41393215D01*
X80274499Y-41545943D01*
X80274499Y-41545945D01*
X80274499Y-41714046D01*
X80274500Y-41714059D01*
X80274500Y-46920234D01*
X80254815Y-46987273D01*
X80253602Y-46989125D01*
X80165609Y-47120814D01*
X80165602Y-47120827D01*
X80105264Y-47266498D01*
X80105261Y-47266510D01*
X80074500Y-47421153D01*
X80074500Y-47578846D01*
X80105261Y-47733489D01*
X80105264Y-47733501D01*
X80165602Y-47879172D01*
X80165609Y-47879185D01*
X80253210Y-48010288D01*
X80253213Y-48010292D01*
X80364707Y-48121786D01*
X80364711Y-48121789D01*
X80495814Y-48209390D01*
X80495827Y-48209397D01*
X80595060Y-48250500D01*
X80641503Y-48269737D01*
X80796153Y-48300499D01*
X80796156Y-48300500D01*
X80796158Y-48300500D01*
X80953844Y-48300500D01*
X80953845Y-48300499D01*
X81108497Y-48269737D01*
X81254179Y-48209394D01*
X81385289Y-48121789D01*
X81496789Y-48010289D01*
X81584394Y-47879179D01*
X81644737Y-47733497D01*
X81675500Y-47578842D01*
X81675500Y-47421158D01*
X81675500Y-47421155D01*
X81669155Y-47389258D01*
X81669155Y-47389257D01*
X81665554Y-47371153D01*
X99324500Y-47371153D01*
X99324500Y-47528846D01*
X99355261Y-47683489D01*
X99355264Y-47683501D01*
X99415602Y-47829172D01*
X99415609Y-47829185D01*
X99503210Y-47960288D01*
X99503213Y-47960292D01*
X99614707Y-48071786D01*
X99614711Y-48071789D01*
X99745814Y-48159390D01*
X99745827Y-48159397D01*
X99891498Y-48219735D01*
X99891503Y-48219737D01*
X100046153Y-48250499D01*
X100046156Y-48250500D01*
X100046158Y-48250500D01*
X100203844Y-48250500D01*
X100203845Y-48250499D01*
X100358497Y-48219737D01*
X100504179Y-48159394D01*
X100560459Y-48121789D01*
X100635875Y-48071398D01*
X100702553Y-48050520D01*
X100704766Y-48050500D01*
X101545234Y-48050500D01*
X101612273Y-48070185D01*
X101614125Y-48071398D01*
X101745814Y-48159390D01*
X101745827Y-48159397D01*
X101891498Y-48219735D01*
X101891503Y-48219737D01*
X102046153Y-48250499D01*
X102046156Y-48250500D01*
X102046158Y-48250500D01*
X102203844Y-48250500D01*
X102203845Y-48250499D01*
X102358497Y-48219737D01*
X102504179Y-48159394D01*
X102635289Y-48071789D01*
X102746789Y-47960289D01*
X102834394Y-47829179D01*
X102894737Y-47683497D01*
X102925500Y-47528842D01*
X102925500Y-47371158D01*
X102925500Y-47371155D01*
X102925499Y-47371153D01*
X102918786Y-47337406D01*
X102894737Y-47216503D01*
X102855102Y-47120814D01*
X102834397Y-47070827D01*
X102834390Y-47070814D01*
X102746789Y-46939711D01*
X102746786Y-46939707D01*
X102635292Y-46828213D01*
X102635288Y-46828210D01*
X102504185Y-46740609D01*
X102504172Y-46740602D01*
X102358501Y-46680264D01*
X102358489Y-46680261D01*
X102203845Y-46649500D01*
X102203842Y-46649500D01*
X102046158Y-46649500D01*
X102046155Y-46649500D01*
X101891510Y-46680261D01*
X101891498Y-46680264D01*
X101745827Y-46740602D01*
X101745814Y-46740609D01*
X101614125Y-46828602D01*
X101547447Y-46849480D01*
X101545234Y-46849500D01*
X100704766Y-46849500D01*
X100637727Y-46829815D01*
X100635875Y-46828602D01*
X100504185Y-46740609D01*
X100504172Y-46740602D01*
X100358501Y-46680264D01*
X100358489Y-46680261D01*
X100203845Y-46649500D01*
X100203842Y-46649500D01*
X100046158Y-46649500D01*
X100046155Y-46649500D01*
X99891510Y-46680261D01*
X99891498Y-46680264D01*
X99745827Y-46740602D01*
X99745814Y-46740609D01*
X99614711Y-46828210D01*
X99614707Y-46828213D01*
X99503213Y-46939707D01*
X99503210Y-46939711D01*
X99415609Y-47070814D01*
X99415602Y-47070827D01*
X99355264Y-47216498D01*
X99355261Y-47216510D01*
X99324500Y-47371153D01*
X81665554Y-47371153D01*
X81654421Y-47315186D01*
X81644737Y-47266503D01*
X81624169Y-47216847D01*
X81584397Y-47120827D01*
X81584390Y-47120814D01*
X81496398Y-46989125D01*
X81475520Y-46922447D01*
X81475500Y-46920234D01*
X81475500Y-45711711D01*
X81495185Y-45644672D01*
X81547989Y-45598917D01*
X81617147Y-45588973D01*
X81680703Y-45617998D01*
X81718477Y-45676776D01*
X81721117Y-45687520D01*
X81730261Y-45733489D01*
X81730264Y-45733501D01*
X81790602Y-45879172D01*
X81790609Y-45879185D01*
X81878210Y-46010288D01*
X81878213Y-46010292D01*
X81989707Y-46121786D01*
X81989711Y-46121789D01*
X82120814Y-46209390D01*
X82120827Y-46209397D01*
X82220060Y-46250500D01*
X82266503Y-46269737D01*
X82421153Y-46300499D01*
X82421156Y-46300500D01*
X82421158Y-46300500D01*
X82578844Y-46300500D01*
X82578845Y-46300499D01*
X82733497Y-46269737D01*
X82879179Y-46209394D01*
X83010289Y-46121789D01*
X83121789Y-46010289D01*
X83209394Y-45879179D01*
X83269737Y-45733497D01*
X83300500Y-45578842D01*
X83300500Y-45421158D01*
X83300500Y-45421155D01*
X83300499Y-45421153D01*
X83269739Y-45266511D01*
X83269738Y-45266508D01*
X83269737Y-45266503D01*
X83259937Y-45242844D01*
X83258311Y-45234670D01*
X83255523Y-45230331D01*
X83250500Y-45195396D01*
X83250500Y-45168330D01*
X83270185Y-45101291D01*
X83322989Y-45055536D01*
X83392147Y-45045592D01*
X83449984Y-45069953D01*
X83511197Y-45116924D01*
X83548308Y-45138350D01*
X83738299Y-45248041D01*
X83738309Y-45248046D01*
X83980571Y-45348394D01*
X83980581Y-45348398D01*
X84233884Y-45416270D01*
X84493880Y-45450500D01*
X84493887Y-45450500D01*
X84756113Y-45450500D01*
X84756120Y-45450500D01*
X85016116Y-45416270D01*
X85269419Y-45348398D01*
X85467111Y-45266511D01*
X85511690Y-45248046D01*
X85511691Y-45248045D01*
X85511697Y-45248043D01*
X85738803Y-45116924D01*
X85946851Y-44957282D01*
X85946855Y-44957277D01*
X85946860Y-44957274D01*
X86132274Y-44771860D01*
X86132277Y-44771855D01*
X86132282Y-44771851D01*
X86291924Y-44563803D01*
X86423043Y-44336697D01*
X86523398Y-44094419D01*
X86591270Y-43841116D01*
X86592898Y-43828754D01*
X118699500Y-43828754D01*
X118699500Y-44071245D01*
X118737432Y-44310736D01*
X118812360Y-44541344D01*
X118922448Y-44757401D01*
X119064966Y-44953562D01*
X119064970Y-44953567D01*
X119236432Y-45125029D01*
X119236437Y-45125033D01*
X119367232Y-45220060D01*
X119432602Y-45267554D01*
X119647034Y-45376813D01*
X119648655Y-45377639D01*
X119745068Y-45408965D01*
X119879265Y-45452568D01*
X119990186Y-45470136D01*
X120118755Y-45490500D01*
X120118760Y-45490500D01*
X121881245Y-45490500D01*
X121997347Y-45472110D01*
X122120735Y-45452568D01*
X122351347Y-45377638D01*
X122567398Y-45267554D01*
X122763569Y-45125028D01*
X122935028Y-44953569D01*
X123077554Y-44757398D01*
X123187638Y-44541347D01*
X123262568Y-44310735D01*
X123292647Y-44120824D01*
X123300500Y-44071245D01*
X123300500Y-43828754D01*
X123278432Y-43689431D01*
X123262568Y-43589265D01*
X123191745Y-43371292D01*
X123187639Y-43358655D01*
X123176196Y-43336197D01*
X123077554Y-43142602D01*
X123059345Y-43117539D01*
X122935033Y-42946437D01*
X122935029Y-42946432D01*
X122763567Y-42774970D01*
X122763562Y-42774966D01*
X122567401Y-42632448D01*
X122567400Y-42632447D01*
X122567398Y-42632446D01*
X122420686Y-42557692D01*
X122351344Y-42522360D01*
X122120736Y-42447432D01*
X121881245Y-42409500D01*
X121881240Y-42409500D01*
X120118760Y-42409500D01*
X120118755Y-42409500D01*
X119879263Y-42447432D01*
X119648655Y-42522360D01*
X119432598Y-42632448D01*
X119236437Y-42774966D01*
X119236432Y-42774970D01*
X119064970Y-42946432D01*
X119064966Y-42946437D01*
X118922448Y-43142598D01*
X118812360Y-43358655D01*
X118737432Y-43589263D01*
X118699500Y-43828754D01*
X86592898Y-43828754D01*
X86625500Y-43581120D01*
X86625500Y-43318880D01*
X86591270Y-43058884D01*
X86523398Y-42805581D01*
X86510848Y-42775283D01*
X86436558Y-42595930D01*
X86429089Y-42526460D01*
X86460364Y-42463981D01*
X86463377Y-42460857D01*
X86705520Y-42218716D01*
X86784577Y-42081784D01*
X86825501Y-41929057D01*
X86825501Y-41770942D01*
X86825501Y-41763347D01*
X86825500Y-41763329D01*
X86825500Y-41029765D01*
X86845185Y-40962726D01*
X86846398Y-40960874D01*
X86848931Y-40957084D01*
X86934394Y-40829179D01*
X86934839Y-40828106D01*
X86960357Y-40766498D01*
X86994737Y-40683497D01*
X87025500Y-40528842D01*
X87025500Y-40371158D01*
X87025500Y-40371155D01*
X87025499Y-40371153D01*
X87009872Y-40292593D01*
X86994737Y-40216503D01*
X86955102Y-40120814D01*
X86934397Y-40070827D01*
X86934390Y-40070814D01*
X86846789Y-39939711D01*
X86846786Y-39939707D01*
X86735292Y-39828213D01*
X86735288Y-39828210D01*
X86604185Y-39740609D01*
X86604172Y-39740602D01*
X86458501Y-39680264D01*
X86458489Y-39680261D01*
X86303845Y-39649500D01*
X86303842Y-39649500D01*
X86146158Y-39649500D01*
X86146155Y-39649500D01*
X85991510Y-39680261D01*
X85991498Y-39680264D01*
X85845827Y-39740602D01*
X85845814Y-39740609D01*
X85714711Y-39828210D01*
X85714707Y-39828213D01*
X85603213Y-39939707D01*
X85603210Y-39939711D01*
X85515609Y-40070814D01*
X85515602Y-40070827D01*
X85455264Y-40216498D01*
X85455261Y-40216510D01*
X85424500Y-40371153D01*
X85424500Y-40528846D01*
X85455261Y-40683489D01*
X85455264Y-40683501D01*
X85515602Y-40829172D01*
X85515609Y-40829185D01*
X85588567Y-40938373D01*
X85601069Y-40957084D01*
X85603602Y-40960874D01*
X85624480Y-41027551D01*
X85624500Y-41029765D01*
X85624500Y-41513102D01*
X85604815Y-41580141D01*
X85552011Y-41625896D01*
X85482853Y-41635840D01*
X85453047Y-41627663D01*
X85269428Y-41551605D01*
X85269421Y-41551603D01*
X85269419Y-41551602D01*
X85016116Y-41483730D01*
X84958339Y-41476123D01*
X84756127Y-41449500D01*
X84756120Y-41449500D01*
X84493880Y-41449500D01*
X84493872Y-41449500D01*
X84262772Y-41479926D01*
X84233884Y-41483730D01*
X84124266Y-41513102D01*
X83980581Y-41551602D01*
X83980571Y-41551605D01*
X83738309Y-41651953D01*
X83738299Y-41651958D01*
X83511201Y-41783072D01*
X83486200Y-41802257D01*
X83449985Y-41830045D01*
X83384818Y-41855239D01*
X83316373Y-41841201D01*
X83266383Y-41792387D01*
X83250500Y-41731669D01*
X83250500Y-39426079D01*
X83221659Y-39281092D01*
X83221658Y-39281091D01*
X83221658Y-39281087D01*
X83165084Y-39144505D01*
X83111161Y-39063803D01*
X83110998Y-39063559D01*
X83082957Y-39021590D01*
X83082952Y-39021584D01*
X82823549Y-38762181D01*
X82790064Y-38700858D01*
X82795048Y-38631166D01*
X82803407Y-38620000D01*
X118720400Y-38620000D01*
X120345879Y-38620000D01*
X120326901Y-38665818D01*
X120300000Y-38801056D01*
X120300000Y-38938944D01*
X120326901Y-39074182D01*
X120345879Y-39120000D01*
X118720400Y-39120000D01*
X118737919Y-39230618D01*
X118812827Y-39461159D01*
X118922874Y-39677136D01*
X119065356Y-39873245D01*
X119236754Y-40044643D01*
X119432863Y-40187125D01*
X119648840Y-40297172D01*
X119879381Y-40372079D01*
X120118800Y-40410000D01*
X120750000Y-40410000D01*
X120750000Y-39524120D01*
X120795818Y-39543099D01*
X120931056Y-39570000D01*
X121068944Y-39570000D01*
X121204182Y-39543099D01*
X121250000Y-39524120D01*
X121250000Y-40410000D01*
X121881200Y-40410000D01*
X122120618Y-40372079D01*
X122351159Y-40297172D01*
X122567136Y-40187125D01*
X122763245Y-40044643D01*
X122934643Y-39873245D01*
X123077125Y-39677136D01*
X123187172Y-39461159D01*
X123262080Y-39230618D01*
X123279600Y-39120000D01*
X121654121Y-39120000D01*
X121673099Y-39074182D01*
X121700000Y-38938944D01*
X121700000Y-38801056D01*
X121673099Y-38665818D01*
X121654121Y-38620000D01*
X123279600Y-38620000D01*
X123262080Y-38509381D01*
X123187172Y-38278840D01*
X123077125Y-38062863D01*
X122934643Y-37866754D01*
X122763245Y-37695356D01*
X122567136Y-37552874D01*
X122351159Y-37442827D01*
X122120618Y-37367920D01*
X121881200Y-37330000D01*
X121250000Y-37330000D01*
X121250000Y-38215879D01*
X121204182Y-38196901D01*
X121068944Y-38170000D01*
X120931056Y-38170000D01*
X120795818Y-38196901D01*
X120750000Y-38215879D01*
X120750000Y-37330000D01*
X120118800Y-37330000D01*
X119879381Y-37367920D01*
X119648840Y-37442827D01*
X119432863Y-37552874D01*
X119236754Y-37695356D01*
X119065356Y-37866754D01*
X118922874Y-38062863D01*
X118812827Y-38278840D01*
X118737919Y-38509381D01*
X118720400Y-38620000D01*
X82803407Y-38620000D01*
X82836920Y-38575233D01*
X82902384Y-38550816D01*
X82911230Y-38550500D01*
X84526204Y-38550500D01*
X84526208Y-38550501D01*
X84684322Y-38550501D01*
X84837050Y-38509577D01*
X84887169Y-38480639D01*
X84973981Y-38430520D01*
X85085785Y-38318716D01*
X85085786Y-38318714D01*
X85317683Y-38086816D01*
X85379005Y-38053334D01*
X85405363Y-38050500D01*
X89545234Y-38050500D01*
X89612273Y-38070185D01*
X89614125Y-38071398D01*
X89745814Y-38159390D01*
X89745827Y-38159397D01*
X89891498Y-38219735D01*
X89891503Y-38219737D01*
X90041975Y-38249668D01*
X90046153Y-38250499D01*
X90046156Y-38250500D01*
X90046158Y-38250500D01*
X90203844Y-38250500D01*
X90203845Y-38250499D01*
X90358497Y-38219737D01*
X90504179Y-38159394D01*
X90635289Y-38071789D01*
X90746789Y-37960289D01*
X90834394Y-37829179D01*
X90838658Y-37818886D01*
X90868818Y-37746071D01*
X90894737Y-37683497D01*
X90925500Y-37528842D01*
X90925500Y-37371158D01*
X90925500Y-37371155D01*
X90925499Y-37371153D01*
X90916957Y-37328210D01*
X90894737Y-37216503D01*
X90889060Y-37202797D01*
X90834397Y-37070827D01*
X90834390Y-37070814D01*
X90746789Y-36939711D01*
X90746786Y-36939707D01*
X90635292Y-36828213D01*
X90635288Y-36828210D01*
X90504185Y-36740609D01*
X90504172Y-36740602D01*
X90358501Y-36680264D01*
X90358489Y-36680261D01*
X90203845Y-36649500D01*
X90203842Y-36649500D01*
X90046158Y-36649500D01*
X90046155Y-36649500D01*
X89891510Y-36680261D01*
X89891498Y-36680264D01*
X89745827Y-36740602D01*
X89745814Y-36740609D01*
X89614125Y-36828602D01*
X89547447Y-36849480D01*
X89545234Y-36849500D01*
X85191935Y-36849500D01*
X85191919Y-36849499D01*
X85184323Y-36849499D01*
X85026208Y-36849499D01*
X84949844Y-36869961D01*
X84873479Y-36890423D01*
X84873474Y-36890426D01*
X84736555Y-36969475D01*
X84736547Y-36969481D01*
X84392849Y-37313181D01*
X84331526Y-37346666D01*
X84305168Y-37349500D01*
X82704766Y-37349500D01*
X82637727Y-37329815D01*
X82635875Y-37328602D01*
X82504185Y-37240609D01*
X82504172Y-37240602D01*
X82358501Y-37180264D01*
X82358489Y-37180261D01*
X82203845Y-37149500D01*
X82203842Y-37149500D01*
X82046158Y-37149500D01*
X82046155Y-37149500D01*
X81891510Y-37180261D01*
X81891498Y-37180264D01*
X81745827Y-37240602D01*
X81745814Y-37240609D01*
X81614711Y-37328210D01*
X81589824Y-37353097D01*
X81528500Y-37386581D01*
X81458808Y-37381595D01*
X81414463Y-37353095D01*
X80746071Y-36684703D01*
X80719191Y-36644475D01*
X80709394Y-36620821D01*
X80709389Y-36620814D01*
X80621789Y-36489710D01*
X80510292Y-36378213D01*
X80510288Y-36378210D01*
X80379185Y-36290609D01*
X80379172Y-36290602D01*
X80233501Y-36230264D01*
X80233489Y-36230261D01*
X80078845Y-36199500D01*
X80078842Y-36199500D01*
X79921158Y-36199500D01*
X79921155Y-36199500D01*
X79766510Y-36230261D01*
X79766498Y-36230264D01*
X79620827Y-36290602D01*
X79620814Y-36290609D01*
X79489711Y-36378210D01*
X79489707Y-36378213D01*
X79378213Y-36489707D01*
X79378210Y-36489711D01*
X79290609Y-36620814D01*
X79290602Y-36620827D01*
X79230264Y-36766498D01*
X79230261Y-36766510D01*
X79199500Y-36921153D01*
X63300500Y-36921153D01*
X63300499Y-35899992D01*
X63289999Y-35797203D01*
X63234814Y-35630666D01*
X63142712Y-35481344D01*
X63018656Y-35357288D01*
X62876714Y-35269738D01*
X62869336Y-35265187D01*
X62869331Y-35265185D01*
X62867862Y-35264698D01*
X62702797Y-35210001D01*
X62702795Y-35210000D01*
X62600010Y-35199500D01*
X61399998Y-35199500D01*
X61399981Y-35199501D01*
X61297203Y-35210000D01*
X61297200Y-35210001D01*
X61130668Y-35265185D01*
X61130663Y-35265187D01*
X60981342Y-35357289D01*
X60857289Y-35481342D01*
X60765187Y-35630663D01*
X60765186Y-35630666D01*
X60710001Y-35797203D01*
X60710001Y-35797204D01*
X60710000Y-35797204D01*
X60699500Y-35899983D01*
X57459071Y-35899983D01*
X57442246Y-35793757D01*
X57376557Y-35591588D01*
X57280051Y-35402184D01*
X57280049Y-35402181D01*
X57280048Y-35402179D01*
X57155109Y-35230213D01*
X57004786Y-35079890D01*
X56832820Y-34954951D01*
X56832115Y-34954591D01*
X56824054Y-34950485D01*
X56773259Y-34902512D01*
X56756463Y-34834692D01*
X56778999Y-34768556D01*
X56824054Y-34729515D01*
X56832816Y-34725051D01*
X56854789Y-34709086D01*
X57004786Y-34600109D01*
X57004788Y-34600106D01*
X57004792Y-34600104D01*
X57155104Y-34449792D01*
X57175911Y-34421153D01*
X68199500Y-34421153D01*
X68199500Y-34578846D01*
X68230261Y-34733489D01*
X68230264Y-34733501D01*
X68290602Y-34879172D01*
X68290609Y-34879185D01*
X68378210Y-35010288D01*
X68378213Y-35010292D01*
X68489707Y-35121786D01*
X68489711Y-35121789D01*
X68620814Y-35209390D01*
X68620827Y-35209397D01*
X68755513Y-35265185D01*
X68766503Y-35269737D01*
X68921153Y-35300499D01*
X68921156Y-35300500D01*
X68921158Y-35300500D01*
X69078844Y-35300500D01*
X69078845Y-35300499D01*
X69233497Y-35269737D01*
X69379179Y-35209394D01*
X69510289Y-35121789D01*
X69621789Y-35010289D01*
X69709394Y-34879179D01*
X69769737Y-34733497D01*
X69796271Y-34600104D01*
X69800638Y-34578150D01*
X69833023Y-34516239D01*
X69834514Y-34514720D01*
X70212417Y-34136819D01*
X70273740Y-34103334D01*
X70300098Y-34100500D01*
X71528126Y-34100500D01*
X71528142Y-34100501D01*
X71535738Y-34100501D01*
X71693849Y-34100501D01*
X71693852Y-34100501D01*
X71846580Y-34059577D01*
X71899814Y-34028842D01*
X71983511Y-33980520D01*
X72095315Y-33868716D01*
X72095315Y-33868715D01*
X72105524Y-33858507D01*
X72105528Y-33858500D01*
X72114141Y-33849887D01*
X72175466Y-33816406D01*
X72177626Y-33815957D01*
X72235561Y-33804432D01*
X72332973Y-33785056D01*
X72478655Y-33724713D01*
X72609765Y-33637108D01*
X72721265Y-33525608D01*
X72808870Y-33394498D01*
X72809076Y-33394002D01*
X72835822Y-33329429D01*
X72869213Y-33248816D01*
X72899976Y-33094161D01*
X72899976Y-32936477D01*
X72899976Y-32936474D01*
X72899975Y-32936472D01*
X72892621Y-32899500D01*
X72869213Y-32781822D01*
X72864207Y-32769737D01*
X72808873Y-32636146D01*
X72808866Y-32636133D01*
X72721265Y-32505030D01*
X72721262Y-32505026D01*
X72609768Y-32393532D01*
X72609764Y-32393529D01*
X72478661Y-32305928D01*
X72478648Y-32305921D01*
X72332977Y-32245583D01*
X72332965Y-32245580D01*
X72178321Y-32214819D01*
X72178318Y-32214819D01*
X72020634Y-32214819D01*
X72020631Y-32214819D01*
X71865986Y-32245580D01*
X71865974Y-32245583D01*
X71720303Y-32305921D01*
X71720290Y-32305928D01*
X71589187Y-32393529D01*
X71589183Y-32393532D01*
X71477689Y-32505026D01*
X71477686Y-32505030D01*
X71390085Y-32636133D01*
X71390078Y-32636146D01*
X71329740Y-32781817D01*
X71329737Y-32781827D01*
X71326184Y-32799692D01*
X71293799Y-32861603D01*
X71233083Y-32896177D01*
X71204567Y-32899500D01*
X70086670Y-32899500D01*
X70086654Y-32899499D01*
X70079058Y-32899499D01*
X69920943Y-32899499D01*
X69844579Y-32919961D01*
X69768214Y-32940423D01*
X69768209Y-32940426D01*
X69631290Y-33019475D01*
X69631282Y-33019481D01*
X68985339Y-33665425D01*
X68924016Y-33698910D01*
X68921850Y-33699361D01*
X68766508Y-33730261D01*
X68766498Y-33730264D01*
X68620827Y-33790602D01*
X68620814Y-33790609D01*
X68489711Y-33878210D01*
X68489707Y-33878213D01*
X68378213Y-33989707D01*
X68378210Y-33989711D01*
X68290609Y-34120814D01*
X68290602Y-34120827D01*
X68230264Y-34266498D01*
X68230261Y-34266510D01*
X68199500Y-34421153D01*
X57175911Y-34421153D01*
X57280051Y-34277816D01*
X57376557Y-34088412D01*
X57442246Y-33886243D01*
X57475500Y-33676287D01*
X57475500Y-33463713D01*
X57442246Y-33253757D01*
X57376557Y-33051588D01*
X57280051Y-32862184D01*
X57280049Y-32862181D01*
X57280048Y-32862179D01*
X57155109Y-32690213D01*
X57004786Y-32539890D01*
X56832817Y-32414949D01*
X56823504Y-32410204D01*
X56772707Y-32362230D01*
X56755912Y-32294409D01*
X56778449Y-32228274D01*
X56823507Y-32189232D01*
X56832555Y-32184622D01*
X56886716Y-32145270D01*
X56886717Y-32145270D01*
X56254408Y-31512962D01*
X56317993Y-31495925D01*
X56432007Y-31430099D01*
X56525099Y-31337007D01*
X56590925Y-31222993D01*
X56607962Y-31159408D01*
X57240270Y-31791717D01*
X57240270Y-31791716D01*
X57279622Y-31737554D01*
X57376095Y-31548217D01*
X57441757Y-31346130D01*
X57441757Y-31346127D01*
X57464719Y-31201153D01*
X77699500Y-31201153D01*
X77699500Y-31358846D01*
X77730261Y-31513489D01*
X77730264Y-31513501D01*
X77790602Y-31659172D01*
X77790609Y-31659185D01*
X77878210Y-31790288D01*
X77878213Y-31790292D01*
X77989707Y-31901786D01*
X77989711Y-31901789D01*
X78120814Y-31989390D01*
X78120827Y-31989397D01*
X78266498Y-32049735D01*
X78266503Y-32049737D01*
X78412823Y-32078842D01*
X78421153Y-32080499D01*
X78421156Y-32080500D01*
X78421158Y-32080500D01*
X78578844Y-32080500D01*
X78584907Y-32079903D01*
X78585173Y-32082605D01*
X78643048Y-32087709D01*
X78698281Y-32130500D01*
X78719415Y-32178965D01*
X78730261Y-32233492D01*
X78730264Y-32233501D01*
X78790602Y-32379172D01*
X78790609Y-32379185D01*
X78878210Y-32510288D01*
X78878213Y-32510292D01*
X78989707Y-32621786D01*
X78989711Y-32621789D01*
X79120814Y-32709390D01*
X79120827Y-32709397D01*
X79266498Y-32769735D01*
X79266503Y-32769737D01*
X79315997Y-32779582D01*
X79421849Y-32800638D01*
X79483760Y-32833023D01*
X79485338Y-32834573D01*
X81682284Y-35031520D01*
X81819215Y-35110577D01*
X81971943Y-35151501D01*
X81971946Y-35151501D01*
X82137654Y-35151501D01*
X82137670Y-35151500D01*
X93362331Y-35151500D01*
X93362347Y-35151501D01*
X93369943Y-35151501D01*
X93528054Y-35151501D01*
X93528057Y-35151501D01*
X93680785Y-35110577D01*
X93730904Y-35081639D01*
X93817716Y-35031520D01*
X93929520Y-34919716D01*
X93929520Y-34919714D01*
X93939728Y-34909507D01*
X93939729Y-34909504D01*
X94928080Y-33921153D01*
X111199500Y-33921153D01*
X111199500Y-34078846D01*
X111230261Y-34233489D01*
X111230264Y-34233501D01*
X111290602Y-34379172D01*
X111290609Y-34379185D01*
X111378210Y-34510288D01*
X111378213Y-34510292D01*
X111489707Y-34621786D01*
X111489711Y-34621789D01*
X111620814Y-34709390D01*
X111620827Y-34709397D01*
X111763652Y-34768556D01*
X111766503Y-34769737D01*
X111921153Y-34800499D01*
X111921156Y-34800500D01*
X111921158Y-34800500D01*
X112078844Y-34800500D01*
X112078845Y-34800499D01*
X112233497Y-34769737D01*
X112379179Y-34709394D01*
X112379185Y-34709390D01*
X112510875Y-34621398D01*
X112577553Y-34600520D01*
X112579766Y-34600500D01*
X113920234Y-34600500D01*
X113987273Y-34620185D01*
X113989125Y-34621398D01*
X114120814Y-34709390D01*
X114120827Y-34709397D01*
X114263652Y-34768556D01*
X114266503Y-34769737D01*
X114421153Y-34800499D01*
X114421156Y-34800500D01*
X114421158Y-34800500D01*
X114578844Y-34800500D01*
X114578845Y-34800499D01*
X114733497Y-34769737D01*
X114879179Y-34709394D01*
X115010289Y-34621789D01*
X115121789Y-34510289D01*
X115209394Y-34379179D01*
X115269737Y-34233497D01*
X115300500Y-34078842D01*
X115300500Y-33921158D01*
X115300500Y-33921155D01*
X115300499Y-33921153D01*
X115290554Y-33871158D01*
X115269737Y-33766503D01*
X115268598Y-33763754D01*
X115209397Y-33620827D01*
X115209390Y-33620814D01*
X115121789Y-33489711D01*
X115121786Y-33489707D01*
X115010292Y-33378213D01*
X115010288Y-33378210D01*
X114879185Y-33290609D01*
X114879172Y-33290602D01*
X114733501Y-33230264D01*
X114733489Y-33230261D01*
X114578845Y-33199500D01*
X114578842Y-33199500D01*
X114421158Y-33199500D01*
X114421155Y-33199500D01*
X114266510Y-33230261D01*
X114266498Y-33230264D01*
X114120827Y-33290602D01*
X114120814Y-33290609D01*
X113989125Y-33378602D01*
X113922447Y-33399480D01*
X113920234Y-33399500D01*
X112579766Y-33399500D01*
X112512727Y-33379815D01*
X112510875Y-33378602D01*
X112379185Y-33290609D01*
X112379172Y-33290602D01*
X112233501Y-33230264D01*
X112233489Y-33230261D01*
X112078845Y-33199500D01*
X112078842Y-33199500D01*
X111921158Y-33199500D01*
X111921155Y-33199500D01*
X111766510Y-33230261D01*
X111766498Y-33230264D01*
X111620827Y-33290602D01*
X111620814Y-33290609D01*
X111489711Y-33378210D01*
X111489707Y-33378213D01*
X111378213Y-33489707D01*
X111378210Y-33489711D01*
X111290609Y-33620814D01*
X111290602Y-33620827D01*
X111230264Y-33766498D01*
X111230261Y-33766510D01*
X111199500Y-33921153D01*
X94928080Y-33921153D01*
X95899251Y-32949982D01*
X118699500Y-32949982D01*
X118699500Y-34630017D01*
X118710000Y-34732796D01*
X118765185Y-34899332D01*
X118765187Y-34899337D01*
X118771456Y-34909501D01*
X118857288Y-35048656D01*
X118981344Y-35172712D01*
X119130665Y-35264814D01*
X119297202Y-35319999D01*
X119399990Y-35330500D01*
X119399995Y-35330500D01*
X122600005Y-35330500D01*
X122600010Y-35330500D01*
X122702798Y-35319999D01*
X122869335Y-35264814D01*
X123018656Y-35172712D01*
X123142712Y-35048656D01*
X123234814Y-34899335D01*
X123289999Y-34732798D01*
X123300500Y-34630010D01*
X123300500Y-32949990D01*
X123289999Y-32847202D01*
X123234814Y-32680665D01*
X123142712Y-32531344D01*
X123018656Y-32407288D01*
X122893939Y-32330362D01*
X122869337Y-32315187D01*
X122869332Y-32315185D01*
X122835590Y-32304004D01*
X122702798Y-32260001D01*
X122702796Y-32260000D01*
X122600017Y-32249500D01*
X122600010Y-32249500D01*
X119399990Y-32249500D01*
X119399982Y-32249500D01*
X119297203Y-32260000D01*
X119297202Y-32260001D01*
X119219452Y-32285765D01*
X119130667Y-32315185D01*
X119130662Y-32315187D01*
X118981342Y-32407289D01*
X118857289Y-32531342D01*
X118765187Y-32680662D01*
X118765185Y-32680667D01*
X118743661Y-32745624D01*
X118710001Y-32847202D01*
X118710001Y-32847203D01*
X118710000Y-32847203D01*
X118699500Y-32949982D01*
X95899251Y-32949982D01*
X97014662Y-31834572D01*
X97075983Y-31801089D01*
X97078150Y-31800638D01*
X97136085Y-31789113D01*
X97233497Y-31769737D01*
X97379179Y-31709394D01*
X97510289Y-31621789D01*
X97621789Y-31510289D01*
X97681348Y-31421153D01*
X111199500Y-31421153D01*
X111199500Y-31578846D01*
X111230261Y-31733489D01*
X111230264Y-31733501D01*
X111290602Y-31879172D01*
X111290609Y-31879185D01*
X111378210Y-32010288D01*
X111378213Y-32010292D01*
X111489707Y-32121786D01*
X111489711Y-32121789D01*
X111620814Y-32209390D01*
X111620827Y-32209397D01*
X111742998Y-32260001D01*
X111766503Y-32269737D01*
X111890537Y-32294409D01*
X111921153Y-32300499D01*
X111921156Y-32300500D01*
X111921158Y-32300500D01*
X112078844Y-32300500D01*
X112078845Y-32300499D01*
X112233497Y-32269737D01*
X112379179Y-32209394D01*
X112379185Y-32209390D01*
X112510875Y-32121398D01*
X112577553Y-32100520D01*
X112579766Y-32100500D01*
X113920234Y-32100500D01*
X113987273Y-32120185D01*
X113989125Y-32121398D01*
X114120814Y-32209390D01*
X114120827Y-32209397D01*
X114242998Y-32260001D01*
X114266503Y-32269737D01*
X114390537Y-32294409D01*
X114421153Y-32300499D01*
X114421156Y-32300500D01*
X114421158Y-32300500D01*
X114578844Y-32300500D01*
X114578845Y-32300499D01*
X114733497Y-32269737D01*
X114879179Y-32209394D01*
X115010289Y-32121789D01*
X115121789Y-32010289D01*
X115209394Y-31879179D01*
X115269737Y-31733497D01*
X115300500Y-31578842D01*
X115300500Y-31421158D01*
X115300500Y-31421155D01*
X115300499Y-31421153D01*
X115279432Y-31315243D01*
X115269737Y-31266503D01*
X115251715Y-31222993D01*
X115209397Y-31120827D01*
X115209390Y-31120814D01*
X115121789Y-30989711D01*
X115121786Y-30989707D01*
X115010292Y-30878213D01*
X115010288Y-30878210D01*
X114879185Y-30790609D01*
X114879172Y-30790602D01*
X114733501Y-30730264D01*
X114733489Y-30730261D01*
X114578845Y-30699500D01*
X114578842Y-30699500D01*
X114421158Y-30699500D01*
X114421155Y-30699500D01*
X114266510Y-30730261D01*
X114266498Y-30730264D01*
X114120827Y-30790602D01*
X114120814Y-30790609D01*
X113989125Y-30878602D01*
X113922447Y-30899480D01*
X113920234Y-30899500D01*
X112579766Y-30899500D01*
X112512727Y-30879815D01*
X112510875Y-30878602D01*
X112379185Y-30790609D01*
X112379172Y-30790602D01*
X112233501Y-30730264D01*
X112233489Y-30730261D01*
X112078845Y-30699500D01*
X112078842Y-30699500D01*
X111921158Y-30699500D01*
X111921155Y-30699500D01*
X111766510Y-30730261D01*
X111766498Y-30730264D01*
X111620827Y-30790602D01*
X111620814Y-30790609D01*
X111489711Y-30878210D01*
X111489707Y-30878213D01*
X111378213Y-30989707D01*
X111378210Y-30989711D01*
X111290609Y-31120814D01*
X111290602Y-31120827D01*
X111230264Y-31266498D01*
X111230261Y-31266510D01*
X111199500Y-31421153D01*
X97681348Y-31421153D01*
X97709394Y-31379179D01*
X97769737Y-31233497D01*
X97800500Y-31078842D01*
X97800500Y-30921158D01*
X97800500Y-30921155D01*
X97800499Y-30921153D01*
X97774531Y-30790606D01*
X97769737Y-30766503D01*
X97763166Y-30750638D01*
X97709397Y-30620827D01*
X97709390Y-30620814D01*
X97621789Y-30489711D01*
X97621786Y-30489707D01*
X97510292Y-30378213D01*
X97510288Y-30378210D01*
X97379185Y-30290609D01*
X97379172Y-30290602D01*
X97233501Y-30230264D01*
X97233489Y-30230261D01*
X97078845Y-30199500D01*
X97078842Y-30199500D01*
X96921158Y-30199500D01*
X96921155Y-30199500D01*
X96766510Y-30230261D01*
X96766498Y-30230264D01*
X96620827Y-30290602D01*
X96620809Y-30290612D01*
X96519004Y-30358636D01*
X96452327Y-30379514D01*
X96384947Y-30361029D01*
X96338257Y-30309050D01*
X96327081Y-30240080D01*
X96335552Y-30208084D01*
X96345737Y-30183497D01*
X96376500Y-30028842D01*
X96376500Y-29871158D01*
X96376500Y-29871155D01*
X96376499Y-29871153D01*
X96368656Y-29831722D01*
X96345737Y-29716503D01*
X96335806Y-29692528D01*
X96285397Y-29570827D01*
X96285390Y-29570814D01*
X96197789Y-29439711D01*
X96197786Y-29439707D01*
X96086292Y-29328213D01*
X96086286Y-29328208D01*
X96067637Y-29315747D01*
X96022832Y-29262134D01*
X96014126Y-29192809D01*
X96044282Y-29129782D01*
X96067637Y-29109544D01*
X96122789Y-29072694D01*
X96234289Y-28961194D01*
X96321894Y-28830084D01*
X96382237Y-28684402D01*
X96413000Y-28529747D01*
X96413000Y-28373872D01*
X102424500Y-28373872D01*
X102424500Y-28636127D01*
X102446897Y-28806239D01*
X102458730Y-28896116D01*
X102523748Y-29138768D01*
X102526602Y-29149418D01*
X102526605Y-29149428D01*
X102626953Y-29391690D01*
X102626958Y-29391700D01*
X102758075Y-29618803D01*
X102917718Y-29826851D01*
X102917726Y-29826860D01*
X103103140Y-30012274D01*
X103103148Y-30012281D01*
X103103149Y-30012282D01*
X103151554Y-30049424D01*
X103311196Y-30171924D01*
X103538299Y-30303041D01*
X103538309Y-30303046D01*
X103780571Y-30403394D01*
X103780581Y-30403398D01*
X104033884Y-30471270D01*
X104293880Y-30505500D01*
X104293887Y-30505500D01*
X104556113Y-30505500D01*
X104556120Y-30505500D01*
X104816116Y-30471270D01*
X105069419Y-30403398D01*
X105311697Y-30303043D01*
X105538803Y-30171924D01*
X105746851Y-30012282D01*
X105746855Y-30012277D01*
X105746860Y-30012274D01*
X105932274Y-29826860D01*
X105932277Y-29826855D01*
X105932282Y-29826851D01*
X106091924Y-29618803D01*
X106223043Y-29391697D01*
X106323398Y-29149419D01*
X106391270Y-28896116D01*
X106425500Y-28636120D01*
X106425500Y-28373880D01*
X106391270Y-28113884D01*
X106323398Y-27860581D01*
X106310365Y-27829116D01*
X106223046Y-27618309D01*
X106223041Y-27618299D01*
X106091924Y-27391196D01*
X105952421Y-27209394D01*
X105932282Y-27183149D01*
X105932281Y-27183148D01*
X105932274Y-27183140D01*
X105746860Y-26997726D01*
X105746851Y-26997718D01*
X105538803Y-26838075D01*
X105311700Y-26706958D01*
X105311690Y-26706953D01*
X105069428Y-26606605D01*
X105069421Y-26606603D01*
X105069419Y-26606602D01*
X104816116Y-26538730D01*
X104758339Y-26531123D01*
X104556127Y-26504500D01*
X104556120Y-26504500D01*
X104293880Y-26504500D01*
X104293872Y-26504500D01*
X104062772Y-26534926D01*
X104033884Y-26538730D01*
X103780581Y-26606602D01*
X103780571Y-26606605D01*
X103538309Y-26706953D01*
X103538299Y-26706958D01*
X103311196Y-26838075D01*
X103103148Y-26997718D01*
X102917718Y-27183148D01*
X102758075Y-27391196D01*
X102626958Y-27618299D01*
X102626953Y-27618309D01*
X102526605Y-27860571D01*
X102526602Y-27860581D01*
X102475876Y-28049896D01*
X102458730Y-28113885D01*
X102424500Y-28373872D01*
X96413000Y-28373872D01*
X96413000Y-28372063D01*
X96413000Y-28372060D01*
X96412999Y-28372058D01*
X96392004Y-28266510D01*
X96382237Y-28217408D01*
X96364158Y-28173760D01*
X96321897Y-28071732D01*
X96321890Y-28071719D01*
X96234289Y-27940616D01*
X96234286Y-27940612D01*
X96122792Y-27829118D01*
X96122788Y-27829115D01*
X95991685Y-27741514D01*
X95991672Y-27741507D01*
X95846001Y-27681169D01*
X95845991Y-27681166D01*
X95690651Y-27650267D01*
X95628741Y-27617882D01*
X95627162Y-27616331D01*
X95061819Y-27050988D01*
X95028334Y-26989665D01*
X95025500Y-26963307D01*
X95025500Y-26421153D01*
X96699500Y-26421153D01*
X96699500Y-26578846D01*
X96730261Y-26733489D01*
X96730264Y-26733501D01*
X96790602Y-26879172D01*
X96790609Y-26879185D01*
X96878210Y-27010288D01*
X96878213Y-27010292D01*
X96989707Y-27121786D01*
X96989711Y-27121789D01*
X97120814Y-27209390D01*
X97120827Y-27209397D01*
X97213590Y-27247820D01*
X97266503Y-27269737D01*
X97421153Y-27300499D01*
X97421156Y-27300500D01*
X97421158Y-27300500D01*
X97578844Y-27300500D01*
X97578845Y-27300499D01*
X97733497Y-27269737D01*
X97879179Y-27209394D01*
X97916669Y-27184344D01*
X98010875Y-27121398D01*
X98077553Y-27100520D01*
X98079766Y-27100500D01*
X98420939Y-27100500D01*
X98420943Y-27100501D01*
X98579057Y-27100501D01*
X98585591Y-27098749D01*
X98600409Y-27098600D01*
X98627105Y-27106146D01*
X98654508Y-27110418D01*
X98660251Y-27115515D01*
X98667644Y-27117605D01*
X98686020Y-27138383D01*
X98706766Y-27156795D01*
X98710401Y-27165952D01*
X98713931Y-27169944D01*
X98715165Y-27177956D01*
X98723281Y-27198400D01*
X98730262Y-27233494D01*
X98730264Y-27233501D01*
X98790602Y-27379172D01*
X98790609Y-27379185D01*
X98878210Y-27510288D01*
X98878213Y-27510292D01*
X98989707Y-27621786D01*
X98989711Y-27621789D01*
X99120814Y-27709390D01*
X99120827Y-27709397D01*
X99221243Y-27750990D01*
X99266503Y-27769737D01*
X99376199Y-27791557D01*
X99421153Y-27800499D01*
X99421156Y-27800500D01*
X99421158Y-27800500D01*
X99578844Y-27800500D01*
X99578845Y-27800499D01*
X99733497Y-27769737D01*
X99879179Y-27709394D01*
X100010289Y-27621789D01*
X100121789Y-27510289D01*
X100209394Y-27379179D01*
X100269737Y-27233497D01*
X100300500Y-27078842D01*
X100300638Y-27078150D01*
X100333023Y-27016239D01*
X100334517Y-27014717D01*
X102428082Y-24921153D01*
X111574500Y-24921153D01*
X111574500Y-25078846D01*
X111605261Y-25233489D01*
X111605264Y-25233501D01*
X111665602Y-25379172D01*
X111665609Y-25379185D01*
X111753210Y-25510288D01*
X111753213Y-25510292D01*
X111864707Y-25621786D01*
X111864711Y-25621789D01*
X111995814Y-25709390D01*
X111995827Y-25709397D01*
X112095060Y-25750500D01*
X112141503Y-25769737D01*
X112283796Y-25798041D01*
X112296153Y-25800499D01*
X112296156Y-25800500D01*
X112296158Y-25800500D01*
X112453844Y-25800500D01*
X112453845Y-25800499D01*
X112608497Y-25769737D01*
X112754179Y-25709394D01*
X112754185Y-25709390D01*
X112885875Y-25621398D01*
X112952553Y-25600520D01*
X112954766Y-25600500D01*
X113420234Y-25600500D01*
X113487273Y-25620185D01*
X113489125Y-25621398D01*
X113620814Y-25709390D01*
X113620827Y-25709397D01*
X113720060Y-25750500D01*
X113766503Y-25769737D01*
X113908796Y-25798041D01*
X113921153Y-25800499D01*
X113921156Y-25800500D01*
X113921158Y-25800500D01*
X114078844Y-25800500D01*
X114078845Y-25800499D01*
X114233497Y-25769737D01*
X114379179Y-25709394D01*
X114510289Y-25621789D01*
X114621789Y-25510289D01*
X114709394Y-25379179D01*
X114719418Y-25354980D01*
X114769735Y-25233501D01*
X114769737Y-25233497D01*
X114800500Y-25078842D01*
X114800500Y-24921158D01*
X114800500Y-24921155D01*
X114800499Y-24921153D01*
X114793644Y-24886690D01*
X114769737Y-24766503D01*
X114724050Y-24656204D01*
X114709397Y-24620827D01*
X114709390Y-24620814D01*
X114663930Y-24552779D01*
X114621789Y-24489711D01*
X114621786Y-24489707D01*
X114620833Y-24488754D01*
X118699500Y-24488754D01*
X118699500Y-24731245D01*
X118737432Y-24970736D01*
X118812360Y-25201344D01*
X118823269Y-25222754D01*
X118905912Y-25384949D01*
X118922448Y-25417401D01*
X119064966Y-25613562D01*
X119064970Y-25613567D01*
X119236432Y-25785029D01*
X119236437Y-25785033D01*
X119373870Y-25884883D01*
X119432602Y-25927554D01*
X119648653Y-26037638D01*
X119648655Y-26037639D01*
X119763959Y-26075103D01*
X119879265Y-26112568D01*
X119990186Y-26130136D01*
X120118755Y-26150500D01*
X120118760Y-26150500D01*
X121881245Y-26150500D01*
X121997347Y-26132110D01*
X122120735Y-26112568D01*
X122351347Y-26037638D01*
X122567398Y-25927554D01*
X122763569Y-25785028D01*
X122935028Y-25613569D01*
X123077554Y-25417398D01*
X123187638Y-25201347D01*
X123262568Y-24970735D01*
X123289297Y-24801973D01*
X123300500Y-24731245D01*
X123300500Y-24488754D01*
X123277778Y-24345297D01*
X123262568Y-24249265D01*
X123207195Y-24078844D01*
X123187639Y-24018655D01*
X123172889Y-23989707D01*
X123077554Y-23802602D01*
X123046811Y-23760288D01*
X122935033Y-23606437D01*
X122935029Y-23606432D01*
X122763567Y-23434970D01*
X122763562Y-23434966D01*
X122567401Y-23292448D01*
X122567400Y-23292447D01*
X122567398Y-23292446D01*
X122445354Y-23230261D01*
X122351344Y-23182360D01*
X122120736Y-23107432D01*
X121881245Y-23069500D01*
X121881240Y-23069500D01*
X120118760Y-23069500D01*
X120118755Y-23069500D01*
X119879263Y-23107432D01*
X119648655Y-23182360D01*
X119432598Y-23292448D01*
X119236437Y-23434966D01*
X119236432Y-23434970D01*
X119064970Y-23606432D01*
X119064966Y-23606437D01*
X118922448Y-23802598D01*
X118812360Y-24018655D01*
X118737432Y-24249263D01*
X118699500Y-24488754D01*
X114620833Y-24488754D01*
X114510292Y-24378213D01*
X114510288Y-24378210D01*
X114379185Y-24290609D01*
X114379172Y-24290602D01*
X114233501Y-24230264D01*
X114233489Y-24230261D01*
X114078845Y-24199500D01*
X114078842Y-24199500D01*
X113921158Y-24199500D01*
X113921155Y-24199500D01*
X113766510Y-24230261D01*
X113766498Y-24230264D01*
X113620827Y-24290602D01*
X113620814Y-24290609D01*
X113489125Y-24378602D01*
X113422447Y-24399480D01*
X113420234Y-24399500D01*
X112954766Y-24399500D01*
X112887727Y-24379815D01*
X112885875Y-24378602D01*
X112754185Y-24290609D01*
X112754172Y-24290602D01*
X112608501Y-24230264D01*
X112608489Y-24230261D01*
X112453845Y-24199500D01*
X112453842Y-24199500D01*
X112296158Y-24199500D01*
X112296155Y-24199500D01*
X112141510Y-24230261D01*
X112141498Y-24230264D01*
X111995827Y-24290602D01*
X111995814Y-24290609D01*
X111864711Y-24378210D01*
X111864707Y-24378213D01*
X111753213Y-24489707D01*
X111753210Y-24489711D01*
X111665609Y-24620814D01*
X111665602Y-24620827D01*
X111605264Y-24766498D01*
X111605261Y-24766510D01*
X111574500Y-24921153D01*
X102428082Y-24921153D01*
X102514664Y-24834571D01*
X102531257Y-24825510D01*
X102544868Y-24812378D01*
X102574363Y-24801973D01*
X102575985Y-24801088D01*
X102578152Y-24800637D01*
X102578841Y-24800500D01*
X102578842Y-24800500D01*
X102733497Y-24769737D01*
X102879179Y-24709394D01*
X103010289Y-24621789D01*
X103121789Y-24510289D01*
X103209394Y-24379179D01*
X103269737Y-24233497D01*
X103300500Y-24078842D01*
X103300500Y-23921158D01*
X103300500Y-23921155D01*
X103300499Y-23921153D01*
X103290101Y-23868880D01*
X103269737Y-23766503D01*
X103256062Y-23733489D01*
X103209397Y-23620827D01*
X103209390Y-23620814D01*
X103121789Y-23489711D01*
X103121786Y-23489707D01*
X103010292Y-23378213D01*
X103010288Y-23378210D01*
X102879185Y-23290609D01*
X102879173Y-23290602D01*
X102852674Y-23279627D01*
X102733501Y-23230264D01*
X102733489Y-23230261D01*
X102578845Y-23199500D01*
X102578842Y-23199500D01*
X102421158Y-23199500D01*
X102421155Y-23199500D01*
X102266510Y-23230261D01*
X102266498Y-23230264D01*
X102120827Y-23290602D01*
X102120814Y-23290609D01*
X101989711Y-23378210D01*
X101989707Y-23378213D01*
X101878213Y-23489707D01*
X101878210Y-23489711D01*
X101790609Y-23620814D01*
X101790602Y-23620827D01*
X101730264Y-23766498D01*
X101730261Y-23766508D01*
X101699362Y-23921848D01*
X101690596Y-23938604D01*
X101686577Y-23957083D01*
X101667832Y-23982123D01*
X101666977Y-23983759D01*
X101665427Y-23985337D01*
X101512179Y-24138584D01*
X101450858Y-24172068D01*
X101381167Y-24167084D01*
X101325233Y-24125213D01*
X101300816Y-24059748D01*
X101300500Y-24050902D01*
X101300500Y-23921155D01*
X101300499Y-23921153D01*
X101290101Y-23868880D01*
X101269737Y-23766503D01*
X101256062Y-23733489D01*
X101209397Y-23620827D01*
X101209390Y-23620814D01*
X101121789Y-23489711D01*
X101121786Y-23489707D01*
X101010292Y-23378213D01*
X101010288Y-23378210D01*
X100879185Y-23290609D01*
X100879172Y-23290602D01*
X100733501Y-23230264D01*
X100733489Y-23230261D01*
X100578845Y-23199500D01*
X100578842Y-23199500D01*
X100421158Y-23199500D01*
X100421155Y-23199500D01*
X100266510Y-23230261D01*
X100266498Y-23230264D01*
X100120827Y-23290602D01*
X100120814Y-23290609D01*
X99989711Y-23378210D01*
X99989707Y-23378213D01*
X99878213Y-23489707D01*
X99878210Y-23489711D01*
X99790609Y-23620814D01*
X99790602Y-23620827D01*
X99730264Y-23766498D01*
X99730261Y-23766508D01*
X99699362Y-23921848D01*
X99666977Y-23983759D01*
X99665426Y-23985337D01*
X98544521Y-25106243D01*
X98432716Y-25218047D01*
X98432712Y-25218052D01*
X98392073Y-25288443D01*
X98385112Y-25300500D01*
X98353658Y-25354980D01*
X98312734Y-25507708D01*
X98312734Y-25507710D01*
X98312734Y-25675811D01*
X98312735Y-25675824D01*
X98312735Y-25775500D01*
X98293050Y-25842539D01*
X98240246Y-25888294D01*
X98188735Y-25899500D01*
X98079766Y-25899500D01*
X98012727Y-25879815D01*
X98010875Y-25878602D01*
X97879185Y-25790609D01*
X97879172Y-25790602D01*
X97733501Y-25730264D01*
X97733489Y-25730261D01*
X97578845Y-25699500D01*
X97578842Y-25699500D01*
X97421158Y-25699500D01*
X97421155Y-25699500D01*
X97266510Y-25730261D01*
X97266498Y-25730264D01*
X97120827Y-25790602D01*
X97120814Y-25790609D01*
X96989711Y-25878210D01*
X96989707Y-25878213D01*
X96878213Y-25989707D01*
X96878210Y-25989711D01*
X96790609Y-26120814D01*
X96790602Y-26120827D01*
X96730264Y-26266498D01*
X96730261Y-26266510D01*
X96699500Y-26421153D01*
X95025500Y-26421153D01*
X95025500Y-25999444D01*
X95045185Y-25932405D01*
X95097989Y-25886650D01*
X95102047Y-25884883D01*
X95114282Y-25879815D01*
X95311697Y-25798043D01*
X95538803Y-25666924D01*
X95746851Y-25507282D01*
X95746855Y-25507277D01*
X95746860Y-25507274D01*
X95932274Y-25321860D01*
X95932277Y-25321855D01*
X95932282Y-25321851D01*
X96091924Y-25113803D01*
X96223043Y-24886697D01*
X96323398Y-24644419D01*
X96379381Y-24435485D01*
X96415746Y-24375826D01*
X96478593Y-24345297D01*
X96523348Y-24345963D01*
X96546156Y-24350500D01*
X96546158Y-24350500D01*
X96703844Y-24350500D01*
X96703845Y-24350499D01*
X96858497Y-24319737D01*
X97004179Y-24259394D01*
X97135289Y-24171789D01*
X97246789Y-24060289D01*
X97334394Y-23929179D01*
X97337719Y-23921153D01*
X97355102Y-23879185D01*
X97394737Y-23783497D01*
X97425500Y-23628842D01*
X97425500Y-23471158D01*
X97425500Y-23471155D01*
X97425499Y-23471153D01*
X97407012Y-23378213D01*
X97394737Y-23316503D01*
X97384772Y-23292446D01*
X97334532Y-23171153D01*
X107765011Y-23171153D01*
X107765011Y-23328846D01*
X107795772Y-23483489D01*
X107795775Y-23483501D01*
X107856113Y-23629172D01*
X107856120Y-23629185D01*
X107943721Y-23760288D01*
X107943724Y-23760292D01*
X108055218Y-23871786D01*
X108055222Y-23871789D01*
X108186325Y-23959390D01*
X108186338Y-23959397D01*
X108329397Y-24018653D01*
X108332014Y-24019737D01*
X108455485Y-24044297D01*
X108486664Y-24050499D01*
X108486667Y-24050500D01*
X108486669Y-24050500D01*
X108644355Y-24050500D01*
X108644356Y-24050499D01*
X108799008Y-24019737D01*
X108944690Y-23959394D01*
X109075800Y-23871789D01*
X109187300Y-23760289D01*
X109274905Y-23629179D01*
X109278365Y-23620827D01*
X109332674Y-23489711D01*
X109335248Y-23483497D01*
X109360694Y-23355571D01*
X109366149Y-23328150D01*
X109398534Y-23266239D01*
X109400033Y-23264712D01*
X109868713Y-22796032D01*
X109868716Y-22796031D01*
X109980520Y-22684227D01*
X110030639Y-22597415D01*
X110059577Y-22547296D01*
X110100501Y-22394568D01*
X110100501Y-22236454D01*
X110100501Y-22228859D01*
X110100500Y-22228841D01*
X110100500Y-20579765D01*
X110120185Y-20512726D01*
X110121398Y-20510874D01*
X110139386Y-20483954D01*
X110209394Y-20379179D01*
X110213728Y-20368717D01*
X110254410Y-20270499D01*
X110269737Y-20233497D01*
X110300500Y-20078842D01*
X110300500Y-19921158D01*
X110300500Y-19921155D01*
X110300499Y-19921153D01*
X110279955Y-19817872D01*
X110269737Y-19766503D01*
X110263425Y-19751264D01*
X110209397Y-19620827D01*
X110209390Y-19620814D01*
X110121789Y-19489711D01*
X110121786Y-19489707D01*
X110040833Y-19408754D01*
X118699500Y-19408754D01*
X118699500Y-19651245D01*
X118737432Y-19890736D01*
X118812360Y-20121344D01*
X118846738Y-20188813D01*
X118921559Y-20335658D01*
X118922448Y-20337401D01*
X119064966Y-20533562D01*
X119064970Y-20533567D01*
X119236432Y-20705029D01*
X119236437Y-20705033D01*
X119356566Y-20792311D01*
X119432602Y-20847554D01*
X119633663Y-20950000D01*
X119648655Y-20957639D01*
X119763959Y-20995103D01*
X119879265Y-21032568D01*
X119990186Y-21050136D01*
X120118755Y-21070500D01*
X120118760Y-21070500D01*
X121881245Y-21070500D01*
X121997347Y-21052110D01*
X122120735Y-21032568D01*
X122351347Y-20957638D01*
X122567398Y-20847554D01*
X122763569Y-20705028D01*
X122935028Y-20533569D01*
X123077554Y-20337398D01*
X123187638Y-20121347D01*
X123262568Y-19890735D01*
X123287984Y-19730263D01*
X123300500Y-19651245D01*
X123300500Y-19408754D01*
X123272229Y-19230263D01*
X123262568Y-19169265D01*
X123202807Y-18985339D01*
X123187639Y-18938655D01*
X123174138Y-18912158D01*
X123077554Y-18722602D01*
X123059345Y-18697539D01*
X122935033Y-18526437D01*
X122935029Y-18526432D01*
X122763567Y-18354970D01*
X122763562Y-18354966D01*
X122567401Y-18212448D01*
X122567400Y-18212447D01*
X122567398Y-18212446D01*
X122459372Y-18157404D01*
X122351344Y-18102360D01*
X122120736Y-18027432D01*
X121881245Y-17989500D01*
X121881240Y-17989500D01*
X120118760Y-17989500D01*
X120118755Y-17989500D01*
X119879263Y-18027432D01*
X119648655Y-18102360D01*
X119432598Y-18212448D01*
X119236437Y-18354966D01*
X119236432Y-18354970D01*
X119064970Y-18526432D01*
X119064966Y-18526437D01*
X118922448Y-18722598D01*
X118812360Y-18938655D01*
X118737432Y-19169263D01*
X118699500Y-19408754D01*
X110040833Y-19408754D01*
X110010292Y-19378213D01*
X110010288Y-19378210D01*
X109879185Y-19290609D01*
X109879172Y-19290602D01*
X109733501Y-19230264D01*
X109733489Y-19230261D01*
X109578845Y-19199500D01*
X109578842Y-19199500D01*
X109421158Y-19199500D01*
X109421155Y-19199500D01*
X109266510Y-19230261D01*
X109266498Y-19230264D01*
X109120827Y-19290602D01*
X109120814Y-19290609D01*
X108989711Y-19378210D01*
X108989707Y-19378213D01*
X108878213Y-19489707D01*
X108878210Y-19489711D01*
X108790609Y-19620814D01*
X108790602Y-19620827D01*
X108730264Y-19766498D01*
X108730261Y-19766510D01*
X108699500Y-19921153D01*
X108699500Y-20078846D01*
X108730261Y-20233489D01*
X108730264Y-20233501D01*
X108790602Y-20379172D01*
X108790609Y-20379185D01*
X108878602Y-20510874D01*
X108899480Y-20577551D01*
X108899500Y-20579765D01*
X108899500Y-22015414D01*
X108879815Y-22082453D01*
X108863181Y-22103095D01*
X108550850Y-22415425D01*
X108489527Y-22448910D01*
X108487361Y-22449361D01*
X108332019Y-22480261D01*
X108332009Y-22480264D01*
X108186338Y-22540602D01*
X108186325Y-22540609D01*
X108055222Y-22628210D01*
X108055218Y-22628213D01*
X107943724Y-22739707D01*
X107943721Y-22739711D01*
X107856120Y-22870814D01*
X107856113Y-22870827D01*
X107795775Y-23016498D01*
X107795772Y-23016510D01*
X107765011Y-23171153D01*
X97334532Y-23171153D01*
X97334397Y-23170827D01*
X97334390Y-23170814D01*
X97246789Y-23039711D01*
X97246786Y-23039707D01*
X97135292Y-22928213D01*
X97135288Y-22928210D01*
X97004185Y-22840609D01*
X97004172Y-22840602D01*
X96858501Y-22780264D01*
X96858491Y-22780261D01*
X96703151Y-22749362D01*
X96641241Y-22716977D01*
X96639662Y-22715426D01*
X95563798Y-21639562D01*
X95530313Y-21578239D01*
X95535297Y-21508547D01*
X95563796Y-21464201D01*
X95646551Y-21381447D01*
X95734156Y-21250337D01*
X95794499Y-21104655D01*
X95825262Y-20950000D01*
X95825262Y-20792316D01*
X95825262Y-20792313D01*
X95825261Y-20792311D01*
X95813562Y-20733497D01*
X95794499Y-20637661D01*
X95782300Y-20608210D01*
X95734159Y-20491985D01*
X95734151Y-20491971D01*
X95728795Y-20483954D01*
X95686832Y-20421153D01*
X103699500Y-20421153D01*
X103699500Y-20578846D01*
X103730261Y-20733489D01*
X103730264Y-20733501D01*
X103790602Y-20879172D01*
X103790609Y-20879185D01*
X103878210Y-21010288D01*
X103878213Y-21010292D01*
X103989707Y-21121786D01*
X103989711Y-21121789D01*
X104120814Y-21209390D01*
X104120827Y-21209397D01*
X104219681Y-21250343D01*
X104266503Y-21269737D01*
X104421153Y-21300499D01*
X104421156Y-21300500D01*
X104421158Y-21300500D01*
X104578844Y-21300500D01*
X104578845Y-21300499D01*
X104733497Y-21269737D01*
X104879179Y-21209394D01*
X105010289Y-21121789D01*
X105121789Y-21010289D01*
X105209394Y-20879179D01*
X105269737Y-20733497D01*
X105300227Y-20580215D01*
X105300638Y-20578150D01*
X105333023Y-20516239D01*
X105334518Y-20514716D01*
X106014662Y-19834572D01*
X106075983Y-19801089D01*
X106078150Y-19800638D01*
X106136085Y-19789113D01*
X106233497Y-19769737D01*
X106379179Y-19709394D01*
X106510289Y-19621789D01*
X106621789Y-19510289D01*
X106709394Y-19379179D01*
X106769737Y-19233497D01*
X106800500Y-19078842D01*
X106800500Y-18921158D01*
X106800500Y-18921155D01*
X106800499Y-18921153D01*
X106776616Y-18801088D01*
X106769737Y-18766503D01*
X106709794Y-18621786D01*
X106709397Y-18620827D01*
X106709390Y-18620814D01*
X106621789Y-18489711D01*
X106621786Y-18489707D01*
X106510292Y-18378213D01*
X106510288Y-18378210D01*
X106379185Y-18290609D01*
X106379172Y-18290602D01*
X106233501Y-18230264D01*
X106233489Y-18230261D01*
X106078845Y-18199500D01*
X106078842Y-18199500D01*
X105921158Y-18199500D01*
X105921155Y-18199500D01*
X105766510Y-18230261D01*
X105766498Y-18230264D01*
X105620827Y-18290602D01*
X105620814Y-18290609D01*
X105489711Y-18378210D01*
X105489707Y-18378213D01*
X105378213Y-18489707D01*
X105378210Y-18489711D01*
X105290609Y-18620814D01*
X105290602Y-18620827D01*
X105230264Y-18766498D01*
X105230261Y-18766508D01*
X105199361Y-18921850D01*
X105166976Y-18983761D01*
X105165425Y-18985339D01*
X104485339Y-19665425D01*
X104424016Y-19698910D01*
X104421850Y-19699361D01*
X104266508Y-19730261D01*
X104266498Y-19730264D01*
X104120827Y-19790602D01*
X104120814Y-19790609D01*
X103989711Y-19878210D01*
X103989707Y-19878213D01*
X103878213Y-19989707D01*
X103878210Y-19989711D01*
X103790609Y-20120814D01*
X103790602Y-20120827D01*
X103730264Y-20266498D01*
X103730261Y-20266510D01*
X103699500Y-20421153D01*
X95686832Y-20421153D01*
X95646551Y-20360869D01*
X95646548Y-20360865D01*
X95535819Y-20250136D01*
X95502334Y-20188813D01*
X95499500Y-20162455D01*
X95499500Y-19570765D01*
X95519185Y-19503726D01*
X95520398Y-19501874D01*
X95608390Y-19370185D01*
X95608390Y-19370184D01*
X95608394Y-19370179D01*
X95668737Y-19224497D01*
X95699500Y-19069842D01*
X95699500Y-18912158D01*
X95699500Y-18912155D01*
X95699499Y-18912153D01*
X95684067Y-18834573D01*
X95668737Y-18757503D01*
X95658795Y-18733501D01*
X95608397Y-18611827D01*
X95608390Y-18611814D01*
X95520789Y-18480711D01*
X95520786Y-18480707D01*
X95409292Y-18369213D01*
X95409288Y-18369210D01*
X95278185Y-18281609D01*
X95278172Y-18281602D01*
X95132501Y-18221264D01*
X95132489Y-18221261D01*
X94977845Y-18190500D01*
X94977842Y-18190500D01*
X94820158Y-18190500D01*
X94820155Y-18190500D01*
X94665510Y-18221261D01*
X94665498Y-18221264D01*
X94519827Y-18281602D01*
X94519814Y-18281609D01*
X94388711Y-18369210D01*
X94388707Y-18369213D01*
X94277213Y-18480707D01*
X94277210Y-18480711D01*
X94189609Y-18611814D01*
X94189602Y-18611827D01*
X94129264Y-18757498D01*
X94129261Y-18757510D01*
X94098500Y-18912153D01*
X94098500Y-19069846D01*
X94129261Y-19224489D01*
X94129264Y-19224501D01*
X94189602Y-19370172D01*
X94189609Y-19370185D01*
X94277602Y-19501874D01*
X94298480Y-19568551D01*
X94298500Y-19570765D01*
X94298500Y-20508038D01*
X94296941Y-20515953D01*
X94297839Y-20520824D01*
X94289485Y-20553814D01*
X94289240Y-20555055D01*
X94255025Y-20637661D01*
X94254678Y-20639401D01*
X94251757Y-20646532D01*
X94233436Y-20669444D01*
X94217349Y-20693975D01*
X94211868Y-20696416D01*
X94208123Y-20701101D01*
X94180328Y-20710469D01*
X94153527Y-20722411D01*
X94147596Y-20721502D01*
X94141913Y-20723418D01*
X94113460Y-20716271D01*
X94084464Y-20711828D01*
X94078152Y-20707402D01*
X94074149Y-20706397D01*
X94069209Y-20701131D01*
X94049335Y-20687196D01*
X93970352Y-20608213D01*
X93970348Y-20608210D01*
X93839245Y-20520609D01*
X93839232Y-20520602D01*
X93693561Y-20460264D01*
X93693549Y-20460261D01*
X93538905Y-20429500D01*
X93538902Y-20429500D01*
X93381218Y-20429500D01*
X93381215Y-20429500D01*
X93226570Y-20460261D01*
X93226558Y-20460264D01*
X93080887Y-20520602D01*
X93080874Y-20520609D01*
X92949771Y-20608210D01*
X92949767Y-20608213D01*
X92838273Y-20719707D01*
X92838270Y-20719711D01*
X92750669Y-20850814D01*
X92750662Y-20850827D01*
X92690324Y-20996498D01*
X92690321Y-20996510D01*
X92659560Y-21151153D01*
X92659560Y-21308846D01*
X92690321Y-21463489D01*
X92690324Y-21463501D01*
X92750662Y-21609172D01*
X92750669Y-21609185D01*
X92838270Y-21740288D01*
X92838273Y-21740292D01*
X92949767Y-21851786D01*
X92949771Y-21851789D01*
X93080874Y-21939390D01*
X93080887Y-21939397D01*
X93175084Y-21978414D01*
X93226563Y-21999737D01*
X93381218Y-22030500D01*
X93381907Y-22030637D01*
X93398663Y-22039401D01*
X93417143Y-22043422D01*
X93442181Y-22062166D01*
X93443818Y-22063022D01*
X93445397Y-22064573D01*
X93452232Y-22071408D01*
X93485717Y-22132731D01*
X93480733Y-22202423D01*
X93438861Y-22258356D01*
X93426551Y-22266476D01*
X93311196Y-22333075D01*
X93103148Y-22492718D01*
X92917718Y-22678148D01*
X92758075Y-22886196D01*
X92626958Y-23113299D01*
X92626953Y-23113309D01*
X92526605Y-23355571D01*
X92526602Y-23355581D01*
X92458730Y-23608884D01*
X92457158Y-23620827D01*
X92424500Y-23868872D01*
X92424500Y-24131127D01*
X92449333Y-24319738D01*
X92458730Y-24391116D01*
X92526602Y-24644418D01*
X92526605Y-24644428D01*
X92626953Y-24886690D01*
X92626958Y-24886700D01*
X92758075Y-25113803D01*
X92917718Y-25321851D01*
X92917726Y-25321860D01*
X93103140Y-25507274D01*
X93103148Y-25507281D01*
X93103149Y-25507282D01*
X93107068Y-25510289D01*
X93311196Y-25666924D01*
X93538299Y-25798041D01*
X93538300Y-25798041D01*
X93538303Y-25798043D01*
X93634838Y-25838029D01*
X93747953Y-25884883D01*
X93802356Y-25928724D01*
X93824421Y-25995018D01*
X93824500Y-25999444D01*
X93824500Y-27176735D01*
X93824499Y-27176753D01*
X93824499Y-27342459D01*
X93824498Y-27342459D01*
X93865423Y-27495191D01*
X93866279Y-27496673D01*
X93874137Y-27510282D01*
X93874139Y-27510291D01*
X93874142Y-27510290D01*
X93874143Y-27510292D01*
X93944479Y-27632119D01*
X93944481Y-27632122D01*
X94063349Y-27750990D01*
X94063355Y-27750995D01*
X94777925Y-28465565D01*
X94811410Y-28526888D01*
X94811861Y-28529054D01*
X94842761Y-28684396D01*
X94842764Y-28684406D01*
X94903102Y-28830077D01*
X94903109Y-28830090D01*
X94990710Y-28961193D01*
X94990713Y-28961197D01*
X95102207Y-29072691D01*
X95102211Y-29072694D01*
X95120861Y-29085156D01*
X95165666Y-29138768D01*
X95174373Y-29208093D01*
X95144218Y-29271121D01*
X95120861Y-29291360D01*
X95065711Y-29328210D01*
X95065707Y-29328213D01*
X94954213Y-29439707D01*
X94954210Y-29439711D01*
X94866609Y-29570814D01*
X94866602Y-29570827D01*
X94806264Y-29716498D01*
X94806261Y-29716508D01*
X94775361Y-29871850D01*
X94742976Y-29933761D01*
X94741425Y-29935339D01*
X94381849Y-30294916D01*
X94320526Y-30328401D01*
X94294168Y-30331235D01*
X87686501Y-30331235D01*
X87668948Y-30326080D01*
X87650651Y-30325940D01*
X87621356Y-30312106D01*
X87619462Y-30311550D01*
X87618660Y-30311031D01*
X87617069Y-30309991D01*
X87617024Y-30309946D01*
X87485914Y-30222341D01*
X87477860Y-30219005D01*
X87468168Y-30212670D01*
X87452701Y-30194540D01*
X87434150Y-30179589D01*
X87430442Y-30168449D01*
X87422821Y-30159515D01*
X87419611Y-30135901D01*
X87412088Y-30113294D01*
X87413743Y-30092730D01*
X87413411Y-30090282D01*
X87414051Y-30088907D01*
X87414391Y-30084688D01*
X87425500Y-30028842D01*
X87425500Y-29871158D01*
X87425500Y-29871155D01*
X87425499Y-29871153D01*
X87417656Y-29831722D01*
X87394737Y-29716503D01*
X87384806Y-29692528D01*
X87334397Y-29570827D01*
X87334390Y-29570814D01*
X87246789Y-29439711D01*
X87246786Y-29439707D01*
X87135292Y-29328213D01*
X87135288Y-29328210D01*
X87004185Y-29240609D01*
X87004172Y-29240602D01*
X86858501Y-29180264D01*
X86858489Y-29180261D01*
X86703845Y-29149500D01*
X86703842Y-29149500D01*
X86546158Y-29149500D01*
X86546155Y-29149500D01*
X86391510Y-29180261D01*
X86391498Y-29180264D01*
X86245827Y-29240602D01*
X86245814Y-29240609D01*
X86114711Y-29328210D01*
X86114707Y-29328213D01*
X86003213Y-29439707D01*
X86003210Y-29439711D01*
X85915609Y-29570814D01*
X85915604Y-29570824D01*
X85865193Y-29692528D01*
X85821352Y-29746931D01*
X85755058Y-29768996D01*
X85726441Y-29766692D01*
X85609846Y-29743500D01*
X85609842Y-29743500D01*
X85452158Y-29743500D01*
X85452157Y-29743500D01*
X85446095Y-29744097D01*
X85445930Y-29742428D01*
X85384342Y-29736905D01*
X85329173Y-29694031D01*
X85305941Y-29628137D01*
X85305765Y-29621524D01*
X85305765Y-29079765D01*
X85325450Y-29012726D01*
X85326663Y-29010874D01*
X85414655Y-28879185D01*
X85414655Y-28879184D01*
X85414659Y-28879179D01*
X85475002Y-28733497D01*
X85505765Y-28578842D01*
X85505765Y-28421158D01*
X85505765Y-28421155D01*
X85505764Y-28421153D01*
X85475003Y-28266510D01*
X85475002Y-28266503D01*
X85454669Y-28217415D01*
X85414662Y-28120827D01*
X85414655Y-28120814D01*
X85327054Y-27989711D01*
X85327051Y-27989707D01*
X85215557Y-27878213D01*
X85215553Y-27878210D01*
X85084450Y-27790609D01*
X85084437Y-27790602D01*
X84938766Y-27730264D01*
X84938754Y-27730261D01*
X84784110Y-27699500D01*
X84784107Y-27699500D01*
X84629765Y-27699500D01*
X84562726Y-27679815D01*
X84516971Y-27627011D01*
X84505765Y-27575500D01*
X84505765Y-27451421D01*
X84505764Y-27451419D01*
X84493785Y-27391196D01*
X84475002Y-27296769D01*
X84473362Y-27292810D01*
X84414662Y-27151093D01*
X84414655Y-27151080D01*
X84327054Y-27019977D01*
X84327051Y-27019973D01*
X84215557Y-26908479D01*
X84215553Y-26908476D01*
X84084450Y-26820875D01*
X84084437Y-26820868D01*
X83938766Y-26760530D01*
X83938754Y-26760527D01*
X83784110Y-26729766D01*
X83784107Y-26729766D01*
X83626423Y-26729766D01*
X83626418Y-26729766D01*
X83472375Y-26760407D01*
X83402783Y-26754180D01*
X83347606Y-26711317D01*
X83324362Y-26645427D01*
X83324184Y-26638790D01*
X83324184Y-25576413D01*
X83343869Y-25509374D01*
X83360503Y-25488732D01*
X85859528Y-22989707D01*
X88480520Y-20368716D01*
X88559577Y-20231784D01*
X88600501Y-20079057D01*
X88600501Y-19920942D01*
X88600501Y-19913347D01*
X88600500Y-19913329D01*
X88600500Y-19079765D01*
X88620185Y-19012726D01*
X88621398Y-19010874D01*
X88681347Y-18921155D01*
X88709394Y-18879179D01*
X88769737Y-18733497D01*
X88800500Y-18578842D01*
X88800500Y-18421158D01*
X88800500Y-18421155D01*
X88800499Y-18421153D01*
X88787334Y-18354970D01*
X88769737Y-18266503D01*
X88756062Y-18233489D01*
X88709397Y-18120827D01*
X88709390Y-18120814D01*
X88621789Y-17989711D01*
X88621786Y-17989707D01*
X88510292Y-17878213D01*
X88510288Y-17878210D01*
X88379185Y-17790609D01*
X88379172Y-17790602D01*
X88233501Y-17730264D01*
X88233489Y-17730261D01*
X88078845Y-17699500D01*
X88078842Y-17699500D01*
X87921158Y-17699500D01*
X87921155Y-17699500D01*
X87766510Y-17730261D01*
X87766498Y-17730264D01*
X87620827Y-17790602D01*
X87620814Y-17790609D01*
X87489711Y-17878210D01*
X87489707Y-17878213D01*
X87378213Y-17989707D01*
X87378210Y-17989711D01*
X87290609Y-18120814D01*
X87290602Y-18120827D01*
X87230264Y-18266498D01*
X87230261Y-18266510D01*
X87199500Y-18421153D01*
X87199500Y-18578846D01*
X87230261Y-18733489D01*
X87230264Y-18733501D01*
X87290602Y-18879172D01*
X87290609Y-18879185D01*
X87378602Y-19010874D01*
X87399480Y-19077551D01*
X87399500Y-19079765D01*
X87399500Y-19699902D01*
X87379815Y-19766941D01*
X87363181Y-19787583D01*
X82243165Y-24907598D01*
X82243163Y-24907600D01*
X82235336Y-24921158D01*
X82202802Y-24977510D01*
X82194138Y-24992517D01*
X82164107Y-25044530D01*
X82162071Y-25052128D01*
X82123183Y-25197259D01*
X82123183Y-25197261D01*
X82123183Y-25365362D01*
X82123184Y-25365375D01*
X82123184Y-31472592D01*
X82111045Y-31521053D01*
X82112814Y-31521786D01*
X82050141Y-31673091D01*
X82050138Y-31673103D01*
X82019377Y-31827746D01*
X82019377Y-31985439D01*
X82050138Y-32140082D01*
X82050141Y-32140094D01*
X82110479Y-32285765D01*
X82110486Y-32285778D01*
X82198087Y-32416881D01*
X82198090Y-32416885D01*
X82309584Y-32528379D01*
X82309588Y-32528382D01*
X82440691Y-32615983D01*
X82440704Y-32615990D01*
X82586375Y-32676328D01*
X82586380Y-32676330D01*
X82720996Y-32703107D01*
X82741030Y-32707092D01*
X82741033Y-32707093D01*
X82897794Y-32707093D01*
X82964833Y-32726778D01*
X83010588Y-32779582D01*
X83019411Y-32806902D01*
X83029526Y-32857754D01*
X83029529Y-32857766D01*
X83089867Y-33003437D01*
X83089874Y-33003450D01*
X83177475Y-33134553D01*
X83177478Y-33134557D01*
X83288972Y-33246051D01*
X83288976Y-33246054D01*
X83420079Y-33333655D01*
X83420092Y-33333662D01*
X83565763Y-33394000D01*
X83565768Y-33394002D01*
X83688535Y-33418422D01*
X83720418Y-33424764D01*
X83720421Y-33424765D01*
X83870790Y-33424765D01*
X83937829Y-33444450D01*
X83983584Y-33497254D01*
X83993528Y-33566412D01*
X83985351Y-33596217D01*
X83935529Y-33716498D01*
X83935526Y-33716510D01*
X83908836Y-33850691D01*
X83876451Y-33912602D01*
X83815736Y-33947176D01*
X83787219Y-33950500D01*
X82351098Y-33950500D01*
X82284059Y-33930815D01*
X82263417Y-33914181D01*
X80334573Y-31985337D01*
X80301088Y-31924014D01*
X80300637Y-31921847D01*
X80276945Y-31802741D01*
X80269737Y-31766503D01*
X80266039Y-31757576D01*
X80209397Y-31620827D01*
X80209390Y-31620814D01*
X80121789Y-31489711D01*
X80121786Y-31489707D01*
X80078337Y-31446258D01*
X80044852Y-31384935D01*
X80049836Y-31315243D01*
X80078335Y-31270898D01*
X81358506Y-29990728D01*
X81358511Y-29990724D01*
X81368714Y-29980520D01*
X81368716Y-29980520D01*
X81480520Y-29868716D01*
X81553935Y-29741557D01*
X81553936Y-29741554D01*
X81553938Y-29741553D01*
X81559575Y-29731788D01*
X81559577Y-29731785D01*
X81600500Y-29579057D01*
X81600500Y-29420943D01*
X81600500Y-23270387D01*
X81620185Y-23203348D01*
X81662500Y-23162999D01*
X81718659Y-23130577D01*
X81830463Y-23018773D01*
X81830463Y-23018771D01*
X81840667Y-23008568D01*
X81840670Y-23008563D01*
X86014664Y-18834571D01*
X86075985Y-18801088D01*
X86078152Y-18800637D01*
X86078841Y-18800500D01*
X86078842Y-18800500D01*
X86233497Y-18769737D01*
X86379179Y-18709394D01*
X86510289Y-18621789D01*
X86621789Y-18510289D01*
X86709394Y-18379179D01*
X86769737Y-18233497D01*
X86800500Y-18078842D01*
X86800500Y-17921158D01*
X86800500Y-17921155D01*
X86800499Y-17921153D01*
X86774531Y-17790606D01*
X86769737Y-17766503D01*
X86769735Y-17766498D01*
X86709397Y-17620827D01*
X86709390Y-17620814D01*
X86621789Y-17489711D01*
X86621786Y-17489707D01*
X86510292Y-17378213D01*
X86510288Y-17378210D01*
X86379185Y-17290609D01*
X86379172Y-17290602D01*
X86233501Y-17230264D01*
X86233489Y-17230261D01*
X86078845Y-17199500D01*
X86078842Y-17199500D01*
X85921158Y-17199500D01*
X85921155Y-17199500D01*
X85766510Y-17230261D01*
X85766498Y-17230264D01*
X85620827Y-17290602D01*
X85620814Y-17290609D01*
X85489711Y-17378210D01*
X85489707Y-17378213D01*
X85378213Y-17489707D01*
X85378210Y-17489711D01*
X85290609Y-17620814D01*
X85290602Y-17620827D01*
X85230264Y-17766498D01*
X85230261Y-17766508D01*
X85199362Y-17921848D01*
X85166977Y-17983759D01*
X85165426Y-17985337D01*
X81137527Y-22013238D01*
X81076204Y-22046723D01*
X81049846Y-22049557D01*
X80920943Y-22049557D01*
X80768216Y-22090480D01*
X80768209Y-22090483D01*
X80631290Y-22169532D01*
X80631282Y-22169538D01*
X80519481Y-22281339D01*
X80519475Y-22281347D01*
X80440426Y-22418266D01*
X80440423Y-22418273D01*
X80399500Y-22571000D01*
X80399500Y-29199902D01*
X80379815Y-29266941D01*
X80363181Y-29287583D01*
X79071615Y-30579148D01*
X79010292Y-30612633D01*
X78940600Y-30607649D01*
X78915043Y-30594569D01*
X78879185Y-30570609D01*
X78879172Y-30570602D01*
X78733501Y-30510264D01*
X78733489Y-30510261D01*
X78578845Y-30479500D01*
X78578842Y-30479500D01*
X78421158Y-30479500D01*
X78421155Y-30479500D01*
X78266510Y-30510261D01*
X78266498Y-30510264D01*
X78120827Y-30570602D01*
X78120814Y-30570609D01*
X77989711Y-30658210D01*
X77989707Y-30658213D01*
X77878213Y-30769707D01*
X77878210Y-30769711D01*
X77790609Y-30900814D01*
X77790602Y-30900827D01*
X77730264Y-31046498D01*
X77730261Y-31046510D01*
X77699500Y-31201153D01*
X57464719Y-31201153D01*
X57468756Y-31175668D01*
X57475000Y-31136245D01*
X57475000Y-30923753D01*
X57441757Y-30713872D01*
X57441757Y-30713869D01*
X57376095Y-30511782D01*
X57279624Y-30322449D01*
X57240270Y-30268282D01*
X57240269Y-30268282D01*
X56607962Y-30900590D01*
X56590925Y-30837007D01*
X56525099Y-30722993D01*
X56432007Y-30629901D01*
X56317993Y-30564075D01*
X56254409Y-30547037D01*
X56886716Y-29914728D01*
X56832547Y-29875373D01*
X56832547Y-29875372D01*
X56823500Y-29870763D01*
X56772706Y-29822788D01*
X56755912Y-29754966D01*
X56778451Y-29688832D01*
X56823508Y-29649793D01*
X56832816Y-29645051D01*
X56923652Y-29579055D01*
X57004786Y-29520109D01*
X57004788Y-29520106D01*
X57004792Y-29520104D01*
X57155104Y-29369792D01*
X57155106Y-29369788D01*
X57155109Y-29369786D01*
X57280048Y-29197820D01*
X57280047Y-29197820D01*
X57280051Y-29197816D01*
X57376557Y-29008412D01*
X57442246Y-28806243D01*
X57475500Y-28596287D01*
X57475500Y-28383713D01*
X57442246Y-28173757D01*
X57376557Y-27971588D01*
X57280051Y-27782184D01*
X57280049Y-27782181D01*
X57280048Y-27782179D01*
X57155109Y-27610213D01*
X57041569Y-27496673D01*
X57008084Y-27435350D01*
X57013068Y-27365658D01*
X57054940Y-27309725D01*
X57085915Y-27292810D01*
X57217331Y-27243796D01*
X57332546Y-27157546D01*
X57418796Y-27042331D01*
X57469091Y-26907483D01*
X57475500Y-26847873D01*
X57475499Y-25932405D01*
X57475499Y-25052129D01*
X57475498Y-25052123D01*
X57469091Y-24992516D01*
X57418797Y-24857671D01*
X57418793Y-24857664D01*
X57332547Y-24742455D01*
X57332544Y-24742452D01*
X57217335Y-24656206D01*
X57217328Y-24656202D01*
X57082482Y-24605908D01*
X57082483Y-24605908D01*
X57022883Y-24599501D01*
X57022881Y-24599500D01*
X57022873Y-24599500D01*
X57022865Y-24599500D01*
X56424500Y-24599500D01*
X56357461Y-24579815D01*
X56311706Y-24527011D01*
X56300500Y-24475500D01*
X56300500Y-24421155D01*
X56300499Y-24421153D01*
X56291483Y-24375826D01*
X56269737Y-24266503D01*
X56256062Y-24233489D01*
X56209397Y-24120827D01*
X56209390Y-24120814D01*
X56121789Y-23989711D01*
X56121786Y-23989707D01*
X56010292Y-23878213D01*
X56010288Y-23878210D01*
X55879185Y-23790609D01*
X55879172Y-23790602D01*
X55733501Y-23730264D01*
X55733489Y-23730261D01*
X55578845Y-23699500D01*
X55578842Y-23699500D01*
X55421158Y-23699500D01*
X55421155Y-23699500D01*
X55266510Y-23730261D01*
X55266498Y-23730264D01*
X55120827Y-23790602D01*
X55120814Y-23790609D01*
X54989711Y-23878210D01*
X54989707Y-23878213D01*
X54878213Y-23989707D01*
X54878207Y-23989715D01*
X54790607Y-24120818D01*
X54790604Y-24120823D01*
X54780806Y-24144477D01*
X54776176Y-24151405D01*
X54775081Y-24156443D01*
X54753931Y-24184698D01*
X54725453Y-24213178D01*
X54664131Y-24246665D01*
X54637769Y-24249500D01*
X51669414Y-24249500D01*
X51602375Y-24229815D01*
X51556620Y-24177011D01*
X51546676Y-24107853D01*
X51575701Y-24044297D01*
X51600523Y-24022398D01*
X51628120Y-24003958D01*
X51739617Y-23892461D01*
X51739620Y-23892458D01*
X51827225Y-23761348D01*
X51827663Y-23760292D01*
X51859316Y-23683872D01*
X51887568Y-23615666D01*
X51918331Y-23461011D01*
X51918331Y-23303327D01*
X51918331Y-23303324D01*
X51918330Y-23303322D01*
X51911779Y-23270387D01*
X51887568Y-23148672D01*
X51854774Y-23069500D01*
X51827228Y-23002996D01*
X51827221Y-23002983D01*
X51739620Y-22871880D01*
X51739617Y-22871876D01*
X51628123Y-22760382D01*
X51628119Y-22760379D01*
X51497016Y-22672778D01*
X51497003Y-22672771D01*
X51351332Y-22612433D01*
X51351320Y-22612430D01*
X51196676Y-22581669D01*
X51196673Y-22581669D01*
X51038989Y-22581669D01*
X51038986Y-22581669D01*
X50884341Y-22612430D01*
X50884329Y-22612433D01*
X50738658Y-22672771D01*
X50738646Y-22672778D01*
X50655101Y-22728602D01*
X50588424Y-22749480D01*
X50586210Y-22749500D01*
X48804604Y-22749500D01*
X48757155Y-22740062D01*
X48733497Y-22730263D01*
X48733493Y-22730262D01*
X48733488Y-22730260D01*
X48578845Y-22699500D01*
X48578842Y-22699500D01*
X48421158Y-22699500D01*
X48421155Y-22699500D01*
X48266510Y-22730261D01*
X48266498Y-22730264D01*
X48120827Y-22790602D01*
X48120814Y-22790609D01*
X47989711Y-22878210D01*
X47989707Y-22878213D01*
X47878213Y-22989707D01*
X47878210Y-22989711D01*
X47790609Y-23120814D01*
X47790602Y-23120827D01*
X47730264Y-23266498D01*
X47730261Y-23266510D01*
X47699500Y-23421153D01*
X500500Y-23421153D01*
X500500Y-18022135D01*
X74649500Y-18022135D01*
X74649500Y-19817870D01*
X74649501Y-19817876D01*
X74655908Y-19877483D01*
X74706202Y-20012328D01*
X74706206Y-20012335D01*
X74792452Y-20127544D01*
X74792455Y-20127547D01*
X74907664Y-20213793D01*
X74907671Y-20213797D01*
X75039082Y-20262810D01*
X75095016Y-20304681D01*
X75119433Y-20370145D01*
X75104582Y-20438418D01*
X75083431Y-20466673D01*
X74969889Y-20580215D01*
X74844951Y-20752179D01*
X74748444Y-20941585D01*
X74682753Y-21143760D01*
X74662800Y-21269738D01*
X74649500Y-21353713D01*
X74649500Y-21566287D01*
X74682754Y-21776243D01*
X74735766Y-21939397D01*
X74748444Y-21978414D01*
X74844951Y-22167820D01*
X74969890Y-22339786D01*
X75120213Y-22490109D01*
X75292179Y-22615048D01*
X75292181Y-22615049D01*
X75292184Y-22615051D01*
X75301493Y-22619794D01*
X75352290Y-22667766D01*
X75369087Y-22735587D01*
X75346552Y-22801722D01*
X75301505Y-22840760D01*
X75292446Y-22845376D01*
X75292440Y-22845380D01*
X75238282Y-22884727D01*
X75238282Y-22884728D01*
X75870591Y-23517037D01*
X75807007Y-23534075D01*
X75692993Y-23599901D01*
X75599901Y-23692993D01*
X75534075Y-23807007D01*
X75517037Y-23870591D01*
X74884728Y-23238282D01*
X74884727Y-23238282D01*
X74845380Y-23292439D01*
X74748904Y-23481782D01*
X74683242Y-23683869D01*
X74683242Y-23683872D01*
X74650000Y-23893753D01*
X74650000Y-24106246D01*
X74683242Y-24316127D01*
X74683242Y-24316130D01*
X74748904Y-24518217D01*
X74845375Y-24707550D01*
X74884728Y-24761716D01*
X75517037Y-24129408D01*
X75534075Y-24192993D01*
X75599901Y-24307007D01*
X75692993Y-24400099D01*
X75807007Y-24465925D01*
X75870590Y-24482962D01*
X75238282Y-25115269D01*
X75238282Y-25115270D01*
X75292452Y-25154626D01*
X75292451Y-25154626D01*
X75301495Y-25159234D01*
X75352292Y-25207208D01*
X75369087Y-25275029D01*
X75346550Y-25341164D01*
X75301499Y-25380202D01*
X75292182Y-25384949D01*
X75120213Y-25509890D01*
X74969890Y-25660213D01*
X74844951Y-25832179D01*
X74748444Y-26021585D01*
X74682753Y-26223760D01*
X74649500Y-26433713D01*
X74649500Y-26646286D01*
X74681428Y-26847876D01*
X74682754Y-26856243D01*
X74743219Y-27042335D01*
X74748444Y-27058414D01*
X74844951Y-27247820D01*
X74969890Y-27419786D01*
X75120213Y-27570109D01*
X75292182Y-27695050D01*
X75300946Y-27699516D01*
X75351742Y-27747491D01*
X75368536Y-27815312D01*
X75345998Y-27881447D01*
X75300946Y-27920484D01*
X75292182Y-27924949D01*
X75120213Y-28049890D01*
X74969890Y-28200213D01*
X74844951Y-28372179D01*
X74748444Y-28561585D01*
X74682753Y-28763760D01*
X74661790Y-28896116D01*
X74649500Y-28973713D01*
X74649500Y-29186287D01*
X74652941Y-29208011D01*
X74678564Y-29369792D01*
X74682754Y-29396243D01*
X74742153Y-29579055D01*
X74748444Y-29598414D01*
X74844951Y-29787820D01*
X74969890Y-29959786D01*
X75120213Y-30110109D01*
X75292179Y-30235048D01*
X75292181Y-30235049D01*
X75292184Y-30235051D01*
X75481588Y-30331557D01*
X75683757Y-30397246D01*
X75893713Y-30430500D01*
X75893714Y-30430500D01*
X76106286Y-30430500D01*
X76106287Y-30430500D01*
X76316243Y-30397246D01*
X76518412Y-30331557D01*
X76707816Y-30235051D01*
X76777510Y-30184416D01*
X76879786Y-30110109D01*
X76879788Y-30110106D01*
X76879792Y-30110104D01*
X77030104Y-29959792D01*
X77030106Y-29959788D01*
X77030109Y-29959786D01*
X77155048Y-29787820D01*
X77155047Y-29787820D01*
X77155051Y-29787816D01*
X77251557Y-29598412D01*
X77317246Y-29396243D01*
X77350500Y-29186287D01*
X77350500Y-28973713D01*
X77317246Y-28763757D01*
X77251557Y-28561588D01*
X77155051Y-28372184D01*
X77155049Y-28372181D01*
X77155048Y-28372179D01*
X77030109Y-28200213D01*
X76879786Y-28049890D01*
X76707820Y-27924951D01*
X76707115Y-27924591D01*
X76699054Y-27920485D01*
X76648259Y-27872512D01*
X76631463Y-27804692D01*
X76653999Y-27738556D01*
X76699054Y-27699515D01*
X76707816Y-27695051D01*
X76729789Y-27679086D01*
X76879786Y-27570109D01*
X76879788Y-27570106D01*
X76879792Y-27570104D01*
X77030104Y-27419792D01*
X77030106Y-27419788D01*
X77030109Y-27419786D01*
X77155048Y-27247820D01*
X77155047Y-27247820D01*
X77155051Y-27247816D01*
X77251557Y-27058412D01*
X77317246Y-26856243D01*
X77350500Y-26646287D01*
X77350500Y-26433713D01*
X77317246Y-26223757D01*
X77251557Y-26021588D01*
X77155051Y-25832184D01*
X77155049Y-25832181D01*
X77155048Y-25832179D01*
X77030109Y-25660213D01*
X76879786Y-25509890D01*
X76707817Y-25384949D01*
X76698504Y-25380204D01*
X76647707Y-25332230D01*
X76630912Y-25264409D01*
X76653449Y-25198274D01*
X76698507Y-25159232D01*
X76707555Y-25154622D01*
X76761716Y-25115270D01*
X76761717Y-25115270D01*
X76129408Y-24482962D01*
X76192993Y-24465925D01*
X76307007Y-24400099D01*
X76400099Y-24307007D01*
X76465925Y-24192993D01*
X76482962Y-24129408D01*
X77115270Y-24761717D01*
X77115270Y-24761716D01*
X77154622Y-24707554D01*
X77251095Y-24518217D01*
X77316757Y-24316130D01*
X77316757Y-24316127D01*
X77350000Y-24106246D01*
X77350000Y-23893753D01*
X77316757Y-23683872D01*
X77316757Y-23683869D01*
X77251095Y-23481782D01*
X77154624Y-23292449D01*
X77115270Y-23238282D01*
X77115269Y-23238282D01*
X76482962Y-23870590D01*
X76465925Y-23807007D01*
X76400099Y-23692993D01*
X76307007Y-23599901D01*
X76192993Y-23534075D01*
X76129409Y-23517037D01*
X76761716Y-22884728D01*
X76707547Y-22845373D01*
X76707547Y-22845372D01*
X76698500Y-22840763D01*
X76647706Y-22792788D01*
X76630912Y-22724966D01*
X76653451Y-22658832D01*
X76698508Y-22619793D01*
X76707816Y-22615051D01*
X76787007Y-22557515D01*
X76879786Y-22490109D01*
X76879788Y-22490106D01*
X76879792Y-22490104D01*
X77030104Y-22339792D01*
X77030106Y-22339788D01*
X77030109Y-22339786D01*
X77155048Y-22167820D01*
X77155047Y-22167820D01*
X77155051Y-22167816D01*
X77251557Y-21978412D01*
X77317246Y-21776243D01*
X77350500Y-21566287D01*
X77350500Y-21353713D01*
X77317246Y-21143757D01*
X77251557Y-20941588D01*
X77155051Y-20752184D01*
X77155049Y-20752181D01*
X77155048Y-20752179D01*
X77030109Y-20580213D01*
X76916569Y-20466673D01*
X76883084Y-20405350D01*
X76888068Y-20335658D01*
X76929940Y-20279725D01*
X76960915Y-20262810D01*
X77092331Y-20213796D01*
X77207546Y-20127546D01*
X77293796Y-20012331D01*
X77344091Y-19877483D01*
X77350500Y-19817873D01*
X77350499Y-18022128D01*
X77344091Y-17962517D01*
X77328922Y-17921848D01*
X77293797Y-17827671D01*
X77293793Y-17827664D01*
X77207547Y-17712455D01*
X77207544Y-17712452D01*
X77092335Y-17626206D01*
X77092328Y-17626202D01*
X76957482Y-17575908D01*
X76957483Y-17575908D01*
X76897883Y-17569501D01*
X76897881Y-17569500D01*
X76897873Y-17569500D01*
X76897864Y-17569500D01*
X75102129Y-17569500D01*
X75102123Y-17569501D01*
X75042516Y-17575908D01*
X74907671Y-17626202D01*
X74907664Y-17626206D01*
X74792455Y-17712452D01*
X74792452Y-17712455D01*
X74706206Y-17827664D01*
X74706202Y-17827671D01*
X74655908Y-17962517D01*
X74652985Y-17989711D01*
X74649501Y-18022123D01*
X74649500Y-18022135D01*
X500500Y-18022135D01*
X500500Y-13421153D01*
X50199500Y-13421153D01*
X50199500Y-13578846D01*
X50230261Y-13733489D01*
X50230264Y-13733501D01*
X50290602Y-13879172D01*
X50290609Y-13879185D01*
X50378210Y-14010288D01*
X50378213Y-14010292D01*
X50489707Y-14121786D01*
X50489711Y-14121789D01*
X50620814Y-14209390D01*
X50620827Y-14209397D01*
X50737812Y-14257853D01*
X50766503Y-14269737D01*
X50831147Y-14282595D01*
X50921849Y-14300638D01*
X50983760Y-14333023D01*
X50985339Y-14334574D01*
X52863181Y-16212416D01*
X52877884Y-16239343D01*
X52894477Y-16265162D01*
X52895368Y-16271362D01*
X52896666Y-16273739D01*
X52899500Y-16300097D01*
X52899500Y-16420234D01*
X52879815Y-16487273D01*
X52878602Y-16489125D01*
X52790609Y-16620814D01*
X52790602Y-16620827D01*
X52730264Y-16766498D01*
X52730261Y-16766510D01*
X52699500Y-16921153D01*
X52699500Y-17078846D01*
X52730261Y-17233489D01*
X52730264Y-17233501D01*
X52790602Y-17379172D01*
X52790609Y-17379185D01*
X52878210Y-17510288D01*
X52878213Y-17510292D01*
X52989707Y-17621786D01*
X52989711Y-17621789D01*
X53120814Y-17709390D01*
X53120827Y-17709397D01*
X53258683Y-17766498D01*
X53266503Y-17769737D01*
X53421153Y-17800499D01*
X53421156Y-17800500D01*
X53421158Y-17800500D01*
X53578844Y-17800500D01*
X53578845Y-17800499D01*
X53733497Y-17769737D01*
X53871789Y-17712455D01*
X53879172Y-17709397D01*
X53879172Y-17709396D01*
X53879179Y-17709394D01*
X54010289Y-17621789D01*
X54121789Y-17510289D01*
X54209394Y-17379179D01*
X54269737Y-17233497D01*
X54300500Y-17078842D01*
X54300500Y-16921158D01*
X54300500Y-16921155D01*
X54300499Y-16921153D01*
X54269738Y-16766510D01*
X54269737Y-16766503D01*
X54269735Y-16766498D01*
X54209397Y-16620827D01*
X54209390Y-16620814D01*
X54121398Y-16489125D01*
X54100520Y-16422447D01*
X54100500Y-16420234D01*
X54100500Y-16089059D01*
X54100501Y-16089046D01*
X54100501Y-15920945D01*
X54100501Y-15920943D01*
X54059577Y-15768215D01*
X54030639Y-15718095D01*
X53980520Y-15631284D01*
X53868716Y-15519480D01*
X53868715Y-15519479D01*
X53864385Y-15515149D01*
X53864374Y-15515139D01*
X51834574Y-13485339D01*
X51801089Y-13424016D01*
X51800638Y-13421849D01*
X51790554Y-13371153D01*
X75324500Y-13371153D01*
X75324500Y-13528846D01*
X75355261Y-13683489D01*
X75355264Y-13683501D01*
X75415602Y-13829172D01*
X75415609Y-13829185D01*
X75503210Y-13960288D01*
X75503213Y-13960292D01*
X75614707Y-14071786D01*
X75614711Y-14071789D01*
X75745814Y-14159390D01*
X75745827Y-14159397D01*
X75891498Y-14219735D01*
X75891503Y-14219737D01*
X75926579Y-14226714D01*
X76046849Y-14250638D01*
X76108760Y-14283023D01*
X76110339Y-14284574D01*
X77290425Y-15464660D01*
X77323910Y-15525983D01*
X77324361Y-15528149D01*
X77355261Y-15683491D01*
X77355264Y-15683501D01*
X77415602Y-15829172D01*
X77415609Y-15829185D01*
X77503210Y-15960288D01*
X77503213Y-15960292D01*
X77614707Y-16071786D01*
X77614711Y-16071789D01*
X77745814Y-16159390D01*
X77745827Y-16159397D01*
X77873828Y-16212416D01*
X77891503Y-16219737D01*
X78037285Y-16248735D01*
X78046153Y-16250499D01*
X78046156Y-16250500D01*
X78046158Y-16250500D01*
X78203844Y-16250500D01*
X78203845Y-16250499D01*
X78358497Y-16219737D01*
X78504179Y-16159394D01*
X78635289Y-16071789D01*
X78746789Y-15960289D01*
X78834394Y-15829179D01*
X78894737Y-15683497D01*
X78925500Y-15528842D01*
X78925500Y-15371158D01*
X78925500Y-15371155D01*
X78925499Y-15371153D01*
X78905326Y-15269737D01*
X78894737Y-15216503D01*
X78879218Y-15179036D01*
X78834397Y-15070827D01*
X78834390Y-15070814D01*
X78746789Y-14939711D01*
X78746786Y-14939707D01*
X78635292Y-14828213D01*
X78635288Y-14828210D01*
X78504185Y-14740609D01*
X78504172Y-14740602D01*
X78358501Y-14680264D01*
X78358491Y-14680261D01*
X78203149Y-14649361D01*
X78186392Y-14640595D01*
X78167914Y-14636576D01*
X78142877Y-14617833D01*
X78141238Y-14616976D01*
X78139660Y-14615425D01*
X77945388Y-14421153D01*
X89199500Y-14421153D01*
X89199500Y-14578846D01*
X89230261Y-14733489D01*
X89230264Y-14733501D01*
X89290602Y-14879172D01*
X89290609Y-14879185D01*
X89378210Y-15010288D01*
X89378213Y-15010292D01*
X89489707Y-15121786D01*
X89489711Y-15121789D01*
X89620814Y-15209390D01*
X89620827Y-15209397D01*
X89736721Y-15257401D01*
X89766503Y-15269737D01*
X89921153Y-15300499D01*
X89921156Y-15300500D01*
X89921158Y-15300500D01*
X90078844Y-15300500D01*
X90078845Y-15300499D01*
X90233497Y-15269737D01*
X90376782Y-15210387D01*
X90379172Y-15209397D01*
X90379172Y-15209396D01*
X90379179Y-15209394D01*
X90510289Y-15121789D01*
X90621789Y-15010289D01*
X90709394Y-14879179D01*
X90764190Y-14746888D01*
X93025235Y-14746888D01*
X93025235Y-14904581D01*
X93055996Y-15059224D01*
X93055999Y-15059236D01*
X93116337Y-15204907D01*
X93116344Y-15204920D01*
X93203945Y-15336023D01*
X93203948Y-15336027D01*
X93315442Y-15447521D01*
X93315446Y-15447524D01*
X93446549Y-15535125D01*
X93446562Y-15535132D01*
X93552089Y-15578842D01*
X93592238Y-15595472D01*
X93746893Y-15626235D01*
X93747582Y-15626372D01*
X93809493Y-15658757D01*
X93811072Y-15660308D01*
X94131284Y-15980520D01*
X94131286Y-15980521D01*
X94131290Y-15980524D01*
X94268209Y-16059573D01*
X94268216Y-16059577D01*
X94420943Y-16100501D01*
X94420945Y-16100501D01*
X94429002Y-16101562D01*
X94428810Y-16103018D01*
X94487275Y-16120186D01*
X94489127Y-16121399D01*
X94620814Y-16209390D01*
X94620827Y-16209397D01*
X94720060Y-16250500D01*
X94766503Y-16269737D01*
X94919132Y-16300097D01*
X94921153Y-16300499D01*
X94921156Y-16300500D01*
X94921158Y-16300500D01*
X95078844Y-16300500D01*
X95078845Y-16300499D01*
X95233497Y-16269737D01*
X95379179Y-16209394D01*
X95510289Y-16121789D01*
X95621789Y-16010289D01*
X95709394Y-15879179D01*
X95769737Y-15733497D01*
X95800500Y-15578842D01*
X95800500Y-15421158D01*
X95800500Y-15421155D01*
X95800499Y-15421153D01*
X95790553Y-15371153D01*
X95769737Y-15266503D01*
X95760363Y-15243872D01*
X95709397Y-15120827D01*
X95709390Y-15120814D01*
X95621789Y-14989711D01*
X95621786Y-14989707D01*
X95510292Y-14878213D01*
X95510288Y-14878210D01*
X95379185Y-14790609D01*
X95379172Y-14790602D01*
X95233501Y-14730264D01*
X95233489Y-14730261D01*
X95078845Y-14699500D01*
X95078842Y-14699500D01*
X94921158Y-14699500D01*
X94921155Y-14699500D01*
X94766504Y-14730262D01*
X94762011Y-14731625D01*
X94692144Y-14732244D01*
X94633033Y-14694992D01*
X94604406Y-14637155D01*
X94595472Y-14592238D01*
X94589923Y-14578842D01*
X94535132Y-14446562D01*
X94535125Y-14446549D01*
X94447524Y-14315446D01*
X94447521Y-14315442D01*
X94336027Y-14203948D01*
X94336023Y-14203945D01*
X94204920Y-14116344D01*
X94204907Y-14116337D01*
X94059236Y-14055999D01*
X94059224Y-14055996D01*
X93904580Y-14025235D01*
X93904577Y-14025235D01*
X93746893Y-14025235D01*
X93746890Y-14025235D01*
X93592245Y-14055996D01*
X93592233Y-14055999D01*
X93446562Y-14116337D01*
X93446549Y-14116344D01*
X93315446Y-14203945D01*
X93315442Y-14203948D01*
X93203948Y-14315442D01*
X93203945Y-14315446D01*
X93116344Y-14446549D01*
X93116337Y-14446562D01*
X93055999Y-14592233D01*
X93055996Y-14592245D01*
X93025235Y-14746888D01*
X90764190Y-14746888D01*
X90769737Y-14733497D01*
X90800500Y-14578842D01*
X90800500Y-14421158D01*
X90800500Y-14421155D01*
X90800499Y-14421153D01*
X90792276Y-14379815D01*
X90769737Y-14266503D01*
X90763166Y-14250638D01*
X90709397Y-14120827D01*
X90709390Y-14120814D01*
X90621398Y-13989125D01*
X90615747Y-13971078D01*
X90605523Y-13955169D01*
X90601071Y-13924207D01*
X90600520Y-13922447D01*
X90600500Y-13920234D01*
X90600500Y-13897955D01*
X90620185Y-13830916D01*
X90672989Y-13785161D01*
X90700303Y-13776339D01*
X90733497Y-13769737D01*
X90879179Y-13709394D01*
X91010289Y-13621789D01*
X91121789Y-13510289D01*
X91181348Y-13421153D01*
X97199500Y-13421153D01*
X97199500Y-13578846D01*
X97230261Y-13733489D01*
X97230264Y-13733501D01*
X97290602Y-13879172D01*
X97290609Y-13879185D01*
X97378210Y-14010288D01*
X97378213Y-14010292D01*
X97489707Y-14121786D01*
X97489711Y-14121789D01*
X97620814Y-14209390D01*
X97620827Y-14209397D01*
X97737812Y-14257853D01*
X97766503Y-14269737D01*
X97824767Y-14281326D01*
X97927132Y-14301689D01*
X97926756Y-14303574D01*
X97983279Y-14326393D01*
X98023642Y-14383424D01*
X98026764Y-14453224D01*
X98020907Y-14471092D01*
X98017536Y-14479230D01*
X98017534Y-14479237D01*
X97986773Y-14633880D01*
X97986773Y-14791573D01*
X98017534Y-14946216D01*
X98017537Y-14946228D01*
X98077875Y-15091899D01*
X98077882Y-15091912D01*
X98165483Y-15223015D01*
X98165486Y-15223019D01*
X98276980Y-15334513D01*
X98276984Y-15334516D01*
X98408087Y-15422117D01*
X98408100Y-15422124D01*
X98553771Y-15482462D01*
X98553776Y-15482464D01*
X98708426Y-15513226D01*
X98708429Y-15513227D01*
X98708431Y-15513227D01*
X98729254Y-15513227D01*
X98791254Y-15529839D01*
X98842760Y-15559577D01*
X98995487Y-15600501D01*
X98995489Y-15600501D01*
X99161198Y-15600501D01*
X99161214Y-15600500D01*
X103348629Y-15600500D01*
X103348645Y-15600501D01*
X103356241Y-15600501D01*
X103514352Y-15600501D01*
X103514355Y-15600501D01*
X103667083Y-15559577D01*
X103720317Y-15528842D01*
X103804014Y-15480520D01*
X103915818Y-15368716D01*
X103915819Y-15368714D01*
X104040662Y-15243870D01*
X104101983Y-15210387D01*
X104104150Y-15209936D01*
X104162085Y-15198411D01*
X104259497Y-15179035D01*
X104397702Y-15121789D01*
X104405172Y-15118695D01*
X104405172Y-15118694D01*
X104405179Y-15118692D01*
X104536289Y-15031087D01*
X104647789Y-14919587D01*
X104735394Y-14788477D01*
X104795737Y-14642795D01*
X104826500Y-14488140D01*
X104826500Y-14330456D01*
X104826500Y-14330453D01*
X104826499Y-14330451D01*
X104826161Y-14328754D01*
X118699500Y-14328754D01*
X118699500Y-14571245D01*
X118737432Y-14810736D01*
X118812360Y-15041344D01*
X118838123Y-15091906D01*
X118915554Y-15243872D01*
X118922448Y-15257401D01*
X119064966Y-15453562D01*
X119064970Y-15453567D01*
X119236432Y-15625029D01*
X119236437Y-15625033D01*
X119364523Y-15718092D01*
X119432602Y-15767554D01*
X119648653Y-15877638D01*
X119648655Y-15877639D01*
X119763959Y-15915103D01*
X119879265Y-15952568D01*
X119990186Y-15970136D01*
X120118755Y-15990500D01*
X120118760Y-15990500D01*
X121881245Y-15990500D01*
X121997347Y-15972110D01*
X122120735Y-15952568D01*
X122351347Y-15877638D01*
X122567398Y-15767554D01*
X122763569Y-15625028D01*
X122935028Y-15453569D01*
X123077554Y-15257398D01*
X123187638Y-15041347D01*
X123262568Y-14810735D01*
X123288127Y-14649361D01*
X123300500Y-14571245D01*
X123300500Y-14328754D01*
X123273675Y-14159394D01*
X123262568Y-14089265D01*
X123207647Y-13920234D01*
X123187639Y-13858655D01*
X123172620Y-13829179D01*
X123077554Y-13642602D01*
X123041307Y-13592712D01*
X122935033Y-13446437D01*
X122935029Y-13446432D01*
X122763567Y-13274970D01*
X122763562Y-13274966D01*
X122567401Y-13132448D01*
X122567400Y-13132447D01*
X122567398Y-13132446D01*
X122459372Y-13077404D01*
X122351344Y-13022360D01*
X122120736Y-12947432D01*
X121881245Y-12909500D01*
X121881240Y-12909500D01*
X120118760Y-12909500D01*
X120118755Y-12909500D01*
X119879263Y-12947432D01*
X119648655Y-13022360D01*
X119432598Y-13132448D01*
X119236437Y-13274966D01*
X119236432Y-13274970D01*
X119064970Y-13446432D01*
X119064966Y-13446437D01*
X118922448Y-13642598D01*
X118812360Y-13858655D01*
X118737432Y-14089263D01*
X118699500Y-14328754D01*
X104826161Y-14328754D01*
X104823514Y-14315446D01*
X104795737Y-14175801D01*
X104795735Y-14175796D01*
X104735397Y-14030125D01*
X104735390Y-14030112D01*
X104647789Y-13899009D01*
X104647786Y-13899005D01*
X104536292Y-13787511D01*
X104536288Y-13787508D01*
X104405185Y-13699907D01*
X104405172Y-13699900D01*
X104259501Y-13639562D01*
X104259489Y-13639559D01*
X104104845Y-13608798D01*
X104104842Y-13608798D01*
X103947158Y-13608798D01*
X103947155Y-13608798D01*
X103792510Y-13639559D01*
X103792498Y-13639562D01*
X103646827Y-13699900D01*
X103646814Y-13699907D01*
X103515711Y-13787508D01*
X103515707Y-13787511D01*
X103404213Y-13899005D01*
X103404210Y-13899009D01*
X103316609Y-14030112D01*
X103316602Y-14030125D01*
X103256264Y-14175796D01*
X103256261Y-14175808D01*
X103231619Y-14299691D01*
X103199234Y-14361602D01*
X103138518Y-14396176D01*
X103110002Y-14399500D01*
X102781912Y-14399500D01*
X102714873Y-14379815D01*
X102669118Y-14327011D01*
X102659174Y-14257853D01*
X102688199Y-14194297D01*
X102713021Y-14172398D01*
X102768161Y-14135554D01*
X102788762Y-14121789D01*
X102900262Y-14010289D01*
X102987867Y-13879179D01*
X103048210Y-13733497D01*
X103078973Y-13578842D01*
X103078973Y-13421158D01*
X103078973Y-13421155D01*
X103078972Y-13421153D01*
X103054972Y-13300499D01*
X103048210Y-13266503D01*
X103045491Y-13259938D01*
X102987870Y-13120827D01*
X102987863Y-13120814D01*
X102900262Y-12989711D01*
X102900259Y-12989707D01*
X102788765Y-12878213D01*
X102788761Y-12878210D01*
X102657658Y-12790609D01*
X102657645Y-12790602D01*
X102511974Y-12730264D01*
X102511962Y-12730261D01*
X102357318Y-12699500D01*
X102357315Y-12699500D01*
X102199631Y-12699500D01*
X102199628Y-12699500D01*
X102044983Y-12730261D01*
X102044971Y-12730264D01*
X101899300Y-12790602D01*
X101899287Y-12790609D01*
X101767598Y-12878602D01*
X101700920Y-12899480D01*
X101698707Y-12899500D01*
X98579766Y-12899500D01*
X98512727Y-12879815D01*
X98510875Y-12878602D01*
X98379185Y-12790609D01*
X98379172Y-12790602D01*
X98233501Y-12730264D01*
X98233489Y-12730261D01*
X98078845Y-12699500D01*
X98078842Y-12699500D01*
X97921158Y-12699500D01*
X97921155Y-12699500D01*
X97766510Y-12730261D01*
X97766498Y-12730264D01*
X97620827Y-12790602D01*
X97620814Y-12790609D01*
X97489711Y-12878210D01*
X97489707Y-12878213D01*
X97378213Y-12989707D01*
X97378210Y-12989711D01*
X97290609Y-13120814D01*
X97290602Y-13120827D01*
X97230264Y-13266498D01*
X97230261Y-13266510D01*
X97199500Y-13421153D01*
X91181348Y-13421153D01*
X91209394Y-13379179D01*
X91269737Y-13233497D01*
X91300500Y-13078842D01*
X91300500Y-12921158D01*
X91300500Y-12921155D01*
X91300499Y-12921153D01*
X91282012Y-12828213D01*
X91269737Y-12766503D01*
X91264731Y-12754417D01*
X91209397Y-12620827D01*
X91209390Y-12620814D01*
X91121789Y-12489711D01*
X91121786Y-12489707D01*
X91010292Y-12378213D01*
X91010288Y-12378210D01*
X90879185Y-12290609D01*
X90879172Y-12290602D01*
X90733501Y-12230264D01*
X90733489Y-12230261D01*
X90578845Y-12199500D01*
X90578842Y-12199500D01*
X90421158Y-12199500D01*
X90421155Y-12199500D01*
X90266510Y-12230261D01*
X90266498Y-12230264D01*
X90120827Y-12290602D01*
X90120814Y-12290609D01*
X89989711Y-12378210D01*
X89989707Y-12378213D01*
X89878213Y-12489707D01*
X89878210Y-12489711D01*
X89790609Y-12620814D01*
X89790602Y-12620827D01*
X89730264Y-12766498D01*
X89730261Y-12766508D01*
X89699362Y-12921847D01*
X89690597Y-12938602D01*
X89686578Y-12957081D01*
X89667834Y-12982118D01*
X89666977Y-12983758D01*
X89665427Y-12985335D01*
X89624224Y-13026538D01*
X89624212Y-13026552D01*
X89519478Y-13131286D01*
X89474385Y-13209392D01*
X89474384Y-13209393D01*
X89440423Y-13268214D01*
X89440423Y-13268215D01*
X89399499Y-13420943D01*
X89399499Y-13420945D01*
X89399499Y-13589046D01*
X89399500Y-13589059D01*
X89399500Y-13920234D01*
X89379815Y-13987273D01*
X89378602Y-13989125D01*
X89290609Y-14120814D01*
X89290602Y-14120827D01*
X89230264Y-14266498D01*
X89230261Y-14266510D01*
X89199500Y-14421153D01*
X77945388Y-14421153D01*
X76959574Y-13435339D01*
X76926089Y-13374016D01*
X76925638Y-13371849D01*
X76901499Y-13250500D01*
X76894737Y-13216503D01*
X76887949Y-13200116D01*
X76834397Y-13070827D01*
X76834390Y-13070814D01*
X76746789Y-12939711D01*
X76746786Y-12939707D01*
X76635292Y-12828213D01*
X76635288Y-12828210D01*
X76504185Y-12740609D01*
X76504172Y-12740602D01*
X76358501Y-12680264D01*
X76358489Y-12680261D01*
X76203845Y-12649500D01*
X76203842Y-12649500D01*
X76046158Y-12649500D01*
X76046155Y-12649500D01*
X75891510Y-12680261D01*
X75891498Y-12680264D01*
X75745827Y-12740602D01*
X75745814Y-12740609D01*
X75614711Y-12828210D01*
X75614707Y-12828213D01*
X75503213Y-12939707D01*
X75503210Y-12939711D01*
X75415609Y-13070814D01*
X75415602Y-13070827D01*
X75355264Y-13216498D01*
X75355261Y-13216510D01*
X75324500Y-13371153D01*
X51790554Y-13371153D01*
X51776499Y-13300499D01*
X51769737Y-13266503D01*
X51767018Y-13259938D01*
X51709397Y-13120827D01*
X51709390Y-13120814D01*
X51621789Y-12989711D01*
X51621786Y-12989707D01*
X51510292Y-12878213D01*
X51510288Y-12878210D01*
X51379185Y-12790609D01*
X51379172Y-12790602D01*
X51233501Y-12730264D01*
X51233489Y-12730261D01*
X51078845Y-12699500D01*
X51078842Y-12699500D01*
X50921158Y-12699500D01*
X50921155Y-12699500D01*
X50766510Y-12730261D01*
X50766498Y-12730264D01*
X50620827Y-12790602D01*
X50620814Y-12790609D01*
X50489711Y-12878210D01*
X50489707Y-12878213D01*
X50378213Y-12989707D01*
X50378210Y-12989711D01*
X50290609Y-13120814D01*
X50290602Y-13120827D01*
X50230264Y-13266498D01*
X50230261Y-13266510D01*
X50199500Y-13421153D01*
X500500Y-13421153D01*
X500500Y-12421153D01*
X63199500Y-12421153D01*
X63199500Y-12578846D01*
X63230261Y-12733489D01*
X63230264Y-12733501D01*
X63290602Y-12879172D01*
X63290609Y-12879185D01*
X63378210Y-13010288D01*
X63378213Y-13010292D01*
X63489707Y-13121786D01*
X63489711Y-13121789D01*
X63620814Y-13209390D01*
X63620827Y-13209397D01*
X63766498Y-13269735D01*
X63766503Y-13269737D01*
X63921153Y-13300499D01*
X63921156Y-13300500D01*
X63921158Y-13300500D01*
X64078844Y-13300500D01*
X64078845Y-13300499D01*
X64155152Y-13285320D01*
X64233488Y-13269739D01*
X64233489Y-13269738D01*
X64233497Y-13269737D01*
X64257155Y-13259937D01*
X64304604Y-13250500D01*
X66195396Y-13250500D01*
X66242844Y-13259937D01*
X66266503Y-13269737D01*
X66266508Y-13269738D01*
X66266511Y-13269739D01*
X66421153Y-13300499D01*
X66421156Y-13300500D01*
X66421158Y-13300500D01*
X66578844Y-13300500D01*
X66578845Y-13300499D01*
X66733497Y-13269737D01*
X66879179Y-13209394D01*
X67010289Y-13121789D01*
X67121789Y-13010289D01*
X67209394Y-12879179D01*
X67269737Y-12733497D01*
X67300500Y-12578842D01*
X67300500Y-12421158D01*
X67300500Y-12421155D01*
X67300499Y-12421153D01*
X67291957Y-12378210D01*
X67269737Y-12266503D01*
X67269735Y-12266498D01*
X67209397Y-12120827D01*
X67209390Y-12120814D01*
X67121789Y-11989711D01*
X67121786Y-11989707D01*
X67010292Y-11878213D01*
X67010288Y-11878210D01*
X66968044Y-11849983D01*
X77824500Y-11849983D01*
X77824500Y-13050001D01*
X77824501Y-13050018D01*
X77835000Y-13152796D01*
X77835001Y-13152799D01*
X77872682Y-13266510D01*
X77890186Y-13319334D01*
X77982288Y-13468656D01*
X78106344Y-13592712D01*
X78255666Y-13684814D01*
X78422203Y-13739999D01*
X78524991Y-13750500D01*
X79725008Y-13750499D01*
X79827797Y-13739999D01*
X79994334Y-13684814D01*
X80143656Y-13592712D01*
X80267712Y-13468656D01*
X80359814Y-13319334D01*
X80383102Y-13249054D01*
X80387110Y-13241050D01*
X80405060Y-13221772D01*
X80420055Y-13200116D01*
X80428495Y-13196606D01*
X80434725Y-13189917D01*
X80460249Y-13183404D01*
X80484571Y-13173292D01*
X80500834Y-13173048D01*
X80502425Y-13172643D01*
X80503523Y-13173008D01*
X80507719Y-13172946D01*
X80545525Y-13175921D01*
X81225000Y-12496446D01*
X81225000Y-12502661D01*
X81252259Y-12604394D01*
X81304920Y-12695606D01*
X81379394Y-12770080D01*
X81470606Y-12822741D01*
X81572339Y-12850000D01*
X81578553Y-12850000D01*
X80899076Y-13529474D01*
X80943650Y-13561859D01*
X81125968Y-13654755D01*
X81320582Y-13717990D01*
X81522683Y-13750000D01*
X81727317Y-13750000D01*
X81929417Y-13717990D01*
X82124031Y-13654755D01*
X82306349Y-13561859D01*
X82350921Y-13529474D01*
X81671447Y-12850000D01*
X81677661Y-12850000D01*
X81779394Y-12822741D01*
X81870606Y-12770080D01*
X81945080Y-12695606D01*
X81997741Y-12604394D01*
X82025000Y-12502661D01*
X82025000Y-12496447D01*
X82704474Y-13175921D01*
X82736859Y-13131349D01*
X82829755Y-12949031D01*
X82892990Y-12754417D01*
X82925000Y-12552317D01*
X82925000Y-12347682D01*
X82892990Y-12145582D01*
X82829755Y-11950968D01*
X82736859Y-11768650D01*
X82704474Y-11724077D01*
X82704474Y-11724076D01*
X82025000Y-12403551D01*
X82025000Y-12397339D01*
X81997741Y-12295606D01*
X81945080Y-12204394D01*
X81870606Y-12129920D01*
X81779394Y-12077259D01*
X81677661Y-12050000D01*
X81671446Y-12050000D01*
X82350922Y-11370524D01*
X82350921Y-11370523D01*
X82306359Y-11338147D01*
X82306350Y-11338141D01*
X82124031Y-11245244D01*
X81929417Y-11182009D01*
X81727317Y-11150000D01*
X81522683Y-11150000D01*
X81320582Y-11182009D01*
X81125968Y-11245244D01*
X80943644Y-11338143D01*
X80899077Y-11370523D01*
X80899077Y-11370524D01*
X81578554Y-12050000D01*
X81572339Y-12050000D01*
X81470606Y-12077259D01*
X81379394Y-12129920D01*
X81304920Y-12204394D01*
X81252259Y-12295606D01*
X81225000Y-12397339D01*
X81225000Y-12403553D01*
X80545524Y-11724077D01*
X80507719Y-11727053D01*
X80439341Y-11712689D01*
X80389584Y-11663638D01*
X80387110Y-11658949D01*
X80383101Y-11650942D01*
X80359814Y-11580666D01*
X80267712Y-11431344D01*
X80143656Y-11307288D01*
X80001714Y-11219738D01*
X79994336Y-11215187D01*
X79994331Y-11215185D01*
X79992862Y-11214698D01*
X79827797Y-11160001D01*
X79827795Y-11160000D01*
X79725010Y-11149500D01*
X78524998Y-11149500D01*
X78524981Y-11149501D01*
X78422203Y-11160000D01*
X78422200Y-11160001D01*
X78255668Y-11215185D01*
X78255663Y-11215187D01*
X78106342Y-11307289D01*
X77982289Y-11431342D01*
X77890187Y-11580663D01*
X77890186Y-11580666D01*
X77835001Y-11747203D01*
X77835001Y-11747204D01*
X77835000Y-11747204D01*
X77824500Y-11849983D01*
X66968044Y-11849983D01*
X66879185Y-11790609D01*
X66879172Y-11790602D01*
X66733501Y-11730264D01*
X66733489Y-11730261D01*
X66578845Y-11699500D01*
X66578842Y-11699500D01*
X66421158Y-11699500D01*
X66421155Y-11699500D01*
X66266511Y-11730260D01*
X66266506Y-11730262D01*
X66266504Y-11730262D01*
X66266503Y-11730263D01*
X66242844Y-11740062D01*
X66195396Y-11749500D01*
X64304604Y-11749500D01*
X64257155Y-11740062D01*
X64233497Y-11730263D01*
X64233493Y-11730262D01*
X64233488Y-11730260D01*
X64078845Y-11699500D01*
X64078842Y-11699500D01*
X63921158Y-11699500D01*
X63921155Y-11699500D01*
X63766510Y-11730261D01*
X63766498Y-11730264D01*
X63620827Y-11790602D01*
X63620814Y-11790609D01*
X63489711Y-11878210D01*
X63489707Y-11878213D01*
X63378213Y-11989707D01*
X63378210Y-11989711D01*
X63290609Y-12120814D01*
X63290602Y-12120827D01*
X63230264Y-12266498D01*
X63230261Y-12266510D01*
X63199500Y-12421153D01*
X500500Y-12421153D01*
X500500Y-10871153D01*
X85049500Y-10871153D01*
X85049500Y-11028846D01*
X85080261Y-11183489D01*
X85080264Y-11183501D01*
X85140602Y-11329172D01*
X85140609Y-11329185D01*
X85228210Y-11460288D01*
X85228213Y-11460292D01*
X85339707Y-11571786D01*
X85339711Y-11571789D01*
X85470814Y-11659390D01*
X85470827Y-11659397D01*
X85567646Y-11699500D01*
X85616503Y-11719737D01*
X85754583Y-11747203D01*
X85771153Y-11750499D01*
X85771156Y-11750500D01*
X85771158Y-11750500D01*
X85928844Y-11750500D01*
X85928845Y-11750499D01*
X86083497Y-11719737D01*
X86229179Y-11659394D01*
X86347004Y-11580666D01*
X86360875Y-11571398D01*
X86378921Y-11565747D01*
X86394831Y-11555523D01*
X86425792Y-11551071D01*
X86427553Y-11550520D01*
X86429766Y-11550500D01*
X86538331Y-11550500D01*
X86538347Y-11550501D01*
X86545943Y-11550501D01*
X86704054Y-11550501D01*
X86704057Y-11550501D01*
X86856785Y-11509577D01*
X86906904Y-11480639D01*
X86993716Y-11430520D01*
X87105520Y-11318716D01*
X87105521Y-11318714D01*
X87139662Y-11284572D01*
X87200983Y-11251089D01*
X87203150Y-11250638D01*
X87261085Y-11239113D01*
X87358497Y-11219737D01*
X87504179Y-11159394D01*
X87635289Y-11071789D01*
X87746789Y-10960289D01*
X87834394Y-10829179D01*
X87894737Y-10683497D01*
X87925500Y-10528842D01*
X87925500Y-10371158D01*
X87925500Y-10371155D01*
X87925499Y-10371153D01*
X87916957Y-10328210D01*
X87894737Y-10216503D01*
X87894735Y-10216498D01*
X87834397Y-10070827D01*
X87834390Y-10070814D01*
X87746789Y-9939711D01*
X87746786Y-9939707D01*
X87635292Y-9828213D01*
X87635288Y-9828210D01*
X87504185Y-9740609D01*
X87504172Y-9740602D01*
X87365590Y-9683200D01*
X87365588Y-9683200D01*
X87358497Y-9680263D01*
X87358492Y-9680262D01*
X87358489Y-9680261D01*
X87203845Y-9649500D01*
X87203842Y-9649500D01*
X87046158Y-9649500D01*
X87046155Y-9649500D01*
X86891510Y-9680261D01*
X86891498Y-9680264D01*
X86745827Y-9740602D01*
X86745814Y-9740609D01*
X86614711Y-9828210D01*
X86614707Y-9828213D01*
X86503213Y-9939707D01*
X86503210Y-9939711D01*
X86415609Y-10070814D01*
X86415604Y-10070823D01*
X86375729Y-10167092D01*
X86331888Y-10221495D01*
X86265594Y-10243560D01*
X86213716Y-10234200D01*
X86083501Y-10180264D01*
X86083489Y-10180261D01*
X85928845Y-10149500D01*
X85928842Y-10149500D01*
X85771158Y-10149500D01*
X85771155Y-10149500D01*
X85616510Y-10180261D01*
X85616498Y-10180264D01*
X85470827Y-10240602D01*
X85470814Y-10240609D01*
X85339711Y-10328210D01*
X85339707Y-10328213D01*
X85228213Y-10439707D01*
X85228210Y-10439711D01*
X85140609Y-10570814D01*
X85140602Y-10570827D01*
X85080264Y-10716498D01*
X85080261Y-10716510D01*
X85049500Y-10871153D01*
X500500Y-10871153D01*
X500500Y-8118872D01*
X20124500Y-8118872D01*
X20124500Y-8381127D01*
X20146735Y-8550010D01*
X20158730Y-8641116D01*
X20206484Y-8819337D01*
X20226602Y-8894418D01*
X20226605Y-8894428D01*
X20326953Y-9136690D01*
X20326958Y-9136700D01*
X20458075Y-9363803D01*
X20617718Y-9571851D01*
X20617726Y-9571860D01*
X20803140Y-9757274D01*
X20803148Y-9757281D01*
X21011196Y-9916924D01*
X21238299Y-10048041D01*
X21238309Y-10048046D01*
X21480571Y-10148394D01*
X21480581Y-10148398D01*
X21733884Y-10216270D01*
X21993880Y-10250500D01*
X21993887Y-10250500D01*
X22256113Y-10250500D01*
X22256120Y-10250500D01*
X22516116Y-10216270D01*
X22769419Y-10148398D01*
X23011697Y-10048043D01*
X23238803Y-9916924D01*
X23446851Y-9757282D01*
X23446855Y-9757277D01*
X23446860Y-9757274D01*
X23632274Y-9571860D01*
X23632277Y-9571855D01*
X23632282Y-9571851D01*
X23734266Y-9438944D01*
X23758987Y-9406728D01*
X23775258Y-9385521D01*
X23791924Y-9363803D01*
X23923043Y-9136697D01*
X24023398Y-8894419D01*
X24091270Y-8641116D01*
X24125500Y-8381120D01*
X24125500Y-8347682D01*
X45507380Y-8347682D01*
X45507380Y-8552317D01*
X45539389Y-8754417D01*
X45602624Y-8949031D01*
X45695521Y-9131350D01*
X45695527Y-9131359D01*
X45727903Y-9175921D01*
X45727904Y-9175922D01*
X46407380Y-8496446D01*
X46407380Y-8502661D01*
X46434639Y-8604394D01*
X46487300Y-8695606D01*
X46561774Y-8770080D01*
X46652986Y-8822741D01*
X46754719Y-8850000D01*
X46760933Y-8850000D01*
X46081456Y-9529474D01*
X46126030Y-9561859D01*
X46308348Y-9654755D01*
X46502962Y-9717990D01*
X46705063Y-9750000D01*
X46909697Y-9750000D01*
X47111797Y-9717990D01*
X47306411Y-9654755D01*
X47488729Y-9561859D01*
X47533301Y-9529474D01*
X46853827Y-8850000D01*
X46860041Y-8850000D01*
X46961774Y-8822741D01*
X47052986Y-8770080D01*
X47127460Y-8695606D01*
X47180121Y-8604394D01*
X47207380Y-8502661D01*
X47207380Y-8496447D01*
X47886853Y-9175921D01*
X47924660Y-9172946D01*
X47993038Y-9187310D01*
X48042795Y-9236361D01*
X48052094Y-9257556D01*
X48066509Y-9301056D01*
X48072566Y-9319333D01*
X48072567Y-9319336D01*
X48107449Y-9375888D01*
X48164668Y-9468656D01*
X48288724Y-9592712D01*
X48438046Y-9684814D01*
X48604583Y-9739999D01*
X48707371Y-9750500D01*
X49907388Y-9750499D01*
X50010177Y-9739999D01*
X50176714Y-9684814D01*
X50326036Y-9592712D01*
X50450092Y-9468656D01*
X50542194Y-9319334D01*
X50597379Y-9152797D01*
X50607880Y-9050009D01*
X50607879Y-7849992D01*
X50605963Y-7831240D01*
X50597379Y-7747203D01*
X50597378Y-7747200D01*
X50589715Y-7724076D01*
X50542194Y-7580666D01*
X50450092Y-7431344D01*
X50326036Y-7307288D01*
X50176714Y-7215186D01*
X50010177Y-7160001D01*
X50010175Y-7160000D01*
X49907390Y-7149500D01*
X48707378Y-7149500D01*
X48707361Y-7149501D01*
X48604583Y-7160000D01*
X48604580Y-7160001D01*
X48438048Y-7215185D01*
X48438043Y-7215187D01*
X48288722Y-7307289D01*
X48164669Y-7431342D01*
X48072567Y-7580663D01*
X48072565Y-7580668D01*
X48052097Y-7642438D01*
X48012324Y-7699883D01*
X47947808Y-7726706D01*
X47924663Y-7727052D01*
X47886854Y-7724076D01*
X47207380Y-8403551D01*
X47207380Y-8397339D01*
X47180121Y-8295606D01*
X47127460Y-8204394D01*
X47052986Y-8129920D01*
X46961774Y-8077259D01*
X46860041Y-8050000D01*
X46853826Y-8050000D01*
X47533302Y-7370524D01*
X47533301Y-7370523D01*
X47488739Y-7338147D01*
X47488730Y-7338141D01*
X47306411Y-7245244D01*
X47111797Y-7182009D01*
X46909697Y-7150000D01*
X46705063Y-7150000D01*
X46502962Y-7182009D01*
X46308348Y-7245244D01*
X46126024Y-7338143D01*
X46081457Y-7370523D01*
X46081457Y-7370524D01*
X46760934Y-8050000D01*
X46754719Y-8050000D01*
X46652986Y-8077259D01*
X46561774Y-8129920D01*
X46487300Y-8204394D01*
X46434639Y-8295606D01*
X46407380Y-8397339D01*
X46407380Y-8403553D01*
X45727904Y-7724077D01*
X45727903Y-7724077D01*
X45695523Y-7768644D01*
X45602624Y-7950968D01*
X45539389Y-8145582D01*
X45507380Y-8347682D01*
X24125500Y-8347682D01*
X24125500Y-8118880D01*
X24091270Y-7858884D01*
X24023398Y-7605581D01*
X23949193Y-7426435D01*
X23923048Y-7363314D01*
X23923041Y-7363299D01*
X23791924Y-7136196D01*
X23632281Y-6928148D01*
X23632274Y-6928140D01*
X23446860Y-6742726D01*
X23446851Y-6742718D01*
X23238803Y-6583075D01*
X23011700Y-6451958D01*
X23011690Y-6451953D01*
X22769428Y-6351605D01*
X22769421Y-6351603D01*
X22769419Y-6351602D01*
X22516116Y-6283730D01*
X22458339Y-6276123D01*
X22256127Y-6249500D01*
X22256120Y-6249500D01*
X21993880Y-6249500D01*
X21993872Y-6249500D01*
X21762772Y-6279926D01*
X21733884Y-6283730D01*
X21480581Y-6351602D01*
X21480571Y-6351605D01*
X21238309Y-6451953D01*
X21238299Y-6451958D01*
X21011196Y-6583075D01*
X20803148Y-6742718D01*
X20617718Y-6928148D01*
X20458075Y-7136196D01*
X20326958Y-7363299D01*
X20326953Y-7363309D01*
X20226605Y-7605571D01*
X20226602Y-7605581D01*
X20166470Y-7830000D01*
X20158730Y-7858885D01*
X20124500Y-8118872D01*
X500500Y-8118872D01*
X500500Y-5349982D01*
X54344500Y-5349982D01*
X54344500Y-8550017D01*
X54355000Y-8652796D01*
X54388674Y-8754417D01*
X54410186Y-8819335D01*
X54502288Y-8968656D01*
X54626344Y-9092712D01*
X54775665Y-9184814D01*
X54942202Y-9239999D01*
X55044990Y-9250500D01*
X55044995Y-9250500D01*
X56725005Y-9250500D01*
X56725010Y-9250500D01*
X56827798Y-9239999D01*
X56994335Y-9184814D01*
X57143656Y-9092712D01*
X57267712Y-8968656D01*
X57359814Y-8819335D01*
X57414999Y-8652798D01*
X57425500Y-8550010D01*
X57425500Y-6522229D01*
X57445185Y-6455190D01*
X57461819Y-6434548D01*
X57827568Y-6068799D01*
X59425000Y-6068799D01*
X59425000Y-6700000D01*
X60310879Y-6700000D01*
X60291901Y-6745818D01*
X60265000Y-6881056D01*
X60265000Y-7018944D01*
X60291901Y-7154182D01*
X60310879Y-7200000D01*
X59425000Y-7200000D01*
X59425000Y-7831200D01*
X59462920Y-8070618D01*
X59537827Y-8301159D01*
X59647874Y-8517136D01*
X59790356Y-8713245D01*
X59961754Y-8884643D01*
X60157863Y-9027125D01*
X60373840Y-9137172D01*
X60604381Y-9212080D01*
X60715000Y-9229600D01*
X60715000Y-7604120D01*
X60760818Y-7623099D01*
X60896056Y-7650000D01*
X61033944Y-7650000D01*
X61169182Y-7623099D01*
X61215000Y-7604120D01*
X61215000Y-9229599D01*
X61325618Y-9212080D01*
X61556159Y-9137172D01*
X61772136Y-9027125D01*
X61968245Y-8884643D01*
X62139643Y-8713245D01*
X62282125Y-8517136D01*
X62392172Y-8301159D01*
X62467079Y-8070618D01*
X62505000Y-7831200D01*
X62505000Y-7200000D01*
X61619121Y-7200000D01*
X61638099Y-7154182D01*
X61665000Y-7018944D01*
X61665000Y-6881056D01*
X61638099Y-6745818D01*
X61619121Y-6700000D01*
X62505000Y-6700000D01*
X62505000Y-6068799D01*
X62504993Y-6068754D01*
X64504500Y-6068754D01*
X64504500Y-7831245D01*
X64542432Y-8070736D01*
X64617360Y-8301344D01*
X64658012Y-8381127D01*
X64693105Y-8450001D01*
X64727448Y-8517401D01*
X64869966Y-8713562D01*
X64869970Y-8713567D01*
X65041432Y-8885029D01*
X65041437Y-8885033D01*
X65156537Y-8968657D01*
X65237602Y-9027554D01*
X65451806Y-9136697D01*
X65453655Y-9137639D01*
X65562320Y-9172946D01*
X65684265Y-9212568D01*
X65791795Y-9229599D01*
X65923755Y-9250500D01*
X65923760Y-9250500D01*
X66166245Y-9250500D01*
X66298198Y-9229600D01*
X66405735Y-9212568D01*
X66636347Y-9137638D01*
X66852398Y-9027554D01*
X67048569Y-8885028D01*
X67220028Y-8713569D01*
X67362554Y-8517398D01*
X67472638Y-8301347D01*
X67547568Y-8070735D01*
X67567110Y-7947347D01*
X67585500Y-7831245D01*
X67585500Y-6068754D01*
X69584500Y-6068754D01*
X69584500Y-7831245D01*
X69622432Y-8070736D01*
X69697360Y-8301344D01*
X69738012Y-8381127D01*
X69773105Y-8450001D01*
X69807448Y-8517401D01*
X69949966Y-8713562D01*
X69949970Y-8713567D01*
X70121432Y-8885029D01*
X70121437Y-8885033D01*
X70236537Y-8968657D01*
X70317602Y-9027554D01*
X70531806Y-9136697D01*
X70533655Y-9137639D01*
X70642320Y-9172946D01*
X70764265Y-9212568D01*
X70871795Y-9229599D01*
X71003755Y-9250500D01*
X71003760Y-9250500D01*
X71246245Y-9250500D01*
X71378198Y-9229600D01*
X71485735Y-9212568D01*
X71716347Y-9137638D01*
X71932398Y-9027554D01*
X72128569Y-8885028D01*
X72300028Y-8713569D01*
X72433389Y-8530013D01*
X118700000Y-8530013D01*
X118700000Y-9120000D01*
X120345879Y-9120000D01*
X120326901Y-9165818D01*
X120300000Y-9301056D01*
X120300000Y-9438944D01*
X120326901Y-9574182D01*
X120345879Y-9620000D01*
X118700001Y-9620000D01*
X118700001Y-10209986D01*
X118710494Y-10312696D01*
X118710494Y-10312698D01*
X118765640Y-10479119D01*
X118765645Y-10479130D01*
X118857680Y-10628340D01*
X118857683Y-10628344D01*
X118981655Y-10752316D01*
X118981659Y-10752319D01*
X119130869Y-10844354D01*
X119130880Y-10844359D01*
X119297302Y-10899505D01*
X119400020Y-10909999D01*
X120749999Y-10909999D01*
X120750000Y-10909998D01*
X120750000Y-10024120D01*
X120795818Y-10043099D01*
X120931056Y-10070000D01*
X121068944Y-10070000D01*
X121204182Y-10043099D01*
X121250000Y-10024120D01*
X121250000Y-10909999D01*
X122599972Y-10909999D01*
X122599986Y-10909998D01*
X122702696Y-10899505D01*
X122702698Y-10899505D01*
X122869119Y-10844359D01*
X122869130Y-10844354D01*
X123018340Y-10752319D01*
X123018344Y-10752316D01*
X123142316Y-10628344D01*
X123142319Y-10628340D01*
X123234354Y-10479130D01*
X123234359Y-10479119D01*
X123289505Y-10312697D01*
X123299999Y-10209986D01*
X123300000Y-10209973D01*
X123300000Y-9620000D01*
X121654121Y-9620000D01*
X121673099Y-9574182D01*
X121700000Y-9438944D01*
X121700000Y-9301056D01*
X121673099Y-9165818D01*
X121654121Y-9120000D01*
X123299999Y-9120000D01*
X123299999Y-8530028D01*
X123299998Y-8530013D01*
X123289505Y-8427303D01*
X123289505Y-8427301D01*
X123234359Y-8260880D01*
X123234354Y-8260869D01*
X123142319Y-8111659D01*
X123142316Y-8111655D01*
X123018344Y-7987683D01*
X123018340Y-7987680D01*
X122869130Y-7895645D01*
X122869119Y-7895640D01*
X122702697Y-7840494D01*
X122599986Y-7830000D01*
X121250000Y-7830000D01*
X121250000Y-8715879D01*
X121204182Y-8696901D01*
X121068944Y-8670000D01*
X120931056Y-8670000D01*
X120795818Y-8696901D01*
X120750000Y-8715879D01*
X120750000Y-7830000D01*
X119400028Y-7830000D01*
X119400012Y-7830001D01*
X119297303Y-7840494D01*
X119297301Y-7840494D01*
X119130880Y-7895640D01*
X119130869Y-7895645D01*
X118981659Y-7987680D01*
X118981655Y-7987683D01*
X118857683Y-8111655D01*
X118857680Y-8111659D01*
X118765645Y-8260869D01*
X118765640Y-8260880D01*
X118710494Y-8427302D01*
X118700000Y-8530013D01*
X72433389Y-8530013D01*
X72442554Y-8517398D01*
X72451545Y-8499751D01*
X72466416Y-8470568D01*
X72529029Y-8347682D01*
X72552638Y-8301347D01*
X72627568Y-8070735D01*
X72647110Y-7947347D01*
X72665500Y-7831245D01*
X72665500Y-6068754D01*
X72627586Y-5829381D01*
X72627568Y-5829265D01*
X72570231Y-5652799D01*
X72552639Y-5598655D01*
X72552638Y-5598653D01*
X72442554Y-5382602D01*
X72385122Y-5303553D01*
X72300033Y-5186437D01*
X72300029Y-5186432D01*
X72128567Y-5014970D01*
X72128562Y-5014966D01*
X71932401Y-4872448D01*
X71932400Y-4872447D01*
X71932398Y-4872446D01*
X71781592Y-4795606D01*
X71716344Y-4762360D01*
X71485736Y-4687432D01*
X71246245Y-4649500D01*
X71246240Y-4649500D01*
X71003760Y-4649500D01*
X71003755Y-4649500D01*
X70764263Y-4687432D01*
X70533655Y-4762360D01*
X70317598Y-4872448D01*
X70121437Y-5014966D01*
X70121432Y-5014970D01*
X69949970Y-5186432D01*
X69949966Y-5186437D01*
X69807448Y-5382598D01*
X69697360Y-5598655D01*
X69622432Y-5829263D01*
X69584500Y-6068754D01*
X67585500Y-6068754D01*
X67547586Y-5829381D01*
X67547568Y-5829265D01*
X67490231Y-5652799D01*
X67472639Y-5598655D01*
X67472638Y-5598653D01*
X67362554Y-5382602D01*
X67305122Y-5303553D01*
X67220033Y-5186437D01*
X67220029Y-5186432D01*
X67048567Y-5014970D01*
X67048562Y-5014966D01*
X66852401Y-4872448D01*
X66852400Y-4872447D01*
X66852398Y-4872446D01*
X66701592Y-4795606D01*
X66636344Y-4762360D01*
X66405736Y-4687432D01*
X66166245Y-4649500D01*
X66166240Y-4649500D01*
X65923760Y-4649500D01*
X65923755Y-4649500D01*
X65684263Y-4687432D01*
X65453655Y-4762360D01*
X65237598Y-4872448D01*
X65041437Y-5014966D01*
X65041432Y-5014970D01*
X64869970Y-5186432D01*
X64869966Y-5186437D01*
X64727448Y-5382598D01*
X64617360Y-5598655D01*
X64542432Y-5829263D01*
X64504500Y-6068754D01*
X62504993Y-6068754D01*
X62467079Y-5829381D01*
X62392172Y-5598840D01*
X62282125Y-5382863D01*
X62139643Y-5186754D01*
X61968245Y-5015356D01*
X61772136Y-4872874D01*
X61556157Y-4762827D01*
X61325614Y-4687919D01*
X61215000Y-4670399D01*
X61215000Y-6295879D01*
X61169182Y-6276901D01*
X61033944Y-6250000D01*
X60896056Y-6250000D01*
X60760818Y-6276901D01*
X60715000Y-6295879D01*
X60715000Y-4670399D01*
X60714999Y-4670399D01*
X60604385Y-4687919D01*
X60373842Y-4762827D01*
X60157863Y-4872874D01*
X59961754Y-5015356D01*
X59790356Y-5186754D01*
X59647874Y-5382863D01*
X59537827Y-5598840D01*
X59462920Y-5829381D01*
X59425000Y-6068799D01*
X57827568Y-6068799D01*
X59659548Y-4236819D01*
X59720871Y-4203334D01*
X59747229Y-4200500D01*
X77262770Y-4200500D01*
X77329809Y-4220185D01*
X77350451Y-4236819D01*
X77788181Y-4674548D01*
X77821666Y-4735871D01*
X77824500Y-4762229D01*
X77824500Y-5550001D01*
X77824501Y-5550019D01*
X77835000Y-5652796D01*
X77835001Y-5652799D01*
X77850681Y-5700116D01*
X77890186Y-5819334D01*
X77982288Y-5968656D01*
X78106344Y-6092712D01*
X78255666Y-6184814D01*
X78422203Y-6239999D01*
X78524991Y-6250500D01*
X79725008Y-6250499D01*
X79827797Y-6239999D01*
X79994334Y-6184814D01*
X80143656Y-6092712D01*
X80267712Y-5968656D01*
X80359814Y-5819334D01*
X80383102Y-5749054D01*
X80387110Y-5741050D01*
X80405060Y-5721772D01*
X80420055Y-5700116D01*
X80428495Y-5696606D01*
X80434725Y-5689917D01*
X80460249Y-5683404D01*
X80484571Y-5673292D01*
X80500834Y-5673048D01*
X80502425Y-5672643D01*
X80503523Y-5673008D01*
X80507719Y-5672946D01*
X80545525Y-5675921D01*
X81225000Y-4996446D01*
X81225000Y-5002661D01*
X81252259Y-5104394D01*
X81304920Y-5195606D01*
X81379394Y-5270080D01*
X81470606Y-5322741D01*
X81572339Y-5350000D01*
X81578553Y-5350000D01*
X80899076Y-6029474D01*
X80943650Y-6061859D01*
X81125968Y-6154755D01*
X81320582Y-6217990D01*
X81522683Y-6250000D01*
X81727317Y-6250000D01*
X81929417Y-6217990D01*
X82124031Y-6154755D01*
X82306349Y-6061859D01*
X82350921Y-6029474D01*
X81671447Y-5350000D01*
X81677661Y-5350000D01*
X81779394Y-5322741D01*
X81870606Y-5270080D01*
X81945080Y-5195606D01*
X81997741Y-5104394D01*
X82025000Y-5002661D01*
X82025000Y-4996447D01*
X82704474Y-5675921D01*
X82736859Y-5631349D01*
X82829755Y-5449031D01*
X82892990Y-5254417D01*
X82925000Y-5052317D01*
X82925000Y-4847682D01*
X82892990Y-4645582D01*
X82829755Y-4450968D01*
X82736859Y-4268650D01*
X82704474Y-4224077D01*
X82704474Y-4224076D01*
X82025000Y-4903551D01*
X82025000Y-4897339D01*
X81997741Y-4795606D01*
X81945080Y-4704394D01*
X81870606Y-4629920D01*
X81779394Y-4577259D01*
X81677661Y-4550000D01*
X81671446Y-4550000D01*
X82350922Y-3870524D01*
X82350921Y-3870523D01*
X82306359Y-3838147D01*
X82306350Y-3838141D01*
X82124031Y-3745244D01*
X81929417Y-3682009D01*
X81727317Y-3650000D01*
X81522683Y-3650000D01*
X81320582Y-3682009D01*
X81125968Y-3745244D01*
X80943644Y-3838143D01*
X80899077Y-3870523D01*
X80899077Y-3870524D01*
X81578554Y-4550000D01*
X81572339Y-4550000D01*
X81470606Y-4577259D01*
X81379394Y-4629920D01*
X81304920Y-4704394D01*
X81252259Y-4795606D01*
X81225000Y-4897339D01*
X81225000Y-4903553D01*
X80545524Y-4224077D01*
X80507719Y-4227053D01*
X80439341Y-4212689D01*
X80389584Y-4163638D01*
X80387110Y-4158949D01*
X80383101Y-4150942D01*
X80359814Y-4080666D01*
X80267712Y-3931344D01*
X80143656Y-3807288D01*
X79994334Y-3715186D01*
X79827797Y-3660001D01*
X79827795Y-3660000D01*
X79725016Y-3649500D01*
X79725009Y-3649500D01*
X78937230Y-3649500D01*
X78870191Y-3629815D01*
X78849549Y-3613181D01*
X78103421Y-2867052D01*
X78103414Y-2867046D01*
X78029729Y-2817812D01*
X78029729Y-2817813D01*
X77980491Y-2784913D01*
X77843917Y-2728343D01*
X77843907Y-2728340D01*
X77698920Y-2699500D01*
X77698918Y-2699500D01*
X59311082Y-2699500D01*
X59311080Y-2699500D01*
X59166092Y-2728340D01*
X59166082Y-2728343D01*
X59029511Y-2784912D01*
X59029498Y-2784919D01*
X58906584Y-2867048D01*
X58906580Y-2867051D01*
X57096571Y-4677060D01*
X57035248Y-4710545D01*
X56969888Y-4707085D01*
X56827798Y-4660001D01*
X56827796Y-4660000D01*
X56725017Y-4649500D01*
X56725010Y-4649500D01*
X55044990Y-4649500D01*
X55044982Y-4649500D01*
X54942203Y-4660000D01*
X54942202Y-4660001D01*
X54859669Y-4687349D01*
X54775667Y-4715185D01*
X54775662Y-4715187D01*
X54626342Y-4807289D01*
X54502289Y-4931342D01*
X54410187Y-5080662D01*
X54410186Y-5080665D01*
X54355001Y-5247202D01*
X54355001Y-5247203D01*
X54355000Y-5247203D01*
X54344500Y-5349982D01*
X500500Y-5349982D01*
X500500Y-3003750D01*
X500726Y-2996263D01*
X518271Y-2706205D01*
X520076Y-2691340D01*
X571780Y-2409201D01*
X575364Y-2394663D01*
X652096Y-2148422D01*
X660696Y-2120822D01*
X665998Y-2106841D01*
X783731Y-1845249D01*
X790676Y-1832016D01*
X939080Y-1586526D01*
X947567Y-1574230D01*
X1124480Y-1348417D01*
X1134395Y-1337226D01*
X1337226Y-1134395D01*
X1348417Y-1124480D01*
X1574230Y-947567D01*
X1586526Y-939080D01*
X1832016Y-790676D01*
X1845249Y-783731D01*
X2106841Y-665998D01*
X2120822Y-660696D01*
X2394668Y-575362D01*
X2409197Y-571780D01*
X2691344Y-520075D01*
X2706201Y-518271D01*
X2996264Y-500726D01*
X3003751Y-500500D01*
X3065892Y-500500D01*
X124934108Y-500500D01*
X124996249Y-500500D01*
X125003736Y-500726D01*
G37*
%TD.AperFunction*%
%TD*%
M02*
