%TF.GenerationSoftware,KiCad,Pcbnew,9.0.4*%
%TF.CreationDate,2026-05-28T23:47:11-05:00*%
%TF.ProjectId,Cascaded_Proj,43617363-6164-4656-945f-50726f6a2e6b,rev?*%
%TF.SameCoordinates,Original*%
%TF.FileFunction,Soldermask,Top*%
%TF.FilePolarity,Negative*%
%FSLAX46Y46*%
G04 Gerber Fmt 4.6, Leading zero omitted, Abs format (unit mm)*
G04 Created by KiCad (PCBNEW 9.0.4) date 2026-05-28 23:47:11*
%MOMM*%
%LPD*%
G01*
G04 APERTURE LIST*
G04 Aperture macros list*
%AMRoundRect*
0 Rectangle with rounded corners*
0 $1 Rounding radius*
0 $2 $3 $4 $5 $6 $7 $8 $9 X,Y pos of 4 corners*
0 Add a 4 corners polygon primitive as box body*
4,1,4,$2,$3,$4,$5,$6,$7,$8,$9,$2,$3,0*
0 Add four circle primitives for the rounded corners*
1,1,$1+$1,$2,$3*
1,1,$1+$1,$4,$5*
1,1,$1+$1,$6,$7*
1,1,$1+$1,$8,$9*
0 Add four rect primitives between the rounded corners*
20,1,$1+$1,$2,$3,$4,$5,0*
20,1,$1+$1,$4,$5,$6,$7,0*
20,1,$1+$1,$6,$7,$8,$9,0*
20,1,$1+$1,$8,$9,$2,$3,0*%
G04 Aperture macros list end*
%ADD10RoundRect,0.225000X0.250000X-0.225000X0.250000X0.225000X-0.250000X0.225000X-0.250000X-0.225000X0*%
%ADD11RoundRect,0.150000X0.150000X-0.587500X0.150000X0.587500X-0.150000X0.587500X-0.150000X-0.587500X0*%
%ADD12RoundRect,0.225000X-0.250000X0.225000X-0.250000X-0.225000X0.250000X-0.225000X0.250000X0.225000X0*%
%ADD13RoundRect,0.200000X-0.275000X0.200000X-0.275000X-0.200000X0.275000X-0.200000X0.275000X0.200000X0*%
%ADD14RoundRect,0.225000X0.225000X0.250000X-0.225000X0.250000X-0.225000X-0.250000X0.225000X-0.250000X0*%
%ADD15RoundRect,0.200000X0.275000X-0.200000X0.275000X0.200000X-0.275000X0.200000X-0.275000X-0.200000X0*%
%ADD16RoundRect,0.243750X0.243750X0.456250X-0.243750X0.456250X-0.243750X-0.456250X0.243750X-0.456250X0*%
%ADD17RoundRect,0.250000X0.262500X0.450000X-0.262500X0.450000X-0.262500X-0.450000X0.262500X-0.450000X0*%
%ADD18RoundRect,0.102000X-0.135000X0.480000X-0.135000X-0.480000X0.135000X-0.480000X0.135000X0.480000X0*%
%ADD19RoundRect,0.102000X-0.140000X0.425000X-0.140000X-0.425000X0.140000X-0.425000X0.140000X0.425000X0*%
%ADD20RoundRect,0.102000X-0.192500X0.450000X-0.192500X-0.450000X0.192500X-0.450000X0.192500X0.450000X0*%
%ADD21RoundRect,0.102000X-0.250000X0.475000X-0.250000X-0.475000X0.250000X-0.475000X0.250000X0.475000X0*%
%ADD22RoundRect,0.102000X-0.170000X0.425000X-0.170000X-0.425000X0.170000X-0.425000X0.170000X0.425000X0*%
%ADD23RoundRect,0.102000X-0.165000X0.485000X-0.165000X-0.485000X0.165000X-0.485000X0.165000X0.485000X0*%
%ADD24RoundRect,0.087500X-0.725000X-0.087500X0.725000X-0.087500X0.725000X0.087500X-0.725000X0.087500X0*%
%ADD25RoundRect,0.200000X0.200000X0.275000X-0.200000X0.275000X-0.200000X-0.275000X0.200000X-0.275000X0*%
%ADD26RoundRect,0.200000X-0.200000X-0.275000X0.200000X-0.275000X0.200000X0.275000X-0.200000X0.275000X0*%
%ADD27C,3.000000*%
%ADD28RoundRect,0.150000X-0.587500X-0.150000X0.587500X-0.150000X0.587500X0.150000X-0.587500X0.150000X0*%
%ADD29RoundRect,0.250001X-0.949999X0.949999X-0.949999X-0.949999X0.949999X-0.949999X0.949999X0.949999X0*%
%ADD30C,2.400000*%
%ADD31RoundRect,0.375000X0.625000X0.375000X-0.625000X0.375000X-0.625000X-0.375000X0.625000X-0.375000X0*%
%ADD32RoundRect,0.500000X0.500000X1.400000X-0.500000X1.400000X-0.500000X-1.400000X0.500000X-1.400000X0*%
%ADD33RoundRect,0.249999X-1.550001X0.790001X-1.550001X-0.790001X1.550001X-0.790001X1.550001X0.790001X0*%
%ADD34O,3.600000X2.080000*%
%ADD35R,2.000000X0.600000*%
%ADD36RoundRect,0.225000X-0.225000X-0.250000X0.225000X-0.250000X0.225000X0.250000X-0.225000X0.250000X0*%
%ADD37RoundRect,0.150000X0.150000X-0.825000X0.150000X0.825000X-0.150000X0.825000X-0.150000X-0.825000X0*%
%ADD38RoundRect,0.250000X-0.550000X-0.550000X0.550000X-0.550000X0.550000X0.550000X-0.550000X0.550000X0*%
%ADD39C,1.600000*%
%ADD40RoundRect,0.150000X-0.150000X0.825000X-0.150000X-0.825000X0.150000X-0.825000X0.150000X0.825000X0*%
%ADD41R,1.200000X1.400000*%
%ADD42RoundRect,0.150000X0.587500X0.150000X-0.587500X0.150000X-0.587500X-0.150000X0.587500X-0.150000X0*%
%ADD43RoundRect,0.150000X0.875000X0.150000X-0.875000X0.150000X-0.875000X-0.150000X0.875000X-0.150000X0*%
%ADD44RoundRect,0.249999X0.790001X1.550001X-0.790001X1.550001X-0.790001X-1.550001X0.790001X-1.550001X0*%
%ADD45O,2.080000X3.600000*%
%ADD46R,1.700000X1.700000*%
%ADD47C,1.700000*%
%ADD48R,2.200000X0.600000*%
%ADD49RoundRect,0.250000X-0.500000X-1.100000X0.500000X-1.100000X0.500000X1.100000X-0.500000X1.100000X0*%
%ADD50RoundRect,0.250000X-0.450000X0.262500X-0.450000X-0.262500X0.450000X-0.262500X0.450000X0.262500X0*%
%ADD51RoundRect,0.150000X-0.150000X0.587500X-0.150000X-0.587500X0.150000X-0.587500X0.150000X0.587500X0*%
%ADD52RoundRect,0.243750X-0.456250X0.243750X-0.456250X-0.243750X0.456250X-0.243750X0.456250X0.243750X0*%
%ADD53RoundRect,0.150000X-0.825000X-0.150000X0.825000X-0.150000X0.825000X0.150000X-0.825000X0.150000X0*%
%ADD54RoundRect,0.250000X0.550000X0.550000X-0.550000X0.550000X-0.550000X-0.550000X0.550000X-0.550000X0*%
%ADD55RoundRect,0.250000X0.450000X-0.262500X0.450000X0.262500X-0.450000X0.262500X-0.450000X-0.262500X0*%
%ADD56RoundRect,0.250000X-0.550000X0.550000X-0.550000X-0.550000X0.550000X-0.550000X0.550000X0.550000X0*%
%ADD57RoundRect,0.249999X-0.790001X-1.550001X0.790001X-1.550001X0.790001X1.550001X-0.790001X1.550001X0*%
%ADD58RoundRect,0.250000X1.375000X2.500000X-1.375000X2.500000X-1.375000X-2.500000X1.375000X-2.500000X0*%
%ADD59R,0.600000X2.200000*%
G04 APERTURE END LIST*
D10*
%TO.C,C27*%
X50500000Y-4050000D03*
X50500000Y-2500000D03*
%TD*%
D11*
%TO.C,Q5*%
X49500000Y-20000000D03*
X50450000Y-21875000D03*
X48550000Y-21875000D03*
%TD*%
D12*
%TO.C,C26*%
X87000000Y-50225000D03*
X87000000Y-51775000D03*
%TD*%
D13*
%TO.C,R49*%
X70525000Y-14665000D03*
X70525000Y-16315000D03*
%TD*%
D14*
%TO.C,C10*%
X111400000Y-23950000D03*
X109850000Y-23950000D03*
%TD*%
D15*
%TO.C,R21*%
X44625000Y-32275000D03*
X44625000Y-30625000D03*
%TD*%
D16*
%TO.C,D2*%
X100537500Y-35005000D03*
X98662500Y-35005000D03*
%TD*%
D17*
%TO.C,R7*%
X83037500Y-54950000D03*
X81212500Y-54950000D03*
%TD*%
D18*
%TO.C,T1*%
X111645000Y-6430000D03*
D19*
X112290000Y-6375000D03*
D20*
X114162500Y-6400000D03*
X114547500Y-6400000D03*
D21*
X111760000Y-10475000D03*
D22*
X113790000Y-10525000D03*
D23*
X114575000Y-10465000D03*
%TD*%
D13*
%TO.C,R12*%
X78760000Y-46950000D03*
X78760000Y-48600000D03*
%TD*%
D11*
%TO.C,Q6*%
X104675000Y-13387500D03*
X106575000Y-13387500D03*
X105625000Y-11512500D03*
%TD*%
D24*
%TO.C,U2*%
X96925000Y-27005000D03*
X96925000Y-27505000D03*
X96925000Y-28005000D03*
X96925000Y-28505000D03*
X96925000Y-29005000D03*
X101150000Y-29005000D03*
X101150000Y-28505000D03*
X101150000Y-28005000D03*
X101150000Y-27505000D03*
X101150000Y-27005000D03*
%TD*%
D25*
%TO.C,R22*%
X73045000Y-40425000D03*
X71395000Y-40425000D03*
%TD*%
D13*
%TO.C,R19*%
X51500000Y-17675000D03*
X51500000Y-19325000D03*
%TD*%
D15*
%TO.C,R16*%
X69720000Y-40075000D03*
X69720000Y-38425000D03*
%TD*%
D26*
%TO.C,R38*%
X106475000Y-17950000D03*
X108125000Y-17950000D03*
%TD*%
D27*
%TO.C,TP7*%
X84625000Y-43450000D03*
%TD*%
D10*
%TO.C,C2*%
X93425000Y-20280000D03*
X93425000Y-18730000D03*
%TD*%
D15*
%TO.C,R26*%
X47000000Y-37275000D03*
X47000000Y-35625000D03*
%TD*%
D26*
%TO.C,R42*%
X91475000Y-12950000D03*
X93125000Y-12950000D03*
%TD*%
D28*
%TO.C,Q1*%
X77625000Y-56550000D03*
X77625000Y-58450000D03*
X79500000Y-57500000D03*
%TD*%
D25*
%TO.C,R39*%
X89775000Y-10450000D03*
X88125000Y-10450000D03*
%TD*%
D29*
%TO.C,C8*%
X32125000Y-48972220D03*
D30*
X32125000Y-56472220D03*
%TD*%
D31*
%TO.C,Q3*%
X74125000Y-58950000D03*
X74125000Y-56650000D03*
D32*
X67825000Y-56650000D03*
D31*
X74125000Y-54350000D03*
%TD*%
D26*
%TO.C,R27*%
X98300000Y-24950000D03*
X99950000Y-24950000D03*
%TD*%
D17*
%TO.C,R8*%
X86537500Y-57950000D03*
X84712500Y-57950000D03*
%TD*%
%TO.C,R11*%
X83125000Y-60950000D03*
X81300000Y-60950000D03*
%TD*%
D28*
%TO.C,U17*%
X58500000Y-19500000D03*
X56625000Y-18550000D03*
X56625000Y-20450000D03*
%TD*%
D26*
%TO.C,R4*%
X95062500Y-32505000D03*
X96712500Y-32505000D03*
%TD*%
D14*
%TO.C,C5*%
X101900000Y-38050000D03*
X100350000Y-38050000D03*
%TD*%
D33*
%TO.C,J6*%
X121000000Y-9370000D03*
D34*
X121000000Y-14450000D03*
X121000000Y-19530000D03*
X121000000Y-24610000D03*
%TD*%
D35*
%TO.C,U1*%
X81225000Y-19250000D03*
X81225000Y-20520000D03*
X81225000Y-21790000D03*
X81225000Y-23060000D03*
X81225000Y-24330000D03*
X81225000Y-25600000D03*
X81225000Y-26870000D03*
X81225000Y-28140000D03*
X81225000Y-29410000D03*
X81225000Y-30680000D03*
X81225000Y-31950000D03*
X81225000Y-33220000D03*
X81225000Y-34490000D03*
X81225000Y-35760000D03*
X90625000Y-35760000D03*
X90625000Y-34490000D03*
X90625000Y-33220000D03*
X90625000Y-31950000D03*
X90625000Y-30680000D03*
X90625000Y-29410000D03*
X90625000Y-28140000D03*
X90625000Y-26870000D03*
X90625000Y-25600000D03*
X90625000Y-24330000D03*
X90625000Y-23060000D03*
X90625000Y-21790000D03*
X90625000Y-20520000D03*
X90625000Y-19250000D03*
%TD*%
D26*
%TO.C,R32*%
X106800000Y-20950000D03*
X108450000Y-20950000D03*
%TD*%
D15*
%TO.C,R24*%
X75220000Y-41400000D03*
X75220000Y-39750000D03*
%TD*%
D36*
%TO.C,C13*%
X94725000Y-11950000D03*
X96275000Y-11950000D03*
%TD*%
D37*
%TO.C,U13*%
X110260000Y-17950000D03*
X111530000Y-17950000D03*
X112800000Y-17950000D03*
X114070000Y-17950000D03*
X114070000Y-13000000D03*
X112800000Y-13000000D03*
X111530000Y-13000000D03*
X110260000Y-13000000D03*
%TD*%
D15*
%TO.C,R20*%
X44625000Y-35950000D03*
X44625000Y-34300000D03*
%TD*%
D26*
%TO.C,R31*%
X109975000Y-26012500D03*
X111625000Y-26012500D03*
%TD*%
D25*
%TO.C,R37*%
X101000000Y-10500000D03*
X99350000Y-10500000D03*
%TD*%
D13*
%TO.C,R35*%
X99650000Y-7300000D03*
X99650000Y-8950000D03*
%TD*%
D38*
%TO.C,C20*%
X79125000Y-4950000D03*
D39*
X81625000Y-4950000D03*
%TD*%
D28*
%TO.C,Q7*%
X104250000Y-7500000D03*
X104250000Y-9400000D03*
X106125000Y-8450000D03*
%TD*%
D40*
%TO.C,U5*%
X81625000Y-39600000D03*
X80355000Y-39600000D03*
X79085000Y-39600000D03*
X77815000Y-39600000D03*
X77815000Y-44550000D03*
X79085000Y-44550000D03*
X80355000Y-44550000D03*
X81625000Y-44550000D03*
%TD*%
D12*
%TO.C,C9*%
X108125000Y-14675000D03*
X108125000Y-16225000D03*
%TD*%
D26*
%TO.C,R45*%
X88800000Y-17450000D03*
X90450000Y-17450000D03*
%TD*%
D11*
%TO.C,U11*%
X108625000Y-27075000D03*
X107675000Y-28950000D03*
X109575000Y-28950000D03*
%TD*%
D41*
%TO.C,Y1*%
X100325000Y-39850000D03*
X100325000Y-42050000D03*
X101925000Y-42050000D03*
X101925000Y-39850000D03*
%TD*%
D14*
%TO.C,C4*%
X102005000Y-43950000D03*
X100455000Y-43950000D03*
%TD*%
D16*
%TO.C,D8*%
X101037500Y-20505000D03*
X99162500Y-20505000D03*
%TD*%
D42*
%TO.C,U9*%
X71282500Y-35450000D03*
X73157500Y-36400000D03*
X73157500Y-34500000D03*
%TD*%
D13*
%TO.C,R41*%
X88450000Y-13450000D03*
X88450000Y-15100000D03*
%TD*%
D43*
%TO.C,U3*%
X97425000Y-48530000D03*
X97425000Y-47260000D03*
X97425000Y-45990000D03*
X97425000Y-44720000D03*
X97425000Y-43450000D03*
X97425000Y-42180000D03*
X97425000Y-40910000D03*
X97425000Y-39640000D03*
X97425000Y-38370000D03*
X88125000Y-38370000D03*
X88125000Y-39640000D03*
X88125000Y-40910000D03*
X88125000Y-42180000D03*
X88125000Y-43450000D03*
X88125000Y-44720000D03*
X88125000Y-45990000D03*
X88125000Y-47260000D03*
X88125000Y-48530000D03*
%TD*%
D44*
%TO.C,J5*%
X107125000Y-57227500D03*
D45*
X102045000Y-57227500D03*
X96965000Y-57227500D03*
X91885000Y-57227500D03*
%TD*%
D38*
%TO.C,C19*%
X79125000Y-12450000D03*
D39*
X81625000Y-12450000D03*
%TD*%
D14*
%TO.C,C24*%
X54050000Y-12500000D03*
X52500000Y-12500000D03*
%TD*%
D28*
%TO.C,U15*%
X86450000Y-8950000D03*
X84575000Y-8000000D03*
X84575000Y-9900000D03*
%TD*%
D26*
%TO.C,R44*%
X108800000Y-4950000D03*
X110450000Y-4950000D03*
%TD*%
D27*
%TO.C,L1*%
X22125000Y-37950000D03*
X22125000Y-8250000D03*
%TD*%
D14*
%TO.C,C23*%
X44400000Y-19450000D03*
X42850000Y-19450000D03*
%TD*%
D16*
%TO.C,D1*%
X101187500Y-17965000D03*
X99312500Y-17965000D03*
%TD*%
D46*
%TO.C,J2*%
X56125000Y-25950000D03*
D47*
X56125000Y-28490000D03*
X56125000Y-31030000D03*
X56125000Y-33570000D03*
X56125000Y-36110000D03*
%TD*%
D46*
%TO.C,J1*%
X76000000Y-18920000D03*
D47*
X76000000Y-21460000D03*
X76000000Y-24000000D03*
X76000000Y-26540000D03*
X76000000Y-29080000D03*
%TD*%
D25*
%TO.C,R13*%
X68220000Y-49925000D03*
X66570000Y-49925000D03*
%TD*%
D40*
%TO.C,U7*%
X72125000Y-42450000D03*
X70855000Y-42450000D03*
X69585000Y-42450000D03*
X68315000Y-42450000D03*
X68315000Y-47400000D03*
X69585000Y-47400000D03*
X70855000Y-47400000D03*
X72125000Y-47400000D03*
%TD*%
D48*
%TO.C,U16*%
X61425000Y-13910000D03*
X61425000Y-15180000D03*
X61425000Y-16450000D03*
X61425000Y-17720000D03*
X67625000Y-17720000D03*
X67625000Y-16450000D03*
X67625000Y-15180000D03*
X67625000Y-13910000D03*
%TD*%
%TO.C,U4*%
X108125000Y-43640000D03*
X108125000Y-44910000D03*
X108125000Y-46180000D03*
X108125000Y-47450000D03*
X113325000Y-47450000D03*
X113325000Y-46180000D03*
X113325000Y-44910000D03*
X113325000Y-43640000D03*
%TD*%
D49*
%TO.C,D4*%
X43225000Y-3450000D03*
X48025000Y-3450000D03*
%TD*%
D25*
%TO.C,R1*%
X81500000Y-17000000D03*
X79850000Y-17000000D03*
%TD*%
D15*
%TO.C,R25*%
X75220000Y-37725000D03*
X75220000Y-36075000D03*
%TD*%
D11*
%TO.C,U6*%
X83265000Y-49725000D03*
X82315000Y-51600000D03*
X84215000Y-51600000D03*
%TD*%
D36*
%TO.C,C11*%
X100950000Y-5000000D03*
X102500000Y-5000000D03*
%TD*%
D26*
%TO.C,R3*%
X95212500Y-34505000D03*
X96862500Y-34505000D03*
%TD*%
D15*
%TO.C,R18*%
X53500000Y-19325000D03*
X53500000Y-17675000D03*
%TD*%
D26*
%TO.C,R28*%
X98300000Y-22950000D03*
X99950000Y-22950000D03*
%TD*%
D29*
%TO.C,C22*%
X54625000Y-48950000D03*
D30*
X54625000Y-56450000D03*
%TD*%
D16*
%TO.C,D3*%
X100325000Y-32505000D03*
X98450000Y-32505000D03*
%TD*%
D13*
%TO.C,R29*%
X47000000Y-23175000D03*
X47000000Y-24825000D03*
%TD*%
D50*
%TO.C,R48*%
X56125000Y-14037500D03*
X56125000Y-15862500D03*
%TD*%
D14*
%TO.C,C15*%
X110125000Y-7950000D03*
X108575000Y-7950000D03*
%TD*%
D26*
%TO.C,R51*%
X95600000Y-20005000D03*
X97250000Y-20005000D03*
%TD*%
D12*
%TO.C,C21*%
X72325000Y-14540000D03*
X72325000Y-16090000D03*
%TD*%
D14*
%TO.C,C14*%
X110125000Y-9950000D03*
X108575000Y-9950000D03*
%TD*%
D26*
%TO.C,R50*%
X70300000Y-17950000D03*
X71950000Y-17950000D03*
%TD*%
D36*
%TO.C,C3*%
X92725000Y-27500000D03*
X94275000Y-27500000D03*
%TD*%
D27*
%TO.C,TP5*%
X104425000Y-28505000D03*
%TD*%
D26*
%TO.C,R2*%
X95925000Y-17965000D03*
X97575000Y-17965000D03*
%TD*%
D51*
%TO.C,U12*%
X113125000Y-29887500D03*
X114075000Y-28012500D03*
X112175000Y-28012500D03*
%TD*%
D10*
%TO.C,C1*%
X78125000Y-35950000D03*
X78125000Y-34400000D03*
%TD*%
D17*
%TO.C,R9*%
X83125000Y-57950000D03*
X81300000Y-57950000D03*
%TD*%
D25*
%TO.C,R30*%
X107450000Y-24450000D03*
X105800000Y-24450000D03*
%TD*%
D26*
%TO.C,R43*%
X95800000Y-14950000D03*
X97450000Y-14950000D03*
%TD*%
D12*
%TO.C,C6*%
X73720000Y-48150000D03*
X73720000Y-49700000D03*
%TD*%
%TO.C,C7*%
X43625000Y-49950000D03*
X43625000Y-51500000D03*
%TD*%
D33*
%TO.C,J4*%
X121000000Y-33790000D03*
D34*
X121000000Y-38870000D03*
X121000000Y-43950000D03*
X121000000Y-49030000D03*
%TD*%
D25*
%TO.C,R40*%
X89775000Y-7450000D03*
X88125000Y-7450000D03*
%TD*%
D13*
%TO.C,R46*%
X102625000Y-10625000D03*
X102625000Y-12275000D03*
%TD*%
D25*
%TO.C,R14*%
X71720000Y-49925000D03*
X70070000Y-49925000D03*
%TD*%
D52*
%TO.C,D5*%
X50500000Y-35512500D03*
X50500000Y-37387500D03*
%TD*%
D53*
%TO.C,U14*%
X92175000Y-6545000D03*
X92175000Y-7815000D03*
X92175000Y-9085000D03*
X92175000Y-10355000D03*
X97125000Y-10355000D03*
X97125000Y-9085000D03*
X97125000Y-7815000D03*
X97125000Y-6545000D03*
%TD*%
D13*
%TO.C,R15*%
X66720000Y-43925000D03*
X66720000Y-45575000D03*
%TD*%
D54*
%TO.C,C16*%
X49307380Y-8450000D03*
D39*
X46807380Y-8450000D03*
%TD*%
D26*
%TO.C,R36*%
X97850000Y-12500000D03*
X99500000Y-12500000D03*
%TD*%
D55*
%TO.C,R47*%
X58325000Y-15862500D03*
X58325000Y-14037500D03*
%TD*%
D13*
%TO.C,R5*%
X64530000Y-48650000D03*
X64530000Y-50300000D03*
%TD*%
D26*
%TO.C,R34*%
X113800000Y-20950000D03*
X115450000Y-20950000D03*
%TD*%
D28*
%TO.C,U8*%
X46125000Y-38887500D03*
X44250000Y-37937500D03*
X44250000Y-39837500D03*
%TD*%
D56*
%TO.C,C17*%
X62000000Y-36500000D03*
D39*
X62000000Y-39000000D03*
%TD*%
D10*
%TO.C,C12*%
X97000000Y-4775000D03*
X97000000Y-3225000D03*
%TD*%
D27*
%TO.C,TP3*%
X43625000Y-44450000D03*
%TD*%
D57*
%TO.C,J3*%
X55885000Y-6950000D03*
D45*
X60965000Y-6950000D03*
X66045000Y-6950000D03*
X71125000Y-6950000D03*
%TD*%
D51*
%TO.C,Q2*%
X80075000Y-50575000D03*
X78175000Y-50575000D03*
X79125000Y-52450000D03*
%TD*%
D26*
%TO.C,R33*%
X110300000Y-20950000D03*
X111950000Y-20950000D03*
%TD*%
D36*
%TO.C,C18*%
X63450000Y-19315000D03*
X65000000Y-19315000D03*
%TD*%
D10*
%TO.C,C25*%
X105625000Y-46000000D03*
X105625000Y-44450000D03*
%TD*%
D26*
%TO.C,R17*%
X66395000Y-40425000D03*
X68045000Y-40425000D03*
%TD*%
D17*
%TO.C,R10*%
X86537500Y-60950000D03*
X84712500Y-60950000D03*
%TD*%
D25*
%TO.C,R23*%
X51325000Y-24500000D03*
X49675000Y-24500000D03*
%TD*%
D58*
%TO.C,L2*%
X71250000Y-26950000D03*
X60000000Y-26950000D03*
%TD*%
D27*
%TO.C,TP6*%
X94425000Y-24000000D03*
%TD*%
D17*
%TO.C,R6*%
X86537500Y-54950000D03*
X84712500Y-54950000D03*
%TD*%
D48*
%TO.C,Q4*%
X43900000Y-17405000D03*
X43900000Y-16135000D03*
X43900000Y-14865000D03*
X43900000Y-13595000D03*
X49100000Y-13595000D03*
X49100000Y-17405000D03*
X49100000Y-16135000D03*
X49100000Y-14865000D03*
%TD*%
D59*
%TO.C,U10*%
X51500000Y-32600000D03*
X50230000Y-32600000D03*
X48960000Y-32600000D03*
X47690000Y-32600000D03*
X47690000Y-27400000D03*
X48960000Y-27400000D03*
X50230000Y-27400000D03*
X51500000Y-27400000D03*
%TD*%
M02*
