%TF.GenerationSoftware,KiCad,Pcbnew,9.0.4*%
%TF.CreationDate,2026-05-28T23:47:56-05:00*%
%TF.ProjectId,Cascaded_Proj,43617363-6164-4656-945f-50726f6a2e6b,rev?*%
%TF.SameCoordinates,Original*%
%TF.FileFunction,Drillmap*%
%TF.FilePolarity,Positive*%
%FSLAX45Y45*%
G04 Gerber Fmt 4.5, Leading zero omitted, Abs format (unit mm)*
G04 Created by KiCad (PCBNEW 9.0.4) date 2026-05-28 23:47:56*
%MOMM*%
%LPD*%
G01*
G04 APERTURE LIST*
%ADD10C,0.050000*%
%ADD11C,0.200000*%
%ADD12C,0.100000*%
%ADD13C,0.120000*%
%ADD14C,0.140000*%
%ADD15C,0.190000*%
G04 APERTURE END LIST*
D10*
X11275000Y-6150000D02*
X11262132Y-5812130D01*
X0Y-4137132D02*
X0Y-300000D01*
X11275000Y-6150000D02*
G75*
G02*
X10975000Y-6450000I-300000J0D01*
G01*
X1887132Y-4462132D02*
X312868Y-4450000D01*
X12800000Y-300000D02*
X12800000Y-5200000D01*
X2512868Y-6462868D02*
X10975000Y-6450000D01*
X2512868Y-6462868D02*
G75*
G02*
X2200002Y-6150000I2J312868D01*
G01*
X1887132Y-4462132D02*
G75*
G02*
X2200000Y-4775000I0J-312868D01*
G01*
X312868Y-4450000D02*
G75*
G02*
X0Y-4137132I0J312868D01*
G01*
X12500000Y-5500000D02*
X11562132Y-5512132D01*
X12500000Y0D02*
X300000Y0D01*
X12500000Y0D02*
G75*
G02*
X12800000Y-300000I0J-300000D01*
G01*
X11262132Y-5812132D02*
G75*
G02*
X11562132Y-5512132I299998J2D01*
G01*
X12800000Y-5200000D02*
G75*
G02*
X12500000Y-5500000I-300000J0D01*
G01*
X0Y-300000D02*
G75*
G02*
X300000Y0I300000J0D01*
G01*
X2200002Y-6150000D02*
X2200000Y-4775000D01*
D11*
D12*
X4195000Y-1985000D02*
X4225000Y-2015000D01*
X4225000Y-1985000D02*
X4195000Y-2015000D01*
X4235000Y-5135000D02*
X4265000Y-5165000D01*
X4265000Y-5135000D02*
X4235000Y-5165000D01*
X4435000Y-2985000D02*
X4465000Y-3015000D01*
X4465000Y-2985000D02*
X4435000Y-3015000D01*
X4835000Y-2335000D02*
X4865000Y-2365000D01*
X4865000Y-2335000D02*
X4835000Y-2365000D01*
X4835000Y-2485000D02*
X4865000Y-2515000D01*
X4865000Y-2485000D02*
X4835000Y-2515000D01*
X4885000Y-335000D02*
X4915000Y-365000D01*
X4915000Y-335000D02*
X4885000Y-365000D01*
X5085000Y-1335000D02*
X5115000Y-1365000D01*
X5115000Y-1335000D02*
X5085000Y-1365000D01*
X5096783Y-2323217D02*
X5126783Y-2353217D01*
X5126783Y-2323217D02*
X5096783Y-2353217D01*
X5135000Y-1235000D02*
X5165000Y-1265000D01*
X5165000Y-1235000D02*
X5135000Y-1265000D01*
X5135000Y-2135000D02*
X5165000Y-2165000D01*
X5165000Y-2135000D02*
X5135000Y-2165000D01*
X5185000Y-3535000D02*
X5215000Y-3565000D01*
X5215000Y-3535000D02*
X5185000Y-3565000D01*
X5235000Y-3285000D02*
X5265000Y-3315000D01*
X5265000Y-3285000D02*
X5235000Y-3315000D01*
X5335000Y-1685000D02*
X5365000Y-1715000D01*
X5365000Y-1685000D02*
X5335000Y-1715000D01*
X5535000Y-2435000D02*
X5565000Y-2465000D01*
X5565000Y-2435000D02*
X5535000Y-2465000D01*
X5685000Y-1735000D02*
X5715000Y-1765000D01*
X5715000Y-1735000D02*
X5685000Y-1765000D01*
X5785000Y-3185000D02*
X5815000Y-3215000D01*
X5815000Y-3185000D02*
X5785000Y-3215000D01*
X6135000Y-1835000D02*
X6165000Y-1865000D01*
X6165000Y-1835000D02*
X6135000Y-1865000D01*
X6385000Y-1235000D02*
X6415000Y-1265000D01*
X6415000Y-1235000D02*
X6385000Y-1265000D01*
X6485000Y-1835000D02*
X6515000Y-1865000D01*
X6515000Y-1835000D02*
X6485000Y-1865000D01*
X6635000Y-1235000D02*
X6665000Y-1265000D01*
X6665000Y-1235000D02*
X6635000Y-1265000D01*
X6635000Y-4085000D02*
X6665000Y-4115000D01*
X6665000Y-4085000D02*
X6635000Y-4115000D01*
X6635000Y-4885000D02*
X6665000Y-4915000D01*
X6665000Y-4885000D02*
X6635000Y-4915000D01*
X6735000Y-4235000D02*
X6765000Y-4265000D01*
X6765000Y-4235000D02*
X6735000Y-4265000D01*
X6885000Y-3435000D02*
X6915000Y-3465000D01*
X6915000Y-3435000D02*
X6885000Y-3465000D01*
X7185000Y-1685000D02*
X7215000Y-1715000D01*
X7215000Y-1685000D02*
X7185000Y-1715000D01*
X7194948Y-3286532D02*
X7224948Y-3316532D01*
X7224948Y-3286532D02*
X7194948Y-3316532D01*
X7292870Y-4234630D02*
X7322870Y-4264630D01*
X7322870Y-4234630D02*
X7292870Y-4264630D01*
X7335000Y-5035000D02*
X7365000Y-5065000D01*
X7365000Y-5035000D02*
X7335000Y-5065000D01*
X7377723Y-4149777D02*
X7407723Y-4179777D01*
X7407723Y-4149777D02*
X7377723Y-4179777D01*
X7485000Y-2435000D02*
X7515000Y-2465000D01*
X7515000Y-2435000D02*
X7485000Y-2465000D01*
X7487500Y-4530000D02*
X7517500Y-4560000D01*
X7517500Y-4530000D02*
X7487500Y-4560000D01*
X7487500Y-4730000D02*
X7517500Y-4760000D01*
X7517500Y-4730000D02*
X7487500Y-4760000D01*
X7547500Y-5580000D02*
X7577500Y-5610000D01*
X7577500Y-5580000D02*
X7547500Y-5610000D01*
X7585000Y-4035000D02*
X7615000Y-4065000D01*
X7615000Y-4035000D02*
X7585000Y-4065000D01*
X7597500Y-1330000D02*
X7627500Y-1360000D01*
X7627500Y-1330000D02*
X7597500Y-1360000D01*
X7607500Y-4730000D02*
X7637500Y-4760000D01*
X7637500Y-4730000D02*
X7607500Y-4760000D01*
X7635000Y-3757500D02*
X7665000Y-3787500D01*
X7665000Y-3757500D02*
X7635000Y-3787500D01*
X7647500Y-5430000D02*
X7677500Y-5460000D01*
X7677500Y-5430000D02*
X7647500Y-5460000D01*
X7692500Y-3592500D02*
X7722500Y-3622500D01*
X7722500Y-3592500D02*
X7692500Y-3622500D01*
X7735000Y-4935000D02*
X7765000Y-4965000D01*
X7765000Y-4935000D02*
X7735000Y-4965000D01*
X7735000Y-5885000D02*
X7765000Y-5915000D01*
X7765000Y-5885000D02*
X7735000Y-5915000D01*
X7785000Y-3817500D02*
X7815000Y-3847500D01*
X7815000Y-3817500D02*
X7785000Y-3847500D01*
X7797500Y-1530000D02*
X7827500Y-1560000D01*
X7827500Y-1530000D02*
X7797500Y-1560000D01*
X7835000Y-3113000D02*
X7865000Y-3143000D01*
X7865000Y-3113000D02*
X7835000Y-3143000D01*
X7847500Y-5230000D02*
X7877500Y-5260000D01*
X7877500Y-5230000D02*
X7847500Y-5260000D01*
X7888750Y-4138750D02*
X7918750Y-4168750D01*
X7918750Y-4138750D02*
X7888750Y-4168750D01*
X7935000Y-2835000D02*
X7965000Y-2865000D01*
X7965000Y-2835000D02*
X7935000Y-2865000D01*
X7935000Y-3185000D02*
X7965000Y-3215000D01*
X7965000Y-3185000D02*
X7935000Y-3215000D01*
X7947500Y-5380000D02*
X7977500Y-5410000D01*
X7977500Y-5380000D02*
X7947500Y-5410000D01*
X7985000Y-3685000D02*
X8015000Y-3715000D01*
X8015000Y-3685000D02*
X7985000Y-3715000D01*
X7985000Y-5585000D02*
X8015000Y-5615000D01*
X8015000Y-5585000D02*
X7985000Y-5615000D01*
X8072500Y-4735000D02*
X8102500Y-4765000D01*
X8102500Y-4735000D02*
X8072500Y-4765000D01*
X8135000Y-4085000D02*
X8165000Y-4115000D01*
X8165000Y-4085000D02*
X8135000Y-4115000D01*
X8197500Y-3780000D02*
X8227500Y-3810000D01*
X8227500Y-3780000D02*
X8197500Y-3810000D01*
X8235000Y-4535000D02*
X8265000Y-4565000D01*
X8265000Y-4535000D02*
X8235000Y-4565000D01*
X8266988Y-3175659D02*
X8296988Y-3205659D01*
X8296988Y-3175659D02*
X8266988Y-3205659D01*
X8355526Y-2738027D02*
X8385526Y-2768027D01*
X8385526Y-2738027D02*
X8355526Y-2768027D01*
X8364926Y-3247426D02*
X8394927Y-3277426D01*
X8394927Y-3247426D02*
X8364926Y-3277426D01*
X8385000Y-5635000D02*
X8415000Y-5665000D01*
X8415000Y-5635000D02*
X8385000Y-5665000D01*
X8455527Y-2835000D02*
X8485527Y-2865000D01*
X8485527Y-2835000D02*
X8455527Y-2865000D01*
X8455527Y-3380000D02*
X8485527Y-3410000D01*
X8485527Y-3380000D02*
X8455527Y-3410000D01*
X8538100Y-3039400D02*
X8568100Y-3069400D01*
X8568100Y-3039400D02*
X8538100Y-3069400D01*
X8570000Y-1080000D02*
X8600000Y-1110000D01*
X8600000Y-1080000D02*
X8570000Y-1110000D01*
X8585000Y-1785000D02*
X8615000Y-1815000D01*
X8615000Y-1785000D02*
X8585000Y-1815000D01*
X8585000Y-5185000D02*
X8615000Y-5215000D01*
X8615000Y-5185000D02*
X8585000Y-5215000D01*
X8605527Y-3338026D02*
X8635527Y-3368026D01*
X8635527Y-3338026D02*
X8605527Y-3368026D01*
X8607500Y-4030000D02*
X8637500Y-4060000D01*
X8637500Y-4030000D02*
X8607500Y-4060000D01*
X8647500Y-2980000D02*
X8677500Y-3010000D01*
X8677500Y-2980000D02*
X8647500Y-3010000D01*
X8695674Y-3078173D02*
X8725674Y-3108173D01*
X8725674Y-3078173D02*
X8695674Y-3108173D01*
X8697500Y-1030000D02*
X8727500Y-1060000D01*
X8727500Y-1030000D02*
X8697500Y-1060000D01*
X8699819Y-3236213D02*
X8729819Y-3266213D01*
X8729819Y-3236213D02*
X8699819Y-3266213D01*
X8785000Y-1835000D02*
X8815000Y-1865000D01*
X8815000Y-1835000D02*
X8785000Y-1865000D01*
X8985000Y-1435000D02*
X9015000Y-1465000D01*
X9015000Y-1435000D02*
X8985000Y-1465000D01*
X8997500Y-3730000D02*
X9027500Y-3760000D01*
X9027500Y-3730000D02*
X8997500Y-3760000D01*
X9035000Y-1285000D02*
X9065000Y-1315000D01*
X9065000Y-1285000D02*
X9035000Y-1315000D01*
X9185000Y-1085000D02*
X9215000Y-1115000D01*
X9215000Y-1085000D02*
X9185000Y-1115000D01*
X9275000Y-2932015D02*
X9305000Y-2962015D01*
X9305000Y-2932015D02*
X9275000Y-2962015D01*
X9331006Y-2108000D02*
X9361006Y-2138000D01*
X9361006Y-2108000D02*
X9331006Y-2138000D01*
X9367574Y-1467573D02*
X9397574Y-1497573D01*
X9397574Y-1467573D02*
X9367574Y-1497573D01*
X9395000Y-2885000D02*
X9425000Y-2915000D01*
X9425000Y-2885000D02*
X9395000Y-2915000D01*
X9412921Y-2043107D02*
X9442921Y-2073107D01*
X9442921Y-2043107D02*
X9412921Y-2073107D01*
X9474900Y-1884100D02*
X9504900Y-1914100D01*
X9504900Y-1884100D02*
X9474900Y-1914100D01*
X9480094Y-5139907D02*
X9510094Y-5169907D01*
X9510094Y-5139907D02*
X9480094Y-5169907D01*
X9485000Y-1535000D02*
X9515000Y-1565000D01*
X9515000Y-1535000D02*
X9485000Y-1565000D01*
X9487476Y-2072116D02*
X9517476Y-2102116D01*
X9517476Y-2072116D02*
X9487476Y-2102116D01*
X9542600Y-2980000D02*
X9572600Y-3010000D01*
X9572600Y-2980000D02*
X9542600Y-3010000D01*
X9546250Y-2830090D02*
X9576250Y-2860090D01*
X9576250Y-2830090D02*
X9546250Y-2860090D01*
X9647500Y-2340000D02*
X9677500Y-2370000D01*
X9677500Y-2340000D02*
X9647500Y-2370000D01*
X9685000Y-185000D02*
X9715000Y-215000D01*
X9715000Y-185000D02*
X9685000Y-215000D01*
X9685000Y-2535000D02*
X9715000Y-2565000D01*
X9715000Y-2535000D02*
X9685000Y-2565000D01*
X9685000Y-3085000D02*
X9715000Y-3115000D01*
X9715000Y-3085000D02*
X9685000Y-3115000D01*
X9735000Y-2635000D02*
X9765000Y-2665000D01*
X9765000Y-2635000D02*
X9735000Y-2665000D01*
X9735000Y-5135000D02*
X9765000Y-5165000D01*
X9765000Y-5135000D02*
X9735000Y-5165000D01*
X9785000Y-1335000D02*
X9815000Y-1365000D01*
X9815000Y-1335000D02*
X9785000Y-1365000D01*
X9835000Y-3735000D02*
X9865000Y-3765000D01*
X9865000Y-3735000D02*
X9835000Y-3765000D01*
X9863727Y-1456273D02*
X9893727Y-1486273D01*
X9893727Y-1456273D02*
X9863727Y-1486273D01*
X9917574Y-1117574D02*
X9947574Y-1147574D01*
X9947574Y-1117574D02*
X9917574Y-1147574D01*
X9935000Y-2685000D02*
X9965000Y-2715000D01*
X9965000Y-2685000D02*
X9935000Y-2715000D01*
X9997500Y-4730000D02*
X10027500Y-4760000D01*
X10027500Y-4730000D02*
X9997500Y-4760000D01*
X10035000Y-2385000D02*
X10065000Y-2415000D01*
X10065000Y-2385000D02*
X10035000Y-2415000D01*
X10035000Y-3135000D02*
X10065000Y-3165000D01*
X10065000Y-3135000D02*
X10035000Y-3165000D01*
X10085000Y-3635000D02*
X10115000Y-3665000D01*
X10115000Y-3635000D02*
X10085000Y-3665000D01*
X10185000Y-2135000D02*
X10215000Y-2165000D01*
X10215000Y-2135000D02*
X10185000Y-2165000D01*
X10197500Y-4730000D02*
X10227500Y-4760000D01*
X10227500Y-4730000D02*
X10197500Y-4760000D01*
X10212847Y-1335000D02*
X10242847Y-1365000D01*
X10242847Y-1335000D02*
X10212847Y-1365000D01*
X10235000Y-585000D02*
X10265000Y-615000D01*
X10265000Y-585000D02*
X10235000Y-615000D01*
X10235000Y-1785000D02*
X10265000Y-1815000D01*
X10265000Y-1785000D02*
X10235000Y-1815000D01*
X10235000Y-2385000D02*
X10265000Y-2415000D01*
X10265000Y-2385000D02*
X10235000Y-2415000D01*
X10235000Y-2635000D02*
X10265000Y-2665000D01*
X10265000Y-2635000D02*
X10235000Y-2665000D01*
X10285000Y-3985000D02*
X10315000Y-4015000D01*
X10315000Y-3985000D02*
X10285000Y-4015000D01*
X10285000Y-4385000D02*
X10315000Y-4415000D01*
X10315000Y-4385000D02*
X10285000Y-4415000D01*
X10385000Y-985000D02*
X10415000Y-1015000D01*
X10415000Y-985000D02*
X10385000Y-1015000D01*
X10387600Y-1425930D02*
X10417600Y-1455930D01*
X10417600Y-1425930D02*
X10387600Y-1455930D01*
X10435000Y-2035000D02*
X10465000Y-2065000D01*
X10465000Y-2035000D02*
X10435000Y-2065000D01*
X10485000Y-2435000D02*
X10515000Y-2465000D01*
X10515000Y-2435000D02*
X10485000Y-2465000D01*
X10535000Y-1785000D02*
X10565000Y-1815000D01*
X10565000Y-1785000D02*
X10535000Y-1815000D01*
X10585000Y-1335000D02*
X10615000Y-1365000D01*
X10615000Y-1335000D02*
X10585000Y-1365000D01*
X10585000Y-1885000D02*
X10615000Y-1915000D01*
X10615000Y-1885000D02*
X10585000Y-1915000D01*
X10585921Y-4335921D02*
X10615921Y-4365921D01*
X10615921Y-4335921D02*
X10585921Y-4365921D01*
X10841551Y-2310000D02*
X10871551Y-2340000D01*
X10871551Y-2310000D02*
X10841551Y-2340000D01*
X10935000Y-1985000D02*
X10965000Y-2015000D01*
X10965000Y-1985000D02*
X10935000Y-2015000D01*
X10985000Y-4485000D02*
X11015000Y-4515000D01*
X11015000Y-4485000D02*
X10985000Y-4515000D01*
X11135000Y-2485000D02*
X11165000Y-2515000D01*
X11165000Y-2485000D02*
X11135000Y-2515000D01*
X11185000Y-3135000D02*
X11215000Y-3165000D01*
X11215000Y-3135000D02*
X11185000Y-3165000D01*
X11185000Y-3385000D02*
X11215000Y-3415000D01*
X11215000Y-3385000D02*
X11185000Y-3415000D01*
X11222500Y-2485000D02*
X11252500Y-2515000D01*
X11252500Y-2485000D02*
X11222500Y-2515000D01*
X11385000Y-2485000D02*
X11415000Y-2515000D01*
X11415000Y-2485000D02*
X11385000Y-2515000D01*
X11435000Y-3135000D02*
X11465000Y-3165000D01*
X11465000Y-3135000D02*
X11435000Y-3165000D01*
X11435000Y-3385000D02*
X11465000Y-3415000D01*
X11465000Y-3385000D02*
X11435000Y-3415000D01*
X11485000Y-1885000D02*
X11515000Y-1915000D01*
X11515000Y-1885000D02*
X11485000Y-1915000D01*
X11535000Y-1985000D02*
X11565000Y-2015000D01*
X11565000Y-1985000D02*
X11535000Y-2015000D01*
X4720738Y-845000D02*
G75*
G02*
X4640738Y-845000I-40000J0D01*
G01*
X4640738Y-845000D02*
G75*
G02*
X4720738Y-845000I40000J0D01*
G01*
X4970738Y-845000D02*
G75*
G02*
X4890738Y-845000I-40000J0D01*
G01*
X4890738Y-845000D02*
G75*
G02*
X4970738Y-845000I40000J0D01*
G01*
X6240000Y-3650000D02*
G75*
G02*
X6160000Y-3650000I-40000J0D01*
G01*
X6160000Y-3650000D02*
G75*
G02*
X6240000Y-3650000I40000J0D01*
G01*
X6240000Y-3900000D02*
G75*
G02*
X6160000Y-3900000I-40000J0D01*
G01*
X6160000Y-3900000D02*
G75*
G02*
X6240000Y-3900000I40000J0D01*
G01*
X7952500Y-495000D02*
G75*
G02*
X7872500Y-495000I-40000J0D01*
G01*
X7872500Y-495000D02*
G75*
G02*
X7952500Y-495000I40000J0D01*
G01*
X7952500Y-1245000D02*
G75*
G02*
X7872500Y-1245000I-40000J0D01*
G01*
X7872500Y-1245000D02*
G75*
G02*
X7952500Y-1245000I40000J0D01*
G01*
X8202500Y-495000D02*
G75*
G02*
X8122500Y-495000I-40000J0D01*
G01*
X8122500Y-495000D02*
G75*
G02*
X8202500Y-495000I40000J0D01*
G01*
X8202500Y-1245000D02*
G75*
G02*
X8122500Y-1245000I-40000J0D01*
G01*
X8122500Y-1245000D02*
G75*
G02*
X8202500Y-1245000I40000J0D01*
G01*
X5612500Y-2545000D02*
X5612500Y-2645000D01*
X5562500Y-2595000D02*
X5662500Y-2595000D01*
X5612500Y-2799000D02*
X5612500Y-2899000D01*
X5562500Y-2849000D02*
X5662500Y-2849000D01*
X5612500Y-3053000D02*
X5612500Y-3153000D01*
X5562500Y-3103000D02*
X5662500Y-3103000D01*
X5612500Y-3307000D02*
X5612500Y-3407000D01*
X5562500Y-3357000D02*
X5662500Y-3357000D01*
X5612500Y-3561000D02*
X5612500Y-3661000D01*
X5562500Y-3611000D02*
X5662500Y-3611000D01*
X7600000Y-1842000D02*
X7600000Y-1942000D01*
X7550000Y-1892000D02*
X7650000Y-1892000D01*
X7600000Y-2096000D02*
X7600000Y-2196000D01*
X7550000Y-2146000D02*
X7650000Y-2146000D01*
X7600000Y-2350000D02*
X7600000Y-2450000D01*
X7550000Y-2400000D02*
X7650000Y-2400000D01*
X7600000Y-2604000D02*
X7600000Y-2704000D01*
X7550000Y-2654000D02*
X7650000Y-2654000D01*
X7600000Y-2858000D02*
X7600000Y-2958000D01*
X7550000Y-2908000D02*
X7650000Y-2908000D01*
D13*
X3254927Y-4939649D02*
X3254927Y-4854795D01*
X3170073Y-4854795D01*
X3170073Y-4939649D01*
X3254927Y-4939649D01*
X3254927Y-5689649D02*
X3254927Y-5604795D01*
X3170073Y-5604795D01*
X3170073Y-5689649D01*
X3254927Y-5689649D01*
X5504927Y-4937427D02*
X5504927Y-4852573D01*
X5420073Y-4852573D01*
X5420073Y-4937427D01*
X5504927Y-4937427D01*
X5504927Y-5687427D02*
X5504927Y-5602573D01*
X5420073Y-5602573D01*
X5420073Y-5687427D01*
X5504927Y-5687427D01*
D14*
X5588500Y-765000D02*
X5658500Y-695000D01*
X5588500Y-625000D01*
X5518500Y-695000D01*
X5588500Y-765000D01*
X6096500Y-765000D02*
X6166500Y-695000D01*
X6096500Y-625000D01*
X6026500Y-695000D01*
X6096500Y-765000D01*
X6604500Y-765000D02*
X6674500Y-695000D01*
X6604500Y-625000D01*
X6534500Y-695000D01*
X6604500Y-765000D01*
X7112500Y-765000D02*
X7182500Y-695000D01*
X7112500Y-625000D01*
X7042500Y-695000D01*
X7112500Y-765000D01*
X9188500Y-5792750D02*
X9258500Y-5722750D01*
X9188500Y-5652750D01*
X9118500Y-5722750D01*
X9188500Y-5792750D01*
X9696500Y-5792750D02*
X9766500Y-5722750D01*
X9696500Y-5652750D01*
X9626500Y-5722750D01*
X9696500Y-5792750D01*
X10204500Y-5792750D02*
X10274500Y-5722750D01*
X10204500Y-5652750D01*
X10134500Y-5722750D01*
X10204500Y-5792750D01*
X10712500Y-5792750D02*
X10782500Y-5722750D01*
X10712500Y-5652750D01*
X10642500Y-5722750D01*
X10712500Y-5792750D01*
X12100000Y-1007000D02*
X12170000Y-937000D01*
X12100000Y-867000D01*
X12030000Y-937000D01*
X12100000Y-1007000D01*
X12100000Y-1515000D02*
X12170000Y-1445000D01*
X12100000Y-1375000D01*
X12030000Y-1445000D01*
X12100000Y-1515000D01*
X12100000Y-2023000D02*
X12170000Y-1953000D01*
X12100000Y-1883000D01*
X12030000Y-1953000D01*
X12100000Y-2023000D01*
X12100000Y-2531000D02*
X12170000Y-2461000D01*
X12100000Y-2391000D01*
X12030000Y-2461000D01*
X12100000Y-2531000D01*
X12100000Y-3449000D02*
X12170000Y-3379000D01*
X12100000Y-3309000D01*
X12030000Y-3379000D01*
X12100000Y-3449000D01*
X12100000Y-3957000D02*
X12170000Y-3887000D01*
X12100000Y-3817000D01*
X12030000Y-3887000D01*
X12100000Y-3957000D01*
X12100000Y-4465000D02*
X12170000Y-4395000D01*
X12100000Y-4325000D01*
X12030000Y-4395000D01*
X12100000Y-4465000D01*
X12100000Y-4973000D02*
X12170000Y-4903000D01*
X12100000Y-4833000D01*
X12030000Y-4903000D01*
X12100000Y-4973000D01*
D15*
X2117500Y-730000D02*
X2307500Y-920000D01*
X2307500Y-730000D02*
X2117500Y-920000D01*
X2307500Y-825000D02*
G75*
G02*
X2117500Y-825000I-95000J0D01*
G01*
X2117500Y-825000D02*
G75*
G02*
X2307500Y-825000I95000J0D01*
G01*
X2117500Y-3700000D02*
X2307500Y-3890000D01*
X2307500Y-3700000D02*
X2117500Y-3890000D01*
X2307500Y-3795000D02*
G75*
G02*
X2117500Y-3795000I-95000J0D01*
G01*
X2117500Y-3795000D02*
G75*
G02*
X2307500Y-3795000I95000J0D01*
G01*
D11*
X4262500Y-4345000D02*
X4462500Y-4545000D01*
X4462500Y-4345000D02*
X4262500Y-4545000D01*
X4362500Y-4345000D02*
X4362500Y-4545000D01*
X4262500Y-4445000D02*
X4462500Y-4445000D01*
X8362500Y-4245000D02*
X8562500Y-4445000D01*
X8562500Y-4245000D02*
X8362500Y-4445000D01*
X8462500Y-4245000D02*
X8462500Y-4445000D01*
X8362500Y-4345000D02*
X8562500Y-4345000D01*
X9342500Y-2300000D02*
X9542500Y-2500000D01*
X9542500Y-2300000D02*
X9342500Y-2500000D01*
X9442500Y-2300000D02*
X9442500Y-2500000D01*
X9342500Y-2400000D02*
X9542500Y-2400000D01*
X10342500Y-2750500D02*
X10542500Y-2950500D01*
X10542500Y-2750500D02*
X10342500Y-2950500D01*
X10442500Y-2750500D02*
X10442500Y-2950500D01*
X10342500Y-2850500D02*
X10542500Y-2850500D01*
X258277Y-6776851D02*
X258277Y-6576851D01*
X258277Y-6576851D02*
X305896Y-6576851D01*
X305896Y-6576851D02*
X334467Y-6586375D01*
X334467Y-6586375D02*
X353515Y-6605423D01*
X353515Y-6605423D02*
X363039Y-6624470D01*
X363039Y-6624470D02*
X372562Y-6662566D01*
X372562Y-6662566D02*
X372562Y-6691137D01*
X372562Y-6691137D02*
X363039Y-6729232D01*
X363039Y-6729232D02*
X353515Y-6748280D01*
X353515Y-6748280D02*
X334467Y-6767328D01*
X334467Y-6767328D02*
X305896Y-6776851D01*
X305896Y-6776851D02*
X258277Y-6776851D01*
X458277Y-6776851D02*
X458277Y-6643518D01*
X458277Y-6681613D02*
X467801Y-6662566D01*
X467801Y-6662566D02*
X477324Y-6653042D01*
X477324Y-6653042D02*
X496372Y-6643518D01*
X496372Y-6643518D02*
X515420Y-6643518D01*
X582086Y-6776851D02*
X582086Y-6643518D01*
X582086Y-6576851D02*
X572563Y-6586375D01*
X572563Y-6586375D02*
X582086Y-6595899D01*
X582086Y-6595899D02*
X591610Y-6586375D01*
X591610Y-6586375D02*
X582086Y-6576851D01*
X582086Y-6576851D02*
X582086Y-6595899D01*
X705896Y-6776851D02*
X686848Y-6767328D01*
X686848Y-6767328D02*
X677324Y-6748280D01*
X677324Y-6748280D02*
X677324Y-6576851D01*
X810658Y-6776851D02*
X791610Y-6767328D01*
X791610Y-6767328D02*
X782086Y-6748280D01*
X782086Y-6748280D02*
X782086Y-6576851D01*
X1039229Y-6776851D02*
X1039229Y-6576851D01*
X1039229Y-6576851D02*
X1105896Y-6719708D01*
X1105896Y-6719708D02*
X1172563Y-6576851D01*
X1172563Y-6576851D02*
X1172563Y-6776851D01*
X1353515Y-6776851D02*
X1353515Y-6672089D01*
X1353515Y-6672089D02*
X1343991Y-6653042D01*
X1343991Y-6653042D02*
X1324944Y-6643518D01*
X1324944Y-6643518D02*
X1286848Y-6643518D01*
X1286848Y-6643518D02*
X1267801Y-6653042D01*
X1353515Y-6767328D02*
X1334467Y-6776851D01*
X1334467Y-6776851D02*
X1286848Y-6776851D01*
X1286848Y-6776851D02*
X1267801Y-6767328D01*
X1267801Y-6767328D02*
X1258277Y-6748280D01*
X1258277Y-6748280D02*
X1258277Y-6729232D01*
X1258277Y-6729232D02*
X1267801Y-6710185D01*
X1267801Y-6710185D02*
X1286848Y-6700661D01*
X1286848Y-6700661D02*
X1334467Y-6700661D01*
X1334467Y-6700661D02*
X1353515Y-6691137D01*
X1448753Y-6643518D02*
X1448753Y-6843518D01*
X1448753Y-6653042D02*
X1467801Y-6643518D01*
X1467801Y-6643518D02*
X1505896Y-6643518D01*
X1505896Y-6643518D02*
X1524943Y-6653042D01*
X1524943Y-6653042D02*
X1534467Y-6662566D01*
X1534467Y-6662566D02*
X1543991Y-6681613D01*
X1543991Y-6681613D02*
X1543991Y-6738756D01*
X1543991Y-6738756D02*
X1534467Y-6757804D01*
X1534467Y-6757804D02*
X1524943Y-6767328D01*
X1524943Y-6767328D02*
X1505896Y-6776851D01*
X1505896Y-6776851D02*
X1467801Y-6776851D01*
X1467801Y-6776851D02*
X1448753Y-6767328D01*
X1629705Y-6757804D02*
X1639229Y-6767328D01*
X1639229Y-6767328D02*
X1629705Y-6776851D01*
X1629705Y-6776851D02*
X1620182Y-6767328D01*
X1620182Y-6767328D02*
X1629705Y-6757804D01*
X1629705Y-6757804D02*
X1629705Y-6776851D01*
X1629705Y-6653042D02*
X1639229Y-6662566D01*
X1639229Y-6662566D02*
X1629705Y-6672089D01*
X1629705Y-6672089D02*
X1620182Y-6662566D01*
X1620182Y-6662566D02*
X1629705Y-6653042D01*
X1629705Y-6653042D02*
X1629705Y-6672089D01*
D12*
X-32500Y-7090368D02*
X-2500Y-7120368D01*
X-2500Y-7090368D02*
X-32500Y-7120368D01*
D11*
X296372Y-6996851D02*
X315420Y-6996851D01*
X315420Y-6996851D02*
X334467Y-7006375D01*
X334467Y-7006375D02*
X343991Y-7015899D01*
X343991Y-7015899D02*
X353515Y-7034947D01*
X353515Y-7034947D02*
X363039Y-7073042D01*
X363039Y-7073042D02*
X363039Y-7120661D01*
X363039Y-7120661D02*
X353515Y-7158756D01*
X353515Y-7158756D02*
X343991Y-7177804D01*
X343991Y-7177804D02*
X334467Y-7187328D01*
X334467Y-7187328D02*
X315420Y-7196851D01*
X315420Y-7196851D02*
X296372Y-7196851D01*
X296372Y-7196851D02*
X277324Y-7187328D01*
X277324Y-7187328D02*
X267801Y-7177804D01*
X267801Y-7177804D02*
X258277Y-7158756D01*
X258277Y-7158756D02*
X248753Y-7120661D01*
X248753Y-7120661D02*
X248753Y-7073042D01*
X248753Y-7073042D02*
X258277Y-7034947D01*
X258277Y-7034947D02*
X267801Y-7015899D01*
X267801Y-7015899D02*
X277324Y-7006375D01*
X277324Y-7006375D02*
X296372Y-6996851D01*
X448753Y-7177804D02*
X458277Y-7187328D01*
X458277Y-7187328D02*
X448753Y-7196851D01*
X448753Y-7196851D02*
X439229Y-7187328D01*
X439229Y-7187328D02*
X448753Y-7177804D01*
X448753Y-7177804D02*
X448753Y-7196851D01*
X524944Y-6996851D02*
X648753Y-6996851D01*
X648753Y-6996851D02*
X582086Y-7073042D01*
X582086Y-7073042D02*
X610658Y-7073042D01*
X610658Y-7073042D02*
X629705Y-7082566D01*
X629705Y-7082566D02*
X639229Y-7092089D01*
X639229Y-7092089D02*
X648753Y-7111137D01*
X648753Y-7111137D02*
X648753Y-7158756D01*
X648753Y-7158756D02*
X639229Y-7177804D01*
X639229Y-7177804D02*
X629705Y-7187328D01*
X629705Y-7187328D02*
X610658Y-7196851D01*
X610658Y-7196851D02*
X553515Y-7196851D01*
X553515Y-7196851D02*
X534467Y-7187328D01*
X534467Y-7187328D02*
X524944Y-7177804D01*
X772562Y-6996851D02*
X791610Y-6996851D01*
X791610Y-6996851D02*
X810658Y-7006375D01*
X810658Y-7006375D02*
X820182Y-7015899D01*
X820182Y-7015899D02*
X829705Y-7034947D01*
X829705Y-7034947D02*
X839229Y-7073042D01*
X839229Y-7073042D02*
X839229Y-7120661D01*
X839229Y-7120661D02*
X829705Y-7158756D01*
X829705Y-7158756D02*
X820182Y-7177804D01*
X820182Y-7177804D02*
X810658Y-7187328D01*
X810658Y-7187328D02*
X791610Y-7196851D01*
X791610Y-7196851D02*
X772562Y-7196851D01*
X772562Y-7196851D02*
X753515Y-7187328D01*
X753515Y-7187328D02*
X743991Y-7177804D01*
X743991Y-7177804D02*
X734467Y-7158756D01*
X734467Y-7158756D02*
X724943Y-7120661D01*
X724943Y-7120661D02*
X724943Y-7073042D01*
X724943Y-7073042D02*
X734467Y-7034947D01*
X734467Y-7034947D02*
X743991Y-7015899D01*
X743991Y-7015899D02*
X753515Y-7006375D01*
X753515Y-7006375D02*
X772562Y-6996851D01*
X963039Y-6996851D02*
X982086Y-6996851D01*
X982086Y-6996851D02*
X1001134Y-7006375D01*
X1001134Y-7006375D02*
X1010658Y-7015899D01*
X1010658Y-7015899D02*
X1020182Y-7034947D01*
X1020182Y-7034947D02*
X1029705Y-7073042D01*
X1029705Y-7073042D02*
X1029705Y-7120661D01*
X1029705Y-7120661D02*
X1020182Y-7158756D01*
X1020182Y-7158756D02*
X1010658Y-7177804D01*
X1010658Y-7177804D02*
X1001134Y-7187328D01*
X1001134Y-7187328D02*
X982086Y-7196851D01*
X982086Y-7196851D02*
X963039Y-7196851D01*
X963039Y-7196851D02*
X943991Y-7187328D01*
X943991Y-7187328D02*
X934467Y-7177804D01*
X934467Y-7177804D02*
X924943Y-7158756D01*
X924943Y-7158756D02*
X915420Y-7120661D01*
X915420Y-7120661D02*
X915420Y-7073042D01*
X915420Y-7073042D02*
X924943Y-7034947D01*
X924943Y-7034947D02*
X934467Y-7015899D01*
X934467Y-7015899D02*
X943991Y-7006375D01*
X943991Y-7006375D02*
X963039Y-6996851D01*
X1115420Y-7196851D02*
X1115420Y-7063518D01*
X1115420Y-7082566D02*
X1124944Y-7073042D01*
X1124944Y-7073042D02*
X1143991Y-7063518D01*
X1143991Y-7063518D02*
X1172563Y-7063518D01*
X1172563Y-7063518D02*
X1191610Y-7073042D01*
X1191610Y-7073042D02*
X1201134Y-7092089D01*
X1201134Y-7092089D02*
X1201134Y-7196851D01*
X1201134Y-7092089D02*
X1210658Y-7073042D01*
X1210658Y-7073042D02*
X1229705Y-7063518D01*
X1229705Y-7063518D02*
X1258277Y-7063518D01*
X1258277Y-7063518D02*
X1277325Y-7073042D01*
X1277325Y-7073042D02*
X1286848Y-7092089D01*
X1286848Y-7092089D02*
X1286848Y-7196851D01*
X1382086Y-7196851D02*
X1382086Y-7063518D01*
X1382086Y-7082566D02*
X1391610Y-7073042D01*
X1391610Y-7073042D02*
X1410658Y-7063518D01*
X1410658Y-7063518D02*
X1439229Y-7063518D01*
X1439229Y-7063518D02*
X1458277Y-7073042D01*
X1458277Y-7073042D02*
X1467801Y-7092089D01*
X1467801Y-7092089D02*
X1467801Y-7196851D01*
X1467801Y-7092089D02*
X1477324Y-7073042D01*
X1477324Y-7073042D02*
X1496372Y-7063518D01*
X1496372Y-7063518D02*
X1524943Y-7063518D01*
X1524943Y-7063518D02*
X1543991Y-7073042D01*
X1543991Y-7073042D02*
X1553515Y-7092089D01*
X1553515Y-7092089D02*
X1553515Y-7196851D01*
X1943991Y-6987328D02*
X1772563Y-7244470D01*
X2201134Y-6996851D02*
X2220182Y-6996851D01*
X2220182Y-6996851D02*
X2239229Y-7006375D01*
X2239229Y-7006375D02*
X2248753Y-7015899D01*
X2248753Y-7015899D02*
X2258277Y-7034947D01*
X2258277Y-7034947D02*
X2267801Y-7073042D01*
X2267801Y-7073042D02*
X2267801Y-7120661D01*
X2267801Y-7120661D02*
X2258277Y-7158756D01*
X2258277Y-7158756D02*
X2248753Y-7177804D01*
X2248753Y-7177804D02*
X2239229Y-7187328D01*
X2239229Y-7187328D02*
X2220182Y-7196851D01*
X2220182Y-7196851D02*
X2201134Y-7196851D01*
X2201134Y-7196851D02*
X2182087Y-7187328D01*
X2182087Y-7187328D02*
X2172563Y-7177804D01*
X2172563Y-7177804D02*
X2163039Y-7158756D01*
X2163039Y-7158756D02*
X2153515Y-7120661D01*
X2153515Y-7120661D02*
X2153515Y-7073042D01*
X2153515Y-7073042D02*
X2163039Y-7034947D01*
X2163039Y-7034947D02*
X2172563Y-7015899D01*
X2172563Y-7015899D02*
X2182087Y-7006375D01*
X2182087Y-7006375D02*
X2201134Y-6996851D01*
X2353515Y-7177804D02*
X2363039Y-7187328D01*
X2363039Y-7187328D02*
X2353515Y-7196851D01*
X2353515Y-7196851D02*
X2343991Y-7187328D01*
X2343991Y-7187328D02*
X2353515Y-7177804D01*
X2353515Y-7177804D02*
X2353515Y-7196851D01*
X2486848Y-6996851D02*
X2505896Y-6996851D01*
X2505896Y-6996851D02*
X2524944Y-7006375D01*
X2524944Y-7006375D02*
X2534468Y-7015899D01*
X2534468Y-7015899D02*
X2543991Y-7034947D01*
X2543991Y-7034947D02*
X2553515Y-7073042D01*
X2553515Y-7073042D02*
X2553515Y-7120661D01*
X2553515Y-7120661D02*
X2543991Y-7158756D01*
X2543991Y-7158756D02*
X2534468Y-7177804D01*
X2534468Y-7177804D02*
X2524944Y-7187328D01*
X2524944Y-7187328D02*
X2505896Y-7196851D01*
X2505896Y-7196851D02*
X2486848Y-7196851D01*
X2486848Y-7196851D02*
X2467801Y-7187328D01*
X2467801Y-7187328D02*
X2458277Y-7177804D01*
X2458277Y-7177804D02*
X2448753Y-7158756D01*
X2448753Y-7158756D02*
X2439229Y-7120661D01*
X2439229Y-7120661D02*
X2439229Y-7073042D01*
X2439229Y-7073042D02*
X2448753Y-7034947D01*
X2448753Y-7034947D02*
X2458277Y-7015899D01*
X2458277Y-7015899D02*
X2467801Y-7006375D01*
X2467801Y-7006375D02*
X2486848Y-6996851D01*
X2743991Y-7196851D02*
X2629706Y-7196851D01*
X2686848Y-7196851D02*
X2686848Y-6996851D01*
X2686848Y-6996851D02*
X2667801Y-7025423D01*
X2667801Y-7025423D02*
X2648753Y-7044470D01*
X2648753Y-7044470D02*
X2629706Y-7053994D01*
X2934467Y-7196851D02*
X2820182Y-7196851D01*
X2877325Y-7196851D02*
X2877325Y-6996851D01*
X2877325Y-6996851D02*
X2858277Y-7025423D01*
X2858277Y-7025423D02*
X2839229Y-7044470D01*
X2839229Y-7044470D02*
X2820182Y-7053994D01*
X3048753Y-7082566D02*
X3029706Y-7073042D01*
X3029706Y-7073042D02*
X3020182Y-7063518D01*
X3020182Y-7063518D02*
X3010658Y-7044470D01*
X3010658Y-7044470D02*
X3010658Y-7034947D01*
X3010658Y-7034947D02*
X3020182Y-7015899D01*
X3020182Y-7015899D02*
X3029706Y-7006375D01*
X3029706Y-7006375D02*
X3048753Y-6996851D01*
X3048753Y-6996851D02*
X3086848Y-6996851D01*
X3086848Y-6996851D02*
X3105896Y-7006375D01*
X3105896Y-7006375D02*
X3115420Y-7015899D01*
X3115420Y-7015899D02*
X3124944Y-7034947D01*
X3124944Y-7034947D02*
X3124944Y-7044470D01*
X3124944Y-7044470D02*
X3115420Y-7063518D01*
X3115420Y-7063518D02*
X3105896Y-7073042D01*
X3105896Y-7073042D02*
X3086848Y-7082566D01*
X3086848Y-7082566D02*
X3048753Y-7082566D01*
X3048753Y-7082566D02*
X3029706Y-7092089D01*
X3029706Y-7092089D02*
X3020182Y-7101613D01*
X3020182Y-7101613D02*
X3010658Y-7120661D01*
X3010658Y-7120661D02*
X3010658Y-7158756D01*
X3010658Y-7158756D02*
X3020182Y-7177804D01*
X3020182Y-7177804D02*
X3029706Y-7187328D01*
X3029706Y-7187328D02*
X3048753Y-7196851D01*
X3048753Y-7196851D02*
X3086848Y-7196851D01*
X3086848Y-7196851D02*
X3105896Y-7187328D01*
X3105896Y-7187328D02*
X3115420Y-7177804D01*
X3115420Y-7177804D02*
X3124944Y-7158756D01*
X3124944Y-7158756D02*
X3124944Y-7120661D01*
X3124944Y-7120661D02*
X3115420Y-7101613D01*
X3115420Y-7101613D02*
X3105896Y-7092089D01*
X3105896Y-7092089D02*
X3086848Y-7082566D01*
X3201134Y-6996851D02*
X3201134Y-7034947D01*
X3277325Y-6996851D02*
X3277325Y-7034947D01*
X3572563Y-7273042D02*
X3563039Y-7263518D01*
X3563039Y-7263518D02*
X3543991Y-7234947D01*
X3543991Y-7234947D02*
X3534468Y-7215899D01*
X3534468Y-7215899D02*
X3524944Y-7187328D01*
X3524944Y-7187328D02*
X3515420Y-7139708D01*
X3515420Y-7139708D02*
X3515420Y-7101613D01*
X3515420Y-7101613D02*
X3524944Y-7053994D01*
X3524944Y-7053994D02*
X3534468Y-7025423D01*
X3534468Y-7025423D02*
X3543991Y-7006375D01*
X3543991Y-7006375D02*
X3563039Y-6977804D01*
X3563039Y-6977804D02*
X3572563Y-6968280D01*
X3753515Y-7196851D02*
X3639229Y-7196851D01*
X3696372Y-7196851D02*
X3696372Y-6996851D01*
X3696372Y-6996851D02*
X3677325Y-7025423D01*
X3677325Y-7025423D02*
X3658277Y-7044470D01*
X3658277Y-7044470D02*
X3639229Y-7053994D01*
X3820182Y-6996851D02*
X3943991Y-6996851D01*
X3943991Y-6996851D02*
X3877325Y-7073042D01*
X3877325Y-7073042D02*
X3905896Y-7073042D01*
X3905896Y-7073042D02*
X3924944Y-7082566D01*
X3924944Y-7082566D02*
X3934468Y-7092089D01*
X3934468Y-7092089D02*
X3943991Y-7111137D01*
X3943991Y-7111137D02*
X3943991Y-7158756D01*
X3943991Y-7158756D02*
X3934468Y-7177804D01*
X3934468Y-7177804D02*
X3924944Y-7187328D01*
X3924944Y-7187328D02*
X3905896Y-7196851D01*
X3905896Y-7196851D02*
X3848753Y-7196851D01*
X3848753Y-7196851D02*
X3829706Y-7187328D01*
X3829706Y-7187328D02*
X3820182Y-7177804D01*
X4134468Y-7196851D02*
X4020182Y-7196851D01*
X4077325Y-7196851D02*
X4077325Y-6996851D01*
X4077325Y-6996851D02*
X4058277Y-7025423D01*
X4058277Y-7025423D02*
X4039229Y-7044470D01*
X4039229Y-7044470D02*
X4020182Y-7053994D01*
X4372563Y-7196851D02*
X4372563Y-6996851D01*
X4458277Y-7196851D02*
X4458277Y-7092089D01*
X4458277Y-7092089D02*
X4448753Y-7073042D01*
X4448753Y-7073042D02*
X4429706Y-7063518D01*
X4429706Y-7063518D02*
X4401134Y-7063518D01*
X4401134Y-7063518D02*
X4382087Y-7073042D01*
X4382087Y-7073042D02*
X4372563Y-7082566D01*
X4582087Y-7196851D02*
X4563039Y-7187328D01*
X4563039Y-7187328D02*
X4553515Y-7177804D01*
X4553515Y-7177804D02*
X4543992Y-7158756D01*
X4543992Y-7158756D02*
X4543992Y-7101613D01*
X4543992Y-7101613D02*
X4553515Y-7082566D01*
X4553515Y-7082566D02*
X4563039Y-7073042D01*
X4563039Y-7073042D02*
X4582087Y-7063518D01*
X4582087Y-7063518D02*
X4610658Y-7063518D01*
X4610658Y-7063518D02*
X4629706Y-7073042D01*
X4629706Y-7073042D02*
X4639230Y-7082566D01*
X4639230Y-7082566D02*
X4648753Y-7101613D01*
X4648753Y-7101613D02*
X4648753Y-7158756D01*
X4648753Y-7158756D02*
X4639230Y-7177804D01*
X4639230Y-7177804D02*
X4629706Y-7187328D01*
X4629706Y-7187328D02*
X4610658Y-7196851D01*
X4610658Y-7196851D02*
X4582087Y-7196851D01*
X4763039Y-7196851D02*
X4743992Y-7187328D01*
X4743992Y-7187328D02*
X4734468Y-7168280D01*
X4734468Y-7168280D02*
X4734468Y-6996851D01*
X4915420Y-7187328D02*
X4896373Y-7196851D01*
X4896373Y-7196851D02*
X4858277Y-7196851D01*
X4858277Y-7196851D02*
X4839230Y-7187328D01*
X4839230Y-7187328D02*
X4829706Y-7168280D01*
X4829706Y-7168280D02*
X4829706Y-7092089D01*
X4829706Y-7092089D02*
X4839230Y-7073042D01*
X4839230Y-7073042D02*
X4858277Y-7063518D01*
X4858277Y-7063518D02*
X4896373Y-7063518D01*
X4896373Y-7063518D02*
X4915420Y-7073042D01*
X4915420Y-7073042D02*
X4924944Y-7092089D01*
X4924944Y-7092089D02*
X4924944Y-7111137D01*
X4924944Y-7111137D02*
X4829706Y-7130185D01*
X5001134Y-7187328D02*
X5020182Y-7196851D01*
X5020182Y-7196851D02*
X5058277Y-7196851D01*
X5058277Y-7196851D02*
X5077325Y-7187328D01*
X5077325Y-7187328D02*
X5086849Y-7168280D01*
X5086849Y-7168280D02*
X5086849Y-7158756D01*
X5086849Y-7158756D02*
X5077325Y-7139708D01*
X5077325Y-7139708D02*
X5058277Y-7130185D01*
X5058277Y-7130185D02*
X5029706Y-7130185D01*
X5029706Y-7130185D02*
X5010658Y-7120661D01*
X5010658Y-7120661D02*
X5001134Y-7101613D01*
X5001134Y-7101613D02*
X5001134Y-7092089D01*
X5001134Y-7092089D02*
X5010658Y-7073042D01*
X5010658Y-7073042D02*
X5029706Y-7063518D01*
X5029706Y-7063518D02*
X5058277Y-7063518D01*
X5058277Y-7063518D02*
X5077325Y-7073042D01*
X5153515Y-7273042D02*
X5163039Y-7263518D01*
X5163039Y-7263518D02*
X5182087Y-7234947D01*
X5182087Y-7234947D02*
X5191611Y-7215899D01*
X5191611Y-7215899D02*
X5201134Y-7187328D01*
X5201134Y-7187328D02*
X5210658Y-7139708D01*
X5210658Y-7139708D02*
X5210658Y-7101613D01*
X5210658Y-7101613D02*
X5201134Y-7053994D01*
X5201134Y-7053994D02*
X5191611Y-7025423D01*
X5191611Y-7025423D02*
X5182087Y-7006375D01*
X5182087Y-7006375D02*
X5163039Y-6977804D01*
X5163039Y-6977804D02*
X5153515Y-6968280D01*
D12*
X-2500Y-7369368D02*
G75*
G02*
X-82500Y-7369368I-40000J0D01*
G01*
X-82500Y-7369368D02*
G75*
G02*
X-2500Y-7369368I40000J0D01*
G01*
D11*
X296372Y-7260851D02*
X315420Y-7260851D01*
X315420Y-7260851D02*
X334467Y-7270375D01*
X334467Y-7270375D02*
X343991Y-7279899D01*
X343991Y-7279899D02*
X353515Y-7298947D01*
X353515Y-7298947D02*
X363039Y-7337042D01*
X363039Y-7337042D02*
X363039Y-7384661D01*
X363039Y-7384661D02*
X353515Y-7422756D01*
X353515Y-7422756D02*
X343991Y-7441804D01*
X343991Y-7441804D02*
X334467Y-7451328D01*
X334467Y-7451328D02*
X315420Y-7460851D01*
X315420Y-7460851D02*
X296372Y-7460851D01*
X296372Y-7460851D02*
X277324Y-7451328D01*
X277324Y-7451328D02*
X267801Y-7441804D01*
X267801Y-7441804D02*
X258277Y-7422756D01*
X258277Y-7422756D02*
X248753Y-7384661D01*
X248753Y-7384661D02*
X248753Y-7337042D01*
X248753Y-7337042D02*
X258277Y-7298947D01*
X258277Y-7298947D02*
X267801Y-7279899D01*
X267801Y-7279899D02*
X277324Y-7270375D01*
X277324Y-7270375D02*
X296372Y-7260851D01*
X448753Y-7441804D02*
X458277Y-7451328D01*
X458277Y-7451328D02*
X448753Y-7460851D01*
X448753Y-7460851D02*
X439229Y-7451328D01*
X439229Y-7451328D02*
X448753Y-7441804D01*
X448753Y-7441804D02*
X448753Y-7460851D01*
X572563Y-7346566D02*
X553515Y-7337042D01*
X553515Y-7337042D02*
X543991Y-7327518D01*
X543991Y-7327518D02*
X534467Y-7308470D01*
X534467Y-7308470D02*
X534467Y-7298947D01*
X534467Y-7298947D02*
X543991Y-7279899D01*
X543991Y-7279899D02*
X553515Y-7270375D01*
X553515Y-7270375D02*
X572563Y-7260851D01*
X572563Y-7260851D02*
X610658Y-7260851D01*
X610658Y-7260851D02*
X629705Y-7270375D01*
X629705Y-7270375D02*
X639229Y-7279899D01*
X639229Y-7279899D02*
X648753Y-7298947D01*
X648753Y-7298947D02*
X648753Y-7308470D01*
X648753Y-7308470D02*
X639229Y-7327518D01*
X639229Y-7327518D02*
X629705Y-7337042D01*
X629705Y-7337042D02*
X610658Y-7346566D01*
X610658Y-7346566D02*
X572563Y-7346566D01*
X572563Y-7346566D02*
X553515Y-7356089D01*
X553515Y-7356089D02*
X543991Y-7365613D01*
X543991Y-7365613D02*
X534467Y-7384661D01*
X534467Y-7384661D02*
X534467Y-7422756D01*
X534467Y-7422756D02*
X543991Y-7441804D01*
X543991Y-7441804D02*
X553515Y-7451328D01*
X553515Y-7451328D02*
X572563Y-7460851D01*
X572563Y-7460851D02*
X610658Y-7460851D01*
X610658Y-7460851D02*
X629705Y-7451328D01*
X629705Y-7451328D02*
X639229Y-7441804D01*
X639229Y-7441804D02*
X648753Y-7422756D01*
X648753Y-7422756D02*
X648753Y-7384661D01*
X648753Y-7384661D02*
X639229Y-7365613D01*
X639229Y-7365613D02*
X629705Y-7356089D01*
X629705Y-7356089D02*
X610658Y-7346566D01*
X772562Y-7260851D02*
X791610Y-7260851D01*
X791610Y-7260851D02*
X810658Y-7270375D01*
X810658Y-7270375D02*
X820182Y-7279899D01*
X820182Y-7279899D02*
X829705Y-7298947D01*
X829705Y-7298947D02*
X839229Y-7337042D01*
X839229Y-7337042D02*
X839229Y-7384661D01*
X839229Y-7384661D02*
X829705Y-7422756D01*
X829705Y-7422756D02*
X820182Y-7441804D01*
X820182Y-7441804D02*
X810658Y-7451328D01*
X810658Y-7451328D02*
X791610Y-7460851D01*
X791610Y-7460851D02*
X772562Y-7460851D01*
X772562Y-7460851D02*
X753515Y-7451328D01*
X753515Y-7451328D02*
X743991Y-7441804D01*
X743991Y-7441804D02*
X734467Y-7422756D01*
X734467Y-7422756D02*
X724943Y-7384661D01*
X724943Y-7384661D02*
X724943Y-7337042D01*
X724943Y-7337042D02*
X734467Y-7298947D01*
X734467Y-7298947D02*
X743991Y-7279899D01*
X743991Y-7279899D02*
X753515Y-7270375D01*
X753515Y-7270375D02*
X772562Y-7260851D01*
X963039Y-7260851D02*
X982086Y-7260851D01*
X982086Y-7260851D02*
X1001134Y-7270375D01*
X1001134Y-7270375D02*
X1010658Y-7279899D01*
X1010658Y-7279899D02*
X1020182Y-7298947D01*
X1020182Y-7298947D02*
X1029705Y-7337042D01*
X1029705Y-7337042D02*
X1029705Y-7384661D01*
X1029705Y-7384661D02*
X1020182Y-7422756D01*
X1020182Y-7422756D02*
X1010658Y-7441804D01*
X1010658Y-7441804D02*
X1001134Y-7451328D01*
X1001134Y-7451328D02*
X982086Y-7460851D01*
X982086Y-7460851D02*
X963039Y-7460851D01*
X963039Y-7460851D02*
X943991Y-7451328D01*
X943991Y-7451328D02*
X934467Y-7441804D01*
X934467Y-7441804D02*
X924943Y-7422756D01*
X924943Y-7422756D02*
X915420Y-7384661D01*
X915420Y-7384661D02*
X915420Y-7337042D01*
X915420Y-7337042D02*
X924943Y-7298947D01*
X924943Y-7298947D02*
X934467Y-7279899D01*
X934467Y-7279899D02*
X943991Y-7270375D01*
X943991Y-7270375D02*
X963039Y-7260851D01*
X1115420Y-7460851D02*
X1115420Y-7327518D01*
X1115420Y-7346566D02*
X1124944Y-7337042D01*
X1124944Y-7337042D02*
X1143991Y-7327518D01*
X1143991Y-7327518D02*
X1172563Y-7327518D01*
X1172563Y-7327518D02*
X1191610Y-7337042D01*
X1191610Y-7337042D02*
X1201134Y-7356089D01*
X1201134Y-7356089D02*
X1201134Y-7460851D01*
X1201134Y-7356089D02*
X1210658Y-7337042D01*
X1210658Y-7337042D02*
X1229705Y-7327518D01*
X1229705Y-7327518D02*
X1258277Y-7327518D01*
X1258277Y-7327518D02*
X1277325Y-7337042D01*
X1277325Y-7337042D02*
X1286848Y-7356089D01*
X1286848Y-7356089D02*
X1286848Y-7460851D01*
X1382086Y-7460851D02*
X1382086Y-7327518D01*
X1382086Y-7346566D02*
X1391610Y-7337042D01*
X1391610Y-7337042D02*
X1410658Y-7327518D01*
X1410658Y-7327518D02*
X1439229Y-7327518D01*
X1439229Y-7327518D02*
X1458277Y-7337042D01*
X1458277Y-7337042D02*
X1467801Y-7356089D01*
X1467801Y-7356089D02*
X1467801Y-7460851D01*
X1467801Y-7356089D02*
X1477324Y-7337042D01*
X1477324Y-7337042D02*
X1496372Y-7327518D01*
X1496372Y-7327518D02*
X1524943Y-7327518D01*
X1524943Y-7327518D02*
X1543991Y-7337042D01*
X1543991Y-7337042D02*
X1553515Y-7356089D01*
X1553515Y-7356089D02*
X1553515Y-7460851D01*
X1943991Y-7251328D02*
X1772563Y-7508470D01*
X2201134Y-7260851D02*
X2220182Y-7260851D01*
X2220182Y-7260851D02*
X2239229Y-7270375D01*
X2239229Y-7270375D02*
X2248753Y-7279899D01*
X2248753Y-7279899D02*
X2258277Y-7298947D01*
X2258277Y-7298947D02*
X2267801Y-7337042D01*
X2267801Y-7337042D02*
X2267801Y-7384661D01*
X2267801Y-7384661D02*
X2258277Y-7422756D01*
X2258277Y-7422756D02*
X2248753Y-7441804D01*
X2248753Y-7441804D02*
X2239229Y-7451328D01*
X2239229Y-7451328D02*
X2220182Y-7460851D01*
X2220182Y-7460851D02*
X2201134Y-7460851D01*
X2201134Y-7460851D02*
X2182087Y-7451328D01*
X2182087Y-7451328D02*
X2172563Y-7441804D01*
X2172563Y-7441804D02*
X2163039Y-7422756D01*
X2163039Y-7422756D02*
X2153515Y-7384661D01*
X2153515Y-7384661D02*
X2153515Y-7337042D01*
X2153515Y-7337042D02*
X2163039Y-7298947D01*
X2163039Y-7298947D02*
X2172563Y-7279899D01*
X2172563Y-7279899D02*
X2182087Y-7270375D01*
X2182087Y-7270375D02*
X2201134Y-7260851D01*
X2353515Y-7441804D02*
X2363039Y-7451328D01*
X2363039Y-7451328D02*
X2353515Y-7460851D01*
X2353515Y-7460851D02*
X2343991Y-7451328D01*
X2343991Y-7451328D02*
X2353515Y-7441804D01*
X2353515Y-7441804D02*
X2353515Y-7460851D01*
X2486848Y-7260851D02*
X2505896Y-7260851D01*
X2505896Y-7260851D02*
X2524944Y-7270375D01*
X2524944Y-7270375D02*
X2534468Y-7279899D01*
X2534468Y-7279899D02*
X2543991Y-7298947D01*
X2543991Y-7298947D02*
X2553515Y-7337042D01*
X2553515Y-7337042D02*
X2553515Y-7384661D01*
X2553515Y-7384661D02*
X2543991Y-7422756D01*
X2543991Y-7422756D02*
X2534468Y-7441804D01*
X2534468Y-7441804D02*
X2524944Y-7451328D01*
X2524944Y-7451328D02*
X2505896Y-7460851D01*
X2505896Y-7460851D02*
X2486848Y-7460851D01*
X2486848Y-7460851D02*
X2467801Y-7451328D01*
X2467801Y-7451328D02*
X2458277Y-7441804D01*
X2458277Y-7441804D02*
X2448753Y-7422756D01*
X2448753Y-7422756D02*
X2439229Y-7384661D01*
X2439229Y-7384661D02*
X2439229Y-7337042D01*
X2439229Y-7337042D02*
X2448753Y-7298947D01*
X2448753Y-7298947D02*
X2458277Y-7279899D01*
X2458277Y-7279899D02*
X2467801Y-7270375D01*
X2467801Y-7270375D02*
X2486848Y-7260851D01*
X2620182Y-7260851D02*
X2743991Y-7260851D01*
X2743991Y-7260851D02*
X2677325Y-7337042D01*
X2677325Y-7337042D02*
X2705896Y-7337042D01*
X2705896Y-7337042D02*
X2724944Y-7346566D01*
X2724944Y-7346566D02*
X2734468Y-7356089D01*
X2734468Y-7356089D02*
X2743991Y-7375137D01*
X2743991Y-7375137D02*
X2743991Y-7422756D01*
X2743991Y-7422756D02*
X2734468Y-7441804D01*
X2734468Y-7441804D02*
X2724944Y-7451328D01*
X2724944Y-7451328D02*
X2705896Y-7460851D01*
X2705896Y-7460851D02*
X2648753Y-7460851D01*
X2648753Y-7460851D02*
X2629706Y-7451328D01*
X2629706Y-7451328D02*
X2620182Y-7441804D01*
X2934467Y-7460851D02*
X2820182Y-7460851D01*
X2877325Y-7460851D02*
X2877325Y-7260851D01*
X2877325Y-7260851D02*
X2858277Y-7289423D01*
X2858277Y-7289423D02*
X2839229Y-7308470D01*
X2839229Y-7308470D02*
X2820182Y-7317994D01*
X3115420Y-7260851D02*
X3020182Y-7260851D01*
X3020182Y-7260851D02*
X3010658Y-7356089D01*
X3010658Y-7356089D02*
X3020182Y-7346566D01*
X3020182Y-7346566D02*
X3039229Y-7337042D01*
X3039229Y-7337042D02*
X3086848Y-7337042D01*
X3086848Y-7337042D02*
X3105896Y-7346566D01*
X3105896Y-7346566D02*
X3115420Y-7356089D01*
X3115420Y-7356089D02*
X3124944Y-7375137D01*
X3124944Y-7375137D02*
X3124944Y-7422756D01*
X3124944Y-7422756D02*
X3115420Y-7441804D01*
X3115420Y-7441804D02*
X3105896Y-7451328D01*
X3105896Y-7451328D02*
X3086848Y-7460851D01*
X3086848Y-7460851D02*
X3039229Y-7460851D01*
X3039229Y-7460851D02*
X3020182Y-7451328D01*
X3020182Y-7451328D02*
X3010658Y-7441804D01*
X3201134Y-7260851D02*
X3201134Y-7298947D01*
X3277325Y-7260851D02*
X3277325Y-7298947D01*
X3572563Y-7537042D02*
X3563039Y-7527518D01*
X3563039Y-7527518D02*
X3543991Y-7498947D01*
X3543991Y-7498947D02*
X3534468Y-7479899D01*
X3534468Y-7479899D02*
X3524944Y-7451328D01*
X3524944Y-7451328D02*
X3515420Y-7403708D01*
X3515420Y-7403708D02*
X3515420Y-7365613D01*
X3515420Y-7365613D02*
X3524944Y-7317994D01*
X3524944Y-7317994D02*
X3534468Y-7289423D01*
X3534468Y-7289423D02*
X3543991Y-7270375D01*
X3543991Y-7270375D02*
X3563039Y-7241804D01*
X3563039Y-7241804D02*
X3572563Y-7232280D01*
X3677325Y-7346566D02*
X3658277Y-7337042D01*
X3658277Y-7337042D02*
X3648753Y-7327518D01*
X3648753Y-7327518D02*
X3639229Y-7308470D01*
X3639229Y-7308470D02*
X3639229Y-7298947D01*
X3639229Y-7298947D02*
X3648753Y-7279899D01*
X3648753Y-7279899D02*
X3658277Y-7270375D01*
X3658277Y-7270375D02*
X3677325Y-7260851D01*
X3677325Y-7260851D02*
X3715420Y-7260851D01*
X3715420Y-7260851D02*
X3734468Y-7270375D01*
X3734468Y-7270375D02*
X3743991Y-7279899D01*
X3743991Y-7279899D02*
X3753515Y-7298947D01*
X3753515Y-7298947D02*
X3753515Y-7308470D01*
X3753515Y-7308470D02*
X3743991Y-7327518D01*
X3743991Y-7327518D02*
X3734468Y-7337042D01*
X3734468Y-7337042D02*
X3715420Y-7346566D01*
X3715420Y-7346566D02*
X3677325Y-7346566D01*
X3677325Y-7346566D02*
X3658277Y-7356089D01*
X3658277Y-7356089D02*
X3648753Y-7365613D01*
X3648753Y-7365613D02*
X3639229Y-7384661D01*
X3639229Y-7384661D02*
X3639229Y-7422756D01*
X3639229Y-7422756D02*
X3648753Y-7441804D01*
X3648753Y-7441804D02*
X3658277Y-7451328D01*
X3658277Y-7451328D02*
X3677325Y-7460851D01*
X3677325Y-7460851D02*
X3715420Y-7460851D01*
X3715420Y-7460851D02*
X3734468Y-7451328D01*
X3734468Y-7451328D02*
X3743991Y-7441804D01*
X3743991Y-7441804D02*
X3753515Y-7422756D01*
X3753515Y-7422756D02*
X3753515Y-7384661D01*
X3753515Y-7384661D02*
X3743991Y-7365613D01*
X3743991Y-7365613D02*
X3734468Y-7356089D01*
X3734468Y-7356089D02*
X3715420Y-7346566D01*
X3991610Y-7460851D02*
X3991610Y-7260851D01*
X4077325Y-7460851D02*
X4077325Y-7356089D01*
X4077325Y-7356089D02*
X4067801Y-7337042D01*
X4067801Y-7337042D02*
X4048753Y-7327518D01*
X4048753Y-7327518D02*
X4020182Y-7327518D01*
X4020182Y-7327518D02*
X4001134Y-7337042D01*
X4001134Y-7337042D02*
X3991610Y-7346566D01*
X4201134Y-7460851D02*
X4182087Y-7451328D01*
X4182087Y-7451328D02*
X4172563Y-7441804D01*
X4172563Y-7441804D02*
X4163039Y-7422756D01*
X4163039Y-7422756D02*
X4163039Y-7365613D01*
X4163039Y-7365613D02*
X4172563Y-7346566D01*
X4172563Y-7346566D02*
X4182087Y-7337042D01*
X4182087Y-7337042D02*
X4201134Y-7327518D01*
X4201134Y-7327518D02*
X4229706Y-7327518D01*
X4229706Y-7327518D02*
X4248753Y-7337042D01*
X4248753Y-7337042D02*
X4258277Y-7346566D01*
X4258277Y-7346566D02*
X4267801Y-7365613D01*
X4267801Y-7365613D02*
X4267801Y-7422756D01*
X4267801Y-7422756D02*
X4258277Y-7441804D01*
X4258277Y-7441804D02*
X4248753Y-7451328D01*
X4248753Y-7451328D02*
X4229706Y-7460851D01*
X4229706Y-7460851D02*
X4201134Y-7460851D01*
X4382087Y-7460851D02*
X4363039Y-7451328D01*
X4363039Y-7451328D02*
X4353515Y-7432280D01*
X4353515Y-7432280D02*
X4353515Y-7260851D01*
X4534468Y-7451328D02*
X4515420Y-7460851D01*
X4515420Y-7460851D02*
X4477325Y-7460851D01*
X4477325Y-7460851D02*
X4458277Y-7451328D01*
X4458277Y-7451328D02*
X4448753Y-7432280D01*
X4448753Y-7432280D02*
X4448753Y-7356089D01*
X4448753Y-7356089D02*
X4458277Y-7337042D01*
X4458277Y-7337042D02*
X4477325Y-7327518D01*
X4477325Y-7327518D02*
X4515420Y-7327518D01*
X4515420Y-7327518D02*
X4534468Y-7337042D01*
X4534468Y-7337042D02*
X4543992Y-7356089D01*
X4543992Y-7356089D02*
X4543992Y-7375137D01*
X4543992Y-7375137D02*
X4448753Y-7394185D01*
X4620182Y-7451328D02*
X4639230Y-7460851D01*
X4639230Y-7460851D02*
X4677325Y-7460851D01*
X4677325Y-7460851D02*
X4696373Y-7451328D01*
X4696373Y-7451328D02*
X4705896Y-7432280D01*
X4705896Y-7432280D02*
X4705896Y-7422756D01*
X4705896Y-7422756D02*
X4696373Y-7403708D01*
X4696373Y-7403708D02*
X4677325Y-7394185D01*
X4677325Y-7394185D02*
X4648753Y-7394185D01*
X4648753Y-7394185D02*
X4629706Y-7384661D01*
X4629706Y-7384661D02*
X4620182Y-7365613D01*
X4620182Y-7365613D02*
X4620182Y-7356089D01*
X4620182Y-7356089D02*
X4629706Y-7337042D01*
X4629706Y-7337042D02*
X4648753Y-7327518D01*
X4648753Y-7327518D02*
X4677325Y-7327518D01*
X4677325Y-7327518D02*
X4696373Y-7337042D01*
X4772563Y-7537042D02*
X4782087Y-7527518D01*
X4782087Y-7527518D02*
X4801134Y-7498947D01*
X4801134Y-7498947D02*
X4810658Y-7479899D01*
X4810658Y-7479899D02*
X4820182Y-7451328D01*
X4820182Y-7451328D02*
X4829706Y-7403708D01*
X4829706Y-7403708D02*
X4829706Y-7365613D01*
X4829706Y-7365613D02*
X4820182Y-7317994D01*
X4820182Y-7317994D02*
X4810658Y-7289423D01*
X4810658Y-7289423D02*
X4801134Y-7270375D01*
X4801134Y-7270375D02*
X4782087Y-7241804D01*
X4782087Y-7241804D02*
X4772563Y-7232280D01*
D12*
X-52500Y-7583368D02*
X-52500Y-7683368D01*
X-102500Y-7633368D02*
X-2500Y-7633368D01*
D11*
X363039Y-7724851D02*
X248753Y-7724851D01*
X305896Y-7724851D02*
X305896Y-7524851D01*
X305896Y-7524851D02*
X286848Y-7553423D01*
X286848Y-7553423D02*
X267801Y-7572470D01*
X267801Y-7572470D02*
X248753Y-7581994D01*
X448753Y-7705804D02*
X458277Y-7715328D01*
X458277Y-7715328D02*
X448753Y-7724851D01*
X448753Y-7724851D02*
X439229Y-7715328D01*
X439229Y-7715328D02*
X448753Y-7705804D01*
X448753Y-7705804D02*
X448753Y-7724851D01*
X582086Y-7524851D02*
X601134Y-7524851D01*
X601134Y-7524851D02*
X620182Y-7534375D01*
X620182Y-7534375D02*
X629705Y-7543899D01*
X629705Y-7543899D02*
X639229Y-7562947D01*
X639229Y-7562947D02*
X648753Y-7601042D01*
X648753Y-7601042D02*
X648753Y-7648661D01*
X648753Y-7648661D02*
X639229Y-7686756D01*
X639229Y-7686756D02*
X629705Y-7705804D01*
X629705Y-7705804D02*
X620182Y-7715328D01*
X620182Y-7715328D02*
X601134Y-7724851D01*
X601134Y-7724851D02*
X582086Y-7724851D01*
X582086Y-7724851D02*
X563039Y-7715328D01*
X563039Y-7715328D02*
X553515Y-7705804D01*
X553515Y-7705804D02*
X543991Y-7686756D01*
X543991Y-7686756D02*
X534467Y-7648661D01*
X534467Y-7648661D02*
X534467Y-7601042D01*
X534467Y-7601042D02*
X543991Y-7562947D01*
X543991Y-7562947D02*
X553515Y-7543899D01*
X553515Y-7543899D02*
X563039Y-7534375D01*
X563039Y-7534375D02*
X582086Y-7524851D01*
X772562Y-7524851D02*
X791610Y-7524851D01*
X791610Y-7524851D02*
X810658Y-7534375D01*
X810658Y-7534375D02*
X820182Y-7543899D01*
X820182Y-7543899D02*
X829705Y-7562947D01*
X829705Y-7562947D02*
X839229Y-7601042D01*
X839229Y-7601042D02*
X839229Y-7648661D01*
X839229Y-7648661D02*
X829705Y-7686756D01*
X829705Y-7686756D02*
X820182Y-7705804D01*
X820182Y-7705804D02*
X810658Y-7715328D01*
X810658Y-7715328D02*
X791610Y-7724851D01*
X791610Y-7724851D02*
X772562Y-7724851D01*
X772562Y-7724851D02*
X753515Y-7715328D01*
X753515Y-7715328D02*
X743991Y-7705804D01*
X743991Y-7705804D02*
X734467Y-7686756D01*
X734467Y-7686756D02*
X724943Y-7648661D01*
X724943Y-7648661D02*
X724943Y-7601042D01*
X724943Y-7601042D02*
X734467Y-7562947D01*
X734467Y-7562947D02*
X743991Y-7543899D01*
X743991Y-7543899D02*
X753515Y-7534375D01*
X753515Y-7534375D02*
X772562Y-7524851D01*
X963039Y-7524851D02*
X982086Y-7524851D01*
X982086Y-7524851D02*
X1001134Y-7534375D01*
X1001134Y-7534375D02*
X1010658Y-7543899D01*
X1010658Y-7543899D02*
X1020182Y-7562947D01*
X1020182Y-7562947D02*
X1029705Y-7601042D01*
X1029705Y-7601042D02*
X1029705Y-7648661D01*
X1029705Y-7648661D02*
X1020182Y-7686756D01*
X1020182Y-7686756D02*
X1010658Y-7705804D01*
X1010658Y-7705804D02*
X1001134Y-7715328D01*
X1001134Y-7715328D02*
X982086Y-7724851D01*
X982086Y-7724851D02*
X963039Y-7724851D01*
X963039Y-7724851D02*
X943991Y-7715328D01*
X943991Y-7715328D02*
X934467Y-7705804D01*
X934467Y-7705804D02*
X924943Y-7686756D01*
X924943Y-7686756D02*
X915420Y-7648661D01*
X915420Y-7648661D02*
X915420Y-7601042D01*
X915420Y-7601042D02*
X924943Y-7562947D01*
X924943Y-7562947D02*
X934467Y-7543899D01*
X934467Y-7543899D02*
X943991Y-7534375D01*
X943991Y-7534375D02*
X963039Y-7524851D01*
X1115420Y-7724851D02*
X1115420Y-7591518D01*
X1115420Y-7610566D02*
X1124944Y-7601042D01*
X1124944Y-7601042D02*
X1143991Y-7591518D01*
X1143991Y-7591518D02*
X1172563Y-7591518D01*
X1172563Y-7591518D02*
X1191610Y-7601042D01*
X1191610Y-7601042D02*
X1201134Y-7620089D01*
X1201134Y-7620089D02*
X1201134Y-7724851D01*
X1201134Y-7620089D02*
X1210658Y-7601042D01*
X1210658Y-7601042D02*
X1229705Y-7591518D01*
X1229705Y-7591518D02*
X1258277Y-7591518D01*
X1258277Y-7591518D02*
X1277325Y-7601042D01*
X1277325Y-7601042D02*
X1286848Y-7620089D01*
X1286848Y-7620089D02*
X1286848Y-7724851D01*
X1382086Y-7724851D02*
X1382086Y-7591518D01*
X1382086Y-7610566D02*
X1391610Y-7601042D01*
X1391610Y-7601042D02*
X1410658Y-7591518D01*
X1410658Y-7591518D02*
X1439229Y-7591518D01*
X1439229Y-7591518D02*
X1458277Y-7601042D01*
X1458277Y-7601042D02*
X1467801Y-7620089D01*
X1467801Y-7620089D02*
X1467801Y-7724851D01*
X1467801Y-7620089D02*
X1477324Y-7601042D01*
X1477324Y-7601042D02*
X1496372Y-7591518D01*
X1496372Y-7591518D02*
X1524943Y-7591518D01*
X1524943Y-7591518D02*
X1543991Y-7601042D01*
X1543991Y-7601042D02*
X1553515Y-7620089D01*
X1553515Y-7620089D02*
X1553515Y-7724851D01*
X1943991Y-7515328D02*
X1772563Y-7772470D01*
X2201134Y-7524851D02*
X2220182Y-7524851D01*
X2220182Y-7524851D02*
X2239229Y-7534375D01*
X2239229Y-7534375D02*
X2248753Y-7543899D01*
X2248753Y-7543899D02*
X2258277Y-7562947D01*
X2258277Y-7562947D02*
X2267801Y-7601042D01*
X2267801Y-7601042D02*
X2267801Y-7648661D01*
X2267801Y-7648661D02*
X2258277Y-7686756D01*
X2258277Y-7686756D02*
X2248753Y-7705804D01*
X2248753Y-7705804D02*
X2239229Y-7715328D01*
X2239229Y-7715328D02*
X2220182Y-7724851D01*
X2220182Y-7724851D02*
X2201134Y-7724851D01*
X2201134Y-7724851D02*
X2182087Y-7715328D01*
X2182087Y-7715328D02*
X2172563Y-7705804D01*
X2172563Y-7705804D02*
X2163039Y-7686756D01*
X2163039Y-7686756D02*
X2153515Y-7648661D01*
X2153515Y-7648661D02*
X2153515Y-7601042D01*
X2153515Y-7601042D02*
X2163039Y-7562947D01*
X2163039Y-7562947D02*
X2172563Y-7543899D01*
X2172563Y-7543899D02*
X2182087Y-7534375D01*
X2182087Y-7534375D02*
X2201134Y-7524851D01*
X2353515Y-7705804D02*
X2363039Y-7715328D01*
X2363039Y-7715328D02*
X2353515Y-7724851D01*
X2353515Y-7724851D02*
X2343991Y-7715328D01*
X2343991Y-7715328D02*
X2353515Y-7705804D01*
X2353515Y-7705804D02*
X2353515Y-7724851D01*
X2486848Y-7524851D02*
X2505896Y-7524851D01*
X2505896Y-7524851D02*
X2524944Y-7534375D01*
X2524944Y-7534375D02*
X2534468Y-7543899D01*
X2534468Y-7543899D02*
X2543991Y-7562947D01*
X2543991Y-7562947D02*
X2553515Y-7601042D01*
X2553515Y-7601042D02*
X2553515Y-7648661D01*
X2553515Y-7648661D02*
X2543991Y-7686756D01*
X2543991Y-7686756D02*
X2534468Y-7705804D01*
X2534468Y-7705804D02*
X2524944Y-7715328D01*
X2524944Y-7715328D02*
X2505896Y-7724851D01*
X2505896Y-7724851D02*
X2486848Y-7724851D01*
X2486848Y-7724851D02*
X2467801Y-7715328D01*
X2467801Y-7715328D02*
X2458277Y-7705804D01*
X2458277Y-7705804D02*
X2448753Y-7686756D01*
X2448753Y-7686756D02*
X2439229Y-7648661D01*
X2439229Y-7648661D02*
X2439229Y-7601042D01*
X2439229Y-7601042D02*
X2448753Y-7562947D01*
X2448753Y-7562947D02*
X2458277Y-7543899D01*
X2458277Y-7543899D02*
X2467801Y-7534375D01*
X2467801Y-7534375D02*
X2486848Y-7524851D01*
X2620182Y-7524851D02*
X2743991Y-7524851D01*
X2743991Y-7524851D02*
X2677325Y-7601042D01*
X2677325Y-7601042D02*
X2705896Y-7601042D01*
X2705896Y-7601042D02*
X2724944Y-7610566D01*
X2724944Y-7610566D02*
X2734468Y-7620089D01*
X2734468Y-7620089D02*
X2743991Y-7639137D01*
X2743991Y-7639137D02*
X2743991Y-7686756D01*
X2743991Y-7686756D02*
X2734468Y-7705804D01*
X2734468Y-7705804D02*
X2724944Y-7715328D01*
X2724944Y-7715328D02*
X2705896Y-7724851D01*
X2705896Y-7724851D02*
X2648753Y-7724851D01*
X2648753Y-7724851D02*
X2629706Y-7715328D01*
X2629706Y-7715328D02*
X2620182Y-7705804D01*
X2839229Y-7724851D02*
X2877325Y-7724851D01*
X2877325Y-7724851D02*
X2896372Y-7715328D01*
X2896372Y-7715328D02*
X2905896Y-7705804D01*
X2905896Y-7705804D02*
X2924944Y-7677232D01*
X2924944Y-7677232D02*
X2934467Y-7639137D01*
X2934467Y-7639137D02*
X2934467Y-7562947D01*
X2934467Y-7562947D02*
X2924944Y-7543899D01*
X2924944Y-7543899D02*
X2915420Y-7534375D01*
X2915420Y-7534375D02*
X2896372Y-7524851D01*
X2896372Y-7524851D02*
X2858277Y-7524851D01*
X2858277Y-7524851D02*
X2839229Y-7534375D01*
X2839229Y-7534375D02*
X2829706Y-7543899D01*
X2829706Y-7543899D02*
X2820182Y-7562947D01*
X2820182Y-7562947D02*
X2820182Y-7610566D01*
X2820182Y-7610566D02*
X2829706Y-7629613D01*
X2829706Y-7629613D02*
X2839229Y-7639137D01*
X2839229Y-7639137D02*
X2858277Y-7648661D01*
X2858277Y-7648661D02*
X2896372Y-7648661D01*
X2896372Y-7648661D02*
X2915420Y-7639137D01*
X2915420Y-7639137D02*
X2924944Y-7629613D01*
X2924944Y-7629613D02*
X2934467Y-7610566D01*
X3105896Y-7591518D02*
X3105896Y-7724851D01*
X3058277Y-7515328D02*
X3010658Y-7658185D01*
X3010658Y-7658185D02*
X3134467Y-7658185D01*
X3201134Y-7524851D02*
X3201134Y-7562947D01*
X3277325Y-7524851D02*
X3277325Y-7562947D01*
X3572563Y-7801042D02*
X3563039Y-7791518D01*
X3563039Y-7791518D02*
X3543991Y-7762947D01*
X3543991Y-7762947D02*
X3534468Y-7743899D01*
X3534468Y-7743899D02*
X3524944Y-7715328D01*
X3524944Y-7715328D02*
X3515420Y-7667708D01*
X3515420Y-7667708D02*
X3515420Y-7629613D01*
X3515420Y-7629613D02*
X3524944Y-7581994D01*
X3524944Y-7581994D02*
X3534468Y-7553423D01*
X3534468Y-7553423D02*
X3543991Y-7534375D01*
X3543991Y-7534375D02*
X3563039Y-7505804D01*
X3563039Y-7505804D02*
X3572563Y-7496280D01*
X3753515Y-7724851D02*
X3639229Y-7724851D01*
X3696372Y-7724851D02*
X3696372Y-7524851D01*
X3696372Y-7524851D02*
X3677325Y-7553423D01*
X3677325Y-7553423D02*
X3658277Y-7572470D01*
X3658277Y-7572470D02*
X3639229Y-7581994D01*
X3877325Y-7524851D02*
X3896372Y-7524851D01*
X3896372Y-7524851D02*
X3915420Y-7534375D01*
X3915420Y-7534375D02*
X3924944Y-7543899D01*
X3924944Y-7543899D02*
X3934468Y-7562947D01*
X3934468Y-7562947D02*
X3943991Y-7601042D01*
X3943991Y-7601042D02*
X3943991Y-7648661D01*
X3943991Y-7648661D02*
X3934468Y-7686756D01*
X3934468Y-7686756D02*
X3924944Y-7705804D01*
X3924944Y-7705804D02*
X3915420Y-7715328D01*
X3915420Y-7715328D02*
X3896372Y-7724851D01*
X3896372Y-7724851D02*
X3877325Y-7724851D01*
X3877325Y-7724851D02*
X3858277Y-7715328D01*
X3858277Y-7715328D02*
X3848753Y-7705804D01*
X3848753Y-7705804D02*
X3839229Y-7686756D01*
X3839229Y-7686756D02*
X3829706Y-7648661D01*
X3829706Y-7648661D02*
X3829706Y-7601042D01*
X3829706Y-7601042D02*
X3839229Y-7562947D01*
X3839229Y-7562947D02*
X3848753Y-7543899D01*
X3848753Y-7543899D02*
X3858277Y-7534375D01*
X3858277Y-7534375D02*
X3877325Y-7524851D01*
X4182087Y-7724851D02*
X4182087Y-7524851D01*
X4267801Y-7724851D02*
X4267801Y-7620089D01*
X4267801Y-7620089D02*
X4258277Y-7601042D01*
X4258277Y-7601042D02*
X4239230Y-7591518D01*
X4239230Y-7591518D02*
X4210658Y-7591518D01*
X4210658Y-7591518D02*
X4191610Y-7601042D01*
X4191610Y-7601042D02*
X4182087Y-7610566D01*
X4391611Y-7724851D02*
X4372563Y-7715328D01*
X4372563Y-7715328D02*
X4363039Y-7705804D01*
X4363039Y-7705804D02*
X4353515Y-7686756D01*
X4353515Y-7686756D02*
X4353515Y-7629613D01*
X4353515Y-7629613D02*
X4363039Y-7610566D01*
X4363039Y-7610566D02*
X4372563Y-7601042D01*
X4372563Y-7601042D02*
X4391611Y-7591518D01*
X4391611Y-7591518D02*
X4420182Y-7591518D01*
X4420182Y-7591518D02*
X4439230Y-7601042D01*
X4439230Y-7601042D02*
X4448753Y-7610566D01*
X4448753Y-7610566D02*
X4458277Y-7629613D01*
X4458277Y-7629613D02*
X4458277Y-7686756D01*
X4458277Y-7686756D02*
X4448753Y-7705804D01*
X4448753Y-7705804D02*
X4439230Y-7715328D01*
X4439230Y-7715328D02*
X4420182Y-7724851D01*
X4420182Y-7724851D02*
X4391611Y-7724851D01*
X4572563Y-7724851D02*
X4553515Y-7715328D01*
X4553515Y-7715328D02*
X4543992Y-7696280D01*
X4543992Y-7696280D02*
X4543992Y-7524851D01*
X4724944Y-7715328D02*
X4705896Y-7724851D01*
X4705896Y-7724851D02*
X4667801Y-7724851D01*
X4667801Y-7724851D02*
X4648753Y-7715328D01*
X4648753Y-7715328D02*
X4639230Y-7696280D01*
X4639230Y-7696280D02*
X4639230Y-7620089D01*
X4639230Y-7620089D02*
X4648753Y-7601042D01*
X4648753Y-7601042D02*
X4667801Y-7591518D01*
X4667801Y-7591518D02*
X4705896Y-7591518D01*
X4705896Y-7591518D02*
X4724944Y-7601042D01*
X4724944Y-7601042D02*
X4734468Y-7620089D01*
X4734468Y-7620089D02*
X4734468Y-7639137D01*
X4734468Y-7639137D02*
X4639230Y-7658185D01*
X4810658Y-7715328D02*
X4829706Y-7724851D01*
X4829706Y-7724851D02*
X4867801Y-7724851D01*
X4867801Y-7724851D02*
X4886849Y-7715328D01*
X4886849Y-7715328D02*
X4896373Y-7696280D01*
X4896373Y-7696280D02*
X4896373Y-7686756D01*
X4896373Y-7686756D02*
X4886849Y-7667708D01*
X4886849Y-7667708D02*
X4867801Y-7658185D01*
X4867801Y-7658185D02*
X4839230Y-7658185D01*
X4839230Y-7658185D02*
X4820182Y-7648661D01*
X4820182Y-7648661D02*
X4810658Y-7629613D01*
X4810658Y-7629613D02*
X4810658Y-7620089D01*
X4810658Y-7620089D02*
X4820182Y-7601042D01*
X4820182Y-7601042D02*
X4839230Y-7591518D01*
X4839230Y-7591518D02*
X4867801Y-7591518D01*
X4867801Y-7591518D02*
X4886849Y-7601042D01*
X4963039Y-7801042D02*
X4972563Y-7791518D01*
X4972563Y-7791518D02*
X4991611Y-7762947D01*
X4991611Y-7762947D02*
X5001134Y-7743899D01*
X5001134Y-7743899D02*
X5010658Y-7715328D01*
X5010658Y-7715328D02*
X5020182Y-7667708D01*
X5020182Y-7667708D02*
X5020182Y-7629613D01*
X5020182Y-7629613D02*
X5010658Y-7581994D01*
X5010658Y-7581994D02*
X5001134Y-7553423D01*
X5001134Y-7553423D02*
X4991611Y-7534375D01*
X4991611Y-7534375D02*
X4972563Y-7505804D01*
X4972563Y-7505804D02*
X4963039Y-7496280D01*
D13*
X-20073Y-7939794D02*
X-20073Y-7854941D01*
X-104927Y-7854941D01*
X-104927Y-7939794D01*
X-20073Y-7939794D01*
D11*
X363039Y-7988851D02*
X248753Y-7988851D01*
X305896Y-7988851D02*
X305896Y-7788851D01*
X305896Y-7788851D02*
X286848Y-7817423D01*
X286848Y-7817423D02*
X267801Y-7836470D01*
X267801Y-7836470D02*
X248753Y-7845994D01*
X448753Y-7969804D02*
X458277Y-7979328D01*
X458277Y-7979328D02*
X448753Y-7988851D01*
X448753Y-7988851D02*
X439229Y-7979328D01*
X439229Y-7979328D02*
X448753Y-7969804D01*
X448753Y-7969804D02*
X448753Y-7988851D01*
X534467Y-7807899D02*
X543991Y-7798375D01*
X543991Y-7798375D02*
X563039Y-7788851D01*
X563039Y-7788851D02*
X610658Y-7788851D01*
X610658Y-7788851D02*
X629705Y-7798375D01*
X629705Y-7798375D02*
X639229Y-7807899D01*
X639229Y-7807899D02*
X648753Y-7826947D01*
X648753Y-7826947D02*
X648753Y-7845994D01*
X648753Y-7845994D02*
X639229Y-7874566D01*
X639229Y-7874566D02*
X524944Y-7988851D01*
X524944Y-7988851D02*
X648753Y-7988851D01*
X772562Y-7788851D02*
X791610Y-7788851D01*
X791610Y-7788851D02*
X810658Y-7798375D01*
X810658Y-7798375D02*
X820182Y-7807899D01*
X820182Y-7807899D02*
X829705Y-7826947D01*
X829705Y-7826947D02*
X839229Y-7865042D01*
X839229Y-7865042D02*
X839229Y-7912661D01*
X839229Y-7912661D02*
X829705Y-7950756D01*
X829705Y-7950756D02*
X820182Y-7969804D01*
X820182Y-7969804D02*
X810658Y-7979328D01*
X810658Y-7979328D02*
X791610Y-7988851D01*
X791610Y-7988851D02*
X772562Y-7988851D01*
X772562Y-7988851D02*
X753515Y-7979328D01*
X753515Y-7979328D02*
X743991Y-7969804D01*
X743991Y-7969804D02*
X734467Y-7950756D01*
X734467Y-7950756D02*
X724943Y-7912661D01*
X724943Y-7912661D02*
X724943Y-7865042D01*
X724943Y-7865042D02*
X734467Y-7826947D01*
X734467Y-7826947D02*
X743991Y-7807899D01*
X743991Y-7807899D02*
X753515Y-7798375D01*
X753515Y-7798375D02*
X772562Y-7788851D01*
X963039Y-7788851D02*
X982086Y-7788851D01*
X982086Y-7788851D02*
X1001134Y-7798375D01*
X1001134Y-7798375D02*
X1010658Y-7807899D01*
X1010658Y-7807899D02*
X1020182Y-7826947D01*
X1020182Y-7826947D02*
X1029705Y-7865042D01*
X1029705Y-7865042D02*
X1029705Y-7912661D01*
X1029705Y-7912661D02*
X1020182Y-7950756D01*
X1020182Y-7950756D02*
X1010658Y-7969804D01*
X1010658Y-7969804D02*
X1001134Y-7979328D01*
X1001134Y-7979328D02*
X982086Y-7988851D01*
X982086Y-7988851D02*
X963039Y-7988851D01*
X963039Y-7988851D02*
X943991Y-7979328D01*
X943991Y-7979328D02*
X934467Y-7969804D01*
X934467Y-7969804D02*
X924943Y-7950756D01*
X924943Y-7950756D02*
X915420Y-7912661D01*
X915420Y-7912661D02*
X915420Y-7865042D01*
X915420Y-7865042D02*
X924943Y-7826947D01*
X924943Y-7826947D02*
X934467Y-7807899D01*
X934467Y-7807899D02*
X943991Y-7798375D01*
X943991Y-7798375D02*
X963039Y-7788851D01*
X1115420Y-7988851D02*
X1115420Y-7855518D01*
X1115420Y-7874566D02*
X1124944Y-7865042D01*
X1124944Y-7865042D02*
X1143991Y-7855518D01*
X1143991Y-7855518D02*
X1172563Y-7855518D01*
X1172563Y-7855518D02*
X1191610Y-7865042D01*
X1191610Y-7865042D02*
X1201134Y-7884089D01*
X1201134Y-7884089D02*
X1201134Y-7988851D01*
X1201134Y-7884089D02*
X1210658Y-7865042D01*
X1210658Y-7865042D02*
X1229705Y-7855518D01*
X1229705Y-7855518D02*
X1258277Y-7855518D01*
X1258277Y-7855518D02*
X1277325Y-7865042D01*
X1277325Y-7865042D02*
X1286848Y-7884089D01*
X1286848Y-7884089D02*
X1286848Y-7988851D01*
X1382086Y-7988851D02*
X1382086Y-7855518D01*
X1382086Y-7874566D02*
X1391610Y-7865042D01*
X1391610Y-7865042D02*
X1410658Y-7855518D01*
X1410658Y-7855518D02*
X1439229Y-7855518D01*
X1439229Y-7855518D02*
X1458277Y-7865042D01*
X1458277Y-7865042D02*
X1467801Y-7884089D01*
X1467801Y-7884089D02*
X1467801Y-7988851D01*
X1467801Y-7884089D02*
X1477324Y-7865042D01*
X1477324Y-7865042D02*
X1496372Y-7855518D01*
X1496372Y-7855518D02*
X1524943Y-7855518D01*
X1524943Y-7855518D02*
X1543991Y-7865042D01*
X1543991Y-7865042D02*
X1553515Y-7884089D01*
X1553515Y-7884089D02*
X1553515Y-7988851D01*
X1943991Y-7779328D02*
X1772563Y-8036470D01*
X2201134Y-7788851D02*
X2220182Y-7788851D01*
X2220182Y-7788851D02*
X2239229Y-7798375D01*
X2239229Y-7798375D02*
X2248753Y-7807899D01*
X2248753Y-7807899D02*
X2258277Y-7826947D01*
X2258277Y-7826947D02*
X2267801Y-7865042D01*
X2267801Y-7865042D02*
X2267801Y-7912661D01*
X2267801Y-7912661D02*
X2258277Y-7950756D01*
X2258277Y-7950756D02*
X2248753Y-7969804D01*
X2248753Y-7969804D02*
X2239229Y-7979328D01*
X2239229Y-7979328D02*
X2220182Y-7988851D01*
X2220182Y-7988851D02*
X2201134Y-7988851D01*
X2201134Y-7988851D02*
X2182087Y-7979328D01*
X2182087Y-7979328D02*
X2172563Y-7969804D01*
X2172563Y-7969804D02*
X2163039Y-7950756D01*
X2163039Y-7950756D02*
X2153515Y-7912661D01*
X2153515Y-7912661D02*
X2153515Y-7865042D01*
X2153515Y-7865042D02*
X2163039Y-7826947D01*
X2163039Y-7826947D02*
X2172563Y-7807899D01*
X2172563Y-7807899D02*
X2182087Y-7798375D01*
X2182087Y-7798375D02*
X2201134Y-7788851D01*
X2353515Y-7969804D02*
X2363039Y-7979328D01*
X2363039Y-7979328D02*
X2353515Y-7988851D01*
X2353515Y-7988851D02*
X2343991Y-7979328D01*
X2343991Y-7979328D02*
X2353515Y-7969804D01*
X2353515Y-7969804D02*
X2353515Y-7988851D01*
X2486848Y-7788851D02*
X2505896Y-7788851D01*
X2505896Y-7788851D02*
X2524944Y-7798375D01*
X2524944Y-7798375D02*
X2534468Y-7807899D01*
X2534468Y-7807899D02*
X2543991Y-7826947D01*
X2543991Y-7826947D02*
X2553515Y-7865042D01*
X2553515Y-7865042D02*
X2553515Y-7912661D01*
X2553515Y-7912661D02*
X2543991Y-7950756D01*
X2543991Y-7950756D02*
X2534468Y-7969804D01*
X2534468Y-7969804D02*
X2524944Y-7979328D01*
X2524944Y-7979328D02*
X2505896Y-7988851D01*
X2505896Y-7988851D02*
X2486848Y-7988851D01*
X2486848Y-7988851D02*
X2467801Y-7979328D01*
X2467801Y-7979328D02*
X2458277Y-7969804D01*
X2458277Y-7969804D02*
X2448753Y-7950756D01*
X2448753Y-7950756D02*
X2439229Y-7912661D01*
X2439229Y-7912661D02*
X2439229Y-7865042D01*
X2439229Y-7865042D02*
X2448753Y-7826947D01*
X2448753Y-7826947D02*
X2458277Y-7807899D01*
X2458277Y-7807899D02*
X2467801Y-7798375D01*
X2467801Y-7798375D02*
X2486848Y-7788851D01*
X2724944Y-7855518D02*
X2724944Y-7988851D01*
X2677325Y-7779328D02*
X2629706Y-7922185D01*
X2629706Y-7922185D02*
X2753515Y-7922185D01*
X2810658Y-7788851D02*
X2943991Y-7788851D01*
X2943991Y-7788851D02*
X2858277Y-7988851D01*
X3010658Y-7807899D02*
X3020182Y-7798375D01*
X3020182Y-7798375D02*
X3039229Y-7788851D01*
X3039229Y-7788851D02*
X3086848Y-7788851D01*
X3086848Y-7788851D02*
X3105896Y-7798375D01*
X3105896Y-7798375D02*
X3115420Y-7807899D01*
X3115420Y-7807899D02*
X3124944Y-7826947D01*
X3124944Y-7826947D02*
X3124944Y-7845994D01*
X3124944Y-7845994D02*
X3115420Y-7874566D01*
X3115420Y-7874566D02*
X3001134Y-7988851D01*
X3001134Y-7988851D02*
X3124944Y-7988851D01*
X3201134Y-7788851D02*
X3201134Y-7826947D01*
X3277325Y-7788851D02*
X3277325Y-7826947D01*
X3572563Y-8065042D02*
X3563039Y-8055518D01*
X3563039Y-8055518D02*
X3543991Y-8026947D01*
X3543991Y-8026947D02*
X3534468Y-8007899D01*
X3534468Y-8007899D02*
X3524944Y-7979328D01*
X3524944Y-7979328D02*
X3515420Y-7931708D01*
X3515420Y-7931708D02*
X3515420Y-7893613D01*
X3515420Y-7893613D02*
X3524944Y-7845994D01*
X3524944Y-7845994D02*
X3534468Y-7817423D01*
X3534468Y-7817423D02*
X3543991Y-7798375D01*
X3543991Y-7798375D02*
X3563039Y-7769804D01*
X3563039Y-7769804D02*
X3572563Y-7760280D01*
X3734468Y-7855518D02*
X3734468Y-7988851D01*
X3686848Y-7779328D02*
X3639229Y-7922185D01*
X3639229Y-7922185D02*
X3763039Y-7922185D01*
X3991610Y-7988851D02*
X3991610Y-7788851D01*
X4077325Y-7988851D02*
X4077325Y-7884089D01*
X4077325Y-7884089D02*
X4067801Y-7865042D01*
X4067801Y-7865042D02*
X4048753Y-7855518D01*
X4048753Y-7855518D02*
X4020182Y-7855518D01*
X4020182Y-7855518D02*
X4001134Y-7865042D01*
X4001134Y-7865042D02*
X3991610Y-7874566D01*
X4201134Y-7988851D02*
X4182087Y-7979328D01*
X4182087Y-7979328D02*
X4172563Y-7969804D01*
X4172563Y-7969804D02*
X4163039Y-7950756D01*
X4163039Y-7950756D02*
X4163039Y-7893613D01*
X4163039Y-7893613D02*
X4172563Y-7874566D01*
X4172563Y-7874566D02*
X4182087Y-7865042D01*
X4182087Y-7865042D02*
X4201134Y-7855518D01*
X4201134Y-7855518D02*
X4229706Y-7855518D01*
X4229706Y-7855518D02*
X4248753Y-7865042D01*
X4248753Y-7865042D02*
X4258277Y-7874566D01*
X4258277Y-7874566D02*
X4267801Y-7893613D01*
X4267801Y-7893613D02*
X4267801Y-7950756D01*
X4267801Y-7950756D02*
X4258277Y-7969804D01*
X4258277Y-7969804D02*
X4248753Y-7979328D01*
X4248753Y-7979328D02*
X4229706Y-7988851D01*
X4229706Y-7988851D02*
X4201134Y-7988851D01*
X4382087Y-7988851D02*
X4363039Y-7979328D01*
X4363039Y-7979328D02*
X4353515Y-7960280D01*
X4353515Y-7960280D02*
X4353515Y-7788851D01*
X4534468Y-7979328D02*
X4515420Y-7988851D01*
X4515420Y-7988851D02*
X4477325Y-7988851D01*
X4477325Y-7988851D02*
X4458277Y-7979328D01*
X4458277Y-7979328D02*
X4448753Y-7960280D01*
X4448753Y-7960280D02*
X4448753Y-7884089D01*
X4448753Y-7884089D02*
X4458277Y-7865042D01*
X4458277Y-7865042D02*
X4477325Y-7855518D01*
X4477325Y-7855518D02*
X4515420Y-7855518D01*
X4515420Y-7855518D02*
X4534468Y-7865042D01*
X4534468Y-7865042D02*
X4543992Y-7884089D01*
X4543992Y-7884089D02*
X4543992Y-7903137D01*
X4543992Y-7903137D02*
X4448753Y-7922185D01*
X4620182Y-7979328D02*
X4639230Y-7988851D01*
X4639230Y-7988851D02*
X4677325Y-7988851D01*
X4677325Y-7988851D02*
X4696373Y-7979328D01*
X4696373Y-7979328D02*
X4705896Y-7960280D01*
X4705896Y-7960280D02*
X4705896Y-7950756D01*
X4705896Y-7950756D02*
X4696373Y-7931708D01*
X4696373Y-7931708D02*
X4677325Y-7922185D01*
X4677325Y-7922185D02*
X4648753Y-7922185D01*
X4648753Y-7922185D02*
X4629706Y-7912661D01*
X4629706Y-7912661D02*
X4620182Y-7893613D01*
X4620182Y-7893613D02*
X4620182Y-7884089D01*
X4620182Y-7884089D02*
X4629706Y-7865042D01*
X4629706Y-7865042D02*
X4648753Y-7855518D01*
X4648753Y-7855518D02*
X4677325Y-7855518D01*
X4677325Y-7855518D02*
X4696373Y-7865042D01*
X4772563Y-8065042D02*
X4782087Y-8055518D01*
X4782087Y-8055518D02*
X4801134Y-8026947D01*
X4801134Y-8026947D02*
X4810658Y-8007899D01*
X4810658Y-8007899D02*
X4820182Y-7979328D01*
X4820182Y-7979328D02*
X4829706Y-7931708D01*
X4829706Y-7931708D02*
X4829706Y-7893613D01*
X4829706Y-7893613D02*
X4820182Y-7845994D01*
X4820182Y-7845994D02*
X4810658Y-7817423D01*
X4810658Y-7817423D02*
X4801134Y-7798375D01*
X4801134Y-7798375D02*
X4782087Y-7769804D01*
X4782087Y-7769804D02*
X4772563Y-7760280D01*
D14*
X-72500Y-8231368D02*
X-2500Y-8161368D01*
X-72500Y-8091368D01*
X-142500Y-8161368D01*
X-72500Y-8231368D01*
D11*
X363039Y-8252851D02*
X248753Y-8252851D01*
X305896Y-8252851D02*
X305896Y-8052851D01*
X305896Y-8052851D02*
X286848Y-8081423D01*
X286848Y-8081423D02*
X267801Y-8100470D01*
X267801Y-8100470D02*
X248753Y-8109994D01*
X448753Y-8233804D02*
X458277Y-8243328D01*
X458277Y-8243328D02*
X448753Y-8252851D01*
X448753Y-8252851D02*
X439229Y-8243328D01*
X439229Y-8243328D02*
X448753Y-8233804D01*
X448753Y-8233804D02*
X448753Y-8252851D01*
X629705Y-8119518D02*
X629705Y-8252851D01*
X582086Y-8043328D02*
X534467Y-8186185D01*
X534467Y-8186185D02*
X658277Y-8186185D01*
X772562Y-8052851D02*
X791610Y-8052851D01*
X791610Y-8052851D02*
X810658Y-8062375D01*
X810658Y-8062375D02*
X820182Y-8071899D01*
X820182Y-8071899D02*
X829705Y-8090947D01*
X829705Y-8090947D02*
X839229Y-8129042D01*
X839229Y-8129042D02*
X839229Y-8176661D01*
X839229Y-8176661D02*
X829705Y-8214756D01*
X829705Y-8214756D02*
X820182Y-8233804D01*
X820182Y-8233804D02*
X810658Y-8243328D01*
X810658Y-8243328D02*
X791610Y-8252851D01*
X791610Y-8252851D02*
X772562Y-8252851D01*
X772562Y-8252851D02*
X753515Y-8243328D01*
X753515Y-8243328D02*
X743991Y-8233804D01*
X743991Y-8233804D02*
X734467Y-8214756D01*
X734467Y-8214756D02*
X724943Y-8176661D01*
X724943Y-8176661D02*
X724943Y-8129042D01*
X724943Y-8129042D02*
X734467Y-8090947D01*
X734467Y-8090947D02*
X743991Y-8071899D01*
X743991Y-8071899D02*
X753515Y-8062375D01*
X753515Y-8062375D02*
X772562Y-8052851D01*
X963039Y-8052851D02*
X982086Y-8052851D01*
X982086Y-8052851D02*
X1001134Y-8062375D01*
X1001134Y-8062375D02*
X1010658Y-8071899D01*
X1010658Y-8071899D02*
X1020182Y-8090947D01*
X1020182Y-8090947D02*
X1029705Y-8129042D01*
X1029705Y-8129042D02*
X1029705Y-8176661D01*
X1029705Y-8176661D02*
X1020182Y-8214756D01*
X1020182Y-8214756D02*
X1010658Y-8233804D01*
X1010658Y-8233804D02*
X1001134Y-8243328D01*
X1001134Y-8243328D02*
X982086Y-8252851D01*
X982086Y-8252851D02*
X963039Y-8252851D01*
X963039Y-8252851D02*
X943991Y-8243328D01*
X943991Y-8243328D02*
X934467Y-8233804D01*
X934467Y-8233804D02*
X924943Y-8214756D01*
X924943Y-8214756D02*
X915420Y-8176661D01*
X915420Y-8176661D02*
X915420Y-8129042D01*
X915420Y-8129042D02*
X924943Y-8090947D01*
X924943Y-8090947D02*
X934467Y-8071899D01*
X934467Y-8071899D02*
X943991Y-8062375D01*
X943991Y-8062375D02*
X963039Y-8052851D01*
X1115420Y-8252851D02*
X1115420Y-8119518D01*
X1115420Y-8138566D02*
X1124944Y-8129042D01*
X1124944Y-8129042D02*
X1143991Y-8119518D01*
X1143991Y-8119518D02*
X1172563Y-8119518D01*
X1172563Y-8119518D02*
X1191610Y-8129042D01*
X1191610Y-8129042D02*
X1201134Y-8148089D01*
X1201134Y-8148089D02*
X1201134Y-8252851D01*
X1201134Y-8148089D02*
X1210658Y-8129042D01*
X1210658Y-8129042D02*
X1229705Y-8119518D01*
X1229705Y-8119518D02*
X1258277Y-8119518D01*
X1258277Y-8119518D02*
X1277325Y-8129042D01*
X1277325Y-8129042D02*
X1286848Y-8148089D01*
X1286848Y-8148089D02*
X1286848Y-8252851D01*
X1382086Y-8252851D02*
X1382086Y-8119518D01*
X1382086Y-8138566D02*
X1391610Y-8129042D01*
X1391610Y-8129042D02*
X1410658Y-8119518D01*
X1410658Y-8119518D02*
X1439229Y-8119518D01*
X1439229Y-8119518D02*
X1458277Y-8129042D01*
X1458277Y-8129042D02*
X1467801Y-8148089D01*
X1467801Y-8148089D02*
X1467801Y-8252851D01*
X1467801Y-8148089D02*
X1477324Y-8129042D01*
X1477324Y-8129042D02*
X1496372Y-8119518D01*
X1496372Y-8119518D02*
X1524943Y-8119518D01*
X1524943Y-8119518D02*
X1543991Y-8129042D01*
X1543991Y-8129042D02*
X1553515Y-8148089D01*
X1553515Y-8148089D02*
X1553515Y-8252851D01*
X1943991Y-8043328D02*
X1772563Y-8300470D01*
X2201134Y-8052851D02*
X2220182Y-8052851D01*
X2220182Y-8052851D02*
X2239229Y-8062375D01*
X2239229Y-8062375D02*
X2248753Y-8071899D01*
X2248753Y-8071899D02*
X2258277Y-8090947D01*
X2258277Y-8090947D02*
X2267801Y-8129042D01*
X2267801Y-8129042D02*
X2267801Y-8176661D01*
X2267801Y-8176661D02*
X2258277Y-8214756D01*
X2258277Y-8214756D02*
X2248753Y-8233804D01*
X2248753Y-8233804D02*
X2239229Y-8243328D01*
X2239229Y-8243328D02*
X2220182Y-8252851D01*
X2220182Y-8252851D02*
X2201134Y-8252851D01*
X2201134Y-8252851D02*
X2182087Y-8243328D01*
X2182087Y-8243328D02*
X2172563Y-8233804D01*
X2172563Y-8233804D02*
X2163039Y-8214756D01*
X2163039Y-8214756D02*
X2153515Y-8176661D01*
X2153515Y-8176661D02*
X2153515Y-8129042D01*
X2153515Y-8129042D02*
X2163039Y-8090947D01*
X2163039Y-8090947D02*
X2172563Y-8071899D01*
X2172563Y-8071899D02*
X2182087Y-8062375D01*
X2182087Y-8062375D02*
X2201134Y-8052851D01*
X2353515Y-8233804D02*
X2363039Y-8243328D01*
X2363039Y-8243328D02*
X2353515Y-8252851D01*
X2353515Y-8252851D02*
X2343991Y-8243328D01*
X2343991Y-8243328D02*
X2353515Y-8233804D01*
X2353515Y-8233804D02*
X2353515Y-8252851D01*
X2486848Y-8052851D02*
X2505896Y-8052851D01*
X2505896Y-8052851D02*
X2524944Y-8062375D01*
X2524944Y-8062375D02*
X2534468Y-8071899D01*
X2534468Y-8071899D02*
X2543991Y-8090947D01*
X2543991Y-8090947D02*
X2553515Y-8129042D01*
X2553515Y-8129042D02*
X2553515Y-8176661D01*
X2553515Y-8176661D02*
X2543991Y-8214756D01*
X2543991Y-8214756D02*
X2534468Y-8233804D01*
X2534468Y-8233804D02*
X2524944Y-8243328D01*
X2524944Y-8243328D02*
X2505896Y-8252851D01*
X2505896Y-8252851D02*
X2486848Y-8252851D01*
X2486848Y-8252851D02*
X2467801Y-8243328D01*
X2467801Y-8243328D02*
X2458277Y-8233804D01*
X2458277Y-8233804D02*
X2448753Y-8214756D01*
X2448753Y-8214756D02*
X2439229Y-8176661D01*
X2439229Y-8176661D02*
X2439229Y-8129042D01*
X2439229Y-8129042D02*
X2448753Y-8090947D01*
X2448753Y-8090947D02*
X2458277Y-8071899D01*
X2458277Y-8071899D02*
X2467801Y-8062375D01*
X2467801Y-8062375D02*
X2486848Y-8052851D01*
X2734468Y-8052851D02*
X2639229Y-8052851D01*
X2639229Y-8052851D02*
X2629706Y-8148089D01*
X2629706Y-8148089D02*
X2639229Y-8138566D01*
X2639229Y-8138566D02*
X2658277Y-8129042D01*
X2658277Y-8129042D02*
X2705896Y-8129042D01*
X2705896Y-8129042D02*
X2724944Y-8138566D01*
X2724944Y-8138566D02*
X2734468Y-8148089D01*
X2734468Y-8148089D02*
X2743991Y-8167137D01*
X2743991Y-8167137D02*
X2743991Y-8214756D01*
X2743991Y-8214756D02*
X2734468Y-8233804D01*
X2734468Y-8233804D02*
X2724944Y-8243328D01*
X2724944Y-8243328D02*
X2705896Y-8252851D01*
X2705896Y-8252851D02*
X2658277Y-8252851D01*
X2658277Y-8252851D02*
X2639229Y-8243328D01*
X2639229Y-8243328D02*
X2629706Y-8233804D01*
X2924944Y-8052851D02*
X2829706Y-8052851D01*
X2829706Y-8052851D02*
X2820182Y-8148089D01*
X2820182Y-8148089D02*
X2829706Y-8138566D01*
X2829706Y-8138566D02*
X2848753Y-8129042D01*
X2848753Y-8129042D02*
X2896372Y-8129042D01*
X2896372Y-8129042D02*
X2915420Y-8138566D01*
X2915420Y-8138566D02*
X2924944Y-8148089D01*
X2924944Y-8148089D02*
X2934467Y-8167137D01*
X2934467Y-8167137D02*
X2934467Y-8214756D01*
X2934467Y-8214756D02*
X2924944Y-8233804D01*
X2924944Y-8233804D02*
X2915420Y-8243328D01*
X2915420Y-8243328D02*
X2896372Y-8252851D01*
X2896372Y-8252851D02*
X2848753Y-8252851D01*
X2848753Y-8252851D02*
X2829706Y-8243328D01*
X2829706Y-8243328D02*
X2820182Y-8233804D01*
X3124944Y-8252851D02*
X3010658Y-8252851D01*
X3067801Y-8252851D02*
X3067801Y-8052851D01*
X3067801Y-8052851D02*
X3048753Y-8081423D01*
X3048753Y-8081423D02*
X3029706Y-8100470D01*
X3029706Y-8100470D02*
X3010658Y-8109994D01*
X3201134Y-8052851D02*
X3201134Y-8090947D01*
X3277325Y-8052851D02*
X3277325Y-8090947D01*
X3572563Y-8329042D02*
X3563039Y-8319518D01*
X3563039Y-8319518D02*
X3543991Y-8290947D01*
X3543991Y-8290947D02*
X3534468Y-8271899D01*
X3534468Y-8271899D02*
X3524944Y-8243328D01*
X3524944Y-8243328D02*
X3515420Y-8195708D01*
X3515420Y-8195708D02*
X3515420Y-8157613D01*
X3515420Y-8157613D02*
X3524944Y-8109994D01*
X3524944Y-8109994D02*
X3534468Y-8081423D01*
X3534468Y-8081423D02*
X3543991Y-8062375D01*
X3543991Y-8062375D02*
X3563039Y-8033804D01*
X3563039Y-8033804D02*
X3572563Y-8024280D01*
X3753515Y-8252851D02*
X3639229Y-8252851D01*
X3696372Y-8252851D02*
X3696372Y-8052851D01*
X3696372Y-8052851D02*
X3677325Y-8081423D01*
X3677325Y-8081423D02*
X3658277Y-8100470D01*
X3658277Y-8100470D02*
X3639229Y-8109994D01*
X3924944Y-8052851D02*
X3886848Y-8052851D01*
X3886848Y-8052851D02*
X3867801Y-8062375D01*
X3867801Y-8062375D02*
X3858277Y-8071899D01*
X3858277Y-8071899D02*
X3839229Y-8100470D01*
X3839229Y-8100470D02*
X3829706Y-8138566D01*
X3829706Y-8138566D02*
X3829706Y-8214756D01*
X3829706Y-8214756D02*
X3839229Y-8233804D01*
X3839229Y-8233804D02*
X3848753Y-8243328D01*
X3848753Y-8243328D02*
X3867801Y-8252851D01*
X3867801Y-8252851D02*
X3905896Y-8252851D01*
X3905896Y-8252851D02*
X3924944Y-8243328D01*
X3924944Y-8243328D02*
X3934468Y-8233804D01*
X3934468Y-8233804D02*
X3943991Y-8214756D01*
X3943991Y-8214756D02*
X3943991Y-8167137D01*
X3943991Y-8167137D02*
X3934468Y-8148089D01*
X3934468Y-8148089D02*
X3924944Y-8138566D01*
X3924944Y-8138566D02*
X3905896Y-8129042D01*
X3905896Y-8129042D02*
X3867801Y-8129042D01*
X3867801Y-8129042D02*
X3848753Y-8138566D01*
X3848753Y-8138566D02*
X3839229Y-8148089D01*
X3839229Y-8148089D02*
X3829706Y-8167137D01*
X4182087Y-8252851D02*
X4182087Y-8052851D01*
X4267801Y-8252851D02*
X4267801Y-8148089D01*
X4267801Y-8148089D02*
X4258277Y-8129042D01*
X4258277Y-8129042D02*
X4239230Y-8119518D01*
X4239230Y-8119518D02*
X4210658Y-8119518D01*
X4210658Y-8119518D02*
X4191610Y-8129042D01*
X4191610Y-8129042D02*
X4182087Y-8138566D01*
X4391611Y-8252851D02*
X4372563Y-8243328D01*
X4372563Y-8243328D02*
X4363039Y-8233804D01*
X4363039Y-8233804D02*
X4353515Y-8214756D01*
X4353515Y-8214756D02*
X4353515Y-8157613D01*
X4353515Y-8157613D02*
X4363039Y-8138566D01*
X4363039Y-8138566D02*
X4372563Y-8129042D01*
X4372563Y-8129042D02*
X4391611Y-8119518D01*
X4391611Y-8119518D02*
X4420182Y-8119518D01*
X4420182Y-8119518D02*
X4439230Y-8129042D01*
X4439230Y-8129042D02*
X4448753Y-8138566D01*
X4448753Y-8138566D02*
X4458277Y-8157613D01*
X4458277Y-8157613D02*
X4458277Y-8214756D01*
X4458277Y-8214756D02*
X4448753Y-8233804D01*
X4448753Y-8233804D02*
X4439230Y-8243328D01*
X4439230Y-8243328D02*
X4420182Y-8252851D01*
X4420182Y-8252851D02*
X4391611Y-8252851D01*
X4572563Y-8252851D02*
X4553515Y-8243328D01*
X4553515Y-8243328D02*
X4543992Y-8224280D01*
X4543992Y-8224280D02*
X4543992Y-8052851D01*
X4724944Y-8243328D02*
X4705896Y-8252851D01*
X4705896Y-8252851D02*
X4667801Y-8252851D01*
X4667801Y-8252851D02*
X4648753Y-8243328D01*
X4648753Y-8243328D02*
X4639230Y-8224280D01*
X4639230Y-8224280D02*
X4639230Y-8148089D01*
X4639230Y-8148089D02*
X4648753Y-8129042D01*
X4648753Y-8129042D02*
X4667801Y-8119518D01*
X4667801Y-8119518D02*
X4705896Y-8119518D01*
X4705896Y-8119518D02*
X4724944Y-8129042D01*
X4724944Y-8129042D02*
X4734468Y-8148089D01*
X4734468Y-8148089D02*
X4734468Y-8167137D01*
X4734468Y-8167137D02*
X4639230Y-8186185D01*
X4810658Y-8243328D02*
X4829706Y-8252851D01*
X4829706Y-8252851D02*
X4867801Y-8252851D01*
X4867801Y-8252851D02*
X4886849Y-8243328D01*
X4886849Y-8243328D02*
X4896373Y-8224280D01*
X4896373Y-8224280D02*
X4896373Y-8214756D01*
X4896373Y-8214756D02*
X4886849Y-8195708D01*
X4886849Y-8195708D02*
X4867801Y-8186185D01*
X4867801Y-8186185D02*
X4839230Y-8186185D01*
X4839230Y-8186185D02*
X4820182Y-8176661D01*
X4820182Y-8176661D02*
X4810658Y-8157613D01*
X4810658Y-8157613D02*
X4810658Y-8148089D01*
X4810658Y-8148089D02*
X4820182Y-8129042D01*
X4820182Y-8129042D02*
X4839230Y-8119518D01*
X4839230Y-8119518D02*
X4867801Y-8119518D01*
X4867801Y-8119518D02*
X4886849Y-8129042D01*
X4963039Y-8329042D02*
X4972563Y-8319518D01*
X4972563Y-8319518D02*
X4991611Y-8290947D01*
X4991611Y-8290947D02*
X5001134Y-8271899D01*
X5001134Y-8271899D02*
X5010658Y-8243328D01*
X5010658Y-8243328D02*
X5020182Y-8195708D01*
X5020182Y-8195708D02*
X5020182Y-8157613D01*
X5020182Y-8157613D02*
X5010658Y-8109994D01*
X5010658Y-8109994D02*
X5001134Y-8081423D01*
X5001134Y-8081423D02*
X4991611Y-8062375D01*
X4991611Y-8062375D02*
X4972563Y-8033804D01*
X4972563Y-8033804D02*
X4963039Y-8024280D01*
D15*
X-192500Y-8330368D02*
X-2500Y-8520368D01*
X-2500Y-8330368D02*
X-192500Y-8520368D01*
X-2500Y-8425368D02*
G75*
G02*
X-192500Y-8425368I-95000J0D01*
G01*
X-192500Y-8425368D02*
G75*
G02*
X-2500Y-8425368I95000J0D01*
G01*
D11*
X363039Y-8516851D02*
X248753Y-8516851D01*
X305896Y-8516851D02*
X305896Y-8316851D01*
X305896Y-8316851D02*
X286848Y-8345423D01*
X286848Y-8345423D02*
X267801Y-8364470D01*
X267801Y-8364470D02*
X248753Y-8373994D01*
X448753Y-8497804D02*
X458277Y-8507328D01*
X458277Y-8507328D02*
X448753Y-8516851D01*
X448753Y-8516851D02*
X439229Y-8507328D01*
X439229Y-8507328D02*
X448753Y-8497804D01*
X448753Y-8497804D02*
X448753Y-8516851D01*
X553515Y-8516851D02*
X591610Y-8516851D01*
X591610Y-8516851D02*
X610658Y-8507328D01*
X610658Y-8507328D02*
X620182Y-8497804D01*
X620182Y-8497804D02*
X639229Y-8469232D01*
X639229Y-8469232D02*
X648753Y-8431137D01*
X648753Y-8431137D02*
X648753Y-8354947D01*
X648753Y-8354947D02*
X639229Y-8335899D01*
X639229Y-8335899D02*
X629705Y-8326375D01*
X629705Y-8326375D02*
X610658Y-8316851D01*
X610658Y-8316851D02*
X572563Y-8316851D01*
X572563Y-8316851D02*
X553515Y-8326375D01*
X553515Y-8326375D02*
X543991Y-8335899D01*
X543991Y-8335899D02*
X534467Y-8354947D01*
X534467Y-8354947D02*
X534467Y-8402566D01*
X534467Y-8402566D02*
X543991Y-8421613D01*
X543991Y-8421613D02*
X553515Y-8431137D01*
X553515Y-8431137D02*
X572563Y-8440661D01*
X572563Y-8440661D02*
X610658Y-8440661D01*
X610658Y-8440661D02*
X629705Y-8431137D01*
X629705Y-8431137D02*
X639229Y-8421613D01*
X639229Y-8421613D02*
X648753Y-8402566D01*
X772562Y-8316851D02*
X791610Y-8316851D01*
X791610Y-8316851D02*
X810658Y-8326375D01*
X810658Y-8326375D02*
X820182Y-8335899D01*
X820182Y-8335899D02*
X829705Y-8354947D01*
X829705Y-8354947D02*
X839229Y-8393042D01*
X839229Y-8393042D02*
X839229Y-8440661D01*
X839229Y-8440661D02*
X829705Y-8478756D01*
X829705Y-8478756D02*
X820182Y-8497804D01*
X820182Y-8497804D02*
X810658Y-8507328D01*
X810658Y-8507328D02*
X791610Y-8516851D01*
X791610Y-8516851D02*
X772562Y-8516851D01*
X772562Y-8516851D02*
X753515Y-8507328D01*
X753515Y-8507328D02*
X743991Y-8497804D01*
X743991Y-8497804D02*
X734467Y-8478756D01*
X734467Y-8478756D02*
X724943Y-8440661D01*
X724943Y-8440661D02*
X724943Y-8393042D01*
X724943Y-8393042D02*
X734467Y-8354947D01*
X734467Y-8354947D02*
X743991Y-8335899D01*
X743991Y-8335899D02*
X753515Y-8326375D01*
X753515Y-8326375D02*
X772562Y-8316851D01*
X963039Y-8316851D02*
X982086Y-8316851D01*
X982086Y-8316851D02*
X1001134Y-8326375D01*
X1001134Y-8326375D02*
X1010658Y-8335899D01*
X1010658Y-8335899D02*
X1020182Y-8354947D01*
X1020182Y-8354947D02*
X1029705Y-8393042D01*
X1029705Y-8393042D02*
X1029705Y-8440661D01*
X1029705Y-8440661D02*
X1020182Y-8478756D01*
X1020182Y-8478756D02*
X1010658Y-8497804D01*
X1010658Y-8497804D02*
X1001134Y-8507328D01*
X1001134Y-8507328D02*
X982086Y-8516851D01*
X982086Y-8516851D02*
X963039Y-8516851D01*
X963039Y-8516851D02*
X943991Y-8507328D01*
X943991Y-8507328D02*
X934467Y-8497804D01*
X934467Y-8497804D02*
X924943Y-8478756D01*
X924943Y-8478756D02*
X915420Y-8440661D01*
X915420Y-8440661D02*
X915420Y-8393042D01*
X915420Y-8393042D02*
X924943Y-8354947D01*
X924943Y-8354947D02*
X934467Y-8335899D01*
X934467Y-8335899D02*
X943991Y-8326375D01*
X943991Y-8326375D02*
X963039Y-8316851D01*
X1115420Y-8516851D02*
X1115420Y-8383518D01*
X1115420Y-8402566D02*
X1124944Y-8393042D01*
X1124944Y-8393042D02*
X1143991Y-8383518D01*
X1143991Y-8383518D02*
X1172563Y-8383518D01*
X1172563Y-8383518D02*
X1191610Y-8393042D01*
X1191610Y-8393042D02*
X1201134Y-8412090D01*
X1201134Y-8412090D02*
X1201134Y-8516851D01*
X1201134Y-8412090D02*
X1210658Y-8393042D01*
X1210658Y-8393042D02*
X1229705Y-8383518D01*
X1229705Y-8383518D02*
X1258277Y-8383518D01*
X1258277Y-8383518D02*
X1277325Y-8393042D01*
X1277325Y-8393042D02*
X1286848Y-8412090D01*
X1286848Y-8412090D02*
X1286848Y-8516851D01*
X1382086Y-8516851D02*
X1382086Y-8383518D01*
X1382086Y-8402566D02*
X1391610Y-8393042D01*
X1391610Y-8393042D02*
X1410658Y-8383518D01*
X1410658Y-8383518D02*
X1439229Y-8383518D01*
X1439229Y-8383518D02*
X1458277Y-8393042D01*
X1458277Y-8393042D02*
X1467801Y-8412090D01*
X1467801Y-8412090D02*
X1467801Y-8516851D01*
X1467801Y-8412090D02*
X1477324Y-8393042D01*
X1477324Y-8393042D02*
X1496372Y-8383518D01*
X1496372Y-8383518D02*
X1524943Y-8383518D01*
X1524943Y-8383518D02*
X1543991Y-8393042D01*
X1543991Y-8393042D02*
X1553515Y-8412090D01*
X1553515Y-8412090D02*
X1553515Y-8516851D01*
X1943991Y-8307328D02*
X1772563Y-8564470D01*
X2201134Y-8316851D02*
X2220182Y-8316851D01*
X2220182Y-8316851D02*
X2239229Y-8326375D01*
X2239229Y-8326375D02*
X2248753Y-8335899D01*
X2248753Y-8335899D02*
X2258277Y-8354947D01*
X2258277Y-8354947D02*
X2267801Y-8393042D01*
X2267801Y-8393042D02*
X2267801Y-8440661D01*
X2267801Y-8440661D02*
X2258277Y-8478756D01*
X2258277Y-8478756D02*
X2248753Y-8497804D01*
X2248753Y-8497804D02*
X2239229Y-8507328D01*
X2239229Y-8507328D02*
X2220182Y-8516851D01*
X2220182Y-8516851D02*
X2201134Y-8516851D01*
X2201134Y-8516851D02*
X2182087Y-8507328D01*
X2182087Y-8507328D02*
X2172563Y-8497804D01*
X2172563Y-8497804D02*
X2163039Y-8478756D01*
X2163039Y-8478756D02*
X2153515Y-8440661D01*
X2153515Y-8440661D02*
X2153515Y-8393042D01*
X2153515Y-8393042D02*
X2163039Y-8354947D01*
X2163039Y-8354947D02*
X2172563Y-8335899D01*
X2172563Y-8335899D02*
X2182087Y-8326375D01*
X2182087Y-8326375D02*
X2201134Y-8316851D01*
X2353515Y-8497804D02*
X2363039Y-8507328D01*
X2363039Y-8507328D02*
X2353515Y-8516851D01*
X2353515Y-8516851D02*
X2343991Y-8507328D01*
X2343991Y-8507328D02*
X2353515Y-8497804D01*
X2353515Y-8497804D02*
X2353515Y-8516851D01*
X2486848Y-8316851D02*
X2505896Y-8316851D01*
X2505896Y-8316851D02*
X2524944Y-8326375D01*
X2524944Y-8326375D02*
X2534468Y-8335899D01*
X2534468Y-8335899D02*
X2543991Y-8354947D01*
X2543991Y-8354947D02*
X2553515Y-8393042D01*
X2553515Y-8393042D02*
X2553515Y-8440661D01*
X2553515Y-8440661D02*
X2543991Y-8478756D01*
X2543991Y-8478756D02*
X2534468Y-8497804D01*
X2534468Y-8497804D02*
X2524944Y-8507328D01*
X2524944Y-8507328D02*
X2505896Y-8516851D01*
X2505896Y-8516851D02*
X2486848Y-8516851D01*
X2486848Y-8516851D02*
X2467801Y-8507328D01*
X2467801Y-8507328D02*
X2458277Y-8497804D01*
X2458277Y-8497804D02*
X2448753Y-8478756D01*
X2448753Y-8478756D02*
X2439229Y-8440661D01*
X2439229Y-8440661D02*
X2439229Y-8393042D01*
X2439229Y-8393042D02*
X2448753Y-8354947D01*
X2448753Y-8354947D02*
X2458277Y-8335899D01*
X2458277Y-8335899D02*
X2467801Y-8326375D01*
X2467801Y-8326375D02*
X2486848Y-8316851D01*
X2620182Y-8316851D02*
X2753515Y-8316851D01*
X2753515Y-8316851D02*
X2667801Y-8516851D01*
X2915420Y-8383518D02*
X2915420Y-8516851D01*
X2867801Y-8307328D02*
X2820182Y-8450185D01*
X2820182Y-8450185D02*
X2943991Y-8450185D01*
X3048753Y-8402566D02*
X3029706Y-8393042D01*
X3029706Y-8393042D02*
X3020182Y-8383518D01*
X3020182Y-8383518D02*
X3010658Y-8364470D01*
X3010658Y-8364470D02*
X3010658Y-8354947D01*
X3010658Y-8354947D02*
X3020182Y-8335899D01*
X3020182Y-8335899D02*
X3029706Y-8326375D01*
X3029706Y-8326375D02*
X3048753Y-8316851D01*
X3048753Y-8316851D02*
X3086848Y-8316851D01*
X3086848Y-8316851D02*
X3105896Y-8326375D01*
X3105896Y-8326375D02*
X3115420Y-8335899D01*
X3115420Y-8335899D02*
X3124944Y-8354947D01*
X3124944Y-8354947D02*
X3124944Y-8364470D01*
X3124944Y-8364470D02*
X3115420Y-8383518D01*
X3115420Y-8383518D02*
X3105896Y-8393042D01*
X3105896Y-8393042D02*
X3086848Y-8402566D01*
X3086848Y-8402566D02*
X3048753Y-8402566D01*
X3048753Y-8402566D02*
X3029706Y-8412090D01*
X3029706Y-8412090D02*
X3020182Y-8421613D01*
X3020182Y-8421613D02*
X3010658Y-8440661D01*
X3010658Y-8440661D02*
X3010658Y-8478756D01*
X3010658Y-8478756D02*
X3020182Y-8497804D01*
X3020182Y-8497804D02*
X3029706Y-8507328D01*
X3029706Y-8507328D02*
X3048753Y-8516851D01*
X3048753Y-8516851D02*
X3086848Y-8516851D01*
X3086848Y-8516851D02*
X3105896Y-8507328D01*
X3105896Y-8507328D02*
X3115420Y-8497804D01*
X3115420Y-8497804D02*
X3124944Y-8478756D01*
X3124944Y-8478756D02*
X3124944Y-8440661D01*
X3124944Y-8440661D02*
X3115420Y-8421613D01*
X3115420Y-8421613D02*
X3105896Y-8412090D01*
X3105896Y-8412090D02*
X3086848Y-8402566D01*
X3201134Y-8316851D02*
X3201134Y-8354947D01*
X3277325Y-8316851D02*
X3277325Y-8354947D01*
X3572563Y-8593042D02*
X3563039Y-8583518D01*
X3563039Y-8583518D02*
X3543991Y-8554947D01*
X3543991Y-8554947D02*
X3534468Y-8535899D01*
X3534468Y-8535899D02*
X3524944Y-8507328D01*
X3524944Y-8507328D02*
X3515420Y-8459709D01*
X3515420Y-8459709D02*
X3515420Y-8421613D01*
X3515420Y-8421613D02*
X3524944Y-8373994D01*
X3524944Y-8373994D02*
X3534468Y-8345423D01*
X3534468Y-8345423D02*
X3543991Y-8326375D01*
X3543991Y-8326375D02*
X3563039Y-8297804D01*
X3563039Y-8297804D02*
X3572563Y-8288280D01*
X3639229Y-8335899D02*
X3648753Y-8326375D01*
X3648753Y-8326375D02*
X3667801Y-8316851D01*
X3667801Y-8316851D02*
X3715420Y-8316851D01*
X3715420Y-8316851D02*
X3734468Y-8326375D01*
X3734468Y-8326375D02*
X3743991Y-8335899D01*
X3743991Y-8335899D02*
X3753515Y-8354947D01*
X3753515Y-8354947D02*
X3753515Y-8373994D01*
X3753515Y-8373994D02*
X3743991Y-8402566D01*
X3743991Y-8402566D02*
X3629706Y-8516851D01*
X3629706Y-8516851D02*
X3753515Y-8516851D01*
X3991610Y-8516851D02*
X3991610Y-8316851D01*
X4077325Y-8516851D02*
X4077325Y-8412090D01*
X4077325Y-8412090D02*
X4067801Y-8393042D01*
X4067801Y-8393042D02*
X4048753Y-8383518D01*
X4048753Y-8383518D02*
X4020182Y-8383518D01*
X4020182Y-8383518D02*
X4001134Y-8393042D01*
X4001134Y-8393042D02*
X3991610Y-8402566D01*
X4201134Y-8516851D02*
X4182087Y-8507328D01*
X4182087Y-8507328D02*
X4172563Y-8497804D01*
X4172563Y-8497804D02*
X4163039Y-8478756D01*
X4163039Y-8478756D02*
X4163039Y-8421613D01*
X4163039Y-8421613D02*
X4172563Y-8402566D01*
X4172563Y-8402566D02*
X4182087Y-8393042D01*
X4182087Y-8393042D02*
X4201134Y-8383518D01*
X4201134Y-8383518D02*
X4229706Y-8383518D01*
X4229706Y-8383518D02*
X4248753Y-8393042D01*
X4248753Y-8393042D02*
X4258277Y-8402566D01*
X4258277Y-8402566D02*
X4267801Y-8421613D01*
X4267801Y-8421613D02*
X4267801Y-8478756D01*
X4267801Y-8478756D02*
X4258277Y-8497804D01*
X4258277Y-8497804D02*
X4248753Y-8507328D01*
X4248753Y-8507328D02*
X4229706Y-8516851D01*
X4229706Y-8516851D02*
X4201134Y-8516851D01*
X4382087Y-8516851D02*
X4363039Y-8507328D01*
X4363039Y-8507328D02*
X4353515Y-8488280D01*
X4353515Y-8488280D02*
X4353515Y-8316851D01*
X4534468Y-8507328D02*
X4515420Y-8516851D01*
X4515420Y-8516851D02*
X4477325Y-8516851D01*
X4477325Y-8516851D02*
X4458277Y-8507328D01*
X4458277Y-8507328D02*
X4448753Y-8488280D01*
X4448753Y-8488280D02*
X4448753Y-8412090D01*
X4448753Y-8412090D02*
X4458277Y-8393042D01*
X4458277Y-8393042D02*
X4477325Y-8383518D01*
X4477325Y-8383518D02*
X4515420Y-8383518D01*
X4515420Y-8383518D02*
X4534468Y-8393042D01*
X4534468Y-8393042D02*
X4543992Y-8412090D01*
X4543992Y-8412090D02*
X4543992Y-8431137D01*
X4543992Y-8431137D02*
X4448753Y-8450185D01*
X4620182Y-8507328D02*
X4639230Y-8516851D01*
X4639230Y-8516851D02*
X4677325Y-8516851D01*
X4677325Y-8516851D02*
X4696373Y-8507328D01*
X4696373Y-8507328D02*
X4705896Y-8488280D01*
X4705896Y-8488280D02*
X4705896Y-8478756D01*
X4705896Y-8478756D02*
X4696373Y-8459709D01*
X4696373Y-8459709D02*
X4677325Y-8450185D01*
X4677325Y-8450185D02*
X4648753Y-8450185D01*
X4648753Y-8450185D02*
X4629706Y-8440661D01*
X4629706Y-8440661D02*
X4620182Y-8421613D01*
X4620182Y-8421613D02*
X4620182Y-8412090D01*
X4620182Y-8412090D02*
X4629706Y-8393042D01*
X4629706Y-8393042D02*
X4648753Y-8383518D01*
X4648753Y-8383518D02*
X4677325Y-8383518D01*
X4677325Y-8383518D02*
X4696373Y-8393042D01*
X4772563Y-8593042D02*
X4782087Y-8583518D01*
X4782087Y-8583518D02*
X4801134Y-8554947D01*
X4801134Y-8554947D02*
X4810658Y-8535899D01*
X4810658Y-8535899D02*
X4820182Y-8507328D01*
X4820182Y-8507328D02*
X4829706Y-8459709D01*
X4829706Y-8459709D02*
X4829706Y-8421613D01*
X4829706Y-8421613D02*
X4820182Y-8373994D01*
X4820182Y-8373994D02*
X4810658Y-8345423D01*
X4810658Y-8345423D02*
X4801134Y-8326375D01*
X4801134Y-8326375D02*
X4782087Y-8297804D01*
X4782087Y-8297804D02*
X4772563Y-8288280D01*
X-202500Y-8635368D02*
X-2500Y-8835368D01*
X-2500Y-8635368D02*
X-202500Y-8835368D01*
X-102500Y-8635368D02*
X-102500Y-8835368D01*
X-202500Y-8735368D02*
X-2500Y-8735368D01*
X248753Y-8645899D02*
X258277Y-8636375D01*
X258277Y-8636375D02*
X277324Y-8626851D01*
X277324Y-8626851D02*
X324944Y-8626851D01*
X324944Y-8626851D02*
X343991Y-8636375D01*
X343991Y-8636375D02*
X353515Y-8645899D01*
X353515Y-8645899D02*
X363039Y-8664947D01*
X363039Y-8664947D02*
X363039Y-8683994D01*
X363039Y-8683994D02*
X353515Y-8712566D01*
X353515Y-8712566D02*
X239229Y-8826851D01*
X239229Y-8826851D02*
X363039Y-8826851D01*
X448753Y-8807804D02*
X458277Y-8817328D01*
X458277Y-8817328D02*
X448753Y-8826851D01*
X448753Y-8826851D02*
X439229Y-8817328D01*
X439229Y-8817328D02*
X448753Y-8807804D01*
X448753Y-8807804D02*
X448753Y-8826851D01*
X582086Y-8626851D02*
X601134Y-8626851D01*
X601134Y-8626851D02*
X620182Y-8636375D01*
X620182Y-8636375D02*
X629705Y-8645899D01*
X629705Y-8645899D02*
X639229Y-8664947D01*
X639229Y-8664947D02*
X648753Y-8703042D01*
X648753Y-8703042D02*
X648753Y-8750661D01*
X648753Y-8750661D02*
X639229Y-8788756D01*
X639229Y-8788756D02*
X629705Y-8807804D01*
X629705Y-8807804D02*
X620182Y-8817328D01*
X620182Y-8817328D02*
X601134Y-8826851D01*
X601134Y-8826851D02*
X582086Y-8826851D01*
X582086Y-8826851D02*
X563039Y-8817328D01*
X563039Y-8817328D02*
X553515Y-8807804D01*
X553515Y-8807804D02*
X543991Y-8788756D01*
X543991Y-8788756D02*
X534467Y-8750661D01*
X534467Y-8750661D02*
X534467Y-8703042D01*
X534467Y-8703042D02*
X543991Y-8664947D01*
X543991Y-8664947D02*
X553515Y-8645899D01*
X553515Y-8645899D02*
X563039Y-8636375D01*
X563039Y-8636375D02*
X582086Y-8626851D01*
X772562Y-8626851D02*
X791610Y-8626851D01*
X791610Y-8626851D02*
X810658Y-8636375D01*
X810658Y-8636375D02*
X820182Y-8645899D01*
X820182Y-8645899D02*
X829705Y-8664947D01*
X829705Y-8664947D02*
X839229Y-8703042D01*
X839229Y-8703042D02*
X839229Y-8750661D01*
X839229Y-8750661D02*
X829705Y-8788756D01*
X829705Y-8788756D02*
X820182Y-8807804D01*
X820182Y-8807804D02*
X810658Y-8817328D01*
X810658Y-8817328D02*
X791610Y-8826851D01*
X791610Y-8826851D02*
X772562Y-8826851D01*
X772562Y-8826851D02*
X753515Y-8817328D01*
X753515Y-8817328D02*
X743991Y-8807804D01*
X743991Y-8807804D02*
X734467Y-8788756D01*
X734467Y-8788756D02*
X724943Y-8750661D01*
X724943Y-8750661D02*
X724943Y-8703042D01*
X724943Y-8703042D02*
X734467Y-8664947D01*
X734467Y-8664947D02*
X743991Y-8645899D01*
X743991Y-8645899D02*
X753515Y-8636375D01*
X753515Y-8636375D02*
X772562Y-8626851D01*
X963039Y-8626851D02*
X982086Y-8626851D01*
X982086Y-8626851D02*
X1001134Y-8636375D01*
X1001134Y-8636375D02*
X1010658Y-8645899D01*
X1010658Y-8645899D02*
X1020182Y-8664947D01*
X1020182Y-8664947D02*
X1029705Y-8703042D01*
X1029705Y-8703042D02*
X1029705Y-8750661D01*
X1029705Y-8750661D02*
X1020182Y-8788756D01*
X1020182Y-8788756D02*
X1010658Y-8807804D01*
X1010658Y-8807804D02*
X1001134Y-8817328D01*
X1001134Y-8817328D02*
X982086Y-8826851D01*
X982086Y-8826851D02*
X963039Y-8826851D01*
X963039Y-8826851D02*
X943991Y-8817328D01*
X943991Y-8817328D02*
X934467Y-8807804D01*
X934467Y-8807804D02*
X924943Y-8788756D01*
X924943Y-8788756D02*
X915420Y-8750661D01*
X915420Y-8750661D02*
X915420Y-8703042D01*
X915420Y-8703042D02*
X924943Y-8664947D01*
X924943Y-8664947D02*
X934467Y-8645899D01*
X934467Y-8645899D02*
X943991Y-8636375D01*
X943991Y-8636375D02*
X963039Y-8626851D01*
X1115420Y-8826851D02*
X1115420Y-8693518D01*
X1115420Y-8712566D02*
X1124944Y-8703042D01*
X1124944Y-8703042D02*
X1143991Y-8693518D01*
X1143991Y-8693518D02*
X1172563Y-8693518D01*
X1172563Y-8693518D02*
X1191610Y-8703042D01*
X1191610Y-8703042D02*
X1201134Y-8722090D01*
X1201134Y-8722090D02*
X1201134Y-8826851D01*
X1201134Y-8722090D02*
X1210658Y-8703042D01*
X1210658Y-8703042D02*
X1229705Y-8693518D01*
X1229705Y-8693518D02*
X1258277Y-8693518D01*
X1258277Y-8693518D02*
X1277325Y-8703042D01*
X1277325Y-8703042D02*
X1286848Y-8722090D01*
X1286848Y-8722090D02*
X1286848Y-8826851D01*
X1382086Y-8826851D02*
X1382086Y-8693518D01*
X1382086Y-8712566D02*
X1391610Y-8703042D01*
X1391610Y-8703042D02*
X1410658Y-8693518D01*
X1410658Y-8693518D02*
X1439229Y-8693518D01*
X1439229Y-8693518D02*
X1458277Y-8703042D01*
X1458277Y-8703042D02*
X1467801Y-8722090D01*
X1467801Y-8722090D02*
X1467801Y-8826851D01*
X1467801Y-8722090D02*
X1477324Y-8703042D01*
X1477324Y-8703042D02*
X1496372Y-8693518D01*
X1496372Y-8693518D02*
X1524943Y-8693518D01*
X1524943Y-8693518D02*
X1543991Y-8703042D01*
X1543991Y-8703042D02*
X1553515Y-8722090D01*
X1553515Y-8722090D02*
X1553515Y-8826851D01*
X1943991Y-8617328D02*
X1772563Y-8874470D01*
X2201134Y-8626851D02*
X2220182Y-8626851D01*
X2220182Y-8626851D02*
X2239229Y-8636375D01*
X2239229Y-8636375D02*
X2248753Y-8645899D01*
X2248753Y-8645899D02*
X2258277Y-8664947D01*
X2258277Y-8664947D02*
X2267801Y-8703042D01*
X2267801Y-8703042D02*
X2267801Y-8750661D01*
X2267801Y-8750661D02*
X2258277Y-8788756D01*
X2258277Y-8788756D02*
X2248753Y-8807804D01*
X2248753Y-8807804D02*
X2239229Y-8817328D01*
X2239229Y-8817328D02*
X2220182Y-8826851D01*
X2220182Y-8826851D02*
X2201134Y-8826851D01*
X2201134Y-8826851D02*
X2182087Y-8817328D01*
X2182087Y-8817328D02*
X2172563Y-8807804D01*
X2172563Y-8807804D02*
X2163039Y-8788756D01*
X2163039Y-8788756D02*
X2153515Y-8750661D01*
X2153515Y-8750661D02*
X2153515Y-8703042D01*
X2153515Y-8703042D02*
X2163039Y-8664947D01*
X2163039Y-8664947D02*
X2172563Y-8645899D01*
X2172563Y-8645899D02*
X2182087Y-8636375D01*
X2182087Y-8636375D02*
X2201134Y-8626851D01*
X2353515Y-8807804D02*
X2363039Y-8817328D01*
X2363039Y-8817328D02*
X2353515Y-8826851D01*
X2353515Y-8826851D02*
X2343991Y-8817328D01*
X2343991Y-8817328D02*
X2353515Y-8807804D01*
X2353515Y-8807804D02*
X2353515Y-8826851D01*
X2486848Y-8626851D02*
X2505896Y-8626851D01*
X2505896Y-8626851D02*
X2524944Y-8636375D01*
X2524944Y-8636375D02*
X2534468Y-8645899D01*
X2534468Y-8645899D02*
X2543991Y-8664947D01*
X2543991Y-8664947D02*
X2553515Y-8703042D01*
X2553515Y-8703042D02*
X2553515Y-8750661D01*
X2553515Y-8750661D02*
X2543991Y-8788756D01*
X2543991Y-8788756D02*
X2534468Y-8807804D01*
X2534468Y-8807804D02*
X2524944Y-8817328D01*
X2524944Y-8817328D02*
X2505896Y-8826851D01*
X2505896Y-8826851D02*
X2486848Y-8826851D01*
X2486848Y-8826851D02*
X2467801Y-8817328D01*
X2467801Y-8817328D02*
X2458277Y-8807804D01*
X2458277Y-8807804D02*
X2448753Y-8788756D01*
X2448753Y-8788756D02*
X2439229Y-8750661D01*
X2439229Y-8750661D02*
X2439229Y-8703042D01*
X2439229Y-8703042D02*
X2448753Y-8664947D01*
X2448753Y-8664947D02*
X2458277Y-8645899D01*
X2458277Y-8645899D02*
X2467801Y-8636375D01*
X2467801Y-8636375D02*
X2486848Y-8626851D01*
X2620182Y-8626851D02*
X2753515Y-8626851D01*
X2753515Y-8626851D02*
X2667801Y-8826851D01*
X2858277Y-8712566D02*
X2839229Y-8703042D01*
X2839229Y-8703042D02*
X2829706Y-8693518D01*
X2829706Y-8693518D02*
X2820182Y-8674470D01*
X2820182Y-8674470D02*
X2820182Y-8664947D01*
X2820182Y-8664947D02*
X2829706Y-8645899D01*
X2829706Y-8645899D02*
X2839229Y-8636375D01*
X2839229Y-8636375D02*
X2858277Y-8626851D01*
X2858277Y-8626851D02*
X2896372Y-8626851D01*
X2896372Y-8626851D02*
X2915420Y-8636375D01*
X2915420Y-8636375D02*
X2924944Y-8645899D01*
X2924944Y-8645899D02*
X2934467Y-8664947D01*
X2934467Y-8664947D02*
X2934467Y-8674470D01*
X2934467Y-8674470D02*
X2924944Y-8693518D01*
X2924944Y-8693518D02*
X2915420Y-8703042D01*
X2915420Y-8703042D02*
X2896372Y-8712566D01*
X2896372Y-8712566D02*
X2858277Y-8712566D01*
X2858277Y-8712566D02*
X2839229Y-8722090D01*
X2839229Y-8722090D02*
X2829706Y-8731613D01*
X2829706Y-8731613D02*
X2820182Y-8750661D01*
X2820182Y-8750661D02*
X2820182Y-8788756D01*
X2820182Y-8788756D02*
X2829706Y-8807804D01*
X2829706Y-8807804D02*
X2839229Y-8817328D01*
X2839229Y-8817328D02*
X2858277Y-8826851D01*
X2858277Y-8826851D02*
X2896372Y-8826851D01*
X2896372Y-8826851D02*
X2915420Y-8817328D01*
X2915420Y-8817328D02*
X2924944Y-8807804D01*
X2924944Y-8807804D02*
X2934467Y-8788756D01*
X2934467Y-8788756D02*
X2934467Y-8750661D01*
X2934467Y-8750661D02*
X2924944Y-8731613D01*
X2924944Y-8731613D02*
X2915420Y-8722090D01*
X2915420Y-8722090D02*
X2896372Y-8712566D01*
X3001134Y-8626851D02*
X3134467Y-8626851D01*
X3134467Y-8626851D02*
X3048753Y-8826851D01*
X3201134Y-8626851D02*
X3201134Y-8664947D01*
X3277325Y-8626851D02*
X3277325Y-8664947D01*
X3572563Y-8903042D02*
X3563039Y-8893518D01*
X3563039Y-8893518D02*
X3543991Y-8864947D01*
X3543991Y-8864947D02*
X3534468Y-8845899D01*
X3534468Y-8845899D02*
X3524944Y-8817328D01*
X3524944Y-8817328D02*
X3515420Y-8769709D01*
X3515420Y-8769709D02*
X3515420Y-8731613D01*
X3515420Y-8731613D02*
X3524944Y-8683994D01*
X3524944Y-8683994D02*
X3534468Y-8655423D01*
X3534468Y-8655423D02*
X3543991Y-8636375D01*
X3543991Y-8636375D02*
X3563039Y-8607804D01*
X3563039Y-8607804D02*
X3572563Y-8598280D01*
X3734468Y-8693518D02*
X3734468Y-8826851D01*
X3686848Y-8617328D02*
X3639229Y-8760185D01*
X3639229Y-8760185D02*
X3763039Y-8760185D01*
X3991610Y-8826851D02*
X3991610Y-8626851D01*
X4077325Y-8826851D02*
X4077325Y-8722090D01*
X4077325Y-8722090D02*
X4067801Y-8703042D01*
X4067801Y-8703042D02*
X4048753Y-8693518D01*
X4048753Y-8693518D02*
X4020182Y-8693518D01*
X4020182Y-8693518D02*
X4001134Y-8703042D01*
X4001134Y-8703042D02*
X3991610Y-8712566D01*
X4201134Y-8826851D02*
X4182087Y-8817328D01*
X4182087Y-8817328D02*
X4172563Y-8807804D01*
X4172563Y-8807804D02*
X4163039Y-8788756D01*
X4163039Y-8788756D02*
X4163039Y-8731613D01*
X4163039Y-8731613D02*
X4172563Y-8712566D01*
X4172563Y-8712566D02*
X4182087Y-8703042D01*
X4182087Y-8703042D02*
X4201134Y-8693518D01*
X4201134Y-8693518D02*
X4229706Y-8693518D01*
X4229706Y-8693518D02*
X4248753Y-8703042D01*
X4248753Y-8703042D02*
X4258277Y-8712566D01*
X4258277Y-8712566D02*
X4267801Y-8731613D01*
X4267801Y-8731613D02*
X4267801Y-8788756D01*
X4267801Y-8788756D02*
X4258277Y-8807804D01*
X4258277Y-8807804D02*
X4248753Y-8817328D01*
X4248753Y-8817328D02*
X4229706Y-8826851D01*
X4229706Y-8826851D02*
X4201134Y-8826851D01*
X4382087Y-8826851D02*
X4363039Y-8817328D01*
X4363039Y-8817328D02*
X4353515Y-8798280D01*
X4353515Y-8798280D02*
X4353515Y-8626851D01*
X4534468Y-8817328D02*
X4515420Y-8826851D01*
X4515420Y-8826851D02*
X4477325Y-8826851D01*
X4477325Y-8826851D02*
X4458277Y-8817328D01*
X4458277Y-8817328D02*
X4448753Y-8798280D01*
X4448753Y-8798280D02*
X4448753Y-8722090D01*
X4448753Y-8722090D02*
X4458277Y-8703042D01*
X4458277Y-8703042D02*
X4477325Y-8693518D01*
X4477325Y-8693518D02*
X4515420Y-8693518D01*
X4515420Y-8693518D02*
X4534468Y-8703042D01*
X4534468Y-8703042D02*
X4543992Y-8722090D01*
X4543992Y-8722090D02*
X4543992Y-8741137D01*
X4543992Y-8741137D02*
X4448753Y-8760185D01*
X4620182Y-8817328D02*
X4639230Y-8826851D01*
X4639230Y-8826851D02*
X4677325Y-8826851D01*
X4677325Y-8826851D02*
X4696373Y-8817328D01*
X4696373Y-8817328D02*
X4705896Y-8798280D01*
X4705896Y-8798280D02*
X4705896Y-8788756D01*
X4705896Y-8788756D02*
X4696373Y-8769709D01*
X4696373Y-8769709D02*
X4677325Y-8760185D01*
X4677325Y-8760185D02*
X4648753Y-8760185D01*
X4648753Y-8760185D02*
X4629706Y-8750661D01*
X4629706Y-8750661D02*
X4620182Y-8731613D01*
X4620182Y-8731613D02*
X4620182Y-8722090D01*
X4620182Y-8722090D02*
X4629706Y-8703042D01*
X4629706Y-8703042D02*
X4648753Y-8693518D01*
X4648753Y-8693518D02*
X4677325Y-8693518D01*
X4677325Y-8693518D02*
X4696373Y-8703042D01*
X4772563Y-8903042D02*
X4782087Y-8893518D01*
X4782087Y-8893518D02*
X4801134Y-8864947D01*
X4801134Y-8864947D02*
X4810658Y-8845899D01*
X4810658Y-8845899D02*
X4820182Y-8817328D01*
X4820182Y-8817328D02*
X4829706Y-8769709D01*
X4829706Y-8769709D02*
X4829706Y-8731613D01*
X4829706Y-8731613D02*
X4820182Y-8683994D01*
X4820182Y-8683994D02*
X4810658Y-8655423D01*
X4810658Y-8655423D02*
X4801134Y-8636375D01*
X4801134Y-8636375D02*
X4782087Y-8607804D01*
X4782087Y-8607804D02*
X4772563Y-8598280D01*
M02*
